<svg xmlns="http://www.w3.org/2000/svg" viewBox="0 0 750 500"><defs><style>.cls-1{isolation:isolate;}.cls-10,.cls-2{fill:#f05623;}.cls-2{opacity:0.5;}.cls-3{opacity:0.15;}.cls-16,.cls-4{fill:#2d71b8;}.cls-14,.cls-4{opacity:0.79;}.cls-5{fill:#b2b2b2;}.cls-14,.cls-6{fill:#d8d6d6;}.cls-7{fill:#bfbfbf;}.cls-12,.cls-15,.cls-18,.cls-21,.cls-25,.cls-26,.cls-28,.cls-8{fill:none;}.cls-8{stroke:#939393;stroke-width:0.98px;}.cls-12,.cls-15,.cls-21,.cls-25,.cls-8{stroke-linecap:round;}.cls-12,.cls-8{stroke-linejoin:round;}.cls-9{fill:#e5451a;}.cls-11{fill:#f4e0c7;}.cls-12{stroke:#bf9182;}.cls-13{fill:#a3a3a3;}.cls-15,.cls-28{stroke:#fefefe;}.cls-15,.cls-18,.cls-21,.cls-25,.cls-26,.cls-28{stroke-miterlimit:10;}.cls-15{stroke-width:1.03px;}.cls-17{fill:#28669b;}.cls-18{stroke:#2d71b8;stroke-width:4px;}.cls-19{fill:#fefefe;}.cls-20,.cls-31,.cls-32{mix-blend-mode:multiply;}.cls-21{stroke:#020202;stroke-width:0.88px;}.cls-22{fill:#d42027;}.cls-23{fill:#e5cfae;}.cls-24{fill:#930217;}.cls-25{stroke:#9e9e9e;}.cls-26{stroke:#f05623;}.cls-27{fill:#0671b8;}.cls-28{stroke-width:0.98px;}.cls-29{fill:#fff;}.cls-30{fill:#bf9182;}.cls-31{fill:#6d3e3b;}.cls-31,.cls-32{opacity:0.32;}</style></defs><g class="cls-1"><g id="OBJECTS"><ellipse class="cls-2" cx="379.53" cy="461.81" rx="316.66" ry="10.08"/><g class="cls-3"><path class="cls-4" d="M307.8,407q-9.56.53-19.17.49c-70.31-.38-153.77-21.28-193.12-65.8-34.4-38.92-51.5-90.88-42.1-137,8.85-43.38,45.83-80.24,101.07-96.6,62.12-18.4,134.13-4.51,194.71-28.24C437.35,45.27,554.06,62,623.33,114.09c61.41,46.2,82.92,125.15,71.21,188-5.91,31.74-26.58,63.17-62.61,81-28.68,14.23-64.58,18.77-99.09,17.47-27.75-1-53.73-6.45-80.73-10.58-21.64-3.31-38.8,0-60.18,4.58C364.42,400.39,336.37,405.45,307.8,407Z"/><circle class="cls-4" cx="658" cy="74.23" r="28.89" transform="translate(432.74 696.92) rotate(-76.55)"/><circle class="cls-4" cx="77.06" cy="112.33" r="16.77" transform="translate(-52.22 69.4) rotate(-37.18)"/></g><polygon class="cls-5" points="328.72 365.66 328.72 366.51 328.72 383.99 328.72 448.43 393.79 448.43 393.79 366.51 399.96 366.51 399.96 448.43 399.96 453.58 393.79 453.58 328.72 453.58 322.54 453.58 322.54 448.43 322.54 383.99 322.54 366.51 322.54 365.66 328.72 365.66"/><rect class="cls-5" x="415.5" y="366.51" width="6.18" height="87.07"/><rect class="cls-5" x="344.26" y="366.51" width="6.18" height="87.07"/><rect class="cls-5" x="344.26" y="448.43" width="77.42" height="5.15"/><rect class="cls-6" x="415.5" y="358.52" width="6.18" height="22.92"/><rect class="cls-6" x="344.26" y="365.66" width="6.18" height="18.33"/><path class="cls-7" d="M415.09,234.23H386.21A20.22,20.22,0,0,0,366,254.11c-.55,30.51-3.75,86.09-19.57,92.68-11.1,4.26-36.28,1.57-36.28,23.19h94.21s31-3.89,31-46.37V254.45A20.22,20.22,0,0,0,415.09,234.23Z"/><path class="cls-8" d="M372.29,240.52s.16,92.89-17.63,106.06-38.31,4.31-38.31,22.9"/><path d="M391.78,363.42a47.3,47.3,0,0,0,22.57-17.53c8.62-12.61,5.59-31.51,5.34-35.47"/><path d="M383.44,319v10H350.73c-16.7,0-30.23,12.81-30.23,28.62v86.23h32.25V364.66H396.1c.72,0,1.44,0,2.15-.06a12.4,12.4,0,0,1,.64-3.93,8.68,8.68,0,0,1,2-3.14c.36-.38.74-.73,1.11-1.11l.27-.3c4.3-10.14,12.72-18.39,14.29-29.67a1.74,1.74,0,0,1,1.32-1.33c.1-2,.09-4.07.29-6.09Z"/><path d="M352.77,443.57v12.05H302.61s-.05-12.05,8.48-12.05Z"/><path d="M401.75,443.57v12.05h-47.9s0-12.05,8.09-12.05Z"/><rect x="369.94" y="347.16" width="31.8" height="96.74"/><path class="cls-9" d="M358,223.64l-3.46,2a23.8,23.8,0,0,0-10.28,13.84l-6.44,23.4-44.33-45.5a2.85,2.85,0,0,0-3.6-.38l-.05,0a2.84,2.84,0,0,0-.57,4.23l4.9,5.63L290.83,231a8.56,8.56,0,0,0,.43,11.24l43.14,45.78a9.49,9.49,0,0,0,15.11-1.75l9.39-16.22Z"/><polygon class="cls-10" points="309.88 262.03 298.73 250.19 312.7 237.06 322.35 246.96 309.88 262.03"/><path class="cls-11" d="M291.26,242.27a8.56,8.56,0,0,1-.43-11.24l3.36-4.16-4.9-5.63a2.84,2.84,0,0,1,.57-4.23l.05,0a2.85,2.85,0,0,1,3.6.38l22,22.62-12.61,14.67Z"/><path class="cls-10" d="M334.17,287.81a11.9,11.9,0,0,1,16.06-2.75l-.72,1.24a9.49,9.49,0,0,1-15.11,1.75Z"/><line class="cls-12" x1="294.53" y1="227.2" x2="299.75" y2="232.28"/><path class="cls-12" d="M304.26,229.07l-7.94,6.54a3.4,3.4,0,0,0-.67,4.55l0,.05a3.4,3.4,0,0,0,5,.67l3.45-3s-1.19,5.87,2.33,10"/><line class="cls-12" x1="291.12" y1="231.45" x2="295.19" y2="237.35"/><path class="cls-10" d="M425.55,232.61a10.46,10.46,0,0,1,.24-1.6,2.23,2.23,0,0,1-2.2-.41c.27.21-.16-.11-.22-.15s-.31-.21-.47-.31-.52-.33-.79-.48c-.55-.32-1.11-.63-1.65-1a10.71,10.71,0,0,1-3.3-2.95A1.65,1.65,0,0,1,417,224c-1.41-.86-2.77-1.79-4.11-2.61-4.82-2.92-9.91-5.25-15.63-5.31a1.88,1.88,0,0,1-1.89-2l-7.56.43a63.26,63.26,0,0,0-24.05,6.3L358,223.67a9.17,9.17,0,0,0-5.1,9L361,329.42l59.1-.48,7.32-94.43A1.83,1.83,0,0,1,425.55,232.61Z"/><path class="cls-10" d="M423.19,223.64l-5.78-2.82a63.24,63.24,0,0,0-22.13-6.12,9.27,9.27,0,0,1,1.13,2.5,1.7,1.7,0,0,1,.42-.1,1.83,1.83,0,0,1,1,.13,2,2,0,0,1,1.21,1.79c0,.16,0,.3-.06.44a2.07,2.07,0,0,1,.62.94,2,2,0,0,1-.2,1.51l-.31.39h0a1.79,1.79,0,0,1-.13.14l-.07.09c-.29.31-.58.63-.84,1-.5.65-1,1.32-1.5,2a1.8,1.8,0,0,1-1,.54,1.9,1.9,0,0,1,.1.61,28.54,28.54,0,0,1-.28,4.33,2,2,0,0,1-3.58.46,13.28,13.28,0,0,0-1.56-2.78c-.05.14-.11.27-.15.41a2,2,0,0,1-3.57.47,8.92,8.92,0,0,1-.88-3.12,4.1,4.1,0,0,1-2.29.5,2,2,0,0,1-2-2c0-.56,0-1.12,0-1.68A23.16,23.16,0,0,1,379,223a2,2,0,0,1-1.17-2.88,19,19,0,0,1,2.24-2.67l-.95.16a64.3,64.3,0,0,0-26.26,10.88,7.62,7.62,0,0,1,.63,2.47l7.59,97.54,59.1.48,8.07-96.39A9.12,9.12,0,0,0,423.19,223.64Z"/><path class="cls-13" d="M437.36,254.6l19.95,43.87h4.2l-22.16-46.9h0A2.15,2.15,0,0,0,437.36,254.6Z"/><rect class="cls-14" x="468.17" y="300.38" width="10.12" height="2.84"/><line class="cls-15" x1="500.81" y1="260.51" x2="455.46" y2="260.51"/><rect class="cls-16" x="657.04" y="277.94" width="22.89" height="27.39"/><rect class="cls-17" x="673.21" y="277.94" width="6.72" height="27.39"/><path class="cls-18" d="M662.27,285.9h-7a5.67,5.67,0,0,0-5.67,5.67v.11a5.66,5.66,0,0,0,5.67,5.66h7"/><path class="cls-10" d="M672.32,272.46s-9.93-6.75-3.55-16.55,4.78-13.21,2.55-16a13.72,13.72,0,0,1,1,17.65C669.09,262.05,668.57,268.11,672.32,272.46Z"/><rect class="cls-5" x="648.94" y="318.48" width="13.96" height="144.87"/><rect class="cls-14" x="648.94" y="318.48" width="13.96" height="19.06"/><path class="cls-14" d="M508.11,251.57H439.52a2.27,2.27,0,0,0-2.07,3.22l19.86,43.68h74.4l-20.38-44.83A3.53,3.53,0,0,0,508.11,251.57Z"/><path class="cls-19" d="M505.15,253.9H446.22a1.49,1.49,0,0,0-1.36,2.11l15.54,34.64a3.54,3.54,0,0,0,3.23,2.09h58.93a1.5,1.5,0,0,0,1.37-2.11L508.39,256A3.55,3.55,0,0,0,505.15,253.9Z"/><rect class="cls-13" x="457.31" y="298.47" width="94.94" height="6.86"/><polygon class="cls-13" points="504.07 256.53 449.83 256.53 459.7 278.37 514.07 278.37 504.07 256.53"/><line class="cls-15" x1="503.09" y1="264.49" x2="457.74" y2="264.49"/><line class="cls-15" x1="505.25" y1="268.48" x2="459.9" y2="268.48"/><line class="cls-15" x1="507.52" y1="272.46" x2="462.17" y2="272.46"/><path d="M557.7,316.65v10.44H525.22a30,30,0,0,0-30,30v90.4h39.4v-83h35.66a44.61,44.61,0,0,0,44.61-44.61v-3.22Z"/><path d="M534.61,447.5v12.29H483.8s0-12.29,8.59-12.29Z"/><path d="M589.79,447.5v12.29H539.48s-.05-12.29,8.5-12.29Z"/><rect x="550.4" y="346.09" width="39.39" height="101.41"/><path class="cls-11" d="M591.08,190.75l1.08,13.36h-18.1l1.08-6.68s-6.25,1.73-9.06.22c6.9-10.34,10.56-13.58,10.56-13.58Z"/><path class="cls-11" d="M574.92,165s-3.88,1.71-6.25,9.2-2.59,10.73-2.59,10.73l4.42,4.53,5.28-6.65,2.8-14Z"/><path class="cls-20" d="M579.23,193.54c1.51-3.22-2.59-7.73-2.59-7.73l-3.06,1.61a124.57,124.57,0,0,0-7.5,10.23c2.81,1.51,9.06-.22,9.06-.22A7,7,0,0,0,579.23,193.54Z"/><path d="M572.55,165l3.23,9.91s-.64,10.05-4.95,10.9-4.75-.88-4.75-.88v12.72s6.47,2.77,8.62-4.11,1.94-7.73,1.94-7.73l2.59,7.73s6.25,2.57,11.85,0,5.82-17.4,6.9-22.7-8.62-9.25-14-10.19S572.33,159.08,572.55,165Z"/><path class="cls-11" d="M578.37,177.39l-1.73,8.42s4,2.14,5.43-1.74S578.37,177.39,578.37,177.39Z"/><path class="cls-21" d="M568.67,174.2a3.06,3.06,0,0,1,1.43,2.13"/><path d="M592.41,192.61c4.32-4.13,4.58-16.93,5.57-21.77,1.08-5.3-8.62-9.25-14-10.19a28.32,28.32,0,0,0-6.61-.55,19.27,19.27,0,0,0,6.18,8.72C590,174.17,593.11,186.32,592.41,192.61Z"/><path class="cls-22" d="M624.22,217.48l7.13,84.43a12.27,12.27,0,0,1-12.22,13.3h-12Z"/><path class="cls-23" d="M568.67,207.82s3.78-8.51,13.4-9,13.56.34,13.56.34l2.43,6.94Z"/><polygon class="cls-24" points="598.06 206.14 624.22 217.48 614.88 326.55 557.7 326.55 546.15 217.39 568.67 207.82 598.06 206.14"/><path class="cls-22" d="M544.54,217.48,525.8,287.39a1.5,1.5,0,0,1-1.45,1.12H507.46a24.68,24.68,0,0,0-22.79,15.19h0a1.51,1.51,0,0,0,1.39,2.08h47.77a14.2,14.2,0,0,0,13.73-10.62L563,235.85a1.28,1.28,0,0,0,0-.27c.11-1.82.91-21-17.18-19.21A1.49,1.49,0,0,0,544.54,217.48Z"/><path class="cls-11" d="M511.91,288.51h-5.45a23.18,23.18,0,0,0-21.4,14.26l-1.26,3h28.11Z"/><polygon class="cls-22" points="552.91 216.89 577.58 207.31 568.67 207.82 544.8 216.49 525.5 288.51 531.54 288.51 552.91 216.89"/><polygon class="cls-5" points="509.1 371.18 509.1 372.07 509.1 390.39 509.1 457.95 577.31 457.95 577.31 372.07 583.79 372.07 583.79 457.95 583.79 463.35 577.31 463.35 509.1 463.35 502.63 463.35 502.63 457.95 502.63 390.39 502.63 372.07 502.63 371.18 509.1 371.18"/><rect class="cls-5" x="600.08" y="372.07" width="6.48" height="91.27"/><rect class="cls-5" x="525.39" y="372.07" width="6.48" height="91.27"/><rect class="cls-5" x="525.39" y="457.95" width="81.16" height="5.4"/><rect class="cls-14" x="600.08" y="371.18" width="6.48" height="19.21"/><rect class="cls-14" x="525.39" y="371.18" width="6.48" height="19.21"/><path class="cls-7" d="M612,233.4H581.71a21.19,21.19,0,0,0-21.19,20.84c-.58,32-3.93,90.25-20.51,97.16-11.65,4.47-38,1.64-38,24.31h98.76s32.46-4.08,32.46-48.62V254.6A21.2,21.2,0,0,0,612,233.4Z"/><path class="cls-25" d="M567.58,239.59s.17,97.65-18.42,111.5-40,4.53-40,24.07"/><rect class="cls-5" x="70.45" y="305.34" width="619.14" height="13.15"/><rect class="cls-5" x="98.85" y="318.48" width="13.96" height="144.87"/><rect class="cls-14" x="98.85" y="318.48" width="13.96" height="19.06"/><path class="cls-26" d="M102.36,299.68S81.72,276.1,119.7,177.45"/><path class="cls-26" d="M106.58,178.08c8.94,10.11,6,20.59,6,20.59s-9.48-5.33-10.34-18.8A2.46,2.46,0,0,1,106.58,178.08Z"/><path class="cls-26" d="M130.73,187.17c-13.39,1.7-18.11,11.5-18.11,11.5s10.63,2.24,20.16-7.32A2.45,2.45,0,0,0,130.73,187.17Z"/><path class="cls-26" d="M96.94,203.26c9.91,9.16,8.07,19.88,8.07,19.88s-10-4.35-12.17-17.66A2.46,2.46,0,0,1,96.94,203.26Z"/><path class="cls-26" d="M121.88,209.88c-13.15,3-16.87,13.26-16.87,13.26s10.81,1.16,19.33-9.3A2.46,2.46,0,0,0,121.88,209.88Z"/><path class="cls-26" d="M90.14,225.53c10.56,8.4,9.52,19.22,9.52,19.22S89.4,241.15,86.22,228A2.45,2.45,0,0,1,90.14,225.53Z"/><path class="cls-26" d="M115.5,230.28c-12.89,4-15.84,14.47-15.84,14.47s10.87.36,18.59-10.71A2.46,2.46,0,0,0,115.5,230.28Z"/><path class="cls-26" d="M130,160.54C128.78,174,119.16,179,119.16,179s-2.61-10.56,6.61-20.41A2.46,2.46,0,0,1,130,160.54Z"/><path class="cls-9" d="M92.66,282.83s-36.57-34.73-26.17-40.6,17.09,10.6,16.39-10.82-17-62.1,2.49-61.55S117.79,250.12,92.66,282.83Z"/><path class="cls-26" d="M85.38,298.6s14.89-21-24.25-98.3"/><path class="cls-26" d="M71.89,199.73c-6.46,9-3.22,17.3-3.22,17.3s7.29-5.13,6.88-16.19A2,2,0,0,0,71.89,199.73Z"/><path class="cls-26" d="M52.94,209.14C64,209.43,68.67,217,68.67,217s-8.5,2.71-17.06-4.3A2,2,0,0,1,52.94,209.14Z"/><path class="cls-26" d="M81.84,219.48c-7.33,8.29-5,16.89-5,16.89S84.66,232,85.37,221A2,2,0,0,0,81.84,219.48Z"/><path class="cls-26" d="M62,226.94c11,1.39,14.85,9.43,14.85,9.43s-8.72,1.84-16.54-6A2,2,0,0,1,62,226.94Z"/><path class="cls-26" d="M89.22,237.09C81.3,244.81,83,253.56,83,253.56s8.08-3.79,9.59-14.75A2,2,0,0,0,89.22,237.09Z"/><path class="cls-26" d="M68.93,243.06c10.84,2.2,14.11,10.5,14.11,10.5s-8.83,1.19-16.05-7.2A2,2,0,0,1,68.93,243.06Z"/><path class="cls-26" d="M51.32,187.36c2.12,10.86,10.39,14.19,10.39,14.19s1.26-8.83-7.08-16.1A2,2,0,0,0,51.32,187.36Z"/><path class="cls-27" d="M82.7,305.34h20.16c5.69-5.16,9.61-14.56,10-25.41H72.75C73.09,290.78,77,300.18,82.7,305.34Z"/><path class="cls-17" d="M82.06,279.93H72.75c.34,10.85,4.25,20.25,10,25.41H92C86.32,300.18,82.4,290.78,82.06,279.93Z"/><path class="cls-28" d="M85.37,169.86s18.73,69.57,7.41,110.37"/><path class="cls-6" d="M241,251.57h68.6a2.28,2.28,0,0,1,2.07,3.22l-19.87,43.68h-74.4l20.38-44.83A3.53,3.53,0,0,1,241,251.57Z"/><path class="cls-29" d="M244,253.9h58.93a1.49,1.49,0,0,1,1.36,2.11l-15.54,34.64a3.54,3.54,0,0,1-3.23,2.09H226.57a1.5,1.5,0,0,1-1.37-2.11L240.74,256A3.56,3.56,0,0,1,244,253.9Z"/><rect class="cls-13" x="196.88" y="298.47" width="94.94" height="6.86"/><path class="cls-13" d="M311.77,254.6l-19.95,43.87h-4.2l22.16-46.9h0A2.14,2.14,0,0,1,311.77,254.6Z"/><polygon class="cls-13" points="245.06 256.53 299.3 256.53 289.43 278.37 235.06 278.37 245.06 256.53"/><rect class="cls-14" x="270.83" y="300.38" width="10.12" height="2.84"/><line class="cls-15" x1="248.32" y1="260.51" x2="293.67" y2="260.51"/><line class="cls-15" x1="246.04" y1="264.49" x2="291.39" y2="264.49"/><line class="cls-15" x1="243.88" y1="268.48" x2="289.23" y2="268.48"/><line class="cls-15" x1="241.61" y1="272.46" x2="286.96" y2="272.46"/><path class="cls-11" d="M201.38,180.05s2.25,23.22,0,30.17l-9-.92v10.41H178.51V207.05S170.63,196,170.63,189s5.5-18.28,15.88-17.53A19.21,19.21,0,0,1,201.38,180.05Z"/><path d="M201.38,180.05a19.21,19.21,0,0,0-14.87-8.62c-10.38-.75-15.88,10.5-15.88,17.53s7.88,18.09,7.88,18.09l1.34.25A11,11,0,0,0,191,202.6c1.92-2.93,3.84-6.52,4.36-9.8A28.84,28.84,0,0,1,201.38,180.05Z"/><path class="cls-20" d="M191,172.27a20.51,20.51,0,0,0-4.47-.84c-10.38-.75-15.88,10.5-15.88,17.53,0,2.86,1.3,6.39,2.85,9.56C187.27,194.69,190.33,180,191,172.27Z"/><path class="cls-11" d="M197.63,198.71a2.62,2.62,0,0,1-2.63,2.62h0a2.62,2.62,0,0,1-2.62-2.62V192.6A2.62,2.62,0,0,1,195,190h0a2.63,2.63,0,0,1,2.63,2.63Z"/><path class="cls-17" d="M182.18,175.63a5.78,5.78,0,1,1-5.78-5.77A5.77,5.77,0,0,1,182.18,175.63Z"/><path d="M172.8,177.21s-9.62,5.5-7.15,31.34c-10.72-16.77-12.37-40.14-1.92-44.53S175.87,173.87,172.8,177.21Z"/><path class="cls-30" d="M201.38,210.22s-9-5.28-9-.92Z"/><path d="M168.16,163.23a8.73,8.73,0,0,0-4.43.79c-5.81,2.44-7.87,10.75-6.72,20.53C163.4,180.67,166.73,169.58,168.16,163.23Z"/><path d="M225.76,361v86.5s7.7,4.76,7.7,11.36H195V361S221,357.33,225.76,361Z"/><path d="M238.44,458.86c0-3.78-2.85-7-5.29-9a10.32,10.32,0,0,0-6.62-2.38H195v11.36Z"/><path d="M271.21,361v86.5s7.7,4.76,7.7,11.36H240.42V361S266.45,357.33,271.21,361Z"/><path d="M284.91,458.86c0-3.13-2-5.85-4.11-7.84a12.85,12.85,0,0,0-8.86-3.52H240.42v11.36Z"/><path class="cls-31" d="M255.45,453.18c0-39.28,9.73-63.38,15.76-74.56V361c-4.76-3.67-30.79,0-30.79,0v92.18Z"/><path class="cls-32" d="M210,453.18c0-39.28,9.73-63.38,15.76-74.56V361C221,357.33,195,361,195,361v92.18Z"/><path d="M213.49,327.09l47.83,10.82s9.89,5.13,9.89,23.09c-11.36,0-30.06,4.76-46.73,11.36s-52.23,3.67-59.19-10.63-4.58-34.64-4.58-34.64Z"/><path class="cls-11" d="M156.7,226.48s-7.5,1.46-9.49,14.65-4,64.17-4,64.17h20.4Z"/><path class="cls-17" d="M176.4,215.6s14.69-1.21,18.6,1.26,4.19,5.62,4.19,5.62h-25Z"/><path class="cls-27" d="M199.19,222.48l19.24,6.08-4.94,98.53s-32.44,11.55-52.78,0c-8.8-88-4-100.61-4-100.61l17.47-4Z"/><path class="cls-17" d="M217.35,250.08l-9.08-7.85s-1.74,45.29,6.16,66.15Z"/><path class="cls-11" d="M218.43,228.56s7.14,4.11,10.87,24.26,6.47,37.81,6.47,37.81l30.84,1.83s8.71,1.65,8.71,12.84H226.54a8.59,8.59,0,0,1-8.46-7.07l-9.68-53.91S206.32,230.67,218.43,228.56Z"/><polygon class="cls-5" points="248.32 371.18 248.32 372.07 248.32 390.39 248.32 457.95 180.11 457.95 180.11 372.07 173.64 372.07 173.64 457.95 173.64 463.35 180.11 463.35 248.32 463.35 254.8 463.35 254.8 457.95 254.8 390.39 254.8 372.07 254.8 371.18 248.32 371.18"/><rect class="cls-5" x="150.88" y="372.07" width="6.48" height="91.27"/><rect class="cls-5" x="225.56" y="372.07" width="6.48" height="91.27"/><rect class="cls-5" x="150.88" y="457.95" width="81.16" height="5.4"/><rect class="cls-14" x="150.88" y="371.18" width="6.48" height="19.21"/><rect class="cls-14" x="225.56" y="371.18" width="6.48" height="19.21"/><path class="cls-7" d="M145.44,233.4h30.27a21.21,21.21,0,0,1,21.2,20.84c.58,32,3.92,90.25,20.51,97.16,11.64,4.47,38,1.64,38,24.31H156.7s-32.46-4.08-32.46-48.62V254.6A21.2,21.2,0,0,1,145.44,233.4Z"/><path class="cls-8" d="M189.8,239.49s-.17,97.74,18.44,111.6,40.08,4.54,40.08,24.1"/><path class="cls-30" d="M197,197.83a2,2,0,0,1-2,2h0a2,2,0,0,1-1.95-2v-4.56a2,2,0,0,1,1.95-2h0a2,2,0,0,1,2,2Z"/><path class="cls-27" d="M198.69,199.79a2.13,2.13,0,1,1-2.13-2.13A2.12,2.12,0,0,1,198.69,199.79Z"/><rect class="cls-27" x="91.35" y="279.93" width="2.85" height="1.78"/><path d="M386.59,172.63h-2.95a5.8,5.8,0,0,0-5.8,5.8v12.65h8.05Z"/><path d="M382.75,178.78s1.81-8.35,8.84-8.35h5.9a4.87,4.87,0,0,1,4.87,4.86v17.77H387.2Z"/><polygon class="cls-11" points="396.64 216.54 390.15 222.47 383.54 216.54 383.54 201.64 396.64 201.64 396.64 216.54"/><path class="cls-30" d="M383.54,201.64v10.61c10,0,13.1-7.54,13.1-7.54l-9.31-3.07Z"/><circle class="cls-30" cx="399.78" cy="192.01" r="3.9"/><circle class="cls-11" cx="380.45" cy="192.01" r="3.9"/><path class="cls-11" d="M392.8,177.24h-5.38a7.91,7.91,0,0,0-7.91,7.91v8.2a17.1,17.1,0,0,0,7.16,14.15,5,5,0,0,0,6.88,0,17.11,17.11,0,0,0,7.17-14.15v-8.2A7.92,7.92,0,0,0,392.8,177.24Z"/><path d="M386.33,189c0,.76-.46,1.37-1,1.37s-1-.61-1-1.37.46-1.36,1-1.36A1.23,1.23,0,0,1,386.33,189Z"/><path d="M395.9,189c0,.76-.46,1.37-1,1.37s-1-.61-1-1.37.46-1.36,1-1.36A1.23,1.23,0,0,1,395.9,189Z"/><path d="M382.64,186.18a3.58,3.58,0,0,1,.86-.92,1.73,1.73,0,0,1,1.12-.32,3,3,0,0,1,2.06.85c.35.34.88-.19.53-.53a3.82,3.82,0,0,0-2.66-1.07,2.31,2.31,0,0,0-1.42.43A4.57,4.57,0,0,0,382,185.8c-.27.4.38.78.65.38Z"/><path d="M393.06,185.85a3.55,3.55,0,0,1,2.6-1,2.3,2.3,0,0,1,1.88,1.4.37.37,0,0,0,.51.14.39.39,0,0,0,.14-.52,3,3,0,0,0-2.44-1.76,4.34,4.34,0,0,0-3.22,1.18c-.37.31.16.84.53.53Z"/><path class="cls-30" d="M390.46,188.87a4.84,4.84,0,0,0,.14,2.36,11,11,0,0,0,1.23,2.16c.39.67.54,1.5-.17,2a3.38,3.38,0,0,1-2.52.24c-.47-.07-.67.65-.2.72a4.69,4.69,0,0,0,2.8-.14,2,2,0,0,0,1.18-1.91,5.76,5.76,0,0,0-1.21-2.45,4,4,0,0,1-.53-2.79c.09-.48-.64-.68-.72-.2Z"/><path class="cls-30" d="M388.56,199.62a2.35,2.35,0,0,0,2.21,1.34,2.47,2.47,0,0,0,2.3-1.66.37.37,0,0,0-.72-.2,1.73,1.73,0,0,1-1.65,1.11,1.59,1.59,0,0,1-1.49-1,.38.38,0,0,0-.65.38Z"/><path class="cls-11" d="M400.23,218.94c0,2.2-4.53,6.93-10.12,6.93S380,221.14,380,218.94s4.52-4,10.11-4S400.23,216.74,400.23,218.94Z"/><path class="cls-9" d="M415.65,223.15a1.44,1.44,0,0,0-1.23,1.06L396.55,290.9a1.42,1.42,0,0,1-1.38,1.06H379.06a23.53,23.53,0,0,0-19.33,10.12c2.44.34,4.9.57,7.36.73.65-.24,1.3-.48,1.94-.74a1.62,1.62,0,0,1,2.18.93l.9,0h.82c.81-.22,1.63-.43,2.44-.66a1.75,1.75,0,0,1,2,.68h.39a29.77,29.77,0,0,1,6.67-.9,1.73,1.73,0,0,1,1.51.69c9.82-.36,19.65-1,29.46-.42a13.44,13.44,0,0,0,1.88-4.12L432,241.73a1.09,1.09,0,0,0,0-.26C432.14,239.74,432.9,221.41,415.65,223.15Z"/><path class="cls-11" d="M359.74,304.49c.61-.11,1.21-.22,1.82-.3.29-.11.59-.24.89-.34a2,2,0,0,1,2.16.88c.28-.09.57-.17.85-.24a2,2,0,0,1,2.13.85c.92-.36,1.84-.72,2.78-1a1.76,1.76,0,0,1,1.89.54q.81-.08,1.62-.12a32.78,32.78,0,0,1,4.89-1.06,2.16,2.16,0,0,1,2.24,1.13c.49-.05,1-.07,1.48-.08V292.47h-5A21.06,21.06,0,0,0,359,303.74,2,2,0,0,1,359.74,304.49Z"/><rect class="cls-13" x="344.43" y="251.57" width="75.76" height="50.05" rx="2.82"/><rect class="cls-6" x="344.43" y="298.47" width="75.76" height="7.06"/><circle class="cls-6" cx="381.96" cy="276.34" r="3.88"/></g></g></svg>