<svg id="Layer_2" data-name="Layer 2" xmlns="http://www.w3.org/2000/svg" viewBox="0 0 500 500"><defs><style>.cls-1{fill:#ebebeb;}.cls-2{fill:#f5f5f5;}.cls-3{fill:#e0e0e0;}.cls-4{fill:#263238;}.cls-5{fill:#f7e2ca;}.cls-6{fill:#ead1b9;}.cls-7{fill:#eb996e;}.cls-8{fill:#6f4439;}.cls-9{fill:#c69585;}.cls-10{fill:#d8b391;}.cls-11{fill:#455a64;}.cls-12{fill:#020202;}.cls-13{fill:#0671b8;}.cls-14,.cls-19{opacity:0.3;}.cls-15{fill:#f05623;stroke:#d1562b;stroke-miterlimit:10;stroke-width:0.5px;}.cls-16{fill:#fff;}.cls-17{opacity:0.2;}.cls-18{fill:#050505;}</style></defs><path class="cls-1" d="M148.89,85.18a9.17,9.17,0,0,0-3.48,1.68,5,5,0,0,1-1.14.66l-4.53-18.47a2.53,2.53,0,0,0-3.06-1.86l-19.22,4.72.53,2.18a4.26,4.26,0,0,0,.65,1.4A8.24,8.24,0,0,1,120,78.38,8.4,8.4,0,0,1,103.82,83a8.28,8.28,0,0,1-.24-4.2,4.29,4.29,0,0,0,0-1.82l-.38-1.53L83.7,80.13a3.11,3.11,0,0,0-2.28,3.76L85.6,101l-1.33.33-.46.1A10.24,10.24,0,1,0,87,118.35a3.55,3.55,0,0,1,.79-.29l1.7-.42,4.69,19.12A3.11,3.11,0,0,0,97.92,139l53.18-13a2.53,2.53,0,0,0,1.86-3.06l-4.78-19.47a4.55,4.55,0,0,1,1,.12,9.43,9.43,0,1,0-.33-18.4Z"/><path class="cls-1" d="M424.88,230.56a6.35,6.35,0,0,0,2.53.58,2.82,2.82,0,0,1,.87.13l-5.38,11.59a1.7,1.7,0,0,0,.83,2.26l12.06,5.6.63-1.37a2.68,2.68,0,0,0,.25-1,5.53,5.53,0,0,1,.51-2.08,5.65,5.65,0,1,1,8.76,6.69,2.79,2.79,0,0,0-.75,1l-.45,1,12.2,5.72a2.1,2.1,0,0,0,2.78-1l5-10.74.83.38.28.15a6.88,6.88,0,1,0,8.92-9.58,6.9,6.9,0,0,0-3.48-.62,2.55,2.55,0,0,1-.53-.18l-1.07-.49,5.57-12a2.09,2.09,0,0,0-1-2.78l-33.36-15.5a1.72,1.72,0,0,0-2.27.83l-5.67,12.22a3.94,3.94,0,0,1-.5-.5,6.27,6.27,0,0,0-3.23-2.1,6.35,6.35,0,0,0-4.32,11.89Z"/><path class="cls-2" d="M390.91,400.27a6,6,0,0,0,1.53-2,3.5,3.5,0,0,1,.47-.73l8.31,9.48a1.68,1.68,0,0,0,2.37.16l9.87-8.64-1-1.12a2.58,2.58,0,0,0-.81-.62,5.63,5.63,0,0,1-1.67-1.3,5.57,5.57,0,0,1,.7-8,5.63,5.63,0,0,1,7.42.38,5.56,5.56,0,0,1,1.42,2.4,2.89,2.89,0,0,0,.56,1.07l.69.78,10-8.72a2.05,2.05,0,0,0,.19-2.91l-7.69-8.81.68-.6.24-.2a6.68,6.68,0,0,0,3.87-1.65A6.79,6.79,0,1,0,419.17,359a6.67,6.67,0,0,0-1.95,2.9,2.79,2.79,0,0,1-.37.4L416,363l-8.59-9.82a2.07,2.07,0,0,0-2.92-.19l-27.31,23.91a1.68,1.68,0,0,0-.16,2.37l8.75,10a3.54,3.54,0,0,1-.64.25,6.17,6.17,0,0,0-3.19,2.08,6.27,6.27,0,0,0,9,8.64Z"/><path class="cls-1" d="M292.74,439.65a10,10,0,0,0-4.08-.25,5.06,5.06,0,0,1-1.4,0L292.65,420a2.69,2.69,0,0,0-1.87-3.31l-20.22-5.61-.63,2.29a4.28,4.28,0,0,0-.13,1.63,8.81,8.81,0,0,1-.26,3.37,8.91,8.91,0,1,1-15.36-8.16,4.36,4.36,0,0,0,.92-1.69l.45-1.61-20.46-5.75a3.31,3.31,0,0,0-4.07,2.3l-5,18-1.39-.39-.48-.14a10.85,10.85,0,1,0-5.83,17.26,4.4,4.4,0,0,1,.87.15l1.79.49L215.38,459a3.3,3.3,0,0,0,2.3,4.07l55.93,15.52a2.68,2.68,0,0,0,3.31-1.87l5.69-20.48a5.71,5.71,0,0,1,.9.65,9.79,9.79,0,0,0,5.57,2.42,10,10,0,0,0,3.66-19.61Z"/><path class="cls-2" d="M61,370.93a9.21,9.21,0,0,0,3.78.56,4.72,4.72,0,0,1,1.3.09l-6.57,17.63A2.51,2.51,0,0,0,61,392.43l18.34,6.83.77-2.08a4.06,4.06,0,0,0,.25-1.51,8.29,8.29,0,0,1,11.52-7.87,8.39,8.39,0,0,1,4.76,10,8.28,8.28,0,0,1-2.14,3.57,4,4,0,0,0-1,1.5l-.55,1.45,18.56,7a3.07,3.07,0,0,0,4-1.81l6.11-16.34,1.26.48.43.17a10.13,10.13,0,1,0,6.81-15.58,4.46,4.46,0,0,1-.8-.2l-1.63-.61,6.8-18.24a3.08,3.08,0,0,0-1.81-4l-50.75-18.9a2.51,2.51,0,0,0-3.23,1.47l-6.91,18.58a4.65,4.65,0,0,1-.79-.68,9.32,9.32,0,1,0-10,15.24Z"/><path class="cls-3" d="M238.3,266.63a19.36,19.36,0,0,1,9.76,2.14,10.86,10.86,0,0,0,4.43,1.08l4-.09,0-44a7.53,7.53,0,0,0-7.56-7.52l-41.81.15v-.9a11.66,11.66,0,0,1,1.23-5.08,23.15,23.15,0,0,0,2-14.13,23.51,23.51,0,0,0-46.64,4,23.09,23.09,0,0,0,2,9.4,11.59,11.59,0,0,1,1.05,4.7l.24,2H116.6a7.55,7.55,0,0,0-7.56,7.52v43h-3.6a11,11,0,0,1-4.8-1.16A22.66,22.66,0,0,0,87,265.9,22.24,22.24,0,0,0,90.83,310a21.79,21.79,0,0,0,8.89-1.89,11.09,11.09,0,0,1,4.46-1h4.61l.09,52.59a6.15,6.15,0,0,0,6.16,6.13H249.89c3.4,0,6.07-4.28,6.07-7.66v-47.8H250.5a9.88,9.88,0,0,0-3.68.72,20.42,20.42,0,0,1-28-19.66C219.21,281.26,228,267.34,238.3,266.63Z"/><path class="cls-4" d="M238.3,266.63l-.36.05a8.07,8.07,0,0,0-1.06.16,14.32,14.32,0,0,0-3.95,1.4c-3.29,1.68-7.61,5.52-10.86,11.92a28.4,28.4,0,0,0-3.2,11.41,21,21,0,0,0,.93,6.76,20.38,20.38,0,0,0,26.59,12.87,10.57,10.57,0,0,1,4.67-.88h5v.11q0,11.34,0,24.08,0,6.36,0,13.05v10.21a9.41,9.41,0,0,1-.11,1.75,9.17,9.17,0,0,1-.49,1.7,8.87,8.87,0,0,1-1.88,3,5.51,5.51,0,0,1-3.12,1.74c-.62.07-1.21,0-1.81.05H196.9l-68.8,0H119c-1.53,0-3,0-4.6,0a6.33,6.33,0,0,1-5.69-6.47c0-1.55,0-3.1,0-4.65,0-3.11,0-6.24,0-9.38q0-18.84-.07-38.35l.17.16h-2.88c-1,0-1.93,0-2.87.07a11.18,11.18,0,0,0-2.77.71c-.88.37-1.8.77-2.74,1.06a22.13,22.13,0,0,1-22.3-5.42,21.71,21.71,0,0,1-5-7.63c-.17-.49-.39-1-.54-1.45l-.4-1.49a22.31,22.31,0,0,1,18.52-27.55,23.33,23.33,0,0,1,7.32.17,22.15,22.15,0,0,1,3.53,1c.58.21,1.14.43,1.7.69a15.62,15.62,0,0,0,1.64.71c2.25.89,4.7.56,7.09.62l-.17.17v-41a21.09,21.09,0,0,1,.14-3.36,7.34,7.34,0,0,1,1.33-3.1,7.7,7.7,0,0,1,5.72-3.16l50.92,0-.15.17c-.08-.68-.16-1.33-.24-2h0a10.76,10.76,0,0,0-.6-3.55c-.19-.57-.44-1.11-.68-1.68s-.44-1.14-.63-1.72a23.25,23.25,0,0,1-1.12-7.14l.1-1.8c0-.3,0-.6.06-.9l.14-.88c.11-.59.17-1.19.32-1.76l.48-1.72a4.9,4.9,0,0,1,.29-.84l.32-.83A12.94,12.94,0,0,1,166,192l.82-1.56,1-1.47a23.08,23.08,0,0,1,4.77-5l.67-.54.72-.48c.48-.31.95-.63,1.45-.93a27.08,27.08,0,0,1,3.08-1.46,23.4,23.4,0,0,1,9.89-1.62c.55,0,1.11.05,1.66.11l1.63.25A23.73,23.73,0,0,1,203.11,185a23.36,23.36,0,0,1,7.14,22.4,24.69,24.69,0,0,1-2,5.5,11.84,11.84,0,0,0-.85,2.71,14.64,14.64,0,0,0-.18,2.81l-.12-.12,31.81-.1,7.23,0h1.76a17,17,0,0,1,1.75,0,7.66,7.66,0,0,1,3.27,1.1,7.55,7.55,0,0,1,3.56,5.42,28.91,28.91,0,0,1,.08,3.21v3.12c0,16.44-.06,29.51-.08,38.7v.05h-.05c-1.6,0-3.08.1-4.46.07a11.3,11.3,0,0,1-3.71-1,24.57,24.57,0,0,0-5.46-1.94,16.61,16.61,0,0,0-3.4-.36c-.38,0-.66,0-.85,0h-.27s.36,0,1.12-.05a17.07,17.07,0,0,1,3.41.34,24.31,24.31,0,0,1,5.48,1.92,10.94,10.94,0,0,0,3.68,1c1.37,0,2.87-.05,4.46-.08l-.05.05V227.94a28.14,28.14,0,0,0-.08-3.18,7.4,7.4,0,0,0-3.48-5.29,7.56,7.56,0,0,0-3.18-1.07c-.57,0-1.15,0-1.74,0h-1.76l-7.23,0-31.81.13H207v-.12a14.37,14.37,0,0,1,.18-2.85,12.37,12.37,0,0,1,.87-2.77,24.16,24.16,0,0,0,1.95-5.46,23.1,23.1,0,0,0-7.07-22.14,23.5,23.5,0,0,0-11.34-5.66L190,179.3c-.54-.06-1.09-.07-1.63-.11a23,23,0,0,0-9.77,1.61,24.94,24.94,0,0,0-3,1.44c-.49.29-1,.62-1.43.92l-.71.47-.66.54a22.52,22.52,0,0,0-4.71,5l-1,1.45-.81,1.54a11.28,11.28,0,0,0-.7,1.59l-.33.82a5.78,5.78,0,0,0-.28.83l-.47,1.7c-.15.56-.2,1.15-.31,1.73l-.15.88c0,.29,0,.58-.06.88l-.09,1.78A23,23,0,0,0,165,209.4c.19.57.39,1.14.62,1.69s.5,1.12.69,1.71a11.22,11.22,0,0,1,.62,3.64h0c.08.64.16,1.29.25,2l0,.17H167l-50.89,0a7.37,7.37,0,0,0-5.49,3,7.21,7.21,0,0,0-1.27,3,20,20,0,0,0-.13,3.3V241.4q0,13.59,0,27.54v.17h-3.77a10.75,10.75,0,0,1-3.6-.64c-.57-.2-1.14-.48-1.67-.72s-1.11-.48-1.67-.69A22.6,22.6,0,0,0,87.8,266a22,22,0,0,0-18.23,27.14l.4,1.47c.14.48.35.95.53,1.42a21.38,21.38,0,0,0,1.29,2.74,22.19,22.19,0,0,0,14,10.54,21.75,21.75,0,0,0,11.63-.42c.93-.29,1.81-.67,2.72-1a10.87,10.87,0,0,1,2.85-.73,25.93,25.93,0,0,1,2.91-.07h3v.17q0,19.48.06,38.35c0,3.14,0,6.27,0,9.38,0,1.55,0,3.1,0,4.65a6,6,0,0,0,5.39,6.14c1.5.06,3,0,4.57,0H248.67a15,15,0,0,0,1.78,0,5.31,5.31,0,0,0,3-1.66,8.8,8.8,0,0,0,1.82-2.92,7.86,7.86,0,0,0,.59-3.36v-3.44c0-2.29,0-4.54,0-6.77V334.5q0-12.72,0-24.08l.11.1h-4.9a10.45,10.45,0,0,0-4.6.86,20.13,20.13,0,0,1-9,1.23A20.38,20.38,0,0,1,223.14,305a20.11,20.11,0,0,1-3.48-6.58,21.14,21.14,0,0,1-.93-6.81A28.51,28.51,0,0,1,222,280.11c3.27-6.42,7.62-10.25,10.93-11.92a14,14,0,0,1,4-1.38,9.68,9.68,0,0,1,1.06-.15Z"/><path class="cls-2" d="M414.94,268.43a22.51,22.51,0,0,0-9.18,1.95,11.5,11.5,0,0,1-3.07.9V225.06a6.16,6.16,0,0,0-6.17-6.16H348.43v5.45a9.85,9.85,0,0,0,.72,3.68,20.41,20.41,0,0,1-19.78,28,20.59,20.59,0,0,1-19.55-19A20.25,20.25,0,0,1,311.7,227a10.19,10.19,0,0,0,1-4.3V218.9L264,218.74a7.57,7.57,0,0,0-7.57,7.57l0,42.87H253c-.38,0-.76,0-1.14,0a24.89,24.89,0,1,0-2.31,41.73,9.76,9.76,0,0,1,2-.22h4.26V358.5a7.56,7.56,0,0,0,7.57,7.56H396.52a6.16,6.16,0,0,0,6.17-6.16V311.18a12.59,12.59,0,0,1,2.38.88,22.62,22.62,0,0,0,13.8,1.94,23,23,0,0,0-3.93-45.57Z"/><path class="cls-4" d="M414.94,268.43l1.45.06a12.18,12.18,0,0,1,1.78.17l1.14.19a8.42,8.42,0,0,1,1.29.29l1.45.4c.49.17,1,.39,1.55.6l.83.33.84.43a16.18,16.18,0,0,1,1.74,1,23,23,0,0,1,10.73,18c0,.55.07,1.12.08,1.68s-.07,1.15-.1,1.73a8.48,8.48,0,0,1-.06.87c0,.29-.09.58-.13.88s-.09.59-.14.88l-.21.88a22.6,22.6,0,0,1-2.92,6.94,22.82,22.82,0,0,1-13.17,9.88c-.71.22-1.46.33-2.2.5s-1.51.23-2.28.28a23.09,23.09,0,0,1-4.69-.14,22.37,22.37,0,0,1-4.68-1.15,46.22,46.22,0,0,0-4.58-1.79l.13-.11q0,11.24,0,23.8,0,6.28,0,12.87v11.78a8.63,8.63,0,0,1,0,.87,6.42,6.42,0,0,1-.14.86,6.32,6.32,0,0,1-4.83,4.7,8.3,8.3,0,0,1-1.79.13H264.15a12.62,12.62,0,0,1-2.28-.16,8.39,8.39,0,0,1-2.16-.8,7.8,7.8,0,0,1-3.17-3.29,7.11,7.11,0,0,1-.72-2.2,12.83,12.83,0,0,1-.12-2.31V310.65l.16.17h-3.07c-.53,0-1.07,0-1.59,0a9.35,9.35,0,0,0-1.58.2h0a25.07,25.07,0,0,1-10.13,3.19,25.08,25.08,0,0,1-27.36-24.73,26.49,26.49,0,0,1,1.2-7.92,25.2,25.2,0,0,1,3.64-7.09,27.62,27.62,0,0,1,2.59-3l1.47-1.33c.5-.44,1-.81,1.57-1.21a26,26,0,0,1,7-3.55,27.54,27.54,0,0,1,7.75-1.15A24.9,24.9,0,0,1,252,269l-.09,0c1.47.08,3,0,4.45,0l-.16.17q0-13.74,0-27.12,0-6.67,0-13.27v-1.65c0-.54,0-1.09,0-1.65a7.85,7.85,0,0,1,1.06-3.15,7.72,7.72,0,0,1,5.31-3.64,21,21,0,0,1,3.26-.11h3.22l6.4,0,12.62,0,24.55.08h.15v3.58a10.14,10.14,0,0,1-.49,3.41,12.88,12.88,0,0,1-.64,1.59c-.23.5-.43,1-.63,1.55A20.3,20.3,0,0,0,316,250a21.07,21.07,0,0,0,5.14,3.69,20.16,20.16,0,0,0,22.77-3.15,19.64,19.64,0,0,0,3.7-4.54,18.94,18.94,0,0,0,2.22-5.3,20,20,0,0,0-.24-11.1c-.25-.89-.66-1.71-.91-2.61a9.8,9.8,0,0,1-.38-2.74c0-1.81,0-3.61,0-5.39v-.12h47.05c.62,0,1.25,0,1.88,0a6.49,6.49,0,0,1,1.8.49,6.3,6.3,0,0,1,2.75,2.37,6.38,6.38,0,0,1,1,3.4q0,3.48,0,6.78c0,17.54,0,30.89,0,39.4l-.05,0c2.17-.28,3.8-1.33,5.34-1.76a22.84,22.84,0,0,1,3.85-.86,22.6,22.6,0,0,1,2.31-.19h.76l-.76,0a20.56,20.56,0,0,0-2.31.2,23,23,0,0,0-3.83.88c-1.53.43-3.16,1.49-5.35,1.78h-.05v-.05c0-8.51,0-21.86,0-39.4V225.1a6.09,6.09,0,0,0-3.63-5.59,6.32,6.32,0,0,0-1.75-.48c-.61-.05-1.24,0-1.86,0H383.63l-35.2,0,.12-.12v5.39a10,10,0,0,0,.36,2.67c.25.87.66,1.71.92,2.61a20.2,20.2,0,0,1,.25,11.23,19.91,19.91,0,0,1-2.24,5.38A20.47,20.47,0,0,1,321,254a21.45,21.45,0,0,1-5.21-3.74,20.6,20.6,0,0,1-3.86-5.24,20.34,20.34,0,0,1-2-12.95,22,22,0,0,1,.87-3.28c.2-.53.4-1.06.64-1.58a12.41,12.41,0,0,0,.63-1.56,10,10,0,0,0,.47-3.31V218.9l.16.15L288.15,219l-12.63,0-6.39,0H265.9a19.86,19.86,0,0,0-3.19.11,7.4,7.4,0,0,0-6.1,6.5,14.46,14.46,0,0,0-.05,1.62v1.65q0,6.59,0,13.27,0,13.38,0,27.12v.17h-.17c-1.48,0-3,0-4.47,0h0l0,0a24.55,24.55,0,0,0-14.36-4.75,27.61,27.61,0,0,0-7.64,1.14,25.73,25.73,0,0,0-6.94,3.5c-.52.4-1.06.76-1.55,1.19l-1.45,1.32a26.85,26.85,0,0,0-2.55,3,24.66,24.66,0,0,0-3.6,7,26.79,26.79,0,0,0-1.19,7.81,25.52,25.52,0,0,0,1.36,7.83,25.11,25.11,0,0,0,5.81,9.37,24.9,24.9,0,0,0,19.83,7.21,24.56,24.56,0,0,0,10-3.16h.05a10,10,0,0,1,1.63-.22c.55,0,1.08,0,1.61,0H256v47a13,13,0,0,0,.11,2.26,7.16,7.16,0,0,0,.69,2.11,7.45,7.45,0,0,0,3,3.15,8,8,0,0,0,2.07.76,10.86,10.86,0,0,0,2.21.15h13.42l67.54,0H396a9,9,0,0,0,1.73-.12,6.06,6.06,0,0,0,4.64-4.51,7.18,7.18,0,0,0,.17-1.67V347.85q0-6.59,0-12.87,0-12.56,0-23.8v-.13l.13,0a48.35,48.35,0,0,1,4.6,1.81A21.84,21.84,0,0,0,412,314a21.27,21.27,0,0,0,4.64.14c.77,0,1.52-.15,2.26-.26s1.48-.29,2.19-.51a22.89,22.89,0,0,0,16-16.66l.2-.88c.05-.29.1-.58.14-.88s.09-.58.13-.87,0-.58.07-.86l.09-1.72c0-.56-.05-1.12-.07-1.67A22.89,22.89,0,0,0,427,272a15.16,15.16,0,0,0-1.73-1l-.83-.43c-.28-.13-.56-.23-.83-.34-.54-.21-1.05-.43-1.54-.6l-1.44-.4a8.78,8.78,0,0,0-1.29-.3l-1.14-.19a11,11,0,0,0-1.78-.19Z"/><path class="cls-5" d="M252.75,277a7.12,7.12,0,0,1,4.12-.7c1.92.42,8.93,5,8.93,5l5.64-1.06,3.33,15.94-22,9.15Z"/><path class="cls-6" d="M236.47,282.51s5-.63,6.87-1.55,6.18-4.77,7.09-4.7,4.22.7,4.22.7l-1.34,4s6.61,4,8.58,5.48,8.15,8.09,8.43,9.7-.21,3.51-1,4.15-3.58-.64-3.58-.64a3.54,3.54,0,0,1-.63,2.89c-1.06,1.4-3.51.91-3.51.91s-.22,2.32-1.34,2.74-3.65-.84-3.65-.84-.77,2-1.68,2.17-3.52-1.33-3.52-1.33-11.24-8.08-13.77-9.28a12.93,12.93,0,0,0-3.31-1.26Z"/><path class="cls-7" d="M256.62,305.35c-.05,0-.09-.2-.2-.5a9.94,9.94,0,0,0-.57-1.12,7.3,7.3,0,0,1-.87-1.6,3.93,3.93,0,0,1,1.16,1.43,4.3,4.3,0,0,1,.51,1.23C256.71,305.13,256.66,305.35,256.62,305.35Z"/><path class="cls-7" d="M261.29,304a18.09,18.09,0,0,1-1.42-2.12c-.77-1.17-1.59-1.95-1.53-2a5.06,5.06,0,0,1,1.81,1.84A6.84,6.84,0,0,1,261.29,304Z"/><path class="cls-7" d="M265.8,299.92c-.1,0-.41-1.19-1.19-2.5s-1.67-2.19-1.6-2.26a6.92,6.92,0,0,1,2.79,4.76Z"/><path class="cls-7" d="M262.51,291.15a4.23,4.23,0,0,1,.37,1.89,4.07,4.07,0,0,1-.21,1.91,9.21,9.21,0,0,1-.13-1.9A8.19,8.19,0,0,1,262.51,291.15Z"/><path class="cls-5" d="M246.15,284.83s1.75-5.62,2.39-6.32,6.5-2.25,6.5-2.25l1.83,4.7-1.31,1.38-2.81-.18A4.8,4.8,0,0,1,246.15,284.83Z"/><path class="cls-5" d="M235.37,295.94s-.81.62,0,2.1,3,.42,3.68,0c0,0-1.05,2.46.28,3.23a5.27,5.27,0,0,0,2.95.56,2.87,2.87,0,0,0,1.83,2.46c1.9,1,2.39,0,2.39,0s.21,2.46,2.39,2.67,2.94-.54,2.94-.54l-1-1.45s1.26-2.58.28-3.7a3.38,3.38,0,0,0-2.6-1s.43-2.29-.83-2.92a2.31,2.31,0,0,0-3.32,1s-.14-2.5-2-2.45a4.1,4.1,0,0,0-2.81,1.18Z"/><path class="cls-8" d="M244.39,298.39a9.42,9.42,0,0,1-2.07,3.52,7.35,7.35,0,0,1,.94-1.82A8,8,0,0,1,244.39,298.39Z"/><path class="cls-8" d="M248.58,300.6a5.13,5.13,0,0,1-1,1.95,4.88,4.88,0,0,1-1.46,1.59,75.6,75.6,0,0,1,2.42-3.54Z"/><path class="cls-4" d="M214.45,172.76c-1.78-2.25-4-4.42-4.44-7.25-.42-2.61.72-5.46-.45-7.83-1.43-2.91-5.57-3.48-7.36-6.19-.87-1.31-1.07-3-1.93-4.29-1.46-2.25-4.45-3-7.13-2.82s-5.28,1-8,1.05c-3.68.07-7.4-1.31-11-.43-3.94,1-6.48,4.29-9.16,7.5l-3.48,3.69a14.64,14.64,0,0,1-2.28,1.67,26.61,26.61,0,0,0-4.29,2.45,6.5,6.5,0,0,0,0,9.37,6.93,6.93,0,0,0-5,6.57,19.82,19.82,0,0,0,1,4.77,6.88,6.88,0,0,1-.1,4.78c-.72,1.46-2.68,2.39-4.06,1.52a7.32,7.32,0,0,0,3.74,5.06,4.37,4.37,0,0,1-3,1.16c2.63,7.12,10.54,11.17,18.12,11.58s15-2.13,22.15-4.63l20.67-4.33c1.81-.33,2.66-2.47,2.72-4.31s-.31-3.78.43-5.47c1-2.31,3.81-3.43,4.86-5.72C217.73,178.05,216.24,175,214.45,172.76Z"/><path class="cls-4" d="M165.26,189.09a84.61,84.61,0,0,1-2.94-14.23,29.51,29.51,0,0,1,1.89-14.28c.3-.68,2.71-5.18,3.44-5.07.52.08-1,4.32-.8,4.78,2.29,4.46,2.71,9.7,2.05,14.67a65.81,65.81,0,0,1-3.64,14.13"/><path class="cls-6" d="M165.73,170.58c.24-12.16,7.51-22.16,19.66-21.6l1.12.12A21.75,21.75,0,0,1,206,171.26c-.25,10.54-.68,22.18-1.34,27.79-1.36,11.59-13.16,12.17-13.16,12.17s-.32,19.15-.32,19.15l-27.63-19.15Z"/><path class="cls-9" d="M191.47,211.22a28.19,28.19,0,0,1-14.65-6.06s2.72,9.81,14.42,10Z"/><path d="M202,180.26a1.65,1.65,0,0,1-1.77,1.5,1.6,1.6,0,0,1-1.56-1.67,1.68,1.68,0,0,1,1.78-1.51A1.6,1.6,0,0,1,202,180.26Z"/><path d="M203,175.82c-.22.19-1.38-.87-3.17-1s-3.18.57-3.35.33.16-.48.78-.83a4.54,4.54,0,0,1,5.21.57C203,175.32,203.1,175.73,203,175.82Z"/><path d="M185.81,180.26a1.66,1.66,0,0,1-1.78,1.5,1.59,1.59,0,0,1-1.55-1.67,1.67,1.67,0,0,1,1.77-1.51A1.61,1.61,0,0,1,185.81,180.26Z"/><path d="M185.43,174.7c-.22.19-1.38-.87-3.17-1s-3.18.57-3.35.33.16-.48.78-.83a4.54,4.54,0,0,1,5.21.57C185.4,174.2,185.55,174.61,185.43,174.7Z"/><path class="cls-10" d="M190.39,189.08a11.85,11.85,0,0,1,3-.22c.46,0,.9,0,1-.35a2.31,2.31,0,0,0-.16-1.38l-1-3.61c-1.35-5.13-2.28-9.34-2.07-9.39s1.47,4.07,2.82,9.2c.32,1.27.63,2.47.92,3.63a2.65,2.65,0,0,1,.05,1.81,1.16,1.16,0,0,1-.82.59,2.6,2.6,0,0,1-.78,0A11.85,11.85,0,0,1,190.39,189.08Z"/><path class="cls-10" d="M185,189.76c.29,0,.09,2,1.6,3.5s3.6,1.55,3.59,1.82-.5.33-1.38.26a4.82,4.82,0,0,1-3-1.41A4.22,4.22,0,0,1,184.6,191C184.61,190.19,184.88,189.73,185,189.76Z"/><path d="M186.1,167.45c-.23.46-2,.05-4.1.08s-3.88.42-4.11,0c-.1-.22.24-.65,1-1.05a6.88,6.88,0,0,1,3.13-.73,6.77,6.77,0,0,1,3.13.7C185.85,166.8,186.2,167.22,186.1,167.45Z"/><path d="M202.87,169.81c-.35.37-1.54-.18-3-.35s-2.76,0-3-.47c-.11-.22.13-.61.72-.93a4.14,4.14,0,0,1,2.52-.41,4.19,4.19,0,0,1,2.33,1.07C202.9,169.19,203,169.63,202.87,169.81Z"/><path class="cls-6" d="M165.78,179.28c-.19-.11-7.73-3.2-8.31,4.76S165,191,165,190.72,165.78,179.28,165.78,179.28Z"/><path class="cls-10" d="M162.82,187.53s-.15.08-.39.17a1.41,1.41,0,0,1-1,0c-.82-.37-1.43-1.76-1.36-3.2a4.6,4.6,0,0,1,.53-2,1.6,1.6,0,0,1,1.12-1,.69.69,0,0,1,.79.44c.09.23,0,.38.07.4s.18-.12.14-.46a.91.91,0,0,0-.27-.52,1.06,1.06,0,0,0-.76-.26,2,2,0,0,0-1.54,1.13,4.8,4.8,0,0,0-.64,2.19c-.07,1.6.65,3.17,1.77,3.58a1.5,1.5,0,0,0,1.29-.11C162.79,187.72,162.84,187.54,162.82,187.53Z"/><path class="cls-4" d="M201.67,157.73c1.33-.63-2.27-5.06-5.34-6.7-4.65-2.48-11.88-4.29-16.38-3.32-5.41,1.17-10,3.53-13,8.19a31.45,31.45,0,0,0-4.55,15.78,9.53,9.53,0,0,0,.81,4.94c1,1.83,3.07,3.08,2.82,5.5a3.3,3.3,0,0,0,.67,2.49c1.35,1.65,3.23.3,4.15-1.11,1.95-3,2.38-6.72,2.77-10.28a23.41,23.41,0,0,0,0-7.61c-.3-1.36-.85-2.65-1.08-4a4.79,4.79,0,0,1,.82-3.94,5.13,5.13,0,0,1,.69-.61,8.3,8.3,0,0,1,8.35-1c4.38,1.87,11.89,4.74,14,3.34,3-2,3.8-3.39,3.8-3.39Z"/><path class="cls-4" d="M180.44,146.66a17.49,17.49,0,0,1,13.41,1.6,9.14,9.14,0,0,1,4.46,5.6c.52,2.4-.68,5.24-3,6l-.16.09c-3.47.92-5.65.33-9-1.07-2.78-1.17-5.21-3.09-8-4.25a16.21,16.21,0,0,0-9.46-.88A26.48,26.48,0,0,1,180.44,146.66Z"/><path class="cls-11" d="M182.45,145.27a3.44,3.44,0,0,1,.81.08,13.13,13.13,0,0,1,2.15.59,13.45,13.45,0,0,1,2.93,1.51,11.35,11.35,0,0,1,2.93,2.8,10.77,10.77,0,0,1,1.6,3.71,18.45,18.45,0,0,1,.49,3.26c.07.94.07,1.7.06,2.22a4,4,0,0,1,0,.81,3.35,3.35,0,0,1-.08-.81c0-.52-.07-1.27-.16-2.2a21.64,21.64,0,0,0-.56-3.2,11,11,0,0,0-1.58-3.6,11.52,11.52,0,0,0-2.82-2.73,14.56,14.56,0,0,0-2.85-1.55A29.83,29.83,0,0,0,182.45,145.27Z"/><path class="cls-11" d="M189.79,144.83a3.32,3.32,0,0,1,.68.19,4.74,4.74,0,0,1,.79.3l1,.5a10.37,10.37,0,0,1,4.13,4.86,12.36,12.36,0,0,1,.58,1.75,11.9,11.9,0,0,1,.26,1.7,11.67,11.67,0,0,1,0,1.55,12.3,12.3,0,0,1-.18,1.35,6.32,6.32,0,0,1-.29,1.07,4.57,4.57,0,0,1-.33.78,2.32,2.32,0,0,1-.36.61,14.64,14.64,0,0,0,.75-2.51,12.1,12.1,0,0,0,.13-1.31,11.27,11.27,0,0,0-.06-1.51,12.58,12.58,0,0,0-.27-1.65,14.14,14.14,0,0,0-.57-1.7,10.66,10.66,0,0,0-4-4.79l-.95-.53a7.65,7.65,0,0,0-.75-.35A3,3,0,0,1,189.79,144.83Z"/><path class="cls-12" d="M205.06,327.12H194.4l-2.73,38.76h10.69c1.82-5.91,6.37-36.67,6.37-36.67Z"/><path class="cls-12" d="M144.7,327.12s-6.82,16-6.14,22.47,4.51,16.29,4.51,16.29h52.79a122.26,122.26,0,0,0,2.61-13.41c1.13-8,4.2-25.35,4.2-25.35Z"/><path class="cls-13" d="M195,228.45c0,1.09,5.48,25.15,7.58,31.06s8.73,65.17,7.86,69.39-3.15,4.06-3.15,4.06-53.63-3.38-59.4-2.87-8.21.33-9.61-6.25,0-40.81-1.18-49.08-1.23-12.29-1.71-24.58c-.41-10.65,2-19.2,7.08-25.36s16.29-12.41,16.29-12.41l4-5.8,28.16,14.89.64-3.39,1.71,5.28Z"/><g class="cls-14"><path d="M207.08,301.78c-.47-1.2-2-1.5-3.26-1.64-11.93-1.32-24.35-4.3-33.06-12.55a62.06,62.06,0,0,1-8.69-11c-5.66-8.56-11-17.34-16.3-26.12L141.64,252c2.53,12.4,5,21.37,9.15,31.53s7.33,20,17.79,23.34c6.76,2.15,19.6.5,26.68-.06a41.1,41.1,0,0,0,8.76-1.37,5.69,5.69,0,0,0,2.37-1.21A2.31,2.31,0,0,0,207.08,301.78Z"/></g><path class="cls-13" d="M140.18,248.74c.31.55,24.18,51.54,34.84,53.63s43.78,2.59,50.24,1.37,12.79-2.36,12.79-2.36,4.68-11.12.41-20.59l-8.9.28s-24.73-1.34-28.23-2.29-6.51-4.24-9.66-4.06l-18.82-43.8s-12.23-11.35-21-7.86S137.62,244.19,140.18,248.74Z"/><path class="cls-4" d="M230.25,303.14a4.32,4.32,0,0,1,.18-.85c.14-.55.31-1.34.5-2.32s.35-2.17.47-3.48a37.55,37.55,0,0,0,.09-4.3,34.84,34.84,0,0,0-1.21-7.71c-.26-1-.51-1.74-.69-2.27a4.58,4.58,0,0,1-.25-.84,4.87,4.87,0,0,1,.37.8,21.14,21.14,0,0,1,.8,2.25,31.11,31.11,0,0,1,1.32,7.75,33.82,33.82,0,0,1-.12,4.34,31.24,31.24,0,0,1-.55,3.5,21.1,21.1,0,0,1-.61,2.31A4,4,0,0,1,230.25,303.14Z"/><path class="cls-4" d="M172.85,230.92s.13.26.36.78.57,1.29,1,2.29c.88,2,2.17,5,3.81,8.77l13.78,31.91-.13-.08a8.15,8.15,0,0,1,4.17,1.27c1.3.72,2.55,1.55,3.93,2.18a13.34,13.34,0,0,0,4.48,1c1.57.19,3.17.33,4.79.47,6.49.53,13.37,1,20.53,1.36h0l8.9-.28h.11l0,.1a22.87,22.87,0,0,1,1.78,10.21,33.26,33.26,0,0,1-2.18,10.51l0,.08-.1,0-5.65,1-6.2,1.14a41.91,41.91,0,0,1-6.2.64c-4.11.19-8.17.2-12.15.18s-7.9-.11-11.73-.26-7.58-.33-11.23-.61c-1.83-.13-3.63-.3-5.4-.5a36.72,36.72,0,0,1-5.24-.87A9.36,9.36,0,0,1,172,301a20.84,20.84,0,0,1-1.93-1.69,42.55,42.55,0,0,1-3.3-3.73,138.54,138.54,0,0,1-10-15.08c-5.59-9.56-9.63-17.57-12.4-23.1-1.38-2.78-2.43-4.94-3.13-6.41s-1-2.26-1-2.26.11.19.29.57l.83,1.66c.73,1.46,1.8,3.61,3.17,6.38,2.81,5.51,6.88,13.5,12.5,23a137.85,137.85,0,0,0,10,15,42,42,0,0,0,3.29,3.69,17.78,17.78,0,0,0,1.9,1.66,8.38,8.38,0,0,0,2.19,1.26,38.31,38.31,0,0,0,5.16.85c1.77.19,3.57.36,5.39.49q5.48.4,11.22.6c3.83.14,7.74.23,11.72.25s8,0,12.14-.19a39.83,39.83,0,0,0,6.15-.63l6.19-1.15,5.66-1-.12.1a33.29,33.29,0,0,0,2.16-10.4,22.62,22.62,0,0,0-1.75-10.06l.16.1-8.9.28h0c-7.16-.41-14-.84-20.54-1.38-1.62-.15-3.22-.29-4.79-.48-.79-.09-1.57-.19-2.34-.33a9,9,0,0,1-2.23-.74c-1.4-.65-2.66-1.48-4-2.2a8,8,0,0,0-4-1.25h-.09l0-.09c-5.72-13.38-10.41-24.34-13.67-31.95-1.61-3.81-2.88-6.77-3.74-8.8-.42-1-.75-1.78-1-2.3Z"/><path class="cls-4" d="M170.36,227.49s-.33-.31-.93-.86a17.59,17.59,0,0,0-2.73-2.06,17.84,17.84,0,0,0-4.63-2,16.64,16.64,0,0,0-12,1.21,17.75,17.75,0,0,0-4.14,2.88,17.24,17.24,0,0,0-2.27,2.56,9.43,9.43,0,0,1-.74,1,1.56,1.56,0,0,1,.14-.29c.12-.18.26-.47.49-.8a15.65,15.65,0,0,1,2.21-2.66,17.42,17.42,0,0,1,4.17-3,17,17,0,0,1,17,.88,15.78,15.78,0,0,1,2.7,2.16,9.26,9.26,0,0,1,.63.7C170.3,227.39,170.37,227.48,170.36,227.49Z"/><path class="cls-4" d="M191.6,274.76a22.28,22.28,0,0,1-1.2,3.7,24.45,24.45,0,0,1-1.52,3.58,22,22,0,0,1,1.2-3.7A21.63,21.63,0,0,1,191.6,274.76Z"/><path class="cls-4" d="M234.84,283.15s.09,0,.25,0a1,1,0,0,1,.48.47,1,1,0,0,1,0,1,1.18,1.18,0,0,1-1.13.53,1.1,1.1,0,0,1-.85-.91,1,1,0,0,1,.33-1,.86.86,0,0,1,.63-.21c.16,0,.24.06.23.08s-.37,0-.7.3a.82.82,0,0,0-.18.73.79.79,0,0,0,.6.63.89.89,0,0,0,.81-.36.82.82,0,0,0,.07-.74C235.18,283.26,234.83,283.2,234.84,283.15Z"/><path class="cls-4" d="M191.54,223.2a5.54,5.54,0,0,1-.64-.34l-1.78-1,.13-.06c-.35,1.78-.69,4.39-1.29,7.52l0,.21-.18-.11c-2.61-1.65-5.75-3.53-9.1-5.56-2.49-1.49-4.82-3-7-4.3s-4.13-2.41-5.79-3.34L161.94,214l-1.07-.6a2.25,2.25,0,0,1-.37-.23,1.4,1.4,0,0,1,.4.17l1.1.54c.95.48,2.32,1.2,4,2.1s3.67,2,5.84,3.28l7,4.28c3.34,2,6.47,3.93,9.07,5.6l-.22.09c.63-3.1,1-5.72,1.41-7.49l0-.12.1.07,1.73,1.08A3.27,3.27,0,0,1,191.54,223.2Z"/><g class="cls-14"><path d="M164.46,215.29l14.69,11c3.23,2.4,6.54,4.85,10.38,6.09l-.21-10.21-1.5,7.16Z"/></g><path class="cls-4" d="M40.09,172.7c-.08,0-2.84-4.75-6.17-10.7S28,151.19,28,151.15s2.84,4.74,6.16,10.7S40.17,172.66,40.09,172.7Z"/><path class="cls-4" d="M49.42,152c.09,0,0,3.68-.29,8.19s-.53,8.18-.62,8.18,0-3.67.29-8.19S49.33,152,49.42,152Z"/><path class="cls-4" d="M33.42,177.78c0,.08-3.14-.89-7-2.18s-6.88-2.4-6.85-2.49,3.14.89,7,2.18S33.45,177.69,33.42,177.78Z"/><path class="cls-15" d="M80.09,187a25.9,25.9,0,1,0-24.43,36.29l2.62,6,20.8-9.11s-1.35-3.41-2.62-6.43A25.87,25.87,0,0,0,80.09,187Z"/><path class="cls-16" d="M76,221.51l-.17-.27-.47-.82c-.42-.73-1-1.8-1.78-3.19-1.5-2.79-3.62-6.86-6-12-.58-1.29-1.17-2.65-1.77-4.07l-.91-2.19a8.07,8.07,0,0,1-.7-2.36,2.77,2.77,0,0,1,.18-1.27,1.71,1.71,0,0,1,.9-.95,1.57,1.57,0,0,1,1.32.15,2.31,2.31,0,0,1,.94,1,3,3,0,0,1,0,2.67,4.57,4.57,0,0,1-1.92,2,4.94,4.94,0,0,1-2.78.6,5.15,5.15,0,0,1-2.71-1.08,6.15,6.15,0,0,1-1.87-2.32,4.62,4.62,0,0,1-.43-1.47,2.18,2.18,0,0,1,.34-1.52,1.39,1.39,0,0,1,.66-.46,1.68,1.68,0,0,1,.8-.06,2.43,2.43,0,0,1,1.4.74,4.86,4.86,0,0,1,.91,1.29,14.34,14.34,0,0,1,.67,1.43,10.86,10.86,0,0,1,.78,3.1,5.92,5.92,0,0,1-.53,3.18,4.89,4.89,0,0,1-1,1.33,3.64,3.64,0,0,1-1.41.82,3.3,3.3,0,0,1-1.62.06,4.57,4.57,0,0,1-1.49-.62A9.81,9.81,0,0,1,55.06,203c-.33-.41-.63-.83-.93-1.25a9.33,9.33,0,0,1-.81-1.32,2.53,2.53,0,0,1-.25-1.53,1.64,1.64,0,0,1,.31-.73,1.15,1.15,0,0,1,.68-.42,1.29,1.29,0,0,1,.78.11,2.17,2.17,0,0,1,.65.41,4.77,4.77,0,0,1,1,1.13,8.66,8.66,0,0,1,1.6,5.47,5.56,5.56,0,0,1-.94,2.63A4.16,4.16,0,0,1,55,209.17a3.62,3.62,0,0,1-2.61-.22,4.11,4.11,0,0,1-1.88-1.71,3.49,3.49,0,0,1-.41-1.2,1.93,1.93,0,0,1,.22-1.22,1,1,0,0,1,.5-.4,1,1,0,0,1,.63,0,2.22,2.22,0,0,1,1,.71,9.68,9.68,0,0,1,1.16,2l1,1.94c2.53,5.07,4.49,9.21,5.8,12.1.66,1.44,1.15,2.57,1.47,3.33.16.39.28.68.37.88l.12.3-.14-.29-.38-.87c-.34-.76-.84-1.89-1.5-3.32-1.33-2.88-3.32-7-5.86-12.07-.32-.63-.64-1.28-1-1.94a9,9,0,0,0-1.14-1.93,2,2,0,0,0-.89-.67.81.81,0,0,0-1,.33,1.71,1.71,0,0,0-.19,1.12,3.09,3.09,0,0,0,.39,1.14,3.86,3.86,0,0,0,1.81,1.64,3.41,3.41,0,0,0,2.49.21A4,4,0,0,0,57,207.42a5.3,5.3,0,0,0,.91-2.54,8.51,8.51,0,0,0-1.58-5.36,4.92,4.92,0,0,0-.94-1.09A1.64,1.64,0,0,0,54.1,198a1.12,1.12,0,0,0-.85,1,2.35,2.35,0,0,0,.24,1.42,9.2,9.2,0,0,0,.79,1.3c.3.42.6.83.92,1.23A9.84,9.84,0,0,0,57.44,205a4.22,4.22,0,0,0,1.42.6,3.21,3.21,0,0,0,1.54-.06,3.89,3.89,0,0,0,2.26-2,5.76,5.76,0,0,0,.52-3.09,10.62,10.62,0,0,0-.77-3,8.47,8.47,0,0,0-1.54-2.66,2.31,2.31,0,0,0-1.29-.69,1.33,1.33,0,0,0-1.29.46,2,2,0,0,0-.31,1.38,4.66,4.66,0,0,0,.41,1.41,5.92,5.92,0,0,0,1.82,2.26,5,5,0,0,0,2.61,1,4.79,4.79,0,0,0,2.69-.58,4.44,4.44,0,0,0,1.85-1.94,2.88,2.88,0,0,0,0-2.53,2.31,2.31,0,0,0-.88-.9,1.41,1.41,0,0,0-1.18-.14,1.52,1.52,0,0,0-.81.86,2.59,2.59,0,0,0-.18,1.2,8.17,8.17,0,0,0,.69,2.32l.9,2.18q.9,2.15,1.77,4.08c2.3,5.17,4.4,9.25,5.89,12,.74,1.4,1.34,2.48,1.74,3.21l.46.83Z"/><path class="cls-4" d="M57.71,221.46l-.32,0c-.21,0-.51,0-.91,0a23.86,23.86,0,0,1-8.21-1.36,23.81,23.81,0,0,1-5.47-2.72,24.23,24.23,0,0,1-7.51-8.07,21.72,21.72,0,0,1-1.46-3c-.16-.37-.25-.66-.32-.86a1.9,1.9,0,0,1-.09-.31,1.79,1.79,0,0,1,.13.3c.08.19.18.48.34.84a27,27,0,0,0,1.51,3,24.4,24.4,0,0,0,2.93,4,23.93,23.93,0,0,0,10,6.7,24.87,24.87,0,0,0,8.16,1.44c.4,0,.7,0,.91,0A1.57,1.57,0,0,1,57.71,221.46Z"/><path class="cls-4" d="M32.44,200.22a4.39,4.39,0,0,1,.33,1.3,5.08,5.08,0,0,1,.13,1.34,5,5,0,0,1-.32-1.3A4.86,4.86,0,0,1,32.44,200.22Z"/><path class="cls-4" d="M79.88,193.65a1.23,1.23,0,0,1-.07-.26l-.17-.77-.12-.56c0-.2-.11-.42-.18-.65a15.23,15.23,0,0,0-.49-1.57l-.33-.9c-.12-.32-.27-.63-.41-1-.28-.66-.65-1.33-1-2a26.83,26.83,0,0,0-3-4.26,27.19,27.19,0,0,0-3.86-3.54c-.67-.46-1.29-.91-1.91-1.26-.31-.18-.6-.37-.9-.52l-.85-.44c-.54-.29-1.06-.48-1.51-.67l-.62-.26-.54-.19-.74-.26-.26-.1.27.07.75.22.55.17.63.25a16.07,16.07,0,0,1,1.52.65l.87.43c.3.15.59.34.91.52A22.52,22.52,0,0,1,70.27,178a24.54,24.54,0,0,1,7,7.84c.38.72.75,1.4,1,2.07.14.33.29.65.41,1l.31.91a16.57,16.57,0,0,1,.47,1.59c.06.24.13.46.17.66l.1.56c.06.33.1.58.14.78A.93.93,0,0,1,79.88,193.65Z"/><g class="cls-17"><path class="cls-16" d="M48,180.75a4.61,4.61,0,0,0-3.75-.88A8.13,8.13,0,0,0,38.89,183c-3.91,4.91-5.37,9.42-4.63,15.94.25,2.21,1.36,5.56,3.15,7a4.24,4.24,0,0,0,3.21,1c3-.4,4-3.93,3.75-6.78-.24-2.66-1.11-5.4-.26-7.92.71-2.08,2.46-3.61,3.67-5.44S49.56,182.27,48,180.75Z"/></g><g class="cls-17"><path class="cls-16" d="M57.08,175.65a4.12,4.12,0,0,0-5,.34,4.24,4.24,0,0,0-.93,3.57,3.85,3.85,0,0,0,3.16,2.94A3.65,3.65,0,0,0,58,180.42C58.62,179,58.32,176.56,57.08,175.65Z"/></g><g id="_2gGvdE.tif" data-name="2gGvdE.tif"><path class="cls-4" d="M69.36,238.78a7.05,7.05,0,0,1,1.89.61,1.48,1.48,0,0,0,1.33,0l4.19-1.83a1.55,1.55,0,0,0,.9-1.13,2.79,2.79,0,0,1,.94-1.74Z"/></g><path class="cls-3" d="M59.72,229.12c0,.09,3.88,6.2,5.35,8.53a3.36,3.36,0,0,0,2.76,1.61,3.32,3.32,0,0,0,1.31-.26l9.15-4s2.39-1,2.1-3.18-2.67-10.58-2.67-10.58Z"/><rect class="cls-3" x="63.22" y="233.19" width="18.4" height="1.04" rx="0.5" transform="translate(-88.49 49.39) rotate(-23.9)"/><path class="cls-4" d="M80.59,230.66a.44.44,0,0,0,.24-.27.48.48,0,0,0,0-.44.46.46,0,0,0-.5-.24c-.87.37-2.14,1-3.71,1.66l-12.28,5.47a.4.4,0,0,0-.24.31.44.44,0,0,0,0,.2.61.61,0,0,0,.1.18.39.39,0,0,0,.36.14,2.59,2.59,0,0,0,.43-.16l1.72-.77,3.27-1.44,5.53-2.43,3.74-1.63,1-.43.26-.11.1,0-.09.05-.26.13-1,.46L75.52,233,70,235.44l-3.26,1.45-1.73.77-.22.1a.73.73,0,0,1-.25.08.59.59,0,0,1-.51-.2.7.7,0,0,1-.13-.24.53.53,0,0,1,0-.28.56.56,0,0,1,.34-.43l12.3-5.43c1.58-.69,2.84-1.26,3.75-1.62a.54.54,0,0,1,.56.29.53.53,0,0,1,0,.47A.42.42,0,0,1,80.59,230.66Z"/><rect class="cls-3" x="61.95" y="231.13" width="19.14" height="1.04" rx="0.5" transform="translate(-87.73 48.85) rotate(-23.9)"/><path class="cls-4" d="M80,228.46a.53.53,0,0,0,.25-.29.51.51,0,0,0-.07-.45.47.47,0,0,0-.54-.21l-3.86,1.74L63,234.93a.43.43,0,0,0-.24.33.34.34,0,0,0,0,.2.5.5,0,0,0,.11.19.43.43,0,0,0,.39.11l.44-.19,1.8-.8L69,233.28l5.75-2.53,3.88-1.69,1.06-.46.27-.11.1,0-.09,0-.27.13-1,.48-3.86,1.74L69,233.42l-3.39,1.5c-.58.27-1.18.53-1.79.8a5.11,5.11,0,0,1-.47.2.59.59,0,0,1-.55-.15.79.79,0,0,1-.15-.24.58.58,0,0,1,0-.29.56.56,0,0,1,.34-.46l12.78-5.64c1.64-.72,2.95-1.3,3.88-1.69a.55.55,0,0,1,.66.73A.42.42,0,0,1,80,228.46Z"/><path class="cls-3" d="M61.3,229.08H79.92a.5.5,0,0,1,.5.5v.05a.5.5,0,0,1-.5.5H61.31a.5.5,0,0,1-.5-.5v-.05a.49.49,0,0,1,.49-.49Z" transform="translate(-86.98 48.3) rotate(-23.9)"/><path class="cls-4" d="M79.33,226.31a.57.57,0,0,0,.26-.31.52.52,0,0,0-.09-.45.46.46,0,0,0-.56-.18l-4,1.78L61.93,233a.42.42,0,0,0-.25.33.54.54,0,0,0,0,.22.38.38,0,0,0,.12.18.42.42,0,0,0,.4.09l.46-.2,1.84-.82L68,231.24l5.88-2.59,4-1.73,1.08-.46.28-.12.1,0-.09.05-.28.13-1.07.49-4,1.78-5.87,2.62-3.47,1.54-1.83.82-.48.21a.6.6,0,0,1-.56-.12.66.66,0,0,1-.17-.25.48.48,0,0,1,0-.29.55.55,0,0,1,.34-.47L74.94,227l4-1.73a.53.53,0,0,1,.63.21.56.56,0,0,1,.07.49A.5.5,0,0,1,79.33,226.31Z"/><rect class="cls-3" x="59.53" y="227.02" width="20.36" height="1.04" rx="0.5" transform="translate(-86.22 47.76) rotate(-23.9)"/><path class="cls-4" d="M78.78,224.09a.53.53,0,0,0,.25-.31.57.57,0,0,0-.1-.47.46.46,0,0,0-.6-.12L74.23,225l-13.55,6a.45.45,0,0,0-.25.36.53.53,0,0,0,.19.4.4.4,0,0,0,.42,0l.48-.21,1.91-.84,3.6-1.59,6.1-2.69,4.12-1.8,1.13-.48.29-.12.11,0-.1.06-.29.13-1.11.51-4.1,1.85-6.09,2.72-3.6,1.6-1.9.84-.49.22a.58.58,0,0,1-.59-.07.53.53,0,0,1-.18-.24.62.62,0,0,1-.06-.3.57.57,0,0,1,.34-.5l13.57-6,4.12-1.79a.52.52,0,0,1,.67.15.55.55,0,0,1,.09.51.46.46,0,0,1-.19.26A.19.19,0,0,1,78.78,224.09Z"/><g class="cls-14"><path d="M65.25,237.42a25.68,25.68,0,0,0,5.45-1.91c1.51-.67,3-1.28,4.63-2,1.19-.55,2.27-1.1,3.45-1.67a3.7,3.7,0,0,0,1.26-.92Z"/></g><g class="cls-14"><path d="M63.71,235.63a28.61,28.61,0,0,0,5.86-2.09c1.63-.72,3.24-1.38,5-2.19,1.28-.59,2.45-1.17,3.71-1.79a4.17,4.17,0,0,0,1.37-1Z"/></g><g class="cls-14"><path d="M62.81,233.59a30.17,30.17,0,0,0,5.87-2.09c1.62-.72,3.24-1.38,5-2.19,1.28-.59,2.45-1.18,3.72-1.8a4.14,4.14,0,0,0,1.37-1Z"/></g><g class="cls-14"><path d="M61.92,231.54a29.39,29.39,0,0,0,5.86-2.08c1.63-.72,3.24-1.38,5-2.19,1.29-.6,2.45-1.18,3.72-1.8a4.14,4.14,0,0,0,1.37-1Z"/></g><path class="cls-3" d="M54.94,224.49c.08.18,2.26,4.12,3.38,6.14a2.78,2.78,0,0,0,2,1.4l1.2.21,17.69-7.76.65-1a2.77,2.77,0,0,0,.28-2.41l-2.27-6.6Z"/><path class="cls-4" d="M80,221.93s-4.69,2.15-10.53,4.72-10.58,4.6-10.6,4.56,4.7-2.16,10.53-4.72S80,221.89,80,221.93Z"/><path class="cls-4" d="M77.65,214.39s-5.09,2.36-11.42,5.16-11.48,5-11.5,5,5.09-2.36,11.42-5.16S77.62,214.34,77.65,214.39Z"/><path class="cls-16" d="M296.45,175.31l-8.12-.95a26.09,26.09,0,1,1,5.26-7.73h0Z"/><path class="cls-4" d="M296.45,175.31s-.08-.2-.2-.58l-.57-1.66c-.49-1.47-1.21-3.62-2.16-6.42l.14,0h0a.09.09,0,0,1-.12,0,.08.08,0,0,1,0-.1A25.91,25.91,0,0,0,295,150a29.23,29.23,0,0,0-1.39-4.07,25.86,25.86,0,0,0-49.42,6.8,26.27,26.27,0,0,0,1.2,11.84,25.31,25.31,0,0,0,5.89,9.54,25.91,25.91,0,0,0,17.8,7.85l1.11,0a6.58,6.58,0,0,0,1.09,0l2.13-.19a34.57,34.57,0,0,0,3.94-.86,25.81,25.81,0,0,0,10.95-6.57l.06,0,6,.75,1.56.2.54.08-.51-.05-1.55-.16-6.07-.66.07,0a25.85,25.85,0,0,1-11,6.69,34.75,34.75,0,0,1-4,.89l-2.14.2a6.83,6.83,0,0,1-1.11,0h-1.12a26.27,26.27,0,0,1-18-7.9,25.61,25.61,0,0,1-6-9.65,26.59,26.59,0,0,1-1.23-12,26.1,26.1,0,0,1,4.61-11.76,11.73,11.73,0,0,1,1-1.26l1-1.22,1.11-1.11a11.57,11.57,0,0,1,1.15-1.07l1.21-1c.39-.34.84-.59,1.26-.89s.85-.59,1.29-.84l1.35-.73a25.79,25.79,0,0,1,11.47-2.92,26.29,26.29,0,0,1,19.44,8.06,25.9,25.9,0,0,1,5.18,7.88,28,28,0,0,1,1.38,4.11,24.08,24.08,0,0,1,.64,4,26.18,26.18,0,0,1-2.2,12.75l-.14-.09h0a.08.08,0,0,1,.11,0l0,0c.91,2.84,1.6,5,2.08,6.5.23.72.4,1.27.52,1.66S296.45,175.31,296.45,175.31Z"/><polygon class="cls-4" points="257.8 156.67 260.91 153.22 267.53 158.53 277.35 147.25 280.56 150.38 267.38 164.88 257.8 156.67"/><path class="cls-2" d="M225,177.56l5.15-.64a0,0,0,0,1,.05,0,22.26,22.26,0,0,0,9.39,5.62,32.91,32.91,0,0,0,3.38.75l1.82.16a7.32,7.32,0,0,0,.94,0l.95,0a22.34,22.34,0,0,0,7.9-1.71c.68-.29,1.35-.61,2-1l-.61-.23a25.74,25.74,0,0,1-8.53-5.79,25.33,25.33,0,0,1-5.87-9.46,26.25,26.25,0,0,1-1.2-11.77A25.61,25.61,0,0,1,244.89,142a11.11,11.11,0,0,1,.94-1.23l1-1.2.42-.42-.73,0a22.2,22.2,0,0,0-20.89,13.45,26.09,26.09,0,0,0-1.18,3.49,21.9,21.9,0,0,0-.56,3.4,22.3,22.3,0,0,0,1.81,10.85.08.08,0,0,1,0,.08l-1.84,5.47-.48,1.42-.17.49.46-.06Z"/><path class="cls-4" d="M225,177.56l-.45.08-1.35.19h-.06l0-.06,2.45-7.4,0,0s0,0,0,0l0-.1-.09-.22-.18-.43c-.12-.29-.23-.6-.34-.91-.22-.62-.42-1.28-.59-2a21.39,21.39,0,0,1-.65-4.48,22.77,22.77,0,0,1,.36-5.07,23.34,23.34,0,0,1,.69-2.64,18.14,18.14,0,0,1,1.05-2.66,22.22,22.22,0,0,1,8.12-9.32A22.45,22.45,0,0,1,247.25,139l.37,0-.26.26-.43.43h0A26.25,26.25,0,0,0,240.78,152a25.48,25.48,0,0,0,15.84,28.68l.32.12-.3.14a28.94,28.94,0,0,1-3.51,1.53,22.63,22.63,0,0,1-10.19,1h0c-.75-.15-1.49-.27-2.2-.43a20.64,20.64,0,0,1-2.06-.61,22.9,22.9,0,0,1-3.56-1.6,22.21,22.21,0,0,1-5-3.77c0-.06-.14,0-.24,0l-.3,0-.58.07-1.06.12-1.64.19-1,.11a3,3,0,0,1-.35,0,2.85,2.85,0,0,1,.34-.06l1-.14,1.64-.22L229,177l.58-.08.31,0,.15,0h.1l.07,0,0,0a22.31,22.31,0,0,0,4.94,3.7,22.84,22.84,0,0,0,7.77,2.57h0a25.76,25.76,0,0,0,3.2.17,20.79,20.79,0,0,0,3.39-.29,21.76,21.76,0,0,0,3.49-.88,27.49,27.49,0,0,0,3.46-1.51l0,.26a25.74,25.74,0,0,1-16.07-29,26.48,26.48,0,0,1,6.24-12.43h0l.42-.43.11.28A22.1,22.1,0,0,0,226.05,152a19,19,0,0,0-1,2.62,22.15,22.15,0,0,0-.7,2.62,22.93,22.93,0,0,0-.39,5,22.63,22.63,0,0,0,.62,4.45q.25,1,.57,2,.16.47.33.9l.18.44.09.21,0,.1a.18.18,0,0,1,0,.21l0,0c-1.15,3.36-2,5.88-2.54,7.37l0-.05,1.35-.16Z"/><path d="M315.74,164.15A5.26,5.26,0,0,1,313.32,154a5.48,5.48,0,0,1,4.59-9.33,6.56,6.56,0,0,1,9.78-5.56,7.38,7.38,0,0,1,9.07-.36,5.25,5.25,0,0,1,4.8,8.81"/><path class="cls-5" d="M315,164.91a22.35,22.35,0,0,1,21.85-21l1.16,0c12.48.47,19.06,11.34,18.24,23.81l.74,44.49h0l-30.34,10.89-.27-16s-12-1.62-12.42-13.61C313.76,187.67,314.34,175.71,315,164.91Z"/><path class="cls-9" d="M326.27,207a29.07,29.07,0,0,0,15.62-4.91s-3.52,8.7-15.51,7.86Z"/><path d="M318.36,175.74a1.72,1.72,0,0,0,1.69,1.7,1.64,1.64,0,0,0,1.73-1.58,1.72,1.72,0,0,0-1.69-1.7A1.64,1.64,0,0,0,318.36,175.74Z"/><path d="M317.69,170.72c.22.22,1.49-.77,3.34-.8s3.21.86,3.4.63-.13-.5-.72-.92a4.75,4.75,0,0,0-2.74-.78,4.5,4.5,0,0,0-2.65.92C317.77,170.21,317.58,170.62,317.69,170.72Z"/><path d="M335.14,175.74a1.72,1.72,0,0,0,1.69,1.7,1.64,1.64,0,0,0,1.73-1.58,1.71,1.71,0,0,0-1.68-1.7A1.65,1.65,0,0,0,335.14,175.74Z"/><path d="M335.8,170.69c.22.22,1.5-.76,3.34-.8s3.21.86,3.41.63-.13-.5-.73-.91a4.64,4.64,0,0,0-2.73-.78,4.52,4.52,0,0,0-2.65.91C335.88,170.19,335.7,170.59,335.8,170.69Z"/><path class="cls-10" d="M329.4,184.49a12.69,12.69,0,0,0-3-.48c-.47,0-.92-.12-1-.44a2.41,2.41,0,0,1,.28-1.4l1.32-3.61c1.83-5.14,3.14-9.36,2.94-9.44s-1.86,4-3.69,9.18L325,181.93a2.73,2.73,0,0,0-.21,1.85,1.19,1.19,0,0,0,.79.67,3.11,3.11,0,0,0,.8.1A11.84,11.84,0,0,0,329.4,184.49Z"/><path d="M335.12,164.43c.25.46,1.82-.07,3.76-.18s3.59.19,3.75-.3c.08-.23-.28-.64-1-1a5.84,5.84,0,0,0-2.92-.56,5.71,5.71,0,0,0-2.8.92C335.28,163.76,335,164.21,335.12,164.43Z"/><path d="M317.33,164.2c.4.41,1.91,0,3.74-.11s3.38.21,3.73-.23c.15-.22-.1-.63-.79-1a6.32,6.32,0,0,0-6,.28C317.36,163.57,317.16,164,317.33,164.2Z"/><path class="cls-18" d="M316,159.38s3-7.57,6.6-9.39c4.34-2.21,6.32,2.56,10.47,1.31s8.3-3.38,12.63-.24c4.75,3.44,2.61,6,3,11.28,1.61,21.54,5.68,27.56,6.59,17.38.1-1.12,3.17-2.06,3.53-6.78.47-6.1.55-13.51-.89-17.81-1.23-3.62-3.36-6.1-7.14-8.8-6-4.27-14.06-4.2-19.54-3.53S315.34,150,316,159.38Z"/><path class="cls-5" d="M354.55,179.41A3.26,3.26,0,0,1,358,176.2c2.24.17,4.75,1.39,4.7,6-.1,8.2-8.31,6.41-8.32,6.18S354.48,182.84,354.55,179.41Z"/><path class="cls-9" d="M356.2,185.32s.14.11.38.22a1.41,1.41,0,0,0,1.07,0c.87-.3,1.61-1.67,1.67-3.15a4.66,4.66,0,0,0-.38-2,1.63,1.63,0,0,0-1.06-1.11.74.74,0,0,0-.85.38c-.11.23-.06.4-.1.41s-.18-.14-.11-.48a1,1,0,0,1,.33-.51,1.1,1.1,0,0,1,.79-.2,2,2,0,0,1,1.48,1.29,4.85,4.85,0,0,1,.47,2.29c-.07,1.65-.93,3.19-2.12,3.52a1.58,1.58,0,0,1-1.31-.23C356.21,185.52,356.17,185.34,356.2,185.32Z"/><path d="M354.07,163.53a7.86,7.86,0,0,1-3.44,1.68,2.69,2.69,0,0,1-3-1.82c-.11-.57,0-1.24-.36-1.67s-1.29-.34-2-.25a5.24,5.24,0,0,1-5.51-3.64,2.2,2.2,0,0,1-2.94.34,12.05,12.05,0,0,1-2.28-2.34,3.35,3.35,0,0,0-2.84-1.35,8.62,8.62,0,0,1-1.77.43c-1.08-.08-1.63-1.33-1.82-2.39s-.33-2.31-1.26-2.87-1.94-.19-2.93,0-2.27,0-2.54-1a1.92,1.92,0,0,1,.33-1.49A5.31,5.31,0,0,1,328,145a7.19,7.19,0,0,1,13.19-1.66,7.29,7.29,0,0,1,11.72,2.42,5.3,5.3,0,0,1,6.13,7.58,5,5,0,0,1,2.84,3.94c.07,1.7-1.55,3.42-3.2,3a2.93,2.93,0,0,1-5,3"/><path class="cls-11" d="M327.4,147.41s0,.06,0,.15a3.65,3.65,0,0,0,.06.44,5.33,5.33,0,0,0,.63,1.57,5.83,5.83,0,0,0,1.86,1.9,5.44,5.44,0,0,0,3.37.89l-.14-.18a3,3,0,0,0,.21,2.26,8.8,8.8,0,0,0,1.45,2,6.24,6.24,0,0,0,.93.92,2.89,2.89,0,0,0,1.31.45,3,3,0,0,0,2.62-1l-.31-.08a6.13,6.13,0,0,0,2.69,4.2,4.54,4.54,0,0,0,2.71.83,8.12,8.12,0,0,0,2.64-.64l-.22-.09a6.46,6.46,0,0,0,2,2.49,3.43,3.43,0,0,0,2.88.72,4.52,4.52,0,0,0,3.4-3.6l-.18.09a4.21,4.21,0,0,0,2.82.35,4.54,4.54,0,0,0,1.95-.91,4.07,4.07,0,0,0,.89-1,2.07,2.07,0,0,0,.2-.43,4.84,4.84,0,0,1-1.18,1.34,4.58,4.58,0,0,1-1.9.83,4.05,4.05,0,0,1-2.66-.38l-.16-.09,0,.18a4.25,4.25,0,0,1-3.22,3.34,3.12,3.12,0,0,1-2.61-.69,6.09,6.09,0,0,1-1.87-2.36l-.07-.15-.15.06a8.08,8.08,0,0,1-2.53.61,4.26,4.26,0,0,1-2.5-.77,5.8,5.8,0,0,1-2.54-4l-.06-.39-.25.31a2.69,2.69,0,0,1-2.32.88,2.52,2.52,0,0,1-1.16-.4,5.93,5.93,0,0,1-.88-.86,8.5,8.5,0,0,1-1.41-1.9,2.71,2.71,0,0,1-.22-2.05l.06-.19-.2,0a5.3,5.3,0,0,1-3.24-.81,5.84,5.84,0,0,1-1.84-1.79A6.43,6.43,0,0,1,327.4,147.41Z"/><path class="cls-10" d="M335.75,185.12c-.3,0,0,2-1.37,3.64s-3.5,1.81-3.47,2.08.52.3,1.4.17a4.92,4.92,0,0,0,2.92-1.64,4.26,4.26,0,0,0,1-3C336.18,185.53,335.88,185.09,335.75,185.12Z"/><path class="cls-15" d="M268.77,278.4c1-.42,35.37-4.54,35.37-4.54l13.92-11.79-1.3,34.13-43.83,4.22Z"/><path class="cls-19" d="M311.91,267.28c-.42.21-3.86,3.26-3.86,3.26l1.05,26.29Z"/><path class="cls-4" d="M370.39,329.09h-58s3.07,16.36,4.21,23.9a96.18,96.18,0,0,0,2.79,12.89h52.51s3.92-9.51,4.61-15.61S370.39,329.09,370.39,329.09Z"/><path class="cls-4" d="M308.09,331.07s-1.62,18.64,0,34.81h20.08V351Z"/><path class="cls-1" d="M319.25,239.66,325.5,226l.77-8.45s12-7.53,17.67-10.38a123.94,123.94,0,0,1,13.34-5.41v8Z"/><path class="cls-15" d="M371.47,309.54s3.4-45.61,3.63-49c0,0,2-24.36-2.33-33.64s-14-17.44-14-17.44l-.89-4.87L339,216.51l-8.74,7.61A87,87,0,0,0,322,234.38a36.27,36.27,0,0,0-6.47,13.4c-.45,2-5.65,26.31-5.8,43.23,0,0-.8,14.77-1.66,23.13-1.05,10.35-2.66,33.95-2.31,47.92L367,360.19c15.14-2.31,12.48-3.81,12.48-3.81Z"/><path class="cls-4" d="M357.28,209.71a4.19,4.19,0,0,1-.43.2l-1.25.52c-.53.26-1.18.6-1.94,1s-1.61.93-2.51,1.57a69.85,69.85,0,0,0-13.47,12.44l0,0h0l-5.88,1.09.12-.15c-.09,2.73-.19,5.6-.29,8.56v.07l-.05,0a81.3,81.3,0,0,0-8.64,9.48,35.83,35.83,0,0,0-3,4.48l-.32.57-.24.61a10.48,10.48,0,0,0-.45,1.22c-.26.83-.52,1.65-.73,2.49-.91,3.31-1.66,6.54-2.36,9.62-1.39,6.16-2.56,11.74-3.52,16.42-1.92,9.36-3,15.17-3,15.17a10.44,10.44,0,0,1,.14-1.07c.1-.69.28-1.71.51-3,.48-2.63,1.2-6.43,2.13-11.12s2.07-10.27,3.45-16.44c.69-3.08,1.43-6.32,2.34-9.64.21-.83.47-1.67.74-2.5a10,10,0,0,1,.45-1.26l.25-.62.33-.59a37.18,37.18,0,0,1,3-4.52,80.21,80.21,0,0,1,8.69-9.51l0,.11c.1-3,.21-5.83.3-8.56v-.13l.12,0,5.89-1.06-.09.05a67.93,67.93,0,0,1,13.59-12.4c.92-.64,1.8-1.1,2.54-1.54s1.44-.71,2-1l1.27-.48Z"/><path class="cls-15" d="M336.71,245.75l.73,60.86-9.27,59.27H352.6s11.11-45,13.69-54.46c2.51-9.19,6.28-55.41,6.61-57.68.13-.89,2.78-16.85-5-24.38"/><path class="cls-15" d="M367.88,229.36s.18.16.51.5a15.07,15.07,0,0,1,1.34,1.64,20.52,20.52,0,0,1,3,7.5,41.81,41.81,0,0,1,.46,12.84c-.36,2.5-.55,5.16-.82,8s-.53,5.84-.81,9c-.59,6.3-1.25,13.2-2,20.6-.41,3.7-.83,7.53-1.35,11.47A93.36,93.36,0,0,1,366.06,313l-13.29,53,0,.12H328l0-.19c3.43-21.86,6.59-42,9.29-59.27v0c-.2-18.43-.36-33.64-.47-44.25-.05-5.3-.09-9.45-.11-12.28,0-1.41,0-2.49,0-3.23s0-1.1,0-1.1,0,.38,0,1.1,0,1.82.06,3.23c0,2.83.1,7,.19,12.27.14,10.62.34,25.83.59,44.25v0h0c-2.69,17.23-5.83,37.41-9.24,59.27l-.17-.19H352.6l-.16.13c4.73-18.82,9.24-36.71,13.33-53a93.84,93.84,0,0,0,2.15-12c.53-3.93,1-7.76,1.37-11.46.81-7.4,1.48-14.3,2.08-20.6.29-3.14.57-6.14.84-9s.47-5.52.85-8a42,42,0,0,0-.41-12.79,20.56,20.56,0,0,0-3-7.49,14.85,14.85,0,0,0-1.3-1.65Z"/><path class="cls-4" d="M349.63,312.6a10.52,10.52,0,0,1-1.89-.55c-1.15-.39-2.72-1-4.41-1.74s-3.19-1.52-4.25-2.11a9,9,0,0,1-1.67-1,14.38,14.38,0,0,1,1.78.82c1.08.53,2.59,1.26,4.27,2s3.24,1.38,4.36,1.82A12.88,12.88,0,0,1,349.63,312.6Z"/><path class="cls-4" d="M307.8,316.63a.67.67,0,0,1,0-.16V316l.1-1.79c.1-1.58.24-3.82.42-6.58.37-5.55.91-13.22,1.66-21.68s1.61-16.11,2.31-21.63c.36-2.76.66-5,.88-6.53.12-.75.2-1.34.27-1.78l.08-.46,0-.15s0,0,0,.16l0,.46c0,.44-.12,1-.2,1.78-.19,1.58-.45,3.81-.78,6.55-.64,5.52-1.47,13.17-2.22,21.63s-1.32,16.12-1.75,21.67c-.22,2.75-.4,5-.53,6.57-.07.76-.12,1.35-.16,1.79l-.05.46C307.82,316.58,307.81,316.63,307.8,316.63Z"/><path class="cls-4" d="M357.28,221.68a22.7,22.7,0,0,0-5.67-9,5.88,5.88,0,0,1,1.24,1,16.34,16.34,0,0,1,2.42,3,15.94,15.94,0,0,1,1.64,3.48A5.37,5.37,0,0,1,357.28,221.68Z"/><path class="cls-4" d="M314.17,297.29s.08.15.06.44a1.76,1.76,0,0,1-.53,1.1,1.68,1.68,0,0,1-1.76.4,1.93,1.93,0,0,1-.91-.65,1.83,1.83,0,0,1-.37-1.14,2.39,2.39,0,0,1,.47-1.41,1.45,1.45,0,0,1,.57-.45c.24-.09.41-.13.6-.19h.05a2,2,0,0,1,1.17.34,1.53,1.53,0,0,1,.55.77,1.59,1.59,0,0,1,.1.8s-.08-.29-.26-.73a1.48,1.48,0,0,0-.52-.64,1.81,1.81,0,0,0-1-.24h0l-.56.19a1.2,1.2,0,0,0-.44.37,2.13,2.13,0,0,0-.39,1.21,1.56,1.56,0,0,0,1,1.5,1.46,1.46,0,0,0,1.49-.28,1.78,1.78,0,0,0,.57-1C314.16,297.45,314.14,297.29,314.17,297.29Z"/><path class="cls-4" d="M313.26,318.8s.08.15.06.45a1.78,1.78,0,0,1-.53,1.1,1.68,1.68,0,0,1-1.76.4,2,2,0,0,1-.91-.65,1.77,1.77,0,0,1-.36-1.14,2.29,2.29,0,0,1,.47-1.42,1.53,1.53,0,0,1,.56-.45l.6-.18h.05a2,2,0,0,1,1.18.34,1.5,1.5,0,0,1,.54.77,1.55,1.55,0,0,1,.1.79,7,7,0,0,1-.26-.73,1.44,1.44,0,0,0-.52-.63,1.89,1.89,0,0,0-1-.25h0l-.56.19a1.34,1.34,0,0,0-.44.36,2.19,2.19,0,0,0-.39,1.22,1.56,1.56,0,0,0,1,1.5,1.46,1.46,0,0,0,1.5-.29,1.8,1.8,0,0,0,.56-.94A4.15,4.15,0,0,1,313.26,318.8Z"/><path class="cls-4" d="M365.13,225.76c0,.05-.84-.46-2.27-1a15.46,15.46,0,0,0-2.57-.73,17.38,17.38,0,0,0-3.25-.29,17.14,17.14,0,0,0-3.25.38,16.09,16.09,0,0,0-2.55.8c-1.41.59-2.2,1.12-2.23,1.07s.17-.16.53-.41c.18-.12.4-.26.68-.41s.57-.32.93-.47a14.43,14.43,0,0,1,2.57-.89,16.11,16.11,0,0,1,3.31-.41,16.51,16.51,0,0,1,3.33.32,15,15,0,0,1,2.59.82,7.73,7.73,0,0,1,.95.45,5,5,0,0,1,.68.39A2.42,2.42,0,0,1,365.13,225.76Z"/><g class="cls-14"><path d="M311.62,282.68c2.64-3.85,3.62-7.48,5-11.94,2.1-6.62,2.69-14.09,6-20.2,1.95-3.6,4.23-7.3,7.61-9.6s3.78-5.11,3.71-12.85a9.11,9.11,0,0,0,5.14-2.11,13.13,13.13,0,0,0,2.88-5.41l-4.4,4.77s-6,1.11-5.88,1.07c-.15,3-.15,5.59-.3,8.57,0,0-11.45,12.15-12.34,14.59S311.62,282.68,311.62,282.68Z"/></g><g class="cls-14"><path d="M354.14,358.53c14.51-27.46,19-63.58,18.15-98,0,0-4.16,41.82-5.56,49S354.14,358.53,354.14,358.53Z"/></g><path class="cls-4" d="M356.35,205.29a1.34,1.34,0,0,1-.32.25l-1,.66-3.59,2.36-11.92,7.67-5.14,3.28h0l-1.65,1.27a13.93,13.93,0,0,0-1.46,1.26c-.9.87-1.7,1.71-2.42,2.48l-.13.14-.08-.17c-.78-1.8-1.41-3.27-1.87-4.34-.21-.48-.37-.88-.5-1.18a2.18,2.18,0,0,1-.15-.43,2.14,2.14,0,0,1,.22.4l.55,1.16,2,4.28-.21,0c.71-.78,1.51-1.64,2.4-2.52a13.54,13.54,0,0,1,1.49-1.29l1.63-1.28h0l5.13-3.29,12-7.6,3.65-2.26,1-.61A2,2,0,0,1,356.35,205.29Z"/><rect class="cls-13" x="431.7" y="112.43" width="13.86" height="49.95" rx="4.45"/><rect class="cls-13" x="388.28" y="141.83" width="13.86" height="22.68" rx="4.6"/><rect class="cls-13" x="409.7" y="129.49" width="13.86" height="35.01" rx="4.92"/><path class="cls-4" d="M440.44,95.92a2.56,2.56,0,0,1-.33.44l-1,1.22-3.91,4.48-13.6,15.32-.15.17-.19-.12-8.51-5.56.37-.05-.33.38-18,21.1-.11.14-.15-.11-6.76-5c-.76-.57-1.37-1-1.82-1.39a4,4,0,0,1-.62-.51,3.78,3.78,0,0,1,.68.42l1.88,1.31,6.87,4.88-.26,0,17.86-21.2q.17-.21.33-.39l.15-.18.21.13,8.49,5.57-.34,0c5.51-6.1,10.29-11.39,13.74-15.19l4-4.38L440,96.3A2.54,2.54,0,0,1,440.44,95.92Z"/><path class="cls-4" d="M438.88,106.47a19.59,19.59,0,0,1-.19-3.19c-.05-2-.08-4.7-.09-7.73l.33.27-.28.05c-3,.5-5.82.93-7.83,1.21a19.94,19.94,0,0,1-3.26.34,18.3,18.3,0,0,1,3.2-.73c2-.38,4.75-.87,7.8-1.37l.28,0,.32-.06v.33c0,3,0,5.76-.09,7.73A18.27,18.27,0,0,1,438.88,106.47Z"/><path class="cls-2" d="M338.42,33.5a7.74,7.74,0,0,0-.95,3.11,4,4,0,0,1-.24,1.08l-14-7.72a2.13,2.13,0,0,0-2.9.83l-8,14.57,1.65.91a3.33,3.33,0,0,0,1.24.39,7.06,7.06,0,1,1-3.83,13.42,6.89,6.89,0,0,1-2.73-2.25,3.59,3.59,0,0,0-1.14-1l-1.16-.64-8.18,14.73a2.61,2.61,0,0,0,1,3.55l13,7.18-.55,1a3.79,3.79,0,0,1-.2.34,8.61,8.61,0,1,0,11.17,12,8.41,8.41,0,0,0,1.07-4.29,4.06,4.06,0,0,1,.27-.65l.72-1.29,14.48,8a2.62,2.62,0,0,0,3.56-1L364.9,55.39a2.15,2.15,0,0,0-.84-2.9l-14.75-8.14a4.11,4.11,0,0,1,.67-.57,7.81,7.81,0,0,0,2.89-3.86,7.94,7.94,0,0,0-14.45-6.42Z"/></svg>