<svg xmlns="http://www.w3.org/2000/svg" xmlns:xlink="http://www.w3.org/1999/xlink" viewBox="0 0 1920 1080"><defs><linearGradient id="linear-gradient" x1="768.29" y1="729.26" x2="948.49" y2="729.26" gradientUnits="userSpaceOnUse"><stop offset="0" stop-color="#1571b8" stop-opacity="0.7"/><stop offset="0.18" stop-color="#1a76bb" stop-opacity="0.67"/><stop offset="0.38" stop-color="#2984c4" stop-opacity="0.59"/><stop offset="0.6" stop-color="#439bd3" stop-opacity="0.46"/><stop offset="0.82" stop-color="#66bbe7" stop-opacity="0.28"/><stop offset="1" stop-color="#88dafb" stop-opacity="0.1"/></linearGradient><linearGradient id="linear-gradient-2" x1="994.66" y1="245.05" x2="1174.85" y2="245.05" gradientTransform="translate(2150 662.5) rotate(-177.4)" xlink:href="#linear-gradient"/><linearGradient id="linear-gradient-3" x1="790.97" y1="633.9" x2="881.3" y2="633.9" gradientUnits="userSpaceOnUse"><stop offset="0" stop-color="#cd93f8"/><stop offset="0" stop-color="#c62d28" stop-opacity="0"/><stop offset="1" stop-color="#fdfffc" stop-opacity="0.95"/></linearGradient><linearGradient id="linear-gradient-4" x1="606.6" y1="669.28" x2="764.65" y2="669.28" xlink:href="#linear-gradient-3"/><linearGradient id="linear-gradient-5" x1="789.23" y1="430.95" x2="921.22" y2="430.95" xlink:href="#linear-gradient-3"/><linearGradient id="linear-gradient-6" x1="986.37" y1="657.34" x2="1102.05" y2="657.34" xlink:href="#linear-gradient-3"/><linearGradient id="linear-gradient-7" x1="1240.31" y1="510.46" x2="1333.24" y2="510.46" xlink:href="#linear-gradient-3"/><linearGradient id="linear-gradient-8" x1="1051.68" y1="461.44" x2="1187.8" y2="461.44" xlink:href="#linear-gradient-3"/><linearGradient id="linear-gradient-9" x1="610.3" y1="537.74" x2="705.13" y2="537.74" gradientUnits="userSpaceOnUse"><stop offset="0" stop-color="#88dafb"/><stop offset="0.16" stop-color="#87d9fa" stop-opacity="0.99"/><stop offset="0.27" stop-color="#82d5f8" stop-opacity="0.95"/><stop offset="0.37" stop-color="#7bcef3" stop-opacity="0.89"/><stop offset="0.47" stop-color="#70c4ed" stop-opacity="0.8"/><stop offset="0.56" stop-color="#62b7e5" stop-opacity="0.69"/><stop offset="0.64" stop-color="#51a8db" stop-opacity="0.54"/><stop offset="0.72" stop-color="#3d95cf" stop-opacity="0.38"/><stop offset="0.8" stop-color="#2680c2" stop-opacity="0.19"/><stop offset="0.85" stop-color="#1571b8" stop-opacity="0.05"/><stop offset="0.85" stop-color="#206daf" stop-opacity="0.05"/><stop offset="0.89" stop-color="#a23b45" stop-opacity="0.01"/><stop offset="1" stop-color="#c62d28" stop-opacity="0"/></linearGradient><linearGradient id="linear-gradient-10" x1="886.7" y1="528.07" x2="1027.52" y2="528.07" gradientTransform="translate(1933 1092.8) rotate(180)" gradientUnits="userSpaceOnUse"><stop offset="0" stop-color="#cd93f8"/><stop offset="0" stop-color="#1571b8" stop-opacity="0"/><stop offset="1" stop-color="#88dafb" stop-opacity="0.95"/></linearGradient><linearGradient id="linear-gradient-11" x1="856.22" y1="492.17" x2="951.05" y2="492.17" gradientTransform="matrix(-0.85, -0.53, -0.53, 0.85, 2285.19, 657.73)" xlink:href="#linear-gradient-9"/></defs><g style="isolation:isolate"><g id="bg_info" data-name="bg+info"><path d="M1581,663.1h-3a103.3,103.3,0,0,0-146.9-81.1,126.8,126.8,0,0,0-228.5,38.7,82.2,82.2,0,0,0-19.9-2.5,80.4,80.4,0,1,0,0,160.7H1581a58,58,0,1,0,0-115.9Z" fill="#ccc" opacity="0.3"/><path d="M809,352.1h-1.6a55.3,55.3,0,0,0-78.5-43.4,67.7,67.7,0,0,0-122,20.7,41.8,41.8,0,0,0-10.7-1.4,43,43,0,0,0,0,85.9H809a31,31,0,1,0,0-61.9Z" fill="#ccc" opacity="0.3"/><g opacity="0.3"><path d="M600.2,519.6l47,12.6c4.2,3.7,5.2,8.1,4.2,13.6-1.5,7.8-2.2,15.8-3.5,23.7-.2,1.9.3,2.8,1.8,4,8,5.9,15.9,11.9,23.8,18.1a3.6,3.6,0,0,0,4.3.7c8-3.6,16.1-7,24.2-10.5,5.8-2.4,10.6-.9,13.7,4.5,7,11.9,13.9,23.9,20.8,35.9,3.1,5.4,2.1,10.4-2.8,14.1-7,5.3-14,10.6-21.1,15.8-1.5,1.1-1.9,2.1-1.6,4.1,1.4,9.9,2.7,19.9,3.9,29.9a3.3,3.3,0,0,0,2.4,3.3c8.1,3.1,16.1,6.4,24.2,9.6,6.2,2.4,8.7,7,7,13.5L738,751.6c-1.8,6.8-6.1,9.5-12.9,8.5l-25.7-3.7c-1.9-.3-2.7.4-3.7,1.8-5.9,7.9-11.9,15.9-18.1,23.7a3.8,3.8,0,0,0-.7,4.6c3.5,7.9,6.9,15.9,10.3,23.9,2.6,5.9,1,10.7-4.6,13.9L647.1,845c-5.6,3.2-10.5,2.1-14.4-3-5.3-7-10.6-14-15.8-21.1a3.7,3.7,0,0,0-3.9-1.5c-9.9,1.5-19.9,2.8-29.9,4-1.7.2-2.7.5-3.3,2.3-3.1,8.1-6.5,16.1-9.6,24.1-2.5,6.4-7,8.9-13.5,7.1-13.1-3.4-26.3-6.9-39.4-10.5-6.5-1.7-9.2-6.1-8.2-12.8,1.2-8.4,2.3-16.9,3.6-25.3.3-2.1-.3-3.1-1.9-4.3-7.9-5.8-15.8-11.8-23.5-17.9-1.6-1.2-2.7-1.6-4.6-.7l-23.9,10.3c-6.1,2.6-10.8,1.1-14.1-4.7q-10.3-17.7-20.4-35.4c-3.3-5.6-2.3-10.5,2.8-14.4,7-5.3,14-10.6,21.1-15.8,1.6-1.2,1.8-2.3,1.5-4.1-1.4-9.9-2.8-19.7-3.9-29.6a3.5,3.5,0,0,0-2.6-3.5c-7.5-2.9-14.8-6.2-22.3-8.9-5.3-1.8-8.6-4.8-9.7-10.3,4.2-15.7,8.3-31.4,12.5-47.1,3.7-4.1,8.1-5.2,13.6-4.1,7.8,1.5,15.8,2.2,23.7,3.4a3.5,3.5,0,0,0,4-1.8c5.9-8,11.9-15.9,18.1-23.7a3.8,3.8,0,0,0,.6-4.6c-3.5-7.9-6.9-15.9-10.2-23.9-2.6-5.9-1-10.7,4.5-13.9l35.6-20.6c5.6-3.3,10.5-2.2,14.4,2.9,5.2,6.9,10.5,13.8,15.6,20.8,1.2,1.7,2.3,2,4.3,1.7,9.8-1.4,19.7-2.7,29.6-3.9a3.5,3.5,0,0,0,3.5-2.6c2.9-7.4,6.2-14.7,8.8-22.2C591.7,524.1,594.7,520.7,600.2,519.6Zm2.3,87.9c-44.5-12.3-90.7,14.1-103.4,59s14.1,91.1,59.1,103.6,90.9-14.2,103.4-59S647.5,620,602.5,607.5Z" fill="#ccc"/></g><g opacity="0.3"><path d="M1379.5,190.1l20.9,5.5c1.9,1.7,2.3,3.6,1.9,6.1s-1,7-1.5,10.5a1.5,1.5,0,0,0,.8,1.8l10.5,8a1.4,1.4,0,0,0,1.9.3l10.8-4.6a4.4,4.4,0,0,1,6.1,2l9.2,15.9c1.4,2.4.9,4.6-1.3,6.3l-9.3,7a1.5,1.5,0,0,0-.7,1.8c.6,4.5,1.2,8.9,1.7,13.3a1.5,1.5,0,0,0,1.1,1.5l10.7,4.2c2.8,1.1,3.9,3.2,3.1,6-1.5,5.8-3.1,11.6-4.6,17.4-.8,3-2.7,4.2-5.8,3.8l-11.4-1.6a1.3,1.3,0,0,0-1.6.7c-2.7,3.6-5.3,7.1-8.1,10.6a1.7,1.7,0,0,0-.3,2c1.6,3.5,3.1,7.1,4.6,10.6s.4,4.8-2,6.2l-15.8,9.2c-2.5,1.4-4.7,1-6.4-1.3s-4.7-6.2-7-9.4a1.6,1.6,0,0,0-1.8-.6L1372,325a1.5,1.5,0,0,0-1.5,1l-4.3,10.8c-1.1,2.8-3.1,3.9-6,3.1l-17.5-4.6c-2.9-.8-4.1-2.8-3.6-5.7s1-7.6,1.6-11.3a1.9,1.9,0,0,0-.9-1.9c-3.5-2.6-7-5.2-10.4-7.9a1.7,1.7,0,0,0-2.1-.4l-10.6,4.6q-4,1.8-6.3-2.1l-9-15.7c-1.5-2.5-1-4.7,1.3-6.4l9.3-7a1.7,1.7,0,0,0,.7-1.9c-.7-4.3-1.3-8.7-1.8-13.1a1.6,1.6,0,0,0-1.1-1.6c-3.3-1.2-6.6-2.7-9.9-3.9s-3.9-2.2-4.3-4.6c1.8-7,3.7-13.9,5.5-20.9a6,6,0,0,1,6.1-1.8c3.5.6,7,1,10.5,1.5a1.6,1.6,0,0,0,1.8-.8c2.6-3.6,5.3-7.1,8-10.5a1.7,1.7,0,0,0,.3-2.1c-1.6-3.5-3.1-7-4.6-10.6a4.5,4.5,0,0,1,2.1-6.2l15.8-9.2c2.5-1.4,4.6-.9,6.4,1.4l6.9,9.2a1.8,1.8,0,0,0,1.9.8l13.1-1.8c.9-.1,1.3-.3,1.6-1.1,1.3-3.3,2.8-6.6,3.9-9.9S1377.1,190.5,1379.5,190.1Zm1.1,39a37.4,37.4,0,1,0,26.2,46C1412.4,255.3,1400.5,234.6,1380.6,229.1Z" fill="#ccc"/></g><text transform="translate(1079.4 214.1)" font-size="19" font-family="Calibri">We foster collaboraton among <tspan x="0" y="22.8">development, security, and </tspan><tspan x="0" y="45.6">operatons teams from the </tspan><tspan x="0" y="68.4">project&apos;s incepton.</tspan></text><text transform="translate(1579.4 376.1)" font-size="19" font-family="Calibri">We implement robust CI/CD <tspan x="0" y="22.8">pipelines to automate testng, </tspan><tspan x="0" y="45.6">deployment, and security checks.</tspan></text><text transform="translate(1405.4 834.1)" font-size="19" font-family="Calibri">Security is not an aferthought; it&apos;s <tspan x="0" y="22.8">an integral part of our </tspan><tspan x="0" y="45.6">development process.</tspan></text><text transform="translate(197.4 846.1)" font-size="19" font-family="Calibri">We leverage Infrastructure as Code <tspan x="0" y="22.8">principles to ensure consistent and </tspan><tspan x="0" y="45.6">secure infrastructure deployments.</tspan></text><text transform="translate(121.4 336.1)" font-size="19" font-family="Calibri">Our DevSecOps model includes <tspan x="0" y="22.8">contnuous monitoring of </tspan><tspan x="0" y="45.6">applicatons and infrastructure.</tspan></text></g><g id="headings"><path d="M945,682c-43.5,49.5-105.7,91.1-173.2,94.5" fill="none" stroke-linecap="round" stroke-miterlimit="10" stroke-width="7" stroke="url(#linear-gradient)"/><path d="M988.6,412.7c45.7-47.5,109.6-86.3,177.2-86.7" fill="none" stroke-linecap="round" stroke-miterlimit="10" stroke-width="7" stroke="url(#linear-gradient-2)"/><text transform="translate(1078.3 189.8)" font-size="29.95" fill="#1571b8" font-family="Calibri-BoldItalic, Calibri" font-weight="700" font-style="italic">Collaboraton</text><text transform="translate(1579.3 351.8)" font-size="29.95" fill="#1571b8" font-family="Calibri-BoldItalic, Calibri" font-weight="700" font-style="italic">Automaton</text><text transform="translate(1405.3 809.8)" font-size="29.95" fill="#1571b8" font-family="Calibri-BoldItalic, Calibri" font-weight="700" font-style="italic">Security</text><text transform="translate(197.4 817.2)" font-size="29.95" fill="#1571b8" font-family="Calibri-BoldItalic, Calibri" font-weight="700" font-style="italic">Consistency</text><text transform="translate(121.2 306.9)" font-size="29.95" fill="#1571b8" font-family="Calibri-BoldItalic, Calibri" font-weight="700" font-style="italic">Monitoring</text></g><g id="main_illustratiom" data-name="main illustratiom"><path d="M962.1,617.1l-67.7,67.7-3.5,3.5-13.3-53.4-46.3-19.3,64.5-64.5" fill="#e35f26"/><path d="M881.9,695.3c-36.4,34.6-74.4,44.8-121.2,44.8a188.5,188.5,0,0,1-133.8-55.3c-20-19.9-42.9-50.6-52.2-76.4l50.8.8,35.4-38.4c4.3,15,20.4,36.1,32.2,47.9,37.2,37.3,87.9,45.3,125.1,8l4.1-4.1,46.3,19.3Z" fill="#e35f26" stroke="#fff" stroke-miterlimit="10" stroke-width="3"/><path d="M1028.3,551.1l67.6-67.6a109.2,109.2,0,0,1,12.3-10.4l-5.2-51.3-46.2-26.9a191.8,191.8,0,0,0-27,22.5l-67.7,67.7" fill="#e35f26"/><path d="M1351.2,573.1l-50.4,13.5-42.1-27a79.4,79.4,0,0,0,.4-8.5,95.6,95.6,0,0,0-150.9-78l-5.2-51.3-46.2-26.9a189.1,189.1,0,0,1,294.4,178.2Z" fill="#e35f26" stroke="#fff" stroke-miterlimit="10" stroke-width="3"/><path d="M1351.2,574.1c-4.7,40.9-22.7,79.5-54,110.8a189.3,189.3,0,0,1-249.2,16,198.3,198.3,0,0,1-18.2-16l-67.7-67.8-66.3-66-50.7-49.7,13.8-51.8,51.6-15,51.6,50.5,66.2,66,67.6,67.6a91.2,91.2,0,0,0,12.2,10.3,95.6,95.6,0,0,0,123-10.3c16-16,25.7-35.8,27.6-58.1l42.1,27Z" fill="#e35f26" stroke="#fff" stroke-miterlimit="10" stroke-width="3"/><polygon points="895.8 551.1 946.8 629.1 960.6 615.6 895.8 551.1" fill="#130532" style="mix-blend-mode:soft-light"/><polygon points="1026.3 549.1 979.1 471.1 963.6 486.6 1026.3 549.1" fill="#130532" style="mix-blend-mode:soft-light"/><path d="M909.8,434.7l-51.7,15-13.7,51.9-23.9-23.9a95.5,95.5,0,0,0-159.3,94.2l-35.5,38.5-50.7-.9a189.4,189.4,0,0,1,44.2-198c73.7-73.7,193.7-73.7,267.4,0Z" fill="#e35f26" stroke="#fff" stroke-miterlimit="10" stroke-width="3"/><path d="M877.3,602.7l-32.5,32.5A118.5,118.5,0,0,1,795,665.1" fill="none" stroke-linecap="round" stroke-miterlimit="10" stroke-width="8" stroke="url(#linear-gradient-3)"/><path d="M760.6,716.9a166.5,166.5,0,0,1-150-95.2" fill="none" stroke-linecap="round" stroke-miterlimit="10" stroke-width="8" stroke="url(#linear-gradient-4)"/><path d="M793.2,388.6a164.4,164.4,0,0,1,84.6,45.3l39.4,39.4" fill="none" stroke-linecap="round" stroke-miterlimit="10" stroke-width="8" stroke="url(#linear-gradient-5)"/><path d="M1100.1,704.3a164.6,164.6,0,0,1-53.8-36l-57.9-57.9" fill="none" stroke-linecap="round" stroke-miterlimit="10" stroke-width="4" stroke="url(#linear-gradient-6)"/><path d="M1244.3,406.3a169.7,169.7,0,0,1,36.4,27.6,166.4,166.4,0,0,1,36,180.7" fill="none" stroke-linecap="round" stroke-miterlimit="10" stroke-width="8" stroke="url(#linear-gradient-7)"/><path d="M1055.7,490.7l23.7-23.7a118,118,0,0,1,84.1-34.8,113.5,113.5,0,0,1,20.3,1.7" fill="none" stroke-linecap="round" stroke-miterlimit="10" stroke-width="8" stroke="url(#linear-gradient-8)"/><path d="M660,651.8a142.3,142.3,0,0,1,0-201.3h0a142.4,142.4,0,0,1,37.1-26.8" fill="none" stroke-linecap="round" stroke-miterlimit="10" stroke-width="16" stroke="url(#linear-gradient-9)"/><line x1="913.4" y1="502.4" x2="1038.3" y2="627.2" fill="none" stroke-linecap="round" stroke-miterlimit="10" stroke-width="16" stroke="url(#linear-gradient-10)"/><path d="M1195.7,689.7c76.6-17.5,124.5-93.9,107-170.5h0a141.5,141.5,0,0,0-17.2-42.4" fill="none" stroke-linecap="round" stroke-miterlimit="10" stroke-width="16" stroke="url(#linear-gradient-11)"/></g><g id="icons"><circle cx="963.8" cy="231.2" r="85" fill="#88dafb"/><path d="M965.3,316.2a85,85,0,0,1,0-170" fill="none" stroke="#e35f26" stroke-miterlimit="10" stroke-width="8"/><path d="M961.3,316.2a85,85,0,0,0,0-170" fill="none" stroke="#fdfffc" stroke-miterlimit="10" stroke-width="8"/><path d="M945.7,263.2v8.6a4.7,4.7,0,0,1-4.9,4.9H923.7c-2.7,0-4.5-1-5.4-3.5V261.5a7.6,7.6,0,0,1,4.1-5.3,5.6,5.6,0,0,1,5.2-.3,11.1,11.1,0,0,0,8.6,0,6.7,6.7,0,0,1,7.5,2A7.9,7.9,0,0,1,945.7,263.2Z" fill="#1571b8"/><path d="M1009.3,261.5v11.7c-.9,2.5-2.7,3.5-5.3,3.5H987c-3.2,0-5.1-1.9-5.1-5.1v-8.2c0-4.5,2.9-7.6,7.4-8.1l1.2.2a11.9,11.9,0,0,0,10.4,0,4.2,4.2,0,0,1,2.7.1,7.4,7.4,0,0,1,5.5,5.2C1009.2,261,1009.2,261.3,1009.3,261.5Z" fill="#1571b8"/><path d="M967.1,203.4a9.2,9.2,0,1,1-5.6-17.5l.7-.2h3.2a9.5,9.5,0,0,1,7.3,6.6A9.3,9.3,0,0,1,967.1,203.4Z" fill="#1571b8"/><path d="M977.5,222.2c0,2.7-2.1,4.5-5,4.6H955.1a4.9,4.9,0,0,1-4.9-3.5,4.9,4.9,0,0,1-.1-1.2c0-3-.1-6.1,0-9.2a7.6,7.6,0,0,1,7.4-7.5,5.9,5.9,0,0,1,1.9.5,11.4,11.4,0,0,0,8.7,0,5.7,5.7,0,0,1,5.1.2,7.5,7.5,0,0,1,4.3,6.7C977.6,216,977.6,219.1,977.5,222.2Z" fill="#1571b8"/><path d="M946.6,202.8a30.3,30.3,0,0,0-5.2,3.8,33.4,33.4,0,0,0-10.6,20c-.1,1.1-.2,2.1-.2,3.2v.9c-.1,1.3-.8,2.1-1.7,2.1s-1.6-.9-1.6-2.2a36.3,36.3,0,0,1,9.9-24.4,37.2,37.2,0,0,1,8.3-6.5c.3-.2.5-.2.7-.6l-2.8-1.3a1.5,1.5,0,0,1-.8-1.7,1.6,1.6,0,0,1,1.3-1.3,2.5,2.5,0,0,1,1.2.2l5.5,2.6a1.6,1.6,0,0,1,.9,2.4c-.9,2-1.9,4-2.9,6.1a1.6,1.6,0,0,1-2.2.7,1.6,1.6,0,0,1-.7-2.1A15.4,15.4,0,0,1,946.6,202.8Z" fill="#1571b8"/><path d="M996.8,226.7c-2-11.8-8.3-20.5-19.2-25.7a4.1,4.1,0,0,1-1.1-.7,1.3,1.3,0,0,1-.5-1.7,1.4,1.4,0,0,1,1.6-1l.9.2c12,5.6,19.1,15,21.4,28,.1.5-.1,1.2.4,1.3s.7-.6,1.1-.9l1-.9a1.5,1.5,0,0,1,2,.3,1.4,1.4,0,0,1,.1,2l-4.8,4.8a1.4,1.4,0,0,1-2.1-.1q-2.4-2.2-4.5-4.5a1.5,1.5,0,0,1,0-2.3,1.6,1.6,0,0,1,2.3.1l1.2,1.3Z" fill="#1571b8"/><path d="M941.1,244.8a9.2,9.2,0,0,1-9.2,9.2,9.2,9.2,0,1,1,9.2-9.2Z" fill="#1571b8"/><path d="M1004.9,244.8a9.2,9.2,0,1,1-18.4-.1,9.2,9.2,0,0,1,9.2-9.1A9.4,9.4,0,0,1,1004.9,244.8Z" fill="#1571b8"/><path d="M953.6,266.3l1,1.9a1.7,1.7,0,0,1-.7,2.3,1.6,1.6,0,0,1-2.2-.8l-2.9-5.5a1.6,1.6,0,0,1,1.1-2.5l5.5-1.7c1.2-.3,2,.1,2.3,1s-.1,1.6-1.2,2.1l-.6.2a17.1,17.1,0,0,0,4.3.8,34.1,34.1,0,0,0,16.1-2.1l.3-.2c1.1-.3,2,0,2.3.8s0,1.8-1.2,2.3a40,40,0,0,1-7.7,2.2,34.8,34.8,0,0,1-15.4-.7h-.8C953.8,266.2,953.8,266.3,953.6,266.3Z" fill="#1571b8"/><circle cx="1443.3" cy="392.3" r="85" fill="#88dafb"/><path d="M1438.4,477.1a85,85,0,0,0,0-170" fill="none" stroke="#e35f26" stroke-miterlimit="10" stroke-width="8"/><circle cx="1285.8" cy="833.1" r="85" fill="#88dafb"/><path d="M1286.4,918.1a85,85,0,0,1,0-170" fill="none" stroke="#e35f26" stroke-miterlimit="10" stroke-width="8"/><circle cx="589.8" cy="812.1" r="85" fill="#88dafb"/><path d="M590.4,897.1a85,85,0,0,0,0-170" fill="none" stroke="#e35f26" stroke-miterlimit="10" stroke-width="8"/><circle cx="458.8" cy="366.1" r="85" fill="#88dafb"/><path d="M459.4,281.1a85,85,0,0,1,0,170" fill="none" stroke="#e35f26" stroke-miterlimit="10" stroke-width="8"/><path d="M459.4,281.1a85,85,0,0,0,0,170" fill="none" stroke="#fdfffc" stroke-miterlimit="10" stroke-width="8"/><path d="M1449.4,368.4a24.1,24.1,0,0,0-2.8-8.2c-5.2-8.6-12.7-13.3-22.9-13.3a25.8,25.8,0,0,0-25.4,21.4,26.1,26.1,0,0,0,21.6,30.2,24.9,24.9,0,0,0,19-4.8l6.9-5.2a28.5,28.5,0,0,1,17.6-5.9,29.3,29.3,0,0,1,28,23.6,29,29,0,0,1-18.6,32.9c-10.7,3.8-20.6,1.8-29.3-5.6a27.7,27.7,0,0,1-9.2-16,1.9,1.9,0,0,1-.2-.8c-.5,0-.5.5-.8.7a1.6,1.6,0,0,1-2.6-1.6,38.7,38.7,0,0,1,3.4-5.5,1.4,1.4,0,0,1,2.1-.2l4.2,3.9a1.4,1.4,0,0,1,0,2.1,1.6,1.6,0,0,1-2.2.2l-1-.9a18.5,18.5,0,0,0,1.8,6.7c4.6,9.7,12.2,15,23,15.5a25.9,25.9,0,0,0,5.3-51.4,25.1,25.1,0,0,0-19.8,4.9c-2.7,2-5.3,4.1-8.1,6.1-10.8,7.5-25.5,5.7-34.6-2.4a28.4,28.4,0,0,1-9.9-18.7,29.2,29.2,0,0,1,57.4-9.8c0,.3-.1.8.3.9s.4-.4.6-.6a1.4,1.4,0,0,1,2.1-.4,1.3,1.3,0,0,1,.5,2c-1,1.8-2,3.5-3.1,5.2a1.5,1.5,0,0,1-2.3.3,50,50,0,0,1-4.1-3.9,1.4,1.4,0,0,1-.1-2.1,1.6,1.6,0,0,1,2.2-.1Z" fill="#1571b8"/><path d="M1407.9,358.4l3.8.8a2.2,2.2,0,0,0,1.9-.4,9.2,9.2,0,0,1,2.5-1.5,2.2,2.2,0,0,0,1.6-1.9c.3-1,.7-2,1-3.1s.6-1,1.2-.9h6.1a1,1,0,0,1,1.2.9c.4,1.1.8,2.3,1.1,3.4a2.3,2.3,0,0,0,1.4,1.5,10.4,10.4,0,0,1,2.5,1.5,2.4,2.4,0,0,0,2.3.4l3.3-.7a1.2,1.2,0,0,1,1.4.6l3.1,5.4a.9.9,0,0,1-.2,1.3l-2.7,3.1a1.3,1.3,0,0,0-.4,1.3,10.9,10.9,0,0,1,0,3.6,1.8,1.8,0,0,0,.4,1.4c1,.9,1.8,2,2.8,3a.9.9,0,0,1,.1,1.3l-3,5.2a1.4,1.4,0,0,1-1.6.8l-3.7-.8a1.4,1.4,0,0,0-1.5.3,11.1,11.1,0,0,1-3,1.7,2.1,2.1,0,0,0-1.1,1.2c-.3,1.2-.8,2.4-1.1,3.6a1.1,1.1,0,0,1-1.3.9h-6a1.1,1.1,0,0,1-1.3-.9c-.4-1.2-.8-2.4-1.1-3.6a1.9,1.9,0,0,0-1.1-1.2,7.2,7.2,0,0,1-2.7-1.5,2.3,2.3,0,0,0-2.4-.4l-3.2.7a1.2,1.2,0,0,1-1.4-.6c-1-1.8-2-3.6-3.1-5.3a1.1,1.1,0,0,1,.2-1.5l2.7-3a1.7,1.7,0,0,0,.4-1.4,9.7,9.7,0,0,1,0-3.4,1.9,1.9,0,0,0-.5-1.6l-2.6-2.7c-.4-.6-.6-1-.2-1.7s2-3.4,3-5.1S1407.2,358.3,1407.9,358.4Zm15.1,23.7a10.3,10.3,0,0,0,10.3-10.3,10.4,10.4,0,0,0-10.3-10.2,10.2,10.2,0,0,0-10.2,10.3A10,10,0,0,0,1423,382.1Z" fill="#1571b8"/><path d="M1463.7,432.4h-3.1a1,1,0,0,1-1.2-.8c-.3-1.2-.7-2.4-1.1-3.6a1.9,1.9,0,0,0-1.2-1.3,12.2,12.2,0,0,1-2.9-1.7,1.4,1.4,0,0,0-1.5-.3l-3.7.8a1.4,1.4,0,0,1-1.6-.7c-.9-1.7-1.9-3.4-2.9-5.1a1.2,1.2,0,0,1,.1-1.7l2.6-2.8a1.7,1.7,0,0,0,.5-1.6,8.6,8.6,0,0,1,0-3.2,1.9,1.9,0,0,0-.6-1.8l-2.5-2.7a1.1,1.1,0,0,1-.2-1.5l3.1-5.3a1,1,0,0,1,1.4-.6l3.6.8a1.7,1.7,0,0,0,1.7-.3,11.4,11.4,0,0,1,3-1.8,1.7,1.7,0,0,0,1.1-1.1c.3-1.2.7-2.4,1.1-3.6a1.3,1.3,0,0,1,1.4-1.1,56.1,56.1,0,0,0,5.8,0,1.4,1.4,0,0,1,1.4,1.1c.3,1.2.8,2.4,1.1,3.6a1.7,1.7,0,0,0,1.1,1.1,12.3,12.3,0,0,1,3.1,1.9,1.9,1.9,0,0,0,1.5.2l3.6-.8a1.3,1.3,0,0,1,1.6.7c1,1.7,1.9,3.4,3,5.1a1.2,1.2,0,0,1-.2,1.6,3.4,3.4,0,0,1-.6.6,6.9,6.9,0,0,0-2.5,6.2,5,5,0,0,0,1.5,3.6l1.7,1.9a.9.9,0,0,1,.1,1.3l-3.1,5.4a1.2,1.2,0,0,1-1.4.6l-3.8-.9a1.7,1.7,0,0,0-1.4.3,12.9,12.9,0,0,1-3.2,1.9,1.3,1.3,0,0,0-.9,1.1l-1.2,3.6a1.1,1.1,0,0,1-1.3.9Zm0-10.2A10.2,10.2,0,0,0,1474,412a10.4,10.4,0,0,0-10.3-10.3,10.3,10.3,0,0,0-10.2,10.3A10,10,0,0,0,1463.7,422.2Z" fill="#1571b8"/><path d="M1471.2,353.8h8.3c1.8,0,2.3.5,2.3,2.3v16.5a2.7,2.7,0,0,1-.2,1.3,1.5,1.5,0,0,1-1.7.9,1.4,1.4,0,0,1-1.2-1.3v-1c0-4.8-.1-9.5,0-14.3,0-1-.3-1.3-1.3-1.3-4.8.1-9.5,0-14.3,0h-1a1.4,1.4,0,0,1-1.3-1.3,1.4,1.4,0,0,1,.9-1.6,3,3,0,0,1,1.3-.2Z" fill="#1571b8"/><path d="M1415.4,430.8h-8.3c-1.7,0-2.3-.6-2.3-2.3V411.8a5.2,5.2,0,0,1,.2-1.1,1.6,1.6,0,0,1,1.7-1,1.5,1.5,0,0,1,1.3,1.4v15.4c0,.8.2,1.1,1.1,1.1h15.1c1,.1,1.7.6,1.7,1.5a1.5,1.5,0,0,1-1.6,1.6h-8.9Z" fill="#1571b8"/><path d="M1418.1,370a1.7,1.7,0,0,1,1.2.5l1.8,1.9c.4.5.7.4,1.1-.1l3.6-4.2a1.6,1.6,0,0,1,2.2-.4,1.4,1.4,0,0,1,.3,2.2c-1.8,2.2-3.6,4.3-5.5,6.4a1.4,1.4,0,0,1-2.3,0l-3.5-3.7a1.4,1.4,0,0,1-.3-1.7A1.3,1.3,0,0,1,1418.1,370Z" fill="#1571b8"/><path d="M1469.4,409a2.2,2.2,0,0,1-.6,1.3l-5.1,6a1.6,1.6,0,0,1-2.6,0c-1.1-1.1-2.3-2.3-3.4-3.6a1.6,1.6,0,1,1,2.3-2.1l1.4,1.4c1,1.1.9,1,1.8,0s2.2-2.6,3.4-3.8a1.5,1.5,0,0,1,2.7.3A4.3,4.3,0,0,0,1469.4,409Z" fill="#1571b8"/><path d="M1263.8,791.6h44.5c2.5.8,4.5,2.2,5.4,4.8a16.9,16.9,0,0,0,10.4,10.5,7.2,7.2,0,0,1,4.9,7.1v8.7a82.6,82.6,0,0,1-.6,11.1,66.6,66.6,0,0,1-22.8,41.4,59.9,59.9,0,0,1-18,10.8h-3.1a39.8,39.8,0,0,1-8.3-4,66.1,66.1,0,0,1-25.2-25.9,65.1,65.1,0,0,1-7.9-30.6c-.1-3.6.1-7.3-.1-10.9a8.1,8.1,0,0,1,5.5-8,15.1,15.1,0,0,0,9.4-9.2A8.8,8.8,0,0,1,1263.8,791.6Zm22.3,5.6h-19.9a2.4,2.4,0,0,0-2.7,1.8,21.7,21.7,0,0,1-13,13,2.2,2.2,0,0,0-1.7,2.6q-.1,4.5,0,9a63.9,63.9,0,0,0,1.2,13.1c4.5,19.8,15.9,34.2,34.2,43a3.5,3.5,0,0,0,3.7,0,59.9,59.9,0,0,0,29.4-29.1,57.8,57.8,0,0,0,5.8-21.6c.4-4.6.2-9.3.2-14,0-2-.2-2.3-2.1-3.1a22.2,22.2,0,0,1-12.6-12.7c-.7-1.7-1-2-2.9-2Z" fill="#1571b8"/><path d="M1267.5,842.8v-8.1c0-3.9,2-6.5,5.9-7.3.7-.1.9-.5.9-1.2.1-2.6-.1-5.2.1-7.8a11.7,11.7,0,0,1,23.3,1.5q.1,3.1,0,6.3c0,.8.3,1.1,1.1,1.3a6.7,6.7,0,0,1,5.8,6.7c0,5.3.1,10.7,0,16-.2,7-5.4,12.1-12.6,12.3q-6.6.3-13.2,0a12.6,12.6,0,0,1-11.2-10.8C1267.3,848.5,1267.6,845.4,1267.5,842.8Zm18.5-9.7h-11.1c-1.4,0-1.6.3-1.6,1.6v15.2a6.7,6.7,0,0,0,6.9,6.9h11.7a6.7,6.7,0,0,0,6.9-6.8V834.7c0-1.3-.3-1.6-1.6-1.6Zm0-5.8h5c.7,0,1-.2,1-.9-.1-2.3,0-4.7-.1-7.1a5.9,5.9,0,0,0-5.8-5.7,6,6,0,0,0-6,5.8v7c0,.7.3.9,1,.9Z" fill="#1571b8"/><path d="M1283.1,844.9v-2.5a3,3,0,0,1,3-2.9,2.8,2.8,0,0,1,2.8,2.9,43.4,43.4,0,0,1,0,5.1,2.9,2.9,0,0,1-2.9,2.9,2.9,2.9,0,0,1-2.9-2.8Z" fill="#1571b8"/><path d="M537.9,775.8c1.3-3.6,3.3-5,7.2-5h3.3a1.6,1.6,0,0,1,1.8,1.6,1.7,1.7,0,0,1-1.9,1.5h-4a3.2,3.2,0,0,0-3.4,3.3c-.1,1.6,0,3.2-.1,4.8s.3.8.8.8H633c.7,0,1-.3.9-1v-4.1c0-2.5-1.3-3.8-3.8-3.8H556.5a4.8,4.8,0,0,1-1.2,0,1.5,1.5,0,0,1-1.4-1.5,1.5,1.5,0,0,1,1.3-1.6h74.9a6.8,6.8,0,0,1,6.9,7q-.2,33.8,0,67.5a6.8,6.8,0,0,1-6.9,6.9H562.4a1.6,1.6,0,0,1-1.6-1.6c0-.9.6-1.4,1.6-1.5h1.1c22.1,0,44.2-.1,66.3,0,3.1,0,4.1-1.9,4.1-4.2V787.3c0-1.4,0-1.4-1.4-1.4H542.2c-1.4,0-1.4,0-1.4,1.4v57.6a3.8,3.8,0,0,0,2,3.7,4.5,4.5,0,0,0,1.6.3H556a1.4,1.4,0,0,1,1.1,1.5,1.5,1.5,0,0,1-1.1,1.4H545.1c-3.9,0-5.9-1.4-7.2-5Z" fill="#1571b8"/><path d="M596.8,800.9c-1.9-.8-4.3-1-5.5-3.6s-.5-2.1-3.8-2.4-3.5.5-4.2,2.7a3.3,3.3,0,0,1-2.5,2.2l-1.2.5a3.5,3.5,0,0,1-3.4.2c-2-1.1-3.3-.5-4.8,1s-2,2.6-1,4.4a5,5,0,0,1-.1,3.8,6.3,6.3,0,0,1-4.3,4.4,1.5,1.5,0,0,0-1.1,1.6,21.6,21.6,0,0,1,0,3.6,1.1,1.1,0,0,0,.8,1.2l.4.2c2.7.8,3.8,2.9,4.5,5.3a3.1,3.1,0,0,1-.2,2.8c-1,1.8-.5,3.1,1,4.5s1.4,2.1,4.7,1a4.5,4.5,0,0,1,3.6.2l.9.4a4.7,4.7,0,0,1,2.9,2.6c1.4,2.8.5,2.1,3.7,2.4s3.6-.5,4.3-2.7a3.3,3.3,0,0,1,2.4-2.2h.3a5.3,5.3,0,0,1,5.7-.1,1.9,1.9,0,0,0,2.5-.6,21.8,21.8,0,0,1,2.1-2.2,1.1,1.1,0,0,0,.4-1.6.4.4,0,0,1-.1-.3c-1.4-2.5-.6-4.8.5-7a2.9,2.9,0,0,1,2-1.6c2-.7,2.6-1.9,2.6-4.1s-.5-3.4-2.6-4a3.9,3.9,0,0,1-2.4-2.6,3.5,3.5,0,0,0-.6-1.4,3.7,3.7,0,0,1-.1-2.9,17.2,17.2,0,0,1,.7-2.1,2,2,0,0,0,0-1.5,1.4,1.4,0,0,1,.6-1.8,1.5,1.5,0,0,1,2,.3,2.7,2.7,0,0,1,.7,2.7,7.6,7.6,0,0,1-.6,2,3.3,3.3,0,0,0,.1,3.2,2.6,2.6,0,0,0,1.4,1.5c3.9,1.9,3.9,1.9,3.9,6.2v3.1a3,3,0,0,1-1.7,2.8l-2.2,1.1a2.6,2.6,0,0,0-1.4,1.5,3.5,3.5,0,0,0-.1,3.3,8.8,8.8,0,0,1,.5,1.5,2.9,2.9,0,0,1-.7,3.2l-3.9,3.9a3,3,0,0,1-3.1.8l-1.6-.5a3.6,3.6,0,0,0-3.5.1A2.5,2.5,0,0,0,594,839l-1.2,2.4a3,3,0,0,1-2.7,1.6h-5.5a3,3,0,0,1-2.7-1.6l-.7-1.5a3.8,3.8,0,0,0-2.7-2.5,2.2,2.2,0,0,0-1.6-.1l-2.5.9a3.2,3.2,0,0,1-3.1-.7c-1.3-1.4-2.7-2.7-4.1-4.1a3,3,0,0,1-.6-2.9,3.8,3.8,0,0,1,.5-1.5,4,4,0,0,0-.1-3.7,2,2,0,0,0-1.2-1.2l-2.4-1.2a3,3,0,0,1-1.6-2.7v-5.5a3,3,0,0,1,1.7-2.8,6.1,6.1,0,0,1,1.4-.7,3.7,3.7,0,0,0,2.6-2.9,2.9,2.9,0,0,0,0-1.3l-.9-2.7a2.6,2.6,0,0,1,.7-2.9l4.1-4.1a2.8,2.8,0,0,1,2.9-.7l1.7.6a3.7,3.7,0,0,0,3.4-.1,2.1,2.1,0,0,0,1.3-1.3l1.2-2.2a3,3,0,0,1,2.9-1.8H590a3.1,3.1,0,0,1,2.9,1.8,4.6,4.6,0,0,1,.7,1.4,3.7,3.7,0,0,0,2.9,2.5,1.9,1.9,0,0,0,1.3,0,22.9,22.9,0,0,1,2.8-.9,1.5,1.5,0,0,1,2.1,1c.3.9-.2,1.6-1.2,1.9A28.9,28.9,0,0,1,596.8,800.9Z" fill="#1571b8"/><path d="M578.4,825a1.9,1.9,0,0,1-1.3-.7l-5.7-5.7a1.5,1.5,0,0,1,0-2.4l5.7-5.8c.8-.7,1.7-.8,2.3-.1a1.5,1.5,0,0,1-.1,2.3c-1.3,1.4-2.7,2.8-4.1,4.1s-.5.8,0,1.4l4.2,4.1a1.5,1.5,0,0,1,.3,1.9A1.4,1.4,0,0,1,578.4,825Z" fill="#1571b8"/><path d="M596.3,809.8a2.3,2.3,0,0,1,1.4.7c1.8,1.9,3.7,3.7,5.6,5.6a1.6,1.6,0,0,1,0,2.6l-5.6,5.6c-.9.8-1.7.9-2.4.2a1.7,1.7,0,0,1,.2-2.4l4-4c.6-.5.6-.9,0-1.4l-4.1-4.1a1.5,1.5,0,0,1-.4-1.8A1.8,1.8,0,0,1,596.3,809.8Z" fill="#1571b8"/><path d="M584.4,825a1.6,1.6,0,0,1-1.5-1.8,2.8,2.8,0,0,1,.4-1.2l5.4-10.7a2,2,0,0,1,.4-.8,1.4,1.4,0,0,1,1.8-.5,1.5,1.5,0,0,1,1,1.7,3.6,3.6,0,0,1-.4.9c-1.8,3.7-3.6,7.4-5.5,11A2.1,2.1,0,0,1,584.4,825Z" fill="#1571b8"/><path d="M618.9,778.3a1.5,1.5,0,0,1-1.4,1.6,1.6,1.6,0,0,1-.1-3.1A1.5,1.5,0,0,1,618.9,778.3Z" fill="#1571b8"/><path d="M630.9,778.3a1.4,1.4,0,0,1-1.4,1.6,1.6,1.6,0,0,1-.1-3.1A1.5,1.5,0,0,1,630.9,778.3Z" fill="#1571b8"/><path d="M624.9,778.3a1.6,1.6,0,0,1-1.5,1.6,1.5,1.5,0,0,1-1.5-1.5,1.6,1.6,0,0,1,1.5-1.6A1.5,1.5,0,0,1,624.9,778.3Z" fill="#1571b8"/><path d="M510,400.9a8.9,8.9,0,0,1-3,5,8.3,8.3,0,0,1-4.9,1.9c-1.3.1-1.3.2-1.3,1.5a19.3,19.3,0,0,1-.1,2.4,2.2,2.2,0,0,1-3.3,2c-3.5-1.7-6.9-3.5-10.3-5.3a5,5,0,0,0-2.1-.5H462.9a9.2,9.2,0,0,1-6.5-2.2,8.9,8.9,0,0,1-2.9-6.8V381.8c0-1.3,0-1.3-1.2-1.3H439.5a3.3,3.3,0,0,0-1.9.6l-8.5,5.4a2.5,2.5,0,0,1-2.6.3,2.4,2.4,0,0,1-1.2-2.3v-2.4c0-1.6,0-1.6-1.6-1.6a10.8,10.8,0,0,1-7.1-2.3A11.9,11.9,0,0,1,413,372V333.8c.1-.1.1-.3.2-.4a10.3,10.3,0,0,1,10.5-8h57.9a14.3,14.3,0,0,1,2.9.3,10.3,10.3,0,0,1,7.9,10.3v24.4c0,.9.3,1.2,1.2,1.2q4-.2,8.1,0a8,8,0,0,1,5.5,2.2,8.5,8.5,0,0,1,2.8,4.6Zm-57.3-71H423.3a5.6,5.6,0,0,0-5.9,5.1,44.5,44.5,0,0,0-.2,7.3v27.4c0,4,2.5,6.4,6.4,6.4h3.6a2.3,2.3,0,0,1,2.5,2.4V380c0,.8.2.8.8.4l5.8-3.6a3.7,3.7,0,0,1,2.3-.7h13.9c.8,0,1.1-.2,1-1v-4.4c0-5.5,3.7-9.1,9.1-9.1,8.1-.1,16.1-.1,24.2,0,.9,0,1.2-.3,1.2-1.2V336a9.1,9.1,0,0,0-.1-1.7,5.7,5.7,0,0,0-5.9-4.4ZM481.8,366H462.7a4.6,4.6,0,0,0-4.8,4.8c.1,9.3,0,18.7,0,28,0,3.2,1.7,4.8,4.9,4.8H486a4.6,4.6,0,0,1,2,.5l6.4,3.3c1.9,1,1.9,1,1.9-1.1v-.4a2.3,2.3,0,0,1,2.4-2.3h2.2c3.2,0,4.9-1.7,4.9-4.9,0-9.2-.1-18.5,0-27.8a4.6,4.6,0,0,0-4.9-4.9C494.5,366.1,488.2,366,481.8,366Z" fill="#1571b8"/><path d="M444.5,352.7a2.1,2.1,0,0,1-2.1,2.1,2.1,2.1,0,1,1,0-4.2A2.2,2.2,0,0,1,444.5,352.7Z" fill="#1571b8"/><path d="M463,354.8a2.1,2.1,0,0,1-2.2-2.1,2.2,2.2,0,0,1,2.1-2.1,2.3,2.3,0,0,1,2.2,2.1A2.1,2.1,0,0,1,463,354.8Z" fill="#1571b8"/><path d="M452.6,354.8a2.2,2.2,0,0,1-2.1-2.1,2.3,2.3,0,0,1,2.2-2.1,2.2,2.2,0,0,1,2,2.1A2,2,0,0,1,452.6,354.8Z" fill="#1571b8"/><path d="M486.1,395.2a4.7,4.7,0,0,1-3-1.4c-1.2-.8-2.1-.9-3.2,0a5.2,5.2,0,0,1-3.1,1.4,4,4,0,0,1-4-4.9,10.5,10.5,0,0,1,.6-2.4,1.2,1.2,0,0,0-.5-1.3l-1.7-1.4a4,4,0,0,1-1.4-4.3,3.6,3.6,0,0,1,3.7-2.8c2.4.1,3.6-.8,4.3-3.1s1.9-2.5,3.7-2.6a3.9,3.9,0,0,1,3.7,2.6,5.4,5.4,0,0,1,.5,1.1c.2,1.5,1.3,2,2.7,1.9h1.8a4.2,4.2,0,0,1,3,2.9,4,4,0,0,1-1.2,4l-2,1.7c-.4.3-.6.6-.4,1.1l.6,2.6A4,4,0,0,1,486.1,395.2Zm-4.6-17.8-1.3,3.1a2.3,2.3,0,0,1-2.1,1.6l-3.4.3,2.2,1.8a2.8,2.8,0,0,1,1.1,3.3,8.2,8.2,0,0,0-.6,2.8l2.4-1.5a2.7,2.7,0,0,1,3.4,0,11.7,11.7,0,0,0,2.5,1.4c-.3-.9-.4-1.7-.6-2.4s-.2-2.8,1.2-3.8a6.7,6.7,0,0,0,1.8-1.6c-1.1-.1-2.1-.3-3.2-.3a2.2,2.2,0,0,1-2.2-1.6C482.3,379.5,481.9,378.6,481.5,377.4Z" fill="#1571b8"/><path d="M1442.4,477.1a85,85,0,0,1,0-170" fill="none" stroke="#fdfffc" stroke-miterlimit="10" stroke-width="8"/><path d="M1283.4,918.1a85,85,0,0,0,0-170" fill="none" stroke="#fdfffc" stroke-miterlimit="10" stroke-width="8"/><path d="M590.4,897.1a85,85,0,0,1,0-170" fill="none" stroke="#fdfffc" stroke-miterlimit="10" stroke-width="8"/></g><g id="numbers"><circle cx="869.5" cy="277.5" r="38.5" fill="#e35f26"/><text transform="translate(853.8 295)" font-size="58.66" fill="#fdfffc" font-family="Calibri-BoldItalic, Calibri" font-weight="700" font-style="italic">1</text><circle cx="1512.5" cy="469.5" r="38.5" fill="#e35f26"/><text transform="translate(1496.8 487)" font-size="58.66" fill="#fdfffc" font-family="Calibri-BoldItalic, Calibri" font-weight="700" font-style="italic">2</text><circle cx="1343.5" cy="909.5" r="38.5" fill="#e35f26"/><text transform="translate(1327.8 927)" font-size="58.66" fill="#fdfffc" font-family="Calibri-BoldItalic, Calibri" font-weight="700" font-style="italic">3</text><circle cx="561.5" cy="909.5" r="38.5" fill="#e35f26"/><text transform="translate(545.8 927)" font-size="58.66" fill="#fdfffc" font-family="Calibri-BoldItalic, Calibri" font-weight="700" font-style="italic">4</text><circle cx="389.5" cy="434.5" r="38.5" fill="#e35f26"/><text transform="translate(373.8 452)" font-size="58.66" fill="#fdfffc" font-family="Calibri-BoldItalic, Calibri" font-weight="700" font-style="italic">5</text></g></g></svg>