<svg width="96" height="96" xmlns="http://www.w3.org/2000/svg" xmlns:xlink="http://www.w3.org/1999/xlink"
    xml:space="preserve" overflow="hidden" fill="#df531f">
    <g>
        <path
            d="M51.6 27.5 46.5 24.3C46.5 24.3 46.5 24.3 46.5 24.3 46 24 45.4 24.2 45.1 24.6 45.1 24.7 45 24.7 45 24.8 44.7 24.3 44.2 24 43.7 24 42.9 24 42.2 24.7 42.2 25.5 42.2 26.3 42.9 27 43.7 27 43.7 27 43.8 27 43.8 27 43.6 27.4 43.3 27.9 43.1 28.4 42.8 28 42.4 27.8 41.9 27.8 41.1 27.8 40.4 28.5 40.4 29.3 40.4 30.1 41.1 30.8 41.9 30.8L41.9 30.8 41.7 31.2C41.7 31.2 41.7 31.2 41.7 31.2 40.8 33.2 41.6 35.6 43.6 36.5L45.4 37.4C45.9 37.6 46.5 37.4 46.7 36.9L49 31.9C50 30.3 50.8 28.8 51.6 27.5Z" />
        <path
            d="M45.6 39.6 40.1 37.1C39.6 36.9 39 37.1 38.8 37.6L38.7 37.9C38.4 37.5 38 37.3 37.5 37.3 36.7 37.3 36 38 36 38.8 36 39.6 36.7 40.3 37.5 40.3 37.5 40.3 37.6 40.3 37.6 40.3L37.3 40.9C37.2 41.1 37.1 41.4 37 41.6 36.7 41 36 40.6 35.4 40.7 34.6 40.8 34 41.6 34.2 42.4 34.3 43.2 35.1 43.8 35.9 43.6L35.9 43.6C34.9 45.4 35.3 47.6 37 48.8L38.7 50.1C38.7 50.1 38.7 50.1 38.7 50.1 39.1 50.4 39.8 50.3 40.1 49.8 41.8 47.3 43.3 44.7 44.5 41.9L45.6 39.6Z" />
        <path
            d="M60 18.4 56.7 13.4C56.7 13.4 56.7 13.4 56.7 13.4 56.4 12.9 55.8 12.8 55.3 13.2 55.2 13.3 55.1 13.4 55 13.5 54.9 12.9 54.5 12.4 54 12.2 53.2 12 52.4 12.4 52.1 13.2 51.9 14 52.3 14.8 53.1 15.1 52.6 15.5 52.1 16 51.7 16.4 51.6 15.8 51.1 15.4 50.5 15.3 49.7 15.2 48.9 15.7 48.8 16.5 48.7 17.3 49.2 18.1 50 18.2 49.9 18.3 49.8 18.5 49.6 18.6 49.5 18.7 49.4 18.8 49.4 18.9 48.2 20.7 48.6 23.2 50.5 24.5L52 25.5C52.5 25.8 53.1 25.7 53.4 25.2 55 22.5 57.4 20.2 60 18.4Z" />
        <path
            d="M30.2 50.2C29.9 50.4 29.7 50.5 29.4 50.7 29.4 50.7 29.4 50.6 29.4 50.6 29.4 50 29.1 49.5 28.6 49.3 27.9 48.9 27 49.2 26.6 49.9 26.2 50.6 26.5 51.5 27.2 51.9 26.4 52.6 25.9 53.7 25.9 54.8L25.9 57.5C25.9 57.5 25.9 57.6 25.9 57.6 25.9 58.2 26.4 58.6 27 58.5 31.1 58.2 34.7 56.2 37.9 52.6L33.4 48.6C33 48.3 32.4 48.3 32.1 48.7 32 48 31.4 47.4 30.7 47.4 29.9 47.4 29.2 48 29.1 48.8 29.1 49.4 29.6 50 30.2 50.2Z" />
        <path
            d="M6 45 6 81 90 81 90 28 89.6 27.4C84.8 20.3 78.7 16.9 71.2 16.9 59.3 16.9 53.8 26.8 48.8 37.8 48.6 38.3 48.4 38.8 48.1 39.3 44.5 47.4 38.4 61 25 60.4 20 60.4 15.4 58 12.6 53.9 8 47 9.7 37.7 16.5 33L16.5 52.3C17.3 53.3 18.4 54.2 19.5 54.8L19.5 31.4C21.2 30.7 23.1 30.4 25 30.4 25.5 30.4 26 30.4 26.5 30.5L26.5 44.5 29.5 43 29.5 31.1C31 31.6 32.4 32.3 33.8 33.1L35.5 29.5C32.3 27.6 28.7 26.5 25 26.4 14.6 26.4 6.2 34.7 6 45L6 45ZM80 23.3C82.4 24.8 84.4 26.8 86 29.2L86 75 80 75 80 23.3ZM70 21C70.4 21 70.8 20.9 71.2 20.9 72.8 20.9 74.4 21.1 76 21.5L76 75 70 75 70 21ZM60 26.4C61.6 24.5 63.7 22.9 66 21.9L66 75 60 75 60 26.4ZM50 44.9C50.7 43.5 51.3 42.1 51.8 40.9 52 40.4 52.3 39.9 52.5 39.4 53.6 36.9 54.8 34.5 56 32.3L56 75 50 75 50 44.9ZM40 59.1C42.3 57.1 44.3 54.7 46 52.1L46 75 40 75 40 59.1ZM30 64C32.1 63.6 34.1 62.9 36 61.9L36 75 30 75 30 64ZM20 63.6C21.6 64 23.3 64.3 25 64.3 25.3 64.3 25.7 64.3 26 64.3L26 75 20 75 20 63.6ZM10 57C11.6 59.1 13.7 60.8 16 62.1L16 75 10 75 10 57Z" />
    </g>
</svg>