<?xml version="1.0" encoding="UTF-8" standalone="no"?>
<!-- Created with Inkscape (http://www.inkscape.org/) -->

<svg
   version="1.1"
   id="svg2"
   width="601.47998"
   height="260.67999"
   viewBox="0 0 601.47998 260.67999"
   sodipodi:docname="Logo.eps"
   xmlns:inkscape="http://www.inkscape.org/namespaces/inkscape"
   xmlns:sodipodi="http://sodipodi.sourceforge.net/DTD/sodipodi-0.dtd"
   xmlns="http://www.w3.org/2000/svg"
   xmlns:svg="http://www.w3.org/2000/svg">
  <defs
     id="defs6">
    <clipPath
       clipPathUnits="userSpaceOnUse"
       id="clipPath18">
      <path
         d="m 2451.83,1520.22 c -125.89,-39.55 -297.45,-73.17 -500.79,-164.12 117.35,185.77 259.08,335.75 462.87,359.91 158.45,18.81 302.58,-112.66 37.92,-195.79 z m 24.62,431.15 C 1910.29,1884.24 1216.41,1076.8 1832.48,705.762 c -412.98,369.158 484.59,523.108 774.83,614.278 531.43,166.92 315.05,684.19 -130.86,631.33 z"
         id="path16" />
    </clipPath>
    <linearGradient
       x1="0"
       y1="0"
       x2="1"
       y2="0"
       gradientUnits="userSpaceOnUse"
       gradientTransform="matrix(1318.24,1052.86,1052.86,-1318.24,1611.19,951.66)"
       spreadMethod="pad"
       id="linearGradient24">
      <stop
         style="stop-opacity:1;stop-color:#c92524"
         offset="0"
         id="stop20" />
      <stop
         style="stop-opacity:1;stop-color:#e54d1f"
         offset="1"
         id="stop22" />
    </linearGradient>
    <clipPath
       clipPathUnits="userSpaceOnUse"
       id="clipPath34">
      <path
         d="m 1831.43,706.43 c -15.84,9.582 -30.64,19.492 -44.77,29.621 13.78,-10.442 28.72,-20.371 44.77,-29.621 z"
         id="path32" />
    </clipPath>
    <linearGradient
       x1="0"
       y1="0"
       x2="1"
       y2="0"
       gradientUnits="userSpaceOnUse"
       gradientTransform="matrix(35.8418,-13.9537,-13.9537,-35.8418,1786.39,730.06)"
       spreadMethod="pad"
       id="linearGradient40">
      <stop
         style="stop-opacity:1;stop-color:#264798"
         offset="0"
         id="stop36" />
      <stop
         style="stop-opacity:1;stop-color:#366dbe"
         offset="1"
         id="stop38" />
    </linearGradient>
    <clipPath
       clipPathUnits="userSpaceOnUse"
       id="clipPath50">
      <path
         d="m 2209.69,1076.72 c -46.77,-7.11 -96.35,-18.04 -144.28,-28.59 -100.06,-22.05 -202.85,-44.58 -271.3,-31.04 -90.53,-82.309 -103.99,-183.942 38.14,-311.11 78.03,-44.82 181.16,-74.191 295.19,-74.191 61.52,0 126.21,8.543 191.78,27.801 164.12,48.211 227.94,172.832 206.15,271.031 -19.24,86.639 -113.51,176.879 -315.68,146.099 z"
         id="path48" />
    </clipPath>
    <linearGradient
       x1="0"
       y1="0"
       x2="1"
       y2="0"
       gradientUnits="userSpaceOnUse"
       gradientTransform="matrix(525.449,-204.564,-204.564,-525.449,1793.27,1007.95)"
       spreadMethod="pad"
       id="linearGradient56">
      <stop
         style="stop-opacity:1;stop-color:#264798"
         offset="0"
         id="stop52" />
      <stop
         style="stop-opacity:1;stop-color:#366dbe"
         offset="1"
         id="stop54" />
    </linearGradient>
  </defs>
  <sodipodi:namedview
     id="namedview4"
     pagecolor="#ffffff"
     bordercolor="#000000"
     borderopacity="0.25"
     inkscape:showpageshadow="2"
     inkscape:pageopacity="0.0"
     inkscape:pagecheckerboard="0"
     inkscape:deskcolor="#d1d1d1" />
  <g
     id="g8"
     inkscape:groupmode="layer"
     inkscape:label="ink_ext_XXXXXX"
     transform="matrix(1.3333333,0,0,-1.3333333,0,260.68)">
    <g
       id="g10"
       transform="scale(0.1)">
      <g
         id="g12">
        <g
           id="g14"
           clip-path="url(#clipPath18)">
          <path
             d="m 2451.83,1520.22 c -125.89,-39.55 -297.45,-73.17 -500.79,-164.12 117.35,185.77 259.08,335.75 462.87,359.91 158.45,18.81 302.58,-112.66 37.92,-195.79 z m 24.62,431.15 C 1910.29,1884.24 1216.41,1076.8 1832.48,705.762 c -412.98,369.158 484.59,523.108 774.83,614.278 531.43,166.92 315.05,684.19 -130.86,631.33"
             style="fill:url(#linearGradient24);fill-opacity:1;fill-rule:nonzero;stroke:none"
             id="path26" />
        </g>
      </g>
      <g
         id="g28">
        <g
           id="g30"
           clip-path="url(#clipPath34)">
          <path
             d="m 1831.43,706.43 c -15.84,9.582 -30.64,19.492 -44.77,29.621 13.78,-10.442 28.72,-20.371 44.77,-29.621"
             style="fill:url(#linearGradient40);fill-opacity:1;fill-rule:nonzero;stroke:none"
             id="path42" />
        </g>
      </g>
      <g
         id="g44">
        <g
           id="g46"
           clip-path="url(#clipPath50)">
          <path
             d="m 2209.69,1076.72 c -46.77,-7.11 -96.35,-18.04 -144.28,-28.59 -100.06,-22.05 -202.85,-44.58 -271.3,-31.04 -90.53,-82.309 -103.99,-183.942 38.14,-311.11 78.03,-44.82 181.16,-74.191 295.19,-74.191 61.52,0 126.21,8.543 191.78,27.801 164.12,48.211 227.94,172.832 206.15,271.031 -19.24,86.639 -113.51,176.879 -315.68,146.099"
             style="fill:url(#linearGradient56);fill-opacity:1;fill-rule:nonzero;stroke:none"
             id="path58" />
        </g>
      </g>
      <path
         d="M 80.6367,332.98 V 290.691 H 373.309 V 209.398 H 80.6367 v -85.847 c 0,-22.77 18.8672,-41.6213 41.6253,-41.6213 H 454.594 V 0.628906 H 122.262 C 54.6289,0.628906 0,55.9219 0,123.551 V 332.98 c 0,67.641 54.6289,122.911 122.262,122.911 H 454.594 V 374.602 H 122.262 c -22.7581,0 -41.6253,-18.872 -41.6253,-41.622"
         style="fill:#e54d1f;fill-opacity:1;fill-rule:nonzero;stroke:none"
         id="path60" />
      <path
         d="M 974.824,455.219 V 0 L 893.539,62.4219 600.867,288.109 V 0 h -81.281 v 453.93 l 81.281,-62.418 292.672,-225.68 v 290.059 l 81.285,-0.672"
         style="fill:#e54d1f;fill-opacity:1;fill-rule:nonzero;stroke:none"
         id="path62" />
      <path
         d="m 1478.8,0.628906 h -91.06 L 1346.12,81.9297 1246.62,277.039 1147.12,81.9297 1105.5,0.628906 h -91.05 L 1056.07,81.9297 1246.62,455.891 1437.17,81.9297 1478.8,0.628906"
         style="fill:#e54d1f;fill-opacity:1;fill-rule:nonzero;stroke:none"
         id="path64" />
      <path
         d="m 1827.98,82.582 c 35.13,0 63.75,28.617 63.75,63.75 0,35.109 -28.62,63.727 -63.75,63.727 H 1599.06 V 81.9297 h 228.92 z m -228.92,208.777 h 206.17 c 22.75,0 41.62,18.852 41.62,41.621 0,22.75 -18.87,41.622 -41.62,41.622 H 1599.06 Z M 1973.02,145.66 C 1973.02,65.6719 1907.99,0.628906 1827.98,0.628906 H 1517.77 V 455.891 h 286.81 c 67.63,0 122.91,-55.27 122.91,-122.911 0,-24.718 -7.14,-47.48 -19.5,-66.339 39.02,-26.02 65.03,-70.25 65.03,-120.981"
         style="fill:#e54d1f;fill-opacity:1;fill-rule:nonzero;stroke:none"
         id="path66" />
      <path
         d="M 2397.01,81.2813 V 0 h -230.88 c -22.76,0 -44.22,5.19141 -63.73,14.9492 -28.62,14.3125 -52.03,37.7227 -65.69,66.3321 -9.75,19.4997 -14.95,40.9687 -14.95,63.7307 v 310.207 h 81.28 V 137.23 c 3.91,-28.64 26.68,-51.3902 55.29,-55.3003 l 238.68,-0.6484"
         style="fill:#e54d1f;fill-opacity:1;fill-rule:nonzero;stroke:none"
         id="path68" />
      <path
         d="m 2543.28,332.98 v -42.289 h 292.67 v -81.293 h -292.67 v -85.847 c 0,-22.77 18.87,-41.6213 41.62,-41.6213 h 332.34 V 0.628906 H 2584.9 c -67.63,0 -122.25,55.292994 -122.25,122.922094 V 332.98 c 0,67.641 54.62,122.911 122.25,122.911 h 332.34 V 374.602 H 2584.9 c -22.75,0 -41.62,-18.872 -41.62,-41.622"
         style="fill:#e54d1f;fill-opacity:1;fill-rule:nonzero;stroke:none"
         id="path70" />
      <path
         d="M 3437.47,455.219 V 0 L 3356.18,62.4219 3063.51,288.109 V 0 h -81.28 v 453.93 l 81.28,-62.418 292.67,-225.68 v 290.059 l 81.29,-0.672"
         style="fill:#366dbe;fill-opacity:1;fill-rule:nonzero;stroke:none"
         id="path72" />
      <path
         d="m 3860.16,228.262 c 0,80.636 -65.7,146.34 -146.33,146.34 -80.66,0 -146.35,-65.704 -146.35,-146.34 0,-80.641 65.69,-146.3323 146.35,-146.3323 80.63,0 146.33,65.6913 146.33,146.3323 z m 81.27,0 c 0,-125.524 -102.09,-227.633094 -227.6,-227.633094 -125.54,0 -227.63,102.109094 -227.63,227.633094 0,125.519 102.09,227.629 227.63,227.629 125.51,0 227.6,-102.11 227.6,-227.629"
         style="fill:#366dbe;fill-opacity:1;fill-rule:nonzero;stroke:none"
         id="path74" />
      <path
         d="M 4404.45,98.8398 4375.18,0.628906 4315.35,83.8789 4224.95,208.109 4135.21,83.8789 4075.37,1.28906 4046.1,98.8398 3940.11,455.891 h 84.54 l 81.94,-274.45 68.94,95.598 13.01,18.199 37.06,50.731 37.07,-50.731 13,-18.199 68.95,-95.598 81.95,274.45 h 84.54 L 4404.45,98.8398"
         style="fill:#366dbe;fill-opacity:1;fill-rule:nonzero;stroke:none"
         id="path76" />
    </g>
  </g>
</svg>
