<svg xmlns="http://www.w3.org/2000/svg" viewBox="0 0 500 500"><defs><style>.cls-1{fill:#ebebeb;}.cls-2{fill:#28669b;}.cls-15,.cls-3{fill:#0671b8;}.cls-4{fill:#e5e5e5;}.cls-5,.cls-9{fill:#e6e6e6;}.cls-6{fill:#f0f0f0;}.cls-7{fill:#fafafa;}.cls-8{fill:#fff;}.cls-9{opacity:0.5;}.cls-10{fill:#e5451a;}.cls-11{fill:#f05623;}.cls-12,.cls-19{fill:#930217;}.cls-12{opacity:0.6;}.cls-13,.cls-14{fill:#db3812;}.cls-14,.cls-15,.cls-23{opacity:0.3;}.cls-16{fill:#ff8b7b;}.cls-17{fill:#263238;}.cls-18{fill:#e5ceb4;}.cls-20,.cls-21,.cls-27{opacity:0.2;}.cls-22,.cls-27{fill:#d42027;}.cls-24,.cls-28{fill:#d2b08c;}.cls-24{stroke:#d2b08c;stroke-miterlimit:10;stroke-width:0.25px;}.cls-25{fill:#070707;}.cls-26{fill:#f4e0c7;}.cls-29{fill:#020202;}.cls-30{fill:#bf9182;}</style></defs><g id="Background_Complete" data-name="Background Complete"><rect class="cls-1" y="382.4" width="500" height="0.25"/><path class="cls-1" d="M237,337.8H43.91a5.71,5.71,0,0,1-5.7-5.71V60.66A5.71,5.71,0,0,1,43.91,55H237a5.71,5.71,0,0,1,5.71,5.71V332.09A5.71,5.71,0,0,1,237,337.8ZM43.91,55.2a5.46,5.46,0,0,0-5.45,5.46V332.09a5.46,5.46,0,0,0,5.45,5.46H237a5.47,5.47,0,0,0,5.46-5.46V60.66A5.47,5.47,0,0,0,237,55.2Z"/><path class="cls-1" d="M453.31,337.8H260.21a5.72,5.72,0,0,1-5.71-5.71V60.66A5.72,5.72,0,0,1,260.21,55h193.1A5.71,5.71,0,0,1,459,60.66V332.09A5.71,5.71,0,0,1,453.31,337.8ZM260.21,55.2a5.47,5.47,0,0,0-5.46,5.46V332.09a5.47,5.47,0,0,0,5.46,5.46h193.1a5.47,5.47,0,0,0,5.46-5.46V60.66a5.47,5.47,0,0,0-5.46-5.46Z"/><rect class="cls-2" x="413.75" y="277.34" width="27.5" height="105.06"/><polygon class="cls-3" points="436.03 382.4 441.25 382.4 441.25 367.54 430.55 367.54 436.03 382.4"/><rect class="cls-2" x="256.83" y="277.34" width="27.5" height="105.06"/><rect class="cls-3" x="279.77" y="277.34" width="161.48" height="95.94"/><rect class="cls-4" x="272.83" y="294.52" width="72.5" height="47.87" transform="translate(-9.38 627.53) rotate(-90)"/><path class="cls-2" d="M313.81,286.36h-9.47a15,15,0,0,1-10.88-4.67h31.23A15,15,0,0,1,313.81,286.36Z"/><rect class="cls-4" x="324.26" y="294.52" width="72.5" height="47.87" transform="translate(42.06 678.97) rotate(-90)"/><path class="cls-2" d="M365.73,286.36h-9.47a15,15,0,0,1-10.87-4.67h31.22A15,15,0,0,1,365.73,286.36Z"/><rect class="cls-4" x="375.7" y="294.52" width="72.5" height="47.87" transform="translate(93.49 730.41) rotate(-90)"/><path class="cls-2" d="M417.17,286.36H407.7a15,15,0,0,1-10.88-4.67H428A15,15,0,0,1,417.17,286.36Z"/><polygon class="cls-3" points="284.99 382.4 279.77 382.4 279.77 367.54 290.47 367.54 284.99 382.4"/><rect class="cls-5" x="68.26" y="73.99" width="151.5" height="141.9"/><rect class="cls-6" x="70.8" y="73.99" width="154.4" height="141.9"/><rect class="cls-5" x="68.26" y="215.89" width="151.5" height="10.11"/><rect class="cls-6" x="79.86" y="215.89" width="154.4" height="10.11"/><rect class="cls-7" x="84.67" y="75.35" width="126.66" height="139.17" transform="translate(292.94 -3.06) rotate(90)"/><polygon class="cls-8" points="92.99 208.27 137.7 81.61 158.8 81.61 114.09 208.27 92.99 208.27"/><path class="cls-6" d="M81.94,165.3a.55.55,0,0,0,.55-.55V86.56a.55.55,0,0,0-.55-.54.54.54,0,0,0-.54.54v78.19A.55.55,0,0,0,81.94,165.3Z"/><polygon class="cls-8" points="118.63 208.27 163.34 81.61 171.56 81.61 126.86 208.27 118.63 208.27"/><rect class="cls-5" x="153.77" y="144.46" width="126.66" height="0.97" transform="translate(362.04 -72.16) rotate(90)"/><polygon class="cls-9" points="227 94.74 75.5 94.74 74.8 84.57 226.3 84.57 227 94.74"/><polygon class="cls-9" points="227 102.18 75.5 102.18 74.8 92.01 226.3 92.01 227 102.18"/><polygon class="cls-9" points="227 111.11 75.5 111.11 74.8 100.94 226.3 100.94 227 111.11"/><polygon class="cls-9" points="227 121.05 75.5 121.05 74.8 110.88 226.3 110.88 227 121.05"/><polygon class="cls-9" points="227 132.96 75.5 132.96 74.8 122.79 226.3 122.79 227 132.96"/><polygon class="cls-9" points="227 146.35 75.5 146.35 74.8 136.18 226.3 136.18 227 146.35"/><rect class="cls-10" x="183.79" y="288.2" width="44.84" height="94.2"/><polygon class="cls-11" points="224.12 382.4 228.63 382.4 228.63 369.57 219.39 369.57 224.12 382.4"/><rect class="cls-10" x="73.49" y="288.2" width="44.84" height="94.2"/><rect class="cls-11" x="114.39" y="288.2" width="114.23" height="86.33"/><rect class="cls-4" x="117.89" y="292.02" width="107.24" height="23.68"/><path class="cls-10" d="M176.57,299.38H166.44c-4.4,0-8.6-2.92-11.63-8.08h33.4C185.18,296.46,181,299.38,176.57,299.38Z"/><polygon class="cls-11" points="118.9 382.4 114.39 382.4 114.39 369.57 123.63 369.57 118.9 382.4"/><rect class="cls-4" x="117.89" y="319.52" width="107.24" height="23.68"/><path class="cls-10" d="M176.57,326.88H166.44c-4.4,0-8.6-2.92-11.63-8.08h33.4C185.18,324,181,326.88,176.57,326.88Z"/><rect class="cls-4" x="117.89" y="347.02" width="107.24" height="23.68"/><path class="cls-10" d="M176.57,354.38H166.44c-4.4,0-8.6-2.92-11.63-8.08h33.4C185.18,351.46,181,354.38,176.57,354.38Z"/><rect class="cls-5" x="322.61" y="93.47" width="87.06" height="116.44"/><rect class="cls-6" x="323.83" y="93.47" width="91.5" height="116.44"/><rect class="cls-8" x="324.02" y="118.6" width="91.11" height="66.17" transform="translate(521.26 -217.89) rotate(90)"/><rect class="cls-5" x="356.61" y="151.19" width="91.11" height="0.99" transform="translate(553.85 -250.48) rotate(90)"/><path class="cls-6" d="M370.81,132.42H351a.74.74,0,0,0-.74.73v19.77a18.06,18.06,0,0,0,18,18h19.77a.74.74,0,0,0,.74-.74V150.45A18.05,18.05,0,0,0,370.81,132.42Zm-2.47,37.07a16.58,16.58,0,0,1-16.56-16.57v-19h19a16.59,16.59,0,0,1,16.57,16.56Z"/></g><g id="Shadow"><ellipse id="_Path_" data-name="&lt;Path&gt;" class="cls-12" cx="250" cy="416.24" rx="193.89" ry="11.32"/></g><g id="Contract"><path class="cls-13" d="M246.59,88c-.91-5.52,2.82-10,8.34-10H214.6c-5.52,0-9.25,4.47-8.34,10Z"/><path class="cls-14" d="M246.59,88c-.91-5.52,2.82-10,8.34-10H214.6c-5.52,0-9.25,4.47-8.34,10Z"/><path class="cls-11" d="M254.93,78H214.6a12.28,12.28,0,0,1,11.66,10l8.83,53.32a12.29,12.29,0,0,0,11.66,10h20.34c5.52,0,9.25-4.48,8.34-10L266.59,88A12.28,12.28,0,0,0,254.93,78Z"/><path class="cls-13" d="M255.09,141.35c.91,5.52-2.82,10-8.34,10h40.33a8.25,8.25,0,0,0,8.34-10Z"/><path class="cls-14" d="M255.09,141.35c.91,5.52-2.82,10-8.34,10h40.33a8.25,8.25,0,0,0,8.34-10Z"/><path class="cls-8" d="M261.58,92.63H232.79a.74.74,0,0,1-.7-.6h0a.49.49,0,0,1,.5-.6h28.79a.74.74,0,0,1,.7.6h0A.49.49,0,0,1,261.58,92.63Z"/><path class="cls-8" d="M245.63,96.79H233.48a.74.74,0,0,1-.7-.6h0a.49.49,0,0,1,.5-.6h12.15a.74.74,0,0,1,.7.6h0A.5.5,0,0,1,245.63,96.79Z"/><path class="cls-8" d="M256.87,96.79h-8.4a.73.73,0,0,1-.69-.6h0a.49.49,0,0,1,.49-.6h8.4a.73.73,0,0,1,.69.6h0A.49.49,0,0,1,256.87,96.79Z"/><path class="cls-8" d="M263,101H234.17a.73.73,0,0,1-.7-.59h0a.49.49,0,0,1,.5-.6h28.79a.74.74,0,0,1,.7.6h0A.49.49,0,0,1,263,101Z"/><path class="cls-8" d="M260.81,105.12H234.86a.74.74,0,0,1-.7-.6h0a.5.5,0,0,1,.5-.6h26a.74.74,0,0,1,.7.6h0A.5.5,0,0,1,260.81,105.12Z"/><path class="cls-8" d="M253,109.28H235.55a.74.74,0,0,1-.7-.6h0a.49.49,0,0,1,.5-.59h17.46a.75.75,0,0,1,.7.59h0A.5.5,0,0,1,253,109.28Z"/><path class="cls-8" d="M265,113.45H236.24a.74.74,0,0,1-.7-.6h0a.5.5,0,0,1,.5-.6h28.79a.74.74,0,0,1,.7.6h0A.49.49,0,0,1,265,113.45Z"/><path class="cls-8" d="M265.72,117.61H236.93a.74.74,0,0,1-.7-.6h0a.5.5,0,0,1,.5-.6h28.8a.73.73,0,0,1,.69.6h0A.49.49,0,0,1,265.72,117.61Z"/><path class="cls-8" d="M255.08,121.77H237.62a.75.75,0,0,1-.7-.59h0a.5.5,0,0,1,.5-.6h17.46a.74.74,0,0,1,.7.6h0A.49.49,0,0,1,255.08,121.77Z"/><rect class="cls-3" x="285.28" y="85.28" width="2.12" height="52.43" transform="translate(470.89 357.18) rotate(-148.19)"/><rect class="cls-15" x="285.28" y="85.28" width="2.12" height="52.43" transform="translate(470.89 357.18) rotate(-148.19)"/><rect class="cls-3" x="281.68" y="83.05" width="2.12" height="52.43" transform="translate(465.41 351.16) rotate(-148.19)"/><rect class="cls-15" x="281.68" y="83.05" width="2.12" height="52.43" transform="translate(465.41 351.16) rotate(-148.19)"/><rect class="cls-2" x="283.48" y="84.17" width="2.12" height="52.43" transform="translate(468.16 354.17) rotate(-148.19)"/><polygon class="cls-16" points="267.97 135.28 269.59 136.29 273.42 134.34 268.02 130.99 267.97 135.28"/><polygon class="cls-3" points="267.95 137.13 269.59 136.29 267.97 135.28 267.95 137.13"/><path class="cls-8" d="M267,137.5h-.07a8.87,8.87,0,0,1-3.45-2.54,15.05,15.05,0,0,0-1.89-1.71.57.57,0,0,0-.73,0,.48.48,0,0,0,0,.65c.24.36.51.7.78,1a.75.75,0,0,1,.09.89.69.69,0,0,1-.79.25,11.73,11.73,0,0,1-1.12-.43.17.17,0,0,0-.24.24l.05.13a.83.83,0,0,1-.08.82.84.84,0,0,1-.74.33,129.74,129.74,0,0,0-13.21.05.25.25,0,0,1,0-.5,130.72,130.72,0,0,1,13.26-.05.31.31,0,0,0,.3-.12.34.34,0,0,0,0-.34l-.05-.11a.67.67,0,0,1,.91-.91,8,8,0,0,0,1.06.41.18.18,0,0,0,.22,0,.24.24,0,0,0-.05-.29c-.29-.34-.56-.7-.81-1.06a1,1,0,0,1,.06-1.29,1,1,0,0,1,1.36,0,14.25,14.25,0,0,1,2,1.77A8.56,8.56,0,0,0,267,137a.25.25,0,0,1,.16.32A.25.25,0,0,1,267,137.5Z"/><polygon class="cls-11" points="262.71 174.14 269.4 162.57 256.03 162.57 262.71 174.14"/></g><g id="Character_2" data-name="Character 2"><path class="cls-17" d="M337.78,140.16a14.78,14.78,0,0,0-10.34-3.7c-2.43-4.9-7.44-7.76-12.74-6.79-7.6,1.39-9.92,10.52-4.64,13.85a22.3,22.3,0,0,0,5.62,2.55l0,.24a17.15,17.15,0,0,0-11.28,14.8c-.78,11.32,11.38,17.94,18,11.64A35,35,0,0,0,325,170c1.28,1.8,2.66,3.64,4.15,5.56C345.69,167.94,348.48,149.39,337.78,140.16Z"/><path class="cls-18" d="M304.53,184.17c-.1,1.4-.22,2.62-.4,3.9s-.35,2.52-.56,3.77c-.42,2.51-1,5-1.59,7.45a78.67,78.67,0,0,1-5.08,14.49l-.21.44c-.08.17-.1.23-.25.53a8.5,8.5,0,0,1-.89,1.4,9,9,0,0,1-2.29,2,13.39,13.39,0,0,1-4.68,1.71,29.62,29.62,0,0,1-8.23.11,66.9,66.9,0,0,1-14.83-3.57l1.1-4c2.31.35,4.72.67,7.08.88a61.48,61.48,0,0,0,7,.36,25.86,25.86,0,0,0,6.38-.68,6.25,6.25,0,0,0,2.11-.95,1.42,1.42,0,0,0,.39-.43.64.64,0,0,0,.06-.16l.28-.72c.42-1.07.83-2.15,1.18-3.26s.72-2.21,1.07-3.32c.63-2.25,1.25-4.5,1.76-6.8s.93-4.6,1.32-6.92.7-4.72.93-6.88Z"/><path class="cls-19" d="M298.84,174.16c-3.38.85-5.74,14.74-5.74,14.74l9.3,6.32s8.92-14,6.32-17.71C306,173.64,303.76,172.9,298.84,174.16Z"/><polygon class="cls-20" points="299.14 177.26 296.55 191.25 301.77 194.8 299.14 177.26"/><path class="cls-18" d="M262.62,211.94l-6.5,1.91,6.74,4.89s4.76-2.23,4.93-5.63l-.66-.46A5.34,5.34,0,0,0,262.62,211.94Z"/><path class="cls-18" d="M262.67,212.89,259.55,214a17.06,17.06,0,0,0-1.79.72s2.06.86,3.09.28a17.37,17.37,0,0,0,4.67-.28Z"/><polygon class="cls-18" points="251.81 218.16 256.78 223.06 262.86 218.74 256.12 213.85 251.81 218.16"/><polygon class="cls-18" points="317.09 407.88 308.91 407.88 308.36 388.92 316.55 388.92 317.09 407.88"/><path d="M308.63,406.93h9.19a.65.65,0,0,1,.66.56l1,7.28a1.31,1.31,0,0,1-1.31,1.45c-3.2-.05-4.75-.24-8.8-.24-2.48,0-9.63.26-13.07.26s-3.62-3.4-2.19-3.71c6.42-1.38,11-3.28,13.11-5.1A2.18,2.18,0,0,1,308.63,406.93Z"/><g class="cls-21"><polygon points="308.36 388.92 308.64 398.7 316.83 398.7 316.55 388.92 308.36 388.92"/></g><path class="cls-22" d="M298.84,174.16s-3.9,1.37,3.91,49.41H336c-.56-13.53-.57-21.88,5.9-49.65a97.47,97.47,0,0,0-14.12-1.86,105.58,105.58,0,0,0-15.1,0C306.19,172.65,298.84,174.16,298.84,174.16Z"/><path class="cls-18" d="M326.28,155.06c-.95,4.85-1.9,13.76,1.5,17,0,0-1.33,4.93-10.36,4.93-9.93,0-4.74-4.93-4.74-4.93,5.41-1.3,5.27-5.32,4.33-9.09Z"/><path class="cls-18" d="M327.77,172.06a105.58,105.58,0,0,0-15.1,0l-1,.1c-1.21,2.28-1.51,5.79,1.38,11,0,0,13.24-5.34,16.69-10.92C329.1,172.14,328.44,172.09,327.77,172.06Z"/><path class="cls-20" d="M322.5,158.29,317,163a14.92,14.92,0,0,1,.47,2.68c2.07-.3,4.91-2.57,5.13-4.74A7.17,7.17,0,0,0,322.5,158.29Z"/><path class="cls-18" d="M331.52,146.64c-1.85,7.91-2.47,11.3-7.21,14.71-7.12,5.14-16.43,1.14-17-7.17-.5-7.47,2.62-19.16,11-21A11.09,11.09,0,0,1,331.52,146.64Z"/><path d="M302.75,223.57s-6.46,63.07-5.92,88c.56,26,10.07,85.19,10.07,85.19H318s-1.75-57.71-.77-83.21c1.07-27.81,9.9-90,9.9-90Z"/><path class="cls-23" d="M302.75,223.57s-6.46,63.07-5.92,88c.56,26,10.07,85.19,10.07,85.19H318s-1.75-57.71-.77-83.21c1.07-27.81,9.9-90,9.9-90Z"/><polygon points="318.93 397.2 305.94 397.2 304.99 393.06 319.54 392.55 318.93 397.2"/><path class="cls-20" d="M317.09,239.26c-8.16,16.43-1.64,46.4,1.25,57.55,1.48-16.74,4-37.22,5.93-52.25C323,236.06,320.86,231.69,317.09,239.26Z"/><polygon class="cls-18" points="355.36 407.88 347.17 407.88 344.17 388.92 352.35 388.92 355.36 407.88"/><path d="M346.77,406.93H356a.76.76,0,0,1,.72.56l2,7.28a1.14,1.14,0,0,1-1.13,1.45c-3.21-.05-4.78-.24-8.83-.24-2.49,0-9.6.26-13,.26s-4.06-3.4-2.67-3.71c6.24-1.38,10.52-3.28,12.45-5.1A1.9,1.9,0,0,1,346.77,406.93Z"/><g class="cls-21"><polygon points="344.17 388.92 345.72 398.7 353.91 398.7 352.36 388.92 344.17 388.92"/></g><path d="M312,223.57s6.87,63.07,10.65,88c3.93,26,21.13,85.19,21.13,85.19H354.8s-9.24-57.71-11.57-83.21c-2.54-27.81-6.93-90-6.93-90Z"/><path class="cls-23" d="M312,223.57s6.87,63.07,10.65,88c3.93,26,21.13,85.19,21.13,85.19H354.8s-9.24-57.71-11.57-83.21c-2.54-27.81-6.93-90-6.93-90Z"/><polygon points="355.81 397.2 342.82 397.2 341.33 393.06 355.81 392.55 355.81 397.2"/><path class="cls-17" d="M318.41,146.59c-.11.65-.55,1.12-1,1s-.69-.66-.57-1.31.54-1.12,1-1.05S318.52,145.94,318.41,146.59Z"/><path class="cls-17" d="M311.05,145.34c-.11.65-.55,1.12-1,1s-.68-.65-.57-1.31.54-1.12,1-1S311.16,144.69,311.05,145.34Z"/><path class="cls-17" d="M310.66,144.1l-1.49-.72S309.77,144.74,310.66,144.1Z"/><path class="cls-24" d="M315.59,156.24a8.54,8.54,0,0,1-1-.09.2.2,0,0,1-.16-.23.22.22,0,0,1,.23-.16,5.17,5.17,0,0,0,4.54-1.3.21.21,0,0,1,.28,0,.2.2,0,0,1,0,.28A5.46,5.46,0,0,1,315.59,156.24Z"/><path class="cls-17" d="M335.38,134.32a8.28,8.28,0,0,0-3.13-1.34c-.91-7.8-7.16-12.76-14.13-11.19-7.9,1.78-10.65,11.58-5.34,14.92a23.35,23.35,0,0,0,10.3,3.35c.14,6.47,4.17,12,7,12.3C338.16,149.14,340.25,137.75,335.38,134.32Z"/><path class="cls-18" d="M332.44,154.34a6,6,0,0,1-3.61,2.75c-2,.51-3-1.3-2.38-3.18.53-1.69,2.23-4,4.24-3.69A2.68,2.68,0,0,1,332.44,154.34Z"/><path class="cls-17" d="M321.62,145.59a.39.39,0,0,1-.37-.27c-.53-1.71-2.72-2.45-2.74-2.45a.39.39,0,0,1-.25-.49.38.38,0,0,1,.49-.25c.1,0,2.6.87,3.24,3a.39.39,0,0,1-.25.49Z"/><path class="cls-17" d="M309.42,141.56a.4.4,0,0,1-.34-.19.39.39,0,0,1,.15-.53,3.86,3.86,0,0,1,3.53-.24.39.39,0,0,1-.35.69h0a3.12,3.12,0,0,0-2.8.22A.34.34,0,0,1,309.42,141.56Z"/><path class="cls-18" d="M345.72,183.45c1,4.71,1.66,9.34,2.22,14.07a132.55,132.55,0,0,1,1,14.31c0,.24,0,.74,0,1.18s-.07.8-.12,1.17c-.12.73-.25,1.41-.42,2-.32,1.28-.7,2.47-1.1,3.64-.8,2.33-1.75,4.54-2.71,6.72a141,141,0,0,1-6.51,12.65l-3.76-1.75,2.23-6.58c.75-2.18,1.47-4.38,2.14-6.57s1.32-4.36,1.88-6.5c.27-1.07.5-2.13.66-3.13.08-.5.14-1,.18-1.4,0-.21,0-.4,0-.57l-.05-.57c-.18-2.24-.44-4.49-.71-6.75l-.94-6.8c-.69-4.52-1.46-9.1-2.23-13.57Z"/><path class="cls-19" d="M341.9,173.92c3.33,1,7.33,12.48,7.33,12.48l-12.93,9.24s-4.71-9.57-3.31-13.88C334.45,177.28,338.09,172.76,341.9,173.92Z"/><path class="cls-17" d="M318,145.35l-1.49-.72S317.13,146,318,145.35Z"/><path class="cls-19" d="M336.5,221.62l.85,3c.12.24-.16.47-.54.47H302.58c-.3,0-.54-.15-.56-.33l-.3-3c0-.21.24-.38.56-.38H336A.61.61,0,0,1,336.5,221.62Z"/><path class="cls-18" d="M334.47,236.7l-6.35,6.16,8.28.83s3-4.33,1.43-7.35Z"/><polygon class="cls-18" points="327.18 249.68 334.16 250 336.4 243.69 328.12 242.86 327.18 249.68"/></g><g id="Character_1" data-name="Character 1"><path class="cls-25" d="M165.3,409.11a3.3,3.3,0,0,0,2.24-.55.68.68,0,0,0,.1-.76.73.73,0,0,0-.49-.41c-1.18-.33-4,1.13-4.08,1.2a.19.19,0,0,0-.11.18.15.15,0,0,0,.12.14A12.68,12.68,0,0,0,165.3,409.11Zm1.38-1.42a1.15,1.15,0,0,1,.33,0,.42.42,0,0,1,.3.24c.09.22,0,.33,0,.39-.41.47-2.27.48-3.61.29A8.94,8.94,0,0,1,166.68,407.69Z"/><path class="cls-25" d="M163.11,408.91h.08c.94-.4,2.93-2,2.92-2.82,0-.2-.11-.44-.58-.49a1.48,1.48,0,0,0-1,.3,5.88,5.88,0,0,0-1.55,2.83.14.14,0,0,0,.05.16A.14.14,0,0,0,163.11,408.91Zm2.23-3h.11c.3,0,.31.15.31.19,0,.5-1.37,1.75-2.36,2.29a4.91,4.91,0,0,1,1.3-2.26A1.09,1.09,0,0,1,165.34,405.93Z"/><polygon class="cls-26" points="155.06 408.74 162.41 408.74 165.64 391.72 158.29 391.72 155.06 408.74"/><path d="M162.48,407.89h-8a.78.78,0,0,0-.7.5l-2.41,6.53a.91.91,0,0,0,.86,1.3c2.91,0,7.11-.21,10.75-.21,4.25,0,3.86.23,8.85.23,3,0,4.3-3.05,3.08-3.33-5.56-1.25-6.21-1.39-10.72-4.45A3,3,0,0,0,162.48,407.89Z"/><polygon class="cls-20" points="165.64 391.73 163.97 400.5 156.62 400.5 158.29 391.73 165.64 391.73"/><path class="cls-26" d="M166.19,225.45,171,230.5l-7.76,2.71s-2.82-4.12-.65-6.94Z"/><polygon class="cls-26" points="172.44 237.56 167.41 238.06 163.24 233.21 171 230.5 172.44 237.56"/><path class="cls-19" d="M137.36,267.36,174.84,269a3.82,3.82,0,0,0,3.79-3l4.48-22.9a2.66,2.66,0,0,0-2.55-3.28l-37.48-1.65a3.82,3.82,0,0,0-3.78,3l-4.49,22.9A2.66,2.66,0,0,0,137.36,267.36Z"/><path class="cls-22" d="M139.93,274.4l46.3,2a4.1,4.1,0,0,0,4.24-3.73l2.45-28.42a3.71,3.71,0,0,0-3.57-4.07l-46.29-2a4.13,4.13,0,0,0-4.25,3.73l-2.45,28.42A3.72,3.72,0,0,0,139.93,274.4Z"/><path class="cls-27" d="M139.93,274.4l46.3,2a4.1,4.1,0,0,0,4.24-3.73l2.45-28.42a3.71,3.71,0,0,0-3.57-4.07l-46.29-2a4.13,4.13,0,0,0-4.25,3.73l-2.45,28.42A3.72,3.72,0,0,0,139.93,274.4Z"/><path class="cls-19" d="M173.9,247.71h-.12l-13.44-.59h0a2.57,2.57,0,0,1-2.47-2.81l.53-6.13a5,5,0,0,1,5.11-4.48l9,.39a4.8,4.8,0,0,1,4.59,5.23l-.51,5.94A2.72,2.72,0,0,1,173.9,247.71Zm-13-3.58,12.71.56.49-5.64a1.8,1.8,0,0,0-1.73-2l-9-.4a2,2,0,0,0-2,1.75Z"/><path class="cls-19" d="M191.18,276.65l-46.29-2a4.25,4.25,0,0,1-4-4.1L140.27,242a3.61,3.61,0,0,1,3.82-3.75l46.3,2a4.24,4.24,0,0,1,4,4.1L195,272.9A3.62,3.62,0,0,1,191.18,276.65Z"/><path class="cls-3" d="M177.47,169.52c-.49,1-1.07,2.14-1.59,3.23s-1,2.25-1.55,3.38c-1,2.27-2,4.55-2.86,6.84s-1.66,4.6-2.37,6.89c-.33,1.15-.67,2.29-.92,3.42-.15.57-.28,1.14-.38,1.69l-.16.84c-.06.29-.12.58-.14.78,0,.44-.12.84-.14,1.43s-.07,1.07-.07,1.68c0,1.17,0,2.4,0,3.63.05,2.49.2,5,.35,7.58.29,5.11.72,10.3,1.12,15.42l-9.16,1.48c-1.24-5.21-2.22-10.37-3.1-15.66-.42-2.64-.78-5.3-1.08-8-.14-1.38-.28-2.75-.35-4.2-.06-.69-.07-1.47-.08-2.23s0-1.62.09-2.48a11.48,11.48,0,0,1,.12-1.17l.14-1.1c.08-.74.19-1.46.32-2.16.24-1.44.54-2.83.84-4.22.65-2.75,1.39-5.46,2.27-8.08s1.81-5.22,2.85-7.76c.52-1.27,1-2.53,1.62-3.79s1.11-2.46,1.8-3.84Z"/><polygon class="cls-26" points="177.51 236.84 173.51 239.94 167.41 238.06 172.53 231.64 177.51 236.84"/><path d="M197.51,221.87s-7.07,54.93-11.16,77.33C182.09,322.5,167,398.8,167,398.8H154.51s6.34-74.94,9.15-97.82c3.07-25,8-79.11,8-79.11Z"/><path d="M170.08,393.84c.06,0-1.46,5.17-1.46,5.17H153.48l.27-4.61Z"/><path class="cls-17" d="M203.53,130.65c0,.62.33,1.13.74,1.13s.73-.51.73-1.13-.33-1.12-.73-1.12S203.53,130,203.53,130.65Z"/><path class="cls-28" d="M203.8,131.78a22.28,22.28,0,0,0,3,5.32,3.6,3.6,0,0,1-3,.56Z"/><path class="cls-17" d="M201.33,127.2a.39.39,0,0,0,.21-.06,2.88,2.88,0,0,1,2.6-.48.37.37,0,0,0,.47-.21.36.36,0,0,0-.21-.47,3.61,3.61,0,0,0-3.29.56.37.37,0,0,0-.08.51A.36.36,0,0,0,201.33,127.2Z"/><path class="cls-26" d="M183.84,137.52c1,5.38,2.1,15.23-1.66,18.81,0,0,1.47,5.45,11.46,5.45,11,0,5.24-5.45,5.24-5.45-6-1.43-5.83-5.87-4.79-10.05Z"/><path d="M180.74,158.2c-.78-1.72-1.65-3.7.14-4.32,2-.68,12.77-1.37,16.49-.09a3.85,3.85,0,0,1,2.67,4.78Z"/><path class="cls-3" d="M167.71,158.44c-6.43,2.92-10.43,25.06-10.43,25.06l12.61,4a133.92,133.92,0,0,0,6.16-18C178.34,160.26,174.29,155.46,167.71,158.44Z"/><path class="cls-26" d="M246,213.26l7.76,0-1.36,9.28s-6.08-.22-8.84-4.8Z"/><polygon class="cls-26" points="261.06 216.49 257.16 223.66 252.36 222.56 253.72 213.28 261.06 216.49"/><path class="cls-26" d="M182.78,129.33c.47,7.64.36,12.14,4.22,16.06,5.8,5.9,15.23,2.4,17.05-5.23,1.65-6.86.6-18.2-6.88-21.24A10.44,10.44,0,0,0,182.78,129.33Z"/><path d="M181.9,139.72s-6.92-10.38-5.42-17.15c1.37-6.19,15.34-8.4,21.14-7.78,6.16.67,8.56,3.32,5.18,8.66a28.62,28.62,0,0,1-6.25,2.12s3.43,4.21,3.46,7c-1,.52-4.09,1.76-4.09,1.76s-4.38,10.81-4.51,10.79c-1.69-.2-5.6-.26-7,.27A37.46,37.46,0,0,1,181.9,139.72Z"/><path class="cls-26" d="M192.89,133.21a8.68,8.68,0,0,0,3.1,4.59c2,1.5,3.49.08,3.34-2.17-.13-2-1.33-5.23-3.53-5.86S192.31,131,192.89,133.21Z"/><path class="cls-23" d="M192.21,242.4c-9.83,2.28-8,37.84-6.11,58.11.09-.46.16-.89.24-1.31,2.44-13.34,5.93-38.2,8.36-56.14A4.92,4.92,0,0,0,192.21,242.4Z"/><path class="cls-29" d="M201.72,409.11c.94,0,1.85-.13,2.16-.55a.65.65,0,0,0,0-.76.87.87,0,0,0-.55-.41c-1.22-.33-3.79,1.13-3.9,1.2a.17.17,0,0,0-.08.18.18.18,0,0,0,.14.14A13.29,13.29,0,0,0,201.72,409.11Zm1.17-1.42a1.15,1.15,0,0,1,.33,0,.51.51,0,0,1,.34.24c.13.22.08.33,0,.39-.34.47-2.2.48-3.57.29A7.87,7.87,0,0,1,202.89,407.69Z"/><path class="cls-29" d="M199.5,408.91h.07c.89-.4,2.65-2,2.51-2.82,0-.2-.17-.44-.65-.49a1.3,1.3,0,0,0-1,.3c-.94.77-1.13,2.75-1.14,2.83a.17.17,0,0,0,.07.16A.19.19,0,0,0,199.5,408.91Zm1.79-3h.11c.31,0,.33.15.34.19.08.5-1.12,1.75-2,2.29a4.08,4.08,0,0,1,1-2.26A.92.92,0,0,1,201.29,405.93Z"/><polygon class="cls-26" points="191.42 408.74 198.77 408.74 199.5 391.72 192.16 391.72 191.42 408.74"/><path d="M198.72,407.89h-8a.65.65,0,0,0-.63.5l-1.45,6.53a1.07,1.07,0,0,0,1.06,1.3c2.89,0,7.07-.21,10.71-.21,4.26,0,7.93.23,12.92.23,3,0,3.85-3.05,2.59-3.33-5.75-1.25-10.44-1.39-15.41-4.45A3.41,3.41,0,0,0,198.72,407.89Z"/><polygon class="cls-20" points="199.5 391.73 199.12 400.5 191.77 400.5 192.15 391.73 199.5 391.73"/><path d="M210.62,221.87s1,54.93.21,77.33c-.83,23.3-9,99.6-9,99.6H189.42s-.46-74.94-1-97.82c-.61-25-3.62-79.11-3.62-79.11Z"/><path d="M204.26,393.84c.05,0-.71,5.17-.71,5.17H188.42L188,394.4Z"/><path class="cls-2" d="M210.18,158.37s8.82,13.44,1.43,68.11h-41.5c-.27-6,4.74-40.07-1.08-68.49a102.56,102.56,0,0,1,13.15-1.66,145.27,145.27,0,0,1,16.7,0A73.5,73.5,0,0,1,210.18,158.37Z"/><path class="cls-20" d="M214.56,186.34l-8.7-14.42s3.27,20.44,8.28,29.66C214.48,195.81,214.6,190.75,214.56,186.34Z"/><path class="cls-3" d="M218.27,168.89c1.43,4.57,3,9.25,4.61,13.83s3.29,9.13,5.13,13.5l.7,1.62a3.57,3.57,0,0,1,.16.37,2.38,2.38,0,0,0,.14.27,10.69,10.69,0,0,0,1.54,1.82,39.53,39.53,0,0,0,5.07,4c1.88,1.3,3.87,2.56,5.92,3.75s4.17,2.41,6.19,3.46l-3.89,9.08a103,103,0,0,1-14.29-6.52,51.92,51.92,0,0,1-7-4.69,22.7,22.7,0,0,1-3.55-3.58c-.3-.43-.59-.81-.88-1.29s-.61-1.08-.7-1.28l-.88-1.75c-2.29-4.66-4.34-9.32-6.23-14s-3.65-9.39-5.34-14.26Z"/><path class="cls-3" d="M200.38,161.69c-2.57,6.54,13.06,32.87,13.06,32.87l10.17-9.73s-2.22-8.27-5.18-18.23C215.51,156.81,202.83,155.44,200.38,161.69Z"/><path class="cls-30" d="M193.94,133.49a5.78,5.78,0,0,0,2.07,3c1.33,1,2.32.05,2.23-1.44-.09-1.34-.89-3.49-2.36-3.91S193.56,132,193.94,133.49Z"/><path class="cls-28" d="M313.32,147.84a10,10,0,0,1-1.09,2c-.43.58-1.16.94-1.47,1.6a1.37,1.37,0,0,0,.95,1.88,5.09,5.09,0,0,0,2.68-.12c.62-.15.35-1.11-.27-1a5.77,5.77,0,0,1-1.09.18,2.9,2.9,0,0,1-1-.06c-.16,0-.38-.15-.4-.34s.22-.4.36-.53.47-.4.69-.63a5.2,5.2,0,0,0,.61-.79,11.94,11.94,0,0,0,.91-1.78.51.51,0,0,0-.18-.68.49.49,0,0,0-.68.18Z"/></g></svg>