<svg width="96" height="96" xmlns="http://www.w3.org/2000/svg" xmlns:xlink="http://www.w3.org/1999/xlink"
    xml:space="preserve" overflow="hidden" fill="#df531f">
    <g>
        <path d="M24 39.5 72 39.5 72 45.5 24 45.5Z" />
        <path d="M19 45.5 20 45.5 20 39.5 19 39.5C17.3 39.5 16 40.8 16 42.5 16 44.2 17.3 45.5 19 45.5" />
        <path d="M80 42.5C80 40.8 78.7 39.5 77 39.5L76 39.5 76 45.5 77 45.5C78.7 45.5 80 44.2 80 42.5" />
        <path
            d="M78 49.5 18 49.5C15.8 49.5 14 51.3 14 53.5L14 82.5C14 84.7 15.8 86.5 18 86.5L78 86.5C80.2 86.5 82 84.7 82 82.5L82 53.5C82 51.3 80.2 49.5 78 49.5M66 56.5C66 60.4 57.9 63.5 48 63.5 38.1 63.5 30 60.4 30 56.5L66 56.5ZM20 74.5C18.9 74.5 18 73.6 18 72.5 18 71.4 18.9 70.5 20 70.5 21.1 70.5 22 71.4 22 72.5 22 73.6 21.1 74.5 20 74.5M24 81.5C22.9 81.5 22 80.6 22 79.5 22 78.4 22.9 77.5 24 77.5 25.1 77.5 26 78.4 26 79.5 26 80.6 25.1 81.5 24 81.5M28 74.5C26.9 74.5 26 73.6 26 72.5 26 71.4 26.9 70.5 28 70.5 29.1 70.5 30 71.4 30 72.5 30 73.6 29.1 74.5 28 74.5M32 81.5C30.9 81.5 30 80.6 30 79.5 30 78.4 30.9 77.5 32 77.5 33.1 77.5 34 78.4 34 79.5 34 80.6 33.1 81.5 32 81.5M36 74.5C34.9 74.5 34 73.6 34 72.5 34 71.4 34.9 70.5 36 70.5 37.1 70.5 38 71.4 38 72.5 38 73.6 37.1 74.5 36 74.5M40 81.5C38.9 81.5 38 80.6 38 79.5 38 78.4 38.9 77.5 40 77.5 41.1 77.5 42 78.4 42 79.5 42 80.6 41.1 81.5 40 81.5M44 74.5C42.9 74.5 42 73.6 42 72.5 42 71.4 42.9 70.5 44 70.5 45.1 70.5 46 71.4 46 72.5 46 73.6 45.1 74.5 44 74.5M48 81.5C46.9 81.5 46 80.6 46 79.5 46 78.4 46.9 77.5 48 77.5 49.1 77.5 50 78.4 50 79.5 50 80.6 49.1 81.5 48 81.5M52 74.5C50.9 74.5 50 73.6 50 72.5 50 71.4 50.9 70.5 52 70.5 53.1 70.5 54 71.4 54 72.5 54 73.6 53.1 74.5 52 74.5M56 81.5C54.9 81.5 54 80.6 54 79.5 54 78.4 54.9 77.5 56 77.5 57.1 77.5 58 78.4 58 79.5 58 80.6 57.1 81.5 56 81.5M60 74.5C58.9 74.5 58 73.6 58 72.5 58 71.4 58.9 70.5 60 70.5 61.1 70.5 62 71.4 62 72.5 62 73.6 61.1 74.5 60 74.5M64 81.5C62.9 81.5 62 80.6 62 79.5 62 78.4 62.9 77.5 64 77.5 65.1 77.5 66 78.4 66 79.5 66 80.6 65.1 81.5 64 81.5M68 74.5C66.9 74.5 66 73.6 66 72.5 66 71.4 66.9 70.5 68 70.5 69.1 70.5 70 71.4 70 72.5 70 73.6 69.1 74.5 68 74.5M72 81.5C70.9 81.5 70 80.6 70 79.5 70 78.4 70.9 77.5 72 77.5 73.1 77.5 74 78.4 74 79.5 74 80.6 73.1 81.5 72 81.5M76 74.5C74.9 74.5 74 73.6 74 72.5 74 71.4 74.9 70.5 76 70.5 77.1 70.5 78 71.4 78 72.5 78 73.6 77.1 74.5 76 74.5" />
        <path
            d="M28 13.5 54 13.5 54 28.5 68 28.5 68 34.5 72 34.5 72 22.7 59.9 9.5 24 9.5 24 34.5 28 34.5 28 13.5ZM58 13.5 68 24.5 58 24.5 58 13.5Z" />
    </g>
</svg>