<svg width="96" height="96" xmlns="http://www.w3.org/2000/svg" xmlns:xlink="http://www.w3.org/1999/xlink"
    xml:space="preserve" overflow="hidden" fill="#df531f">
    <g>
        <path
            d="M73 82 23 82 23 20 34 20 34 26 62 26 62 20 73 20ZM48 12C49.6569 12 51 13.3431 51 15 51 16.6569 49.6569 18 48 18 46.3431 18 45 16.6569 45 15 44.9727 13.3704 46.2716 12.0273 47.9012 12 47.9341 11.9994 47.9671 11.9994 48 12ZM75 14 58 14 58 12C58 9.79086 56.2091 8 54 8L42 8C39.7909 8 38 9.79086 38 12L38 14 21 14C18.7909 14 17 15.7909 17 18L17 84C17 86.2091 18.7909 88 21 88L75 88C77.2091 88 79 86.2091 79 84L79 18C79 15.7909 77.2091 14 75 14Z" />
        <path d="M29 34 67 34 67 38 29 38Z" />
        <path d="M52 63 67 63 67 67 52 67Z" />
        <path d="M29 42 48 42 48 46 29 46Z" />
        <path
            d="M42.788 70.774C42.2955 70.9959 41.7612 71.1098 41.221 71.108 41.0019 71.1084 40.7832 71.0907 40.567 71.055 40.115 71.3386 39.6107 71.5287 39.084 71.614L43.074 78.808 44.737 76.089 48 76.633 44.158 69.733C43.784 70.1771 43.3161 70.5327 42.788 70.774Z" />
        <path
            d="M36.517 71.157C36.3254 71.1859 36.1318 71.2003 35.938 71.2 35.4468 71.2 34.9599 71.1088 34.502 70.931 33.7962 70.6623 33.1847 70.1926 32.743 69.58 32.706 69.573 32.671 69.558 32.634 69.549L29 76.7 32.231 75.964 33.862 79 37.662 71.584C37.2602 71.5029 36.8738 71.3588 36.517 71.157Z" />
        <path
            d="M38.308 66.4C35.2517 66.4 32.774 63.9223 32.774 60.866 32.774 57.8097 35.2517 55.332 38.308 55.332 41.3643 55.332 43.842 57.8097 43.842 60.866 43.842 60.8663 43.842 60.8667 43.842 60.867 43.8409 63.9227 41.3637 66.3995 38.308 66.4ZM47.744 60.867C47.7483 60.1889 47.47 59.5396 46.976 59.075 47.248 58.4531 47.248 57.7459 46.976 57.124 46.7361 56.5635 46.2895 56.1169 45.729 55.877 45.7014 55.2755 45.4521 54.7055 45.029 54.277 44.5508 53.7915 43.8862 53.5363 43.206 53.577 42.9688 52.9391 42.4652 52.4363 41.827 52.2 41.2617 51.9759 40.6323 51.9759 40.067 52.2 39.6196 51.7949 39.0395 51.5676 38.436 51.561 37.7583 51.5563 37.1092 51.8342 36.645 52.328 36.0231 52.056 35.3159 52.056 34.694 52.328 34.1333 52.5685 33.6865 53.0153 33.446 53.576 32.8445 53.6037 32.2745 53.853 31.846 54.276 31.3601 54.7543 31.1049 55.4194 31.146 56.1 30.5094 56.3364 30.0074 56.8384 29.771 57.475 29.547 58.0399 29.547 58.6691 29.771 59.234 29.3657 59.6817 29.1381 60.2621 29.131 60.866 29.1269 61.5438 29.4052 62.1927 29.899 62.657 29.6269 63.2789 29.6269 63.9861 29.899 64.608 30.1392 65.1686 30.5856 65.6154 31.146 65.856 31.1736 66.4575 31.4229 67.0275 31.846 67.456 32.3239 67.9418 32.9887 68.1971 33.669 68.156 33.9059 68.7922 34.4078 69.294 35.044 69.531 35.6093 69.7551 36.2387 69.7551 36.804 69.531 37.2513 69.9362 37.8314 70.1639 38.435 70.171 39.1128 70.1753 39.7618 69.897 40.226 69.403 40.8479 69.675 41.5551 69.675 42.177 69.403 42.7374 69.1626 43.1841 68.7162 43.425 68.156 44.0266 68.1286 44.5966 67.8792 45.025 67.456 45.5107 66.978 45.7659 66.3133 45.725 65.633 46.3623 65.3955 46.8644 64.892 47.1 64.254 47.324 63.6891 47.324 63.0599 47.1 62.495 47.5117 62.0514 47.7416 61.4692 47.744 60.864Z" />
    </g>
</svg>