<svg width="96" height="96" xmlns="http://www.w3.org/2000/svg" xmlns:xlink="http://www.w3.org/1999/xlink"
    xml:space="preserve" overflow="hidden" fill="#df531f">
    <g>
        <path
            d="M19.7 53C19.2 53.3 18.6 53.7 18.1 54 15.7 55.8 14.1 58.5 13.7 61.5L11.9 83.5 13.5 84C14 84.2 27.2 88 48.1 88 69 88 82.1 84.2 82.7 84L84.3 83.5 82.6 61.7 82.6 61.5C82.1 58.6 80.5 55.9 78.2 54.1 75.4 52 72.4 50.2 69.1 48.9 70.5 45.9 69.3 42.3 66.4 40.8 73.7 30.8 71.5 16.7 61.5 9.4 51.5 2.1 37.4 4.3 30.1 14.3 24.3 22.2 24.3 32.9 30.1 40.8 27.1 42.4 25.9 46 27.4 49.1 24.9 50.2 22 51.6 19.7 53ZM31.6 48.2C30.5 47.6 30.2 46.2 30.8 45.1 31.2 44.4 31.9 44 32.7 44 41.3 52 54.6 52 63.2 44 63.4 44 63.6 44 63.7 44.1 64.9 44.4 65.6 45.6 65.3 46.8 65.2 47.4 64.8 47.9 64.3 48.2 60.4 50.6 54.4 52 48 52 41.6 52 35.7 50.6 31.6 48.2L31.6 48.2ZM52.2 22 55.3 23C56.6 25.7 60 28 60.1 31.9L60.1 32.9C60.1 34.3 59.9 35.6 59.4 36.9L55 36.9C54.6 36.3 54 35.9 53.3 35.9L51.3 35.9C50.2 35.9 49.3 36.8 49.3 37.9 49.3 39 50.2 39.9 51.3 39.9L53.3 39.9C54 39.9 54.7 39.5 55 38.9L58.5 38.9C55.2 44.6 47.9 46.6 42.1 43.3 38.8 41.4 36.6 38 36.2 34.2 34.8 26.2 46.3 29.1 52.2 22ZM48 9C55.3 9 61.9 13.3 64.9 19.9 60.9 16.9 54.9 15 48 15 41.1 15 35.1 16.9 31.1 19.9 34.1 13.3 40.7 9 48 9ZM69.8 82.5 69 75.8C68.9 74.7 67.9 73.9 66.8 74.1 65.7 74.2 64.9 75.2 65.1 76.3L65.9 83C59.9 83.7 54 84 48 84 42 84 36.1 83.7 30.2 83L31 76.3C31.1 75.2 30.4 74.2 29.3 74.1 28.2 74 27.2 74.7 27.1 75.8L27.1 75.8 26.3 82.5C21.6 81.8 18.1 81.1 16.3 80.6L17.8 62.1C18 61.2 18.3 60.2 18.8 59.4L23.3 63.2 27.2 58.6 23.5 55.4C25.8 54 28.1 52.9 30.6 51.9 35.2 54.4 41.6 55.9 48.3 55.9 55.1 55.9 61.5 54.4 66.1 51.8 68.6 52.7 70.9 53.9 73.2 55.3L69.4 58.6 73.3 63.2 77.8 59.4C78.3 60.2 78.6 61.1 78.8 62.1L80.3 80.5C78 81.1 74.6 81.8 69.8 82.5Z" />
        <path d="M7.2 36C6.6 38.2 5.1 40 3 41 5 42 6.6 43.8 7.2 46 7.8 43.8 9.3 42 11.4 41 9.3 40 7.8 38.2 7.2 36Z" />
        <path
            d="M56 61 40 61C37.8 61 36 62.8 36 65L36 73C36 75.2 37.8 77 40 77L56 77C58.2 77 60 75.2 60 73L60 65C60 62.8 58.2 61 56 61ZM40 73 40 65 56 65 56 73 40 73Z" />
        <path
            d="M17.8 9C17.2 11.2 15.7 13 13.6 14 15.6 15 17.2 16.8 17.8 19 18.4 16.8 19.9 15 22 14 20 13 18.4 11.2 17.8 9Z" />
        <path
            d="M83.8 31.1C83.2 33.3 81.7 35.1 79.6 36.1 81.6 37.1 83.2 38.9 83.8 41.1 84.4 38.9 85.9 37.1 88 36.1 86 35.1 84.4 33.3 83.8 31.1Z" />
    </g>
</svg>