<svg xmlns="http://www.w3.org/2000/svg" xmlns:xlink="http://www.w3.org/1999/xlink" viewBox="0 0 1920 1080"><defs><linearGradient id="linear-gradient" x1="660.5" y1="536" x2="1251.5" y2="536" gradientTransform="translate(400.4 1480.7) rotate(-88.8)" gradientUnits="userSpaceOnUse"><stop offset="0" stop-color="#c62d28"/><stop offset="0" stop-color="#c62d28" stop-opacity="0"/><stop offset="1" stop-color="#fdfffc" stop-opacity="0.95"/></linearGradient><linearGradient id="linear-gradient-2" x1="1406.15" y1="329.94" x2="1854.23" y2="329.94" gradientTransform="translate(-433.4 -26.4)" xlink:href="#linear-gradient"/><linearGradient id="linear-gradient-3" x1="687.73" y1="544.56" x2="931.06" y2="544.56" gradientUnits="userSpaceOnUse"><stop offset="0" stop-color="#cd93f8"/><stop offset="0" stop-color="#c62d28" stop-opacity="0"/><stop offset="1" stop-color="#fdfffc" stop-opacity="0.95"/></linearGradient><linearGradient id="linear-gradient-4" x1="573.5" y1="537" x2="1350.5" y2="537" gradientUnits="userSpaceOnUse"><stop offset="0" stop-color="#88dafb"/><stop offset="1" stop-color="#1571b8"/></linearGradient></defs><g id="info"><path d="M1526.3,658.2a145.9,145.9,0,0,1,36.1-15.7l7.4-35.7,60.4-1.1,8.7,35.4a156.5,156.5,0,0,1,36.6,14.4l30.5-19.9,43.4,41.9-18.9,31.1a151.5,151.5,0,0,1,15.7,36.1l35.7,7.5,1,60.3-35.4,8.7a146.7,146.7,0,0,1-14.4,36.6l20,30.5-41.9,43.4L1680,912.8a149.7,149.7,0,0,1-36.1,15.7l-7.4,35.7-60.4,1.1-8.7-35.5a148.2,148.2,0,0,1-36.6-14.4l-30.5,20-43.4-41.9,18.9-31.2a148,148,0,0,1-15.7-36.1l-35.7-7.4-1-60.3,35.4-8.7a145.2,145.2,0,0,1,14.4-36.6l-20-30.5,41.9-43.4,31.2,18.9Zm32.2,80.4a64.7,64.7,0,1,0,91.5-1.7A64.7,64.7,0,0,0,1558.5,738.6Z" fill="#f5f5f5"/><path d="M409.1,365.7a115.2,115.2,0,0,1,28-12.1l5.8-27.7,46.7-.8,6.8,27.4a114.4,114.4,0,0,1,28.3,11.2l23.7-15.5L582,380.7l-14.6,24.1a119.2,119.2,0,0,1,12.1,28l27.7,5.8.8,46.7-27.5,6.8a114.1,114.1,0,0,1-11.1,28.3l15.5,23.7-32.5,33.6-24.2-14.6a116.8,116.8,0,0,1-27.9,12.1l-5.8,27.7-46.8.8L441,576.2a116.3,116.3,0,0,1-28.4-11.1L389,580.6l-33.6-32.5L370,523.9A112.9,112.9,0,0,1,357.9,496l-27.7-5.8-.8-46.7,27.4-6.8A116.6,116.6,0,0,1,368,408.3l-15.5-23.6L385,351.1l24.1,14.6Zm25,62.3a50.2,50.2,0,1,0,70.9-1.2A50.2,50.2,0,0,0,434.1,428Z" fill="#f5f5f5"/><g opacity="0.58"><path d="M553.1,627.4a136.9,136.9,0,0,1,33.6-14.6l6.9-33.3,56.3-1,8.1,33A138.5,138.5,0,0,1,692.1,625l28.5-18.7,40.5,39.1-17.7,29.1A134.8,134.8,0,0,1,758,708.1l33.3,7,1,56.2-33,8.1a140.5,140.5,0,0,1-13.4,34.2L764.5,842l-39.1,40.5-29-17.6a139.3,139.3,0,0,1-33.7,14.6l-6.9,33.3-56.3,1-8.1-33.1a134.4,134.4,0,0,1-34.1-13.4l-28.5,18.6-40.4-39L506,817.8a139.3,139.3,0,0,1-14.6-33.7l-33.3-6.9-1-56.3,33-8.1a141.4,141.4,0,0,1,13.4-34.1l-18.6-28.4L524,609.8l29.1,17.6Zm30,75a60.3,60.3,0,1,0,85.3-1.5A60.2,60.2,0,0,0,583.1,702.4Z" fill="#f5f5f5"/></g><g opacity="0.58"><path d="M1308.9,149.3a103.4,103.4,0,0,1,25.6-11.1l5.3-25.3,42.8-.8,6.2,25.1a106.8,106.8,0,0,1,26,10.3l21.6-14.2,30.8,29.7-13.4,22.1a105.1,105.1,0,0,1,11.1,25.6l25.3,5.3.8,42.8-25.1,6.2a105.2,105.2,0,0,1-10.3,26l14.2,21.6-29.7,30.8L1418,330a105.1,105.1,0,0,1-25.6,11.1l-5.3,25.4-42.8.7-6.2-25.1a104.9,104.9,0,0,1-26-10.2L1290.5,346l-30.8-29.7,13.4-22.1a103.4,103.4,0,0,1-11.1-25.6l-25.4-5.3-.7-42.8,25.1-6.2a106.4,106.4,0,0,1,10.2-26l-14.1-21.6,29.7-30.8,22.1,13.4Zm22.8,57.1a45.9,45.9,0,1,0,65-1.2A45.8,45.8,0,0,0,1331.7,206.4Z" fill="#f5f5f5"/></g><circle cx="956" cy="536" r="292" fill="none" stroke-linecap="round" stroke-miterlimit="10" stroke-width="7" stroke="url(#linear-gradient)"/><path d="M992.9,560.7a104,104,0,0,0,3.5,24.2l17.2,66.8L1000.8,736H1127l-9-46.8,29.6-3.2s15.4-.1,16.6-12.3,2.2-40,2.2-40l17.9,1a5.3,5.3,0,0,0,5.7-4.8h0a5.9,5.9,0,0,0-.4-2.3c-3-6.8-17.6-49.2-17.6-49.2s9.8-68.1-49.9-93.2c-22-9.2-49.6-10.3-72.2-2.7S992.2,513.1,992.9,560.7Z" fill="#ececec"/><path d="M786.6,352a91.6,91.6,0,0,1,21.4-9.2l4.4-21.2,35.7-.6,5.1,21a83.7,83.7,0,0,1,21.7,8.5l18-11.8,25.7,24.8-11.2,18.4a87.9,87.9,0,0,1,9.3,21.4l21.2,4.4.6,35.7-21,5.1a87.4,87.4,0,0,1-8.5,21.7l11.8,18L896,513.9l-18.4-11.2a87.9,87.9,0,0,1-21.4,9.3l-4.4,21.2-35.7.6-5.1-21a87.4,87.4,0,0,1-21.7-8.5l-18,11.8-25.7-24.8,11.1-18.4a91.6,91.6,0,0,1-9.2-21.4l-21.2-4.4-.6-35.7,21-5.1a87.4,87.4,0,0,1,8.5-21.7l-11.8-18.1,24.8-25.6L786.6,352Zm19.1,47.6a38.3,38.3,0,1,0,54.1-.9A38.4,38.4,0,0,0,805.7,399.6Z" fill="#f5f5f5"/><path d="M976.7,83.5c243.1,0,440.1,197.1,440.1,440.1" fill="none" stroke-linecap="round" stroke-miterlimit="10" stroke-width="8" stroke="url(#linear-gradient-2)"/><text transform="translate(192.8 522.3)" font-size="36" fill="#1571b8" font-family="Calibri-BoldItalic, Calibri" font-weight="700" font-style="italic">Analysis</text><text transform="translate(432.7 114.3)" font-size="36" fill="#1571b8" font-family="Calibri-BoldItalic, Calibri" font-weight="700" font-style="italic">Documentaton</text><text transform="translate(1418.9 157.3)" font-size="36" fill="#1571b8" font-family="Calibri-BoldItalic, Calibri" font-weight="700" font-style="italic">Utlizaton</text><text transform="translate(1563.9 585)" font-size="36" fill="#1571b8" font-family="Calibri-BoldItalic, Calibri" font-weight="700" font-style="italic">Prioritzaton</text><text transform="translate(1416.9 903)" font-size="36" fill="#1571b8" font-family="Calibri-BoldItalic, Calibri" font-weight="700" font-style="italic">Presentaton</text><text transform="translate(401.8 894)" font-size="36" fill="#1571b8" font-family="Calibri-BoldItalic, Calibri" font-weight="700" font-style="italic">Approval</text><text transform="translate(191.7 550.9)" font-size="21" fill="#1a1a1a" font-family="Calibri">Understand business <tspan x="0" y="25.2">requirements, current </tspan><tspan x="0" y="50.4">needs, and future </tspan><tspan x="0" y="75.6">aspiratons.</tspan></text><text transform="translate(432.7 139.9)" font-size="21" fill="#1a1a1a" font-family="Calibri">Document needs and <tspan x="0" y="25.2">aspiratons to assess and </tspan><tspan x="0" y="50.4">analyze the environment </tspan><tspan x="0" y="75.6">for gaps</tspan></text><text transform="translate(1390 182.9)" font-size="21" fill="#1a1a1a" font-family="Calibri">Leverage insttutonal <tspan x="-16.3" y="25.2">knowledge and tools to </tspan><tspan x="42.4" y="50.4">formulate a plan</tspan></text><text transform="translate(1557.3 611.9)" font-size="21" fill="#1a1a1a" font-family="Calibri">Strategize and prioritze <tspan x="-27.5" y="25.2">based on capability, needs, </tspan><tspan x="96.4" y="50.4">and budgets</tspan></text><text transform="translate(1391.3 937.9)" font-size="21" fill="#1a1a1a" font-family="Calibri">Provide leadership with a <tspan x="-33.4" y="25.2">strategic plan with prioritzed </tspan><tspan x="-43.4" y="50.4">tasks and milestones based on </tspan><tspan x="22" y="75.6">risk, impact, and costs.</tspan></text><text transform="translate(401.7 920.9)" font-size="21" fill="#1a1a1a" font-family="Calibri">Obtain acceptance, develop <tspan x="0" y="25.2">an executon plan, and </tspan><tspan x="0" y="50.4">present for approvals.</tspan></text></g><g id="lock"><path d="M1078.2,417.1,963.4,375.2,848.5,412.4c-14.7,6.4-27.6,10.1-27.8,23.1l-1,65a237.6,237.6,0,0,0,35.5,129.9c20.8,33.5,53.3,68.3,103.8,90.9,46.9-13.7,82.4-51.9,104.3-84.7A237.2,237.2,0,0,0,1103,508.1l1-58.4C1104.3,431.1,1094.2,421.8,1078.2,417.1Z" fill="#c62d28"/><path d="M959.1,696.5l-.4-.2c-37.1-17-66.8-43.8-88.4-79.6A213.5,213.5,0,0,1,840.1,503l.9-56.5c.2-10.9,9.4-14.9,20.2-19.5l4.1-1.8,97.9-32.6h.4l97.1,36.4c15.5,4.7,22.9,14.4,22.7,29.6l-.8,50.8a213.7,213.7,0,0,1-33.9,112.6c-14.3,22-44.9,61-89.1,74.3Zm4-301.2-96.9,32.3-4,1.7c-10.3,4.5-18.5,8-18.6,17.2l-.9,56.5a211.3,211.3,0,0,0,29.8,112.4c21.2,35.1,50.4,61.5,86.8,78.4,43.2-13.2,73.1-51.4,87.2-73.1A210.6,210.6,0,0,0,1080,509.5l.8-50.9c.2-14-6.4-22.6-20.9-27.1h0Z" fill="url(#linear-gradient-3)"/><path d="M989,506.1l.5-8c.6-14.5-11.5-26.8-26.9-27.4s-28.6,10.5-29.3,25l-.4,8.1c-7.7.7-13.7,6.6-14.1,13.9l-2.1,47.2c-.3,8.1,6.4,15,15.1,15.3l52.4,2.3c8.6.3,16-5.9,16.3-14.1l2.1-47.1C1002.9,513.6,996.9,507.1,989,506.1Zm-22.7,49.1-13.7-.5,2.6-9.2a7.6,7.6,0,0,1-3.7-6.8c.2-4.3,4.1-7.6,8.7-7.5a8.1,8.1,0,0,1,8,8.2,7.6,7.6,0,0,1-4,6.3Zm16.6-49.5-44-1.8.5-7.9c.5-11.4,10.8-20.2,22.9-19.7s21.6,10.2,21.1,21.5Z" fill="#fdfffc"/><g opacity="0.1"><path d="M869.2,565.2c-7.8.8-18.7-105-9-118.4s103.1-38.4,103.1-38.4,0,97.6-2.2,104S869.2,565.2,869.2,565.2Z" fill="#fff"/></g><g opacity="0.1"><path d="M876.6,580.9,959.3,539s-.7,136.5-3.7,134.4A210.5,210.5,0,0,1,876.6,580.9Z" fill="#fff"/></g></g><g id="icons"><path d="M606,537c0-196.6,159.4-356,356-356s356,159.4,356,356S1158.6,893,962,893a354.5,354.5,0,0,1-160.2-38" fill="none" stroke-linecap="round" stroke-miterlimit="10" stroke-width="65" stroke="url(#linear-gradient-4)"/><line x1="578" y1="541" x2="501" y2="541" fill="none" stroke="#c62d28" stroke-miterlimit="10" stroke-width="12"/><circle cx="482.5" cy="535.5" r="67.5" fill="#c62d28"/><circle cx="725" cy="957.5" r="60.5" fill="#c62d28"/><circle cx="769.5" cy="92.5" r="67.5" fill="#c62d28"/><circle cx="1287.3" cy="151.8" r="67.5" fill="#88dafb"/><circle cx="1455.5" cy="549.5" r="67.5" fill="#88dafb"/><circle cx="1264.4" cy="937.2" r="67.5" fill="#88dafb"/><path d="M744.8,132.1a9.1,9.1,0,0,1-1.3-.8,4.4,4.4,0,0,1-1.6-3.6V69.3a1.8,1.8,0,0,1,.6-1.4l12.6-13.5a1.7,1.7,0,0,1,1.4-.5h37.3a4,4,0,0,1,3.9,4V81.4c.3.1.4-.1.5-.3l4.4-4.6a5.1,5.1,0,0,1,5.8-1.5,5.5,5.5,0,0,1,3.8,4.6,6.3,6.3,0,0,1-1.6,5.6c-4.1,4.3-8.1,8.6-12.2,12.8a2.9,2.9,0,0,0-.7,2v27.2c0,2.4-.8,4-2.9,4.9Zm49.3-29.3a1.7,1.7,0,0,0-.6.6c-2.2,2.2-4.3,4.5-6.4,6.8a5.7,5.7,0,0,1-1.6,1.1l-8.9,4a2.3,2.3,0,0,1-1.1.3h-8.9a1.8,1.8,0,0,1-1.9-1.8,1.9,1.9,0,0,1,1.8-1.9h7a1.3,1.3,0,0,0,1.4-.9c1-2.6,2-5.2,3.1-7.8a3.9,3.9,0,0,1,1-1.6c4.9-5.2,9.7-10.4,14.6-15.5a1.8,1.8,0,0,0,.6-1.4V58.5c0-.9-.1-1-1-1H758.9c-.7,0-.8.2-.8.8V68.8c0,1.6-.6,2.3-2.1,2.3h-9.7c-1,0-1,0-1,1v55.1c0,1.2.1,1.3,1.3,1.3H793c1.1,0,1.2,0,1.2-1.2V103.6C794.2,103.3,794.3,103.1,794.1,102.8Zm8.3-14.4c0-.1-.1-.2-.2-.3l-2.5-2.7c-.3-.3-.5-.1-.7.1-4.7,5.1-9.4,10.1-14.2,15.1-.3.4-.3.6.1,1l2.2,2.4c.4.3.6.4.9,0l14.1-15A.7.7,0,0,0,802.4,88.4Zm6.5-7.7a2.3,2.3,0,0,0-1.3-2.1,2,2,0,0,0-2.4.3l-3.1,3.3c-.2.2-.2.4,0,.7a30.7,30.7,0,0,1,2.5,2.6c.3.3.5.3.8,0s1.9-2,2.8-3.1A2.1,2.1,0,0,0,808.9,80.7ZM754.7,60.5l-6.5,6.9h6c.4,0,.5-.2.5-.5ZM779,110.1h.1l5.1-2.3c.3-.1.4-.3.6-.5s.3-.5,0-.7l-2.4-2.6c-.3-.4-.6-.3-.9,0a4.8,4.8,0,0,0-.8,1.6C780.1,107.2,779.5,108.6,779,110.1Z" fill="#fdfffc"/><path d="M755.9,93.7h3.9a1.7,1.7,0,0,1,1.8,1.9q.1,4.2,0,8.4a1.7,1.7,0,0,1-1.8,1.9H752c-1,0-1.6-.6-1.8-1.7s0-2,0-3.1a41.7,41.7,0,0,1,0-5c0-1.7.6-2.4,2.2-2.4Zm-2.3,5.8v2c0,.4.2.7.6.7h3.4c.4,0,.6-.2.6-.7V97.9a.5.5,0,0,0-.6-.6h-1.8c-.6.1-1.5-.3-2,.2S753.7,98.9,753.6,99.5Z" fill="#fdfffc"/><path d="M755.9,110.5h3.9a1.7,1.7,0,0,1,1.8,1.9q.1,4.2,0,8.4a1.7,1.7,0,0,1-1.8,1.8c-2.6.1-5.2.1-7.7,0a1.7,1.7,0,0,1-1.9-1.7v-.6c0-2.5-.1-5,0-7.5s.6-2.3,2.1-2.3Zm-2.3,6a9.6,9.6,0,0,1,0,1.7c0,.5.2.8.6.8h3.3a.6.6,0,0,0,.7-.7v-3.6c0-.4-.2-.6-.5-.6h-3.5a.5.5,0,0,0-.6.6Z" fill="#fdfffc"/><path d="M755.8,89.1h-3.7a1.7,1.7,0,0,1-1.9-1.8c-.1-2.9-.1-5.7,0-8.6a1.8,1.8,0,0,1,1.9-1.8h7.6a1.9,1.9,0,0,1,2,2v8.2c-.1,1.3-.8,2-1.9,2ZM753.6,83a10.8,10.8,0,0,1,0,1.8c0,.5.2.7.6.7h3.4c.4,0,.6-.2.6-.7V81.2c0-.5-.2-.7-.6-.7h-3.4c-.4,0-.6.2-.6.7A10.8,10.8,0,0,1,753.6,83Z" fill="#fdfffc"/><path d="M776.2,82h-10a1.7,1.7,0,0,1-1.5-1.8,1.7,1.7,0,0,1,1.4-1.8h20a1.7,1.7,0,0,1,1.6,1.8,1.7,1.7,0,0,1-1.8,1.8h-9.7Z" fill="#fdfffc"/><path d="M773.4,98.8c-2.3,0-4.6.1-6.9,0a1.8,1.8,0,0,1-1.7-2.6,2,2,0,0,1,1.9-1.1h14a1.7,1.7,0,0,1,1.5,1.9,1.6,1.6,0,0,1-1.7,1.7c-1.2.1-2.3,0-3.5,0Z" fill="#fdfffc"/><path d="M772.9,84h6.4a1.9,1.9,0,0,1,1.9,1.8,1.9,1.9,0,0,1-1.8,1.8H766.6c-1.2-.1-2-.9-1.9-1.9a1.8,1.8,0,0,1,2-1.8Z" fill="#fdfffc"/><path d="M772.4,117.5h5.8a1.8,1.8,0,0,1,1.8,2.2,1.5,1.5,0,0,1-1.3,1.4H766.3a1.8,1.8,0,0,1-1.6-1.9,1.9,1.9,0,0,1,1.8-1.8h5.9Z" fill="#fdfffc"/><path d="M770.2,100.7h3.5c1.2.1,2,.8,2,1.8a1.8,1.8,0,0,1-1.8,1.9h-7.5a1.7,1.7,0,0,1-1.7-1.9,1.9,1.9,0,0,1,1.9-1.8Z" fill="#fdfffc"/><path d="M459.1,525.5h-3.5c-1.6,0-2.7-.9-2.7-2.3s.9-2.2,2.4-2.3,4.8-.1,7.2,0,1.3-.3,1.4-1.3a28.4,28.4,0,0,1,56.2-1.7,15.2,15.2,0,0,1,.3,2.1c0,.6.3.8.8.8h1.2a2.1,2.1,0,0,1,1.8,2.4,2.2,2.2,0,0,1-2.1,2.2c-1.7.1-1.7.1-1.9,1.7a28.5,28.5,0,0,1-23.1,23.5,27.5,27.5,0,0,1-22.5-5.7c-.7-.5-1-.5-1.6.1l-3.5,3.5c-.5.5-.6.9,0,1.4,2.4,2,2,3.2,0,5.3-5.6,5.5-11.1,11-16.6,16.6-1.7,1.6-2.7,1.6-4.4,0l-5.6-5.7c-1.4-1.4-1.4-2.6,0-3.9l17.5-17.6c1.4-1.4,2.5-1.3,3.9.1s1.3,1.2,2.6,0l3-3.1c.4-.4.5-.7.1-1.2a27.9,27.9,0,0,1-6-14.1c-.1-.7-.4-1-1.2-.9Zm33.1,21a23.9,23.9,0,1,0-23.8-23.7A23.6,23.6,0,0,0,492.2,546.5Zm-29.8,3c-.3,0-.4.2-.6.3L448,563.7c-.5.4-.4.7,0,1.1l2.1,2.2a.7.7,0,0,0,1.1,0l13.9-14c.4-.3.4-.6.1-.9l-2.4-2.3Z" fill="#fdfffc"/><path d="M496.5,517.3a3.9,3.9,0,0,0-.6,1.1l-7.5,16.3c-.7,1.5-1.9,2-3.2,1.4a2.6,2.6,0,0,1-1.2-1.5c-1.4-2.7-2.7-5.5-4-8.2-.3-.7-.7-1-1.4-.9h-3.7a2.3,2.3,0,0,1-2.4-2.2,2.4,2.4,0,0,1,2.1-2.4,44.2,44.2,0,0,1,6.3,0,2.4,2.4,0,0,1,2.3,1.6l2.4,4.9c.2.3.2.7.7.9l.7-1.6c2.5-5.3,4.9-10.6,7.3-15.9a2.5,2.5,0,0,1,1.7-1.6c1.1-.4,2.2.2,2.8,1.5l4,9.1a1.3,1.3,0,0,0,1.6,1,45.1,45.1,0,0,1,5.2.1,2.3,2.3,0,0,1-.3,4.6H502a2.3,2.3,0,0,1-2.4-1.6c-.9-1.9-1.7-3.9-2.6-5.8A1.4,1.4,0,0,0,496.5,517.3Z" fill="#fdfffc"/><path d="M1323.1,132.6a5.9,5.9,0,0,1-2.6,3.4,5,5,0,0,1-4.3.3.8.8,0,0,0-1.1.3l-3.6,3.5a2.3,2.3,0,0,1-1.9.9h-11.8c-.2,0-.5-.1-.6.1s.2.5.3.6a19.8,19.8,0,0,1,2.9,4.8,1.7,1.7,0,0,1-.8,2.3c-.9.4-1.7,0-2.1-1.1a14.7,14.7,0,0,0-6.5-7.2,14,14,0,1,0-8.8,26.1l2.1.2c1.1,0,1.7.6,1.7,1.8a28,28,0,0,1,0,2.9c0,.7.2.9.9.9H1301a2.6,2.6,0,0,1,2.7,1.6c1.2,2.3,2.5,4.5,3.7,6.9a.9.9,0,0,0,1.1.5,5.2,5.2,0,0,1,3.2,9.8l-.7.3h-2.6a5.3,5.3,0,0,1-3.3-7.3.9.9,0,0,0-.1-1c-1.2-2.2-2.4-4.5-3.7-6.7a.9.9,0,0,0-1.2-.7h-13c-1.1,0-1.1,0-1.1,1v12.9a1.8,1.8,0,0,1-.9,1.9h-8a2.3,2.3,0,0,1-1-2c.1-1.1,0-2.3.1-3.4a.8.8,0,0,0-.8-.9,34.9,34.9,0,0,1-7.5-3.1.7.7,0,0,0-1,.1l-2.4,2.5c-1.1,1-1.9,1-2.9,0l-8.9-8.9c-1.1-1.1-1.1-1.8,0-3l2.4-2.4a.7.7,0,0,0,.2-1,29.6,29.6,0,0,1-3.1-7.6c-.2-.4-.4-.6-.8-.6h-3.7a1.7,1.7,0,0,1-1.9-1.9V146.2a1.7,1.7,0,0,1,1.9-1.9h3.5c.6,0,.9-.1,1-.7a28.3,28.3,0,0,1,3.1-7.4.9.9,0,0,0-.2-1.2l-2.5-2.5c-.9-.9-.9-1.7,0-2.7l9.1-9.1c.9-.9,1.7-.9,2.7,0l2.6,2.7c.3.3.5.3.9.1a29.9,29.9,0,0,1,7.6-3.2c.5-.1.7-.3.6-.8s.1-2.3,0-3.4a2.4,2.4,0,0,1,1-2.1h8a2,2,0,0,1,.9,2v13c0,.6.2.8.9.8h13.3c.5,0,.9-.1,1.1-.6l3.6-6.6a1.4,1.4,0,0,0,.1-1.4,5.3,5.3,0,0,1,.8-5.4,7.1,7.1,0,0,1,2.8-1.8h2.4l.7.3a5.1,5.1,0,0,1,3,6.4,5.2,5.2,0,0,1-6.2,3.5.8.8,0,0,0-1.1.4c-1.2,2.4-2.5,4.7-3.8,7a2.4,2.4,0,0,1-2.4,1.5h-13.3c-2.2,0-1.8-.5-1.9,1.9,0,.5.2.7.7.7a15.2,15.2,0,0,1,5.8,1.9l1,.2h15.2a1.2,1.2,0,0,0,1-.4c1-1,1.9-2,2.9-2.9a1.2,1.2,0,0,0,.4-1.6,5.1,5.1,0,0,1,2.4-6,5.3,5.3,0,0,1,6.4,1,11.2,11.2,0,0,1,1.3,2.4Zm-40.2,46.5v-8.4c0-.7-.2-1-.9-1.1a14.8,14.8,0,0,1-5.7-1.9,17.2,17.2,0,0,1-8.8-17.5,17.4,17.4,0,0,1,14.5-14.5c.7-.1.9-.3.9-1V117.8c0-.5-.1-.8-.7-.7h-2.1c-.6-.1-.8.2-.8.7a17.1,17.1,0,0,1,0,3.2,1.7,1.7,0,0,1-1.5,2,33.7,33.7,0,0,0-9.6,4,1.7,1.7,0,0,1-2.4-.3l-2.3-2.4c-.4-.4-.6-.3-.9,0l-6.4,6.4c-.4.4-.4.6,0,.9l2.3,2.3a1.8,1.8,0,0,1,.3,2.5,32.8,32.8,0,0,0-3.9,9.5c-.3,1.3-.9,1.6-2.2,1.6h-3c-.6,0-.8.2-.8.7.1,3,.1,5.9,0,8.9,0,.6.3.7.8.7h3a1.9,1.9,0,0,1,2.2,1.7,32.3,32.3,0,0,0,3.9,9.4,1.8,1.8,0,0,1-.3,2.5l-2.4,2.3c-.3.4-.3.6.1.9l6.4,6.5c.3.3.5.2.8-.1l2.3-2.3c.9-.8,1.5-1,2.6-.3a31.7,31.7,0,0,0,9.3,3.9c1.4.3,1.7.8,1.7,2.2a13.1,13.1,0,0,1,0,2.8c0,.7.2,1,.9,1a6.1,6.1,0,0,1,1.9,0c.6,0,.8-.2.8-.8Zm37-47.7a1.9,1.9,0,0,0-2-2,2.1,2.1,0,0,0-2,2,1.9,1.9,0,0,0,2,2A1.9,1.9,0,0,0,1319.9,131.4Zm-8.1-12.3a2.1,2.1,0,0,0-2-2,2,2,0,0,0-2,2,2,2,0,1,0,4,0Zm-2,65.1a2,2,0,0,0-2,2,2,2,0,1,0,4,0A2,2,0,0,0,1309.8,184.2Z" fill="#fdfffc"/><path d="M1323.1,175a6.8,6.8,0,0,1-1.7,2.8,5.1,5.1,0,0,1-6.3.4,5,5,0,0,1-2-6,.9.9,0,0,0-.3-1.2l-3-3a1.3,1.3,0,0,0-1.2-.5h-9.4c-1.3,0-2-1-1.6-2a1.3,1.3,0,0,1,1.3-1.1H1310a2.1,2.1,0,0,1,1.5.7l3.6,3.7c.3.3.6.5,1,.3a5,5,0,0,1,6.8,3.3l.2.4Zm-5.2.9a1.9,1.9,0,0,0,2-2,1.9,1.9,0,0,0-1.9-2,2,2,0,0,0-2.1,2A2,2,0,0,0,1317.9,175.9Z" fill="#fdfffc"/><path d="M1323.1,153.9a6.1,6.1,0,0,1-1.8,2.7,5.1,5.1,0,0,1-7.9-1.5,1.4,1.4,0,0,0-1.4-.8h-2.7a2.5,2.5,0,0,1-1.2-.2,1.6,1.6,0,0,1,.4-3h3.8a.9.9,0,0,0,.9-.5,5.1,5.1,0,0,1,5.2-3.1,5.4,5.4,0,0,1,4.6,3.8.4.4,0,0,0,.1.3Zm-3.1-1.2a2,2,0,0,0-2.1-2,2,2,0,0,0-2,2,2.1,2.1,0,0,0,4.1,0Z" fill="#fdfffc"/><path d="M1284.5,164.2a11.5,11.5,0,0,1-2.3-22.8,7.8,7.8,0,0,1,2.2-.3,1.7,1.7,0,0,1,1.6,1.5,1.6,1.6,0,0,1-1.4,1.7l-1.8.2a8.3,8.3,0,1,0,10,8.8,2.8,2.8,0,0,1,.1-.9,1.6,1.6,0,0,1,1.6-1.3,1.7,1.7,0,0,1,1.5,1.6,12.2,12.2,0,0,1-1.4,5.6A11.5,11.5,0,0,1,1284.5,164.2Z" fill="#fdfffc"/><path d="M1301.6,152.7a1.6,1.6,0,0,1-1.6,1.5,1.6,1.6,0,0,1-1.6-1.6,1.6,1.6,0,0,1,1.6-1.5A1.6,1.6,0,0,1,1301.6,152.7Z" fill="#fdfffc"/><path d="M1292.8,167.5a1.5,1.5,0,0,1-1.5-1.5,1.5,1.5,0,0,1,1.5-1.6,1.6,1.6,0,0,1,1.6,1.5A1.6,1.6,0,0,1,1292.8,167.5Z" fill="#fdfffc"/><path d="M1260.7,151.7a23.8,23.8,0,0,1,9.2-17.8,25.9,25.9,0,0,1,5.8-3.4,1.6,1.6,0,0,1,1.3,2.9l-.8.4a20.2,20.2,0,0,0-6.6,4.6,19.8,19.8,0,0,0-5.6,12.4,10.9,10.9,0,0,0-.1,1.8,1.6,1.6,0,0,1-1.7,1.6,1.6,1.6,0,0,1-1.5-1.6Z" fill="#fdfffc"/><path d="M1240.2,973.6a3.9,3.9,0,0,1-2.6-4.1V924c0-1.1-.4-1.5-1.4-1.9s-.5.1-.7.2c-2.5,1.8-3.6.9-4.6-1s-1-1.5-1.4-2.3a2,2,0,0,1,.7-3.1,2.5,2.5,0,0,0,1.3-2.4,2.5,2.5,0,0,0-1.5-2.7,2,2,0,0,1-.6-3l2.1-3.2a2.1,2.1,0,0,1,3.1-.7l.3.2c1.1.7,1.4.7,2.4-.1s.3-.4.3-.7a8.6,8.6,0,0,1,.1-1.6,1.9,1.9,0,0,1,1.9-1.7h4.3a2,2,0,0,1,2,1.6c0,.3.1.6.1.9s.1,1.6,1.4,2.1a.7.7,0,0,0,.6-.1l1.1-.7a2,2,0,0,1,2.9.7l1.4,2.1a1.3,1.3,0,0,0,1.3.8h30.1a3.7,3.7,0,0,1,3.8,3.8v21.6a1.3,1.3,0,0,1-1.2,1.3c-.7,0-1.1-.5-1.2-1.3V911.4c0-1.4-.3-1.7-1.7-1.7h-29.1a1.3,1.3,0,0,0-1.3.6,3.5,3.5,0,0,1-1.5,1.1,1.1,1.1,0,0,0-.5.9,8.1,8.1,0,0,1,0,2.2.8.8,0,0,0,.4.8l1.2.7a2,2,0,0,1,.5,2.8c-.7,1.2-1.4,2.4-2.2,3.5a2.1,2.1,0,0,1-2.8.7l-.5-.3c-1.2-.7-1.3-.7-2.4.1s-.3.3-.3.6v1a2.3,2.3,0,0,1-2.4,2.4h-3c-.5,0-.7.1-.7.7s0,.2,0,.4v41.6c0,1.5.4,1.9,1.9,1.9h38.1c.8,0,.8,0,.5-.8a6.8,6.8,0,0,1-.2-2v-3.2a12.6,12.6,0,0,0-2.8-8.4,13.3,13.3,0,0,1-2.5-5.7,12.6,12.6,0,1,1,22.5,5.7,11.5,11.5,0,0,0-2.7,5.8,10.9,10.9,0,0,0-.1,1.8v3.8c0,2.8-.9,4.1-3.5,5.2Zm47.2-9.9h4.1c.5,0,.8-.2.8-.7a15.8,15.8,0,0,1,3.4-7.7,9.5,9.5,0,0,0,1.9-7.1,10.3,10.3,0,1,0-18.5,7.1,16,16,0,0,1,3.3,7.7.8.8,0,0,0,.9.7ZM1252,917.9c0-.2-.1-.3-.3-.4a5.7,5.7,0,0,0-1.3-.8,1.4,1.4,0,0,1-.7-1.6,10.3,10.3,0,0,0,0-3.5,1.5,1.5,0,0,1,.6-1.5l1.4-.8c.4-.2.4-.5.1-.9a10.7,10.7,0,0,1-1.3-2.1.5.5,0,0,0-.8-.2,6.7,6.7,0,0,1-1.4.9,1.2,1.2,0,0,1-1.6,0,7.8,7.8,0,0,0-2.2-1.2,1.3,1.3,0,0,1-.9-1.4v-1.6c0-.4-.1-.5-.5-.5h-2.6c-.4-.1-.6.2-.6.6a8.6,8.6,0,0,1,0,1.6,1.3,1.3,0,0,1-.8,1.3,10.1,10.1,0,0,0-2.3,1.2,1.2,1.2,0,0,1-1.6,0l-1.3-.8c-.4-.3-.6-.2-.8.2l-1.4,2.2c-.2.3-.2.4.1.6l1.4.9a1.3,1.3,0,0,1,.7,1.5,10.9,10.9,0,0,0,0,3.6,1.3,1.3,0,0,1-.6,1.4l-1.4.9c-.4.2-.4.4-.2.7l1.4,2.2a.5.5,0,0,0,.8.2l1.4-.9a1.4,1.4,0,0,1,1.5,0,7.1,7.1,0,0,0,2.2,1.3,1.2,1.2,0,0,1,.9,1.3,8.5,8.5,0,0,1,0,1.6c0,.4.2.5.6.5h2.6c.3.1.5-.1.5-.5v-1.7a1.3,1.3,0,0,1,.8-1.2,9.2,9.2,0,0,0,2.4-1.3,1.2,1.2,0,0,1,1.5,0l1.5.9c.3.2.5.2.6-.1l1.5-2.3C1251.9,918.1,1252,918,1252,917.9Zm35.4,48.1h-4.2c-.5,0-.7.2-.7.7a17.7,17.7,0,0,1,0,2.3,2.3,2.3,0,0,0,2.3,2.4h5.2a2.2,2.2,0,0,0,2.2-2.4v-2.3c.1-.5-.1-.7-.7-.7Z" fill="#fdfffc"/><path d="M1262.8,935.6H1246a1.2,1.2,0,0,1-1.1-1.1,1,1,0,0,1,.9-1.2h2.6c.5,0,.7-.2.7-.7s0-2.6,0-3.9a2.3,2.3,0,0,1,2.3-2.6h2.9a2.6,2.6,0,0,1,2.6,2.8v3.7c-.1.8.3.9.9.8s1.1.1,1.1-.8V921.9a6.2,6.2,0,0,1,.1-1.3,2.3,2.3,0,0,1,2.3-1.9h3a2.3,2.3,0,0,1,2.4,2.4v11.2c0,.3-.1.8.3.9a2.2,2.2,0,0,0,1.6-.1c.3-.1.2-.5.2-.7V921.6c0-2,.9-2.9,2.9-2.9h2.2a2.5,2.5,0,0,1,2.7,2.7v10.8c0,1,0,1,1.1,1h1.5c1,0,1.6.5,1.6,1.2s-.6,1.2-1.6,1.2Zm-1.6-8.5c0,1.8.1,3.6,0,5.4s.2.8.7.7h2c.4,0,.5-.1.5-.5V921.6c0-.5-.2-.7-.6-.7a9.6,9.6,0,0,1-1.7,0c-.7,0-.9.2-.9.9S1261.2,925.3,1261.2,927.1Zm13.1,0c0-1.8-.1-3.6,0-5.4s-.2-.8-.8-.8a4.3,4.3,0,0,1-1.6,0c-.6,0-.8.2-.8.8a10.8,10.8,0,0,1,0,1.8c0,3,.1,6,0,8.9,0,.6.2.9.8.8h1.6c.6.1.8-.2.8-.8S1274.3,928.8,1274.3,927.1Zm-19.8,3.6v-1.8c.1-.5-.2-.7-.6-.7h-1.8c-.5,0-.7.2-.7.7v3.6c0,.6.2.7.7.7h1.8c.4,0,.7-.1.6-.6Z" fill="#fdfffc"/><path d="M1255.9,939.4h8a2.8,2.8,0,0,1,3,2.9v10.8a2.8,2.8,0,0,1-2.9,3h-16.2a2.7,2.7,0,0,1-2.9-3v-1.5a1.2,1.2,0,0,1,1.1-1.2,1.1,1.1,0,0,1,1.1,1.2,4,4,0,0,1,0,1.1c.1.9.1,1,1,1h15.4c1,0,1.1-.1,1.1-1v-9.9c0-1-.1-1.1-1.1-1.1h-15.3c-1,0-1.1.1-1.1,1.1s.1,2.4,0,3.6-.4,1.3-1.1,1.3-1.1-.5-1.1-1.3v-4.3a2.6,2.6,0,0,1,2.7-2.7Z" fill="#fdfffc"/><path d="M1250.4,961.4h-4.3a1.3,1.3,0,0,1-1.4-1.1,1.2,1.2,0,0,1,1.3-1.2h8.7a1.2,1.2,0,0,1,1.3,1.2,1.2,1.2,0,0,1-1.3,1.1Z" fill="#fdfffc"/><path d="M1250.3,966h-4.1c-1,0-1.4-.4-1.5-1.1s.5-1.2,1.4-1.2h8.6c.8,0,1.4.5,1.3,1.2s-.5,1.1-1.4,1.1Z" fill="#fdfffc"/><path d="M1253.3,946.7c.5-.1.9.4,1.2.8s.5.3.8,0,1.5-1.6,2.3-2.3a1.2,1.2,0,0,1,1.9.2.9.9,0,0,1-.2,1.3l-3.6,3.6a.9.9,0,0,1-1.5,0c-.6-.5-1.2-1.2-1.8-1.8a.9.9,0,0,1-.2-1.2A1.1,1.1,0,0,1,1253.3,946.7Z" fill="#fdfffc"/><path d="M1285.1,951.6a1.1,1.1,0,0,1-1.1-1.2c0-.6-.2-.8-.8-.8a1,1,0,0,1-1.1-1c-.1-.7.4-1.2,1.2-1.2s.7-.2.7-.8a1.2,1.2,0,0,1,1.1-1.2,1.2,1.2,0,0,1,1.2,1.2c0,.6.1.8.8.8a1,1,0,0,1,1.1,1.1,1,1,0,0,1-1.1,1.1c-.7,0-.8.3-.8.9A1.2,1.2,0,0,1,1285.1,951.6Z" fill="#fdfffc"/><path d="M1291.8,954.3a1.2,1.2,0,0,1-1.2,1.1,1.3,1.3,0,0,1-1.1-1.2,1.2,1.2,0,0,1,1.2-1.1A1.1,1.1,0,0,1,1291.8,954.3Z" fill="#fdfffc"/><path d="M1241.8,917.5a4.2,4.2,0,0,1-4.2-4.1,4.3,4.3,0,0,1,4.2-4.2,4.3,4.3,0,0,1,4.2,4.1A4.2,4.2,0,0,1,1241.8,917.5Zm0-5.9a1.8,1.8,0,1,0,1.8,1.8A1.8,1.8,0,0,0,1241.8,911.6Z" fill="#fdfffc"/><path d="M686.5,952.6a4.6,4.6,0,0,1,3.6-3.4,13.2,13.2,0,0,1,2.8-.2,1,1,0,0,0,1.1-.8,27,27,0,0,1,2.5-6.1c.3-.5.3-.8-.1-1.1l-1.2-1.2a4.6,4.6,0,0,1-.1-6.9l5.2-5.1a4.6,4.6,0,0,1,6.9,0c.5.5,1,1.3,1.7,1.5s1.3-.6,2-.9a31.2,31.2,0,0,1,4.8-1.8c.5-.2.8-.5.7-1s.1-1.5.1-2.3a4.6,4.6,0,0,1,4.5-4.2h8a4.6,4.6,0,0,1,4.5,4.2c0,.8.1,1.6.1,2.4s.1.7.6.8a33.2,33.2,0,0,1,6.4,2.7c.4.2.6.2.9-.1s1-1.1,1.6-1.6a4.5,4.5,0,0,1,6.3,0q3,2.8,5.7,5.7a4.5,4.5,0,0,1,0,6.3,12.1,12.1,0,0,1-1.6,1.6c-.3.3-.3.5-.1.9a33.2,33.2,0,0,1,2.7,6.4.8.8,0,0,0,.8.6H758c2.7-.1,4.6,1,5.5,3.6v9.9c0,.1-.1.2-.1.3A4.6,4.6,0,0,1,759,966h-2a.8.8,0,0,0-.9.7,39.9,39.9,0,0,1-1.9,4.8c-.3.7-1,1.3-.9,2s1,1.2,1.6,1.8a4.6,4.6,0,0,1,0,6.8c-1.7,1.7-3.5,3.4-5.2,5.2a4.6,4.6,0,0,1-6.9-.1l-1.2-1.2a.7.7,0,0,0-1.1-.1,27.8,27.8,0,0,1-6.2,2.5.9.9,0,0,0-.7,1.1,13.7,13.7,0,0,1-.2,2.8A5,5,0,0,1,730,996H720c-2.6-.9-3.6-2.8-3.6-5.5v-1c.1-.5-.1-.8-.7-1a31.2,31.2,0,0,1-4.8-1.8c-.7-.3-1.3-1-2-.9s-1.2,1-1.7,1.5a4.6,4.6,0,0,1-6.9.1c-1.7-1.8-3.4-3.5-5.2-5.2a4.6,4.6,0,0,1,.1-6.9l1.2-1.2c.4-.3.4-.6.1-1.1a27,27,0,0,1-2.5-6.1,1,1,0,0,0-1.1-.8,13.2,13.2,0,0,1-2.8-.2,4.6,4.6,0,0,1-3.6-3.4ZM725,992.9h3.6c1.2,0,1.7-.6,1.8-1.8v-3.2c0-1.2.3-1.7,1.5-2a28.2,28.2,0,0,0,8.4-3.5,1.7,1.7,0,0,1,2.3.3L745,985c.9.9,1.6.9,2.6,0l4.9-4.9a1.7,1.7,0,0,0,0-2.7c-.8-.8-1.6-1.5-2.4-2.4a1.5,1.5,0,0,1-.3-2,31,31,0,0,0,3.7-8.8,1.6,1.6,0,0,1,1.7-1.3h3.4c1.2,0,1.8-.6,1.8-1.7s.1-4.8,0-7.2a1.6,1.6,0,0,0-1.8-1.8h-3.2a1.7,1.7,0,0,1-2-1.5,28.2,28.2,0,0,0-3.5-8.4,1.7,1.7,0,0,1,.3-2.3l2.4-2.4a1.6,1.6,0,0,0,0-2.5l-5.1-5.1a1.5,1.5,0,0,0-2.5.1l-2.4,2.3a1.6,1.6,0,0,1-2.1.4,32.3,32.3,0,0,0-8.8-3.7c-1-.2-1.3-.7-1.3-1.7V924c-.1-1.2-.6-1.8-1.8-1.8h-7.2c-1.2,0-1.7.6-1.8,1.8v3.2c0,1.2-.3,1.7-1.5,2a28.2,28.2,0,0,0-8.4,3.5,1.7,1.7,0,0,1-2.3-.3l-2.4-2.3c-.9-.9-1.6-.9-2.6,0l-4.9,4.9a1.7,1.7,0,0,0,0,2.7,25,25,0,0,1,2.3,2.3,1.6,1.6,0,0,1,.4,2.1,32.3,32.3,0,0,0-3.7,8.8,1.6,1.6,0,0,1-1.7,1.3h-3.4c-1.2,0-1.8.6-1.8,1.7s-.1,4.8,0,7.2a1.6,1.6,0,0,0,1.8,1.8h3.2a1.7,1.7,0,0,1,2,1.5,28.2,28.2,0,0,0,3.5,8.4,1.7,1.7,0,0,1-.3,2.3l-2.3,2.4a1.6,1.6,0,0,0,0,2.6l4.9,4.9a1.7,1.7,0,0,0,2.7,0l2.4-2.4a1.5,1.5,0,0,1,2-.3,32.3,32.3,0,0,0,8.8,3.7,1.5,1.5,0,0,1,1.3,1.7V991a1.7,1.7,0,0,0,1.9,1.9Z" fill="#fff"/><path d="M739.3,951.7a4.5,4.5,0,0,1-1.4,3.6c-3.9,3.9-7.8,7.9-11.8,11.7a5,5,0,0,1-7.3,0l-6.6-6.5a5.2,5.2,0,1,1,7.3-7.3,25,25,0,0,1,2.3,2.3c.5.5.8.5,1.3,0,2.4-2.5,4.9-4.9,7.3-7.3a5.1,5.1,0,0,1,7.6,0A4.7,4.7,0,0,1,739.3,951.7Zm-16.9,13.6a2.1,2.1,0,0,0,1.7-.7l11.3-11.2.5-.7a1.8,1.8,0,0,0,0-2,2.1,2.1,0,0,0-1.7-1,2.3,2.3,0,0,0-1.6.8l-8.7,8.7c-1.1,1-1.9,1-2.9,0l-3.7-3.7a2.1,2.1,0,0,0-2.9-.1,1.9,1.9,0,0,0,.1,2.8l6.5,6.6A1.6,1.6,0,0,0,722.4,965.3Z" fill="#fff"/><path d="M724.8,933.5a24.1,24.1,0,0,1,21.8,34.9,2.2,2.2,0,0,1-1.3,1.2,1.7,1.7,0,0,1-1.7-2.4,20.6,20.6,0,0,0,2-5.9A20.9,20.9,0,0,0,729.1,937a20.4,20.4,0,0,0-13.5,1.9,4.5,4.5,0,0,1-1.1.3,1.6,1.6,0,0,1-.6-3,23.8,23.8,0,0,1,6.3-2.3A18.7,18.7,0,0,1,724.8,933.5Z" fill="#fff"/><path d="M724.9,981.6a24,24,0,0,1-21.4-35,1.6,1.6,0,0,1,2.2-.9,1.5,1.5,0,0,1,.6,2.3,21.2,21.2,0,0,0-2.3,9.6,20.8,20.8,0,0,0,5,13.4,21.1,21.1,0,0,0,24.9,5.5l.8-.4a1.6,1.6,0,0,1,2.2.7,1.5,1.5,0,0,1-.8,2.1,27.1,27.1,0,0,1-3.9,1.7A22.6,22.6,0,0,1,724.9,981.6Z" fill="#fff"/><path d="M709,940.1a1.5,1.5,0,0,1,1.6,1.5,1.6,1.6,0,0,1-1.6,1.6,1.5,1.5,0,0,1-1.5-1.5A1.5,1.5,0,0,1,709,940.1Z" fill="#fff"/><path d="M740.9,975a1.5,1.5,0,0,1-1.5-1.6,1.5,1.5,0,0,1,1.5-1.5,1.6,1.6,0,0,1,1.6,1.6A1.5,1.5,0,0,1,740.9,975Z" fill="#fff"/><path d="M1452.2,517.9a30.9,30.9,0,0,1,21,8.1c.5.4.8.4,1.2-.1l4-3.9a2,2,0,0,0,.6-1.5l-.6-7.3a2.3,2.3,0,0,1,.6-1.9l6.5-6.4a1.3,1.3,0,0,1,2.4.8c.4,2.1.9,4.3,1.3,6.4s.3.8.8.9l5.2,1.1.8.2c1.2.3,1.4,1.3.6,2.2l-1.6,1.7-4.8,4.7a2.1,2.1,0,0,1-1.8.7l-6.9-.5a1.3,1.3,0,0,0-1.2.5l-4.2,4c-.5.5-.5.8,0,1.3a31.3,31.3,0,0,1-1.6,42.1c-.5.6-.6.9-.1,1.6l3.6,5.4c.7,1.2.6,1.8-.6,2.5l-5.9,3.6c-1,.6-1.6.5-2.2-.4s-2.5-3.4-3.7-5.2a1.1,1.1,0,0,0-1.5-.5,28.3,28.3,0,0,1-11.8,2.4,29.6,29.6,0,0,1-12-2.4,1.1,1.1,0,0,0-1.5.5c-1.2,1.8-2.4,3.5-3.7,5.2a1.4,1.4,0,0,1-2.1.5l-6.2-3.8c-1-.6-1.1-1.2-.4-2.2l3.8-5.8c.3-.5.3-.8-.1-1.2a30.9,30.9,0,0,1-8.9-18,11,11,0,0,1-.2-1.8c-.1-1,.3-1.6,1.1-1.7s1.3.4,1.4,1.5a22.7,22.7,0,0,0,1.2,6.4c3.9,11.3,11.6,18.1,23.4,20a28.8,28.8,0,0,0,32.7-25.5,28.6,28.6,0,0,0-6.4-21.4c-.5-.6-.8-.7-1.3-.1s-2.9,2.9-4.4,4.3-.5.8-.1,1.4a20.1,20.1,0,0,1,4.5,13.3,20.9,20.9,0,0,1-41.7,1.8,20.8,20.8,0,0,1,17.8-22.9,20,20,0,0,1,16.4,4.7c.6.4.9.5,1.5-.1s2.8-2.8,4.3-4.2.5-.8,0-1.3a29.1,29.1,0,0,0-33.3-3.6c-.9.5-1.5.4-1.9-.3s-.2-1.3.8-1.9A30,30,0,0,1,1452.2,517.9Zm18.4,31.3a18.3,18.3,0,0,0-3.8-11.3c-.4-.5-.6-.6-1-.1l-4.8,4.7c-.4.3-.2.6,0,.9a10.7,10.7,0,0,1,1.7,5.2,10.5,10.5,0,1,1-4.4-8c.5.4.8.3,1.3-.1s2.8-2.9,4.3-4.3.6-.8,0-1.3a18.4,18.4,0,0,0-29.9,16.9,18.4,18.4,0,0,0,36.6-2.6Zm-10.4-.2a8,8,0,0,0-.9-3.6c-.3-.7-.6-.7-1.1-.2s-2.4,2.3-3.5,3.5-1.5.7-2,.1-.4-1.2.2-1.8,2.5-2.5,3.7-3.7.4-.6-.1-.9a7.5,7.5,0,0,0-5.4-1.2,7.9,7.9,0,0,0-6.9,8.7,8.1,8.1,0,0,0,8.7,7.2A7.9,7.9,0,0,0,1460.2,549Zm23-28.3a44.6,44.6,0,0,0,5,.3c.3.1.5-.1.8-.3l3.8-3.9c.5-.4.4-.6-.2-.7l-4-.8c-1.2-.3-1.4-.5-1.7-1.8l-.9-4.7c-.1-.5-.2-.8-.7-.3l-4.1,4.1a1.1,1.1,0,0,0-.3.8c.1,1.7.2,3.4.4,5.1s.2.5.5.1l1.6-1.5c.8-.8,1.5-.8,2-.2s.5,1.3-.3,2Zm-50.6,52.8c-.3,0-.4.2-.5.4l-2.8,4.3c-.3.4-.3.7.2.9l3.5,2.2c.4.3.7.2,1-.2l2.8-3.9c.3-.5.3-.7-.2-1a22.5,22.5,0,0,1-3.6-2.4Zm42.7,5.1c0-.1,0-.2-.1-.2l-3-4.6c-.2-.3-.5-.2-.7,0a31.1,31.1,0,0,1-3.8,2.5c-.4.2-.4.4-.2.7l3,4.2a.5.5,0,0,0,.8.2l3.7-2.3A.5.5,0,0,0,1475.3,578.6Z" fill="#fdfffc"/><path d="M1425.7,537.8l-.4,1-.9,2.6a1.2,1.2,0,0,1-1.5.9,1.4,1.4,0,0,1-.8-1.6,20.6,20.6,0,0,1,1.2-3.5,1.1,1.1,0,0,1,1.4-.7A1.4,1.4,0,0,1,1425.7,537.8Z" fill="#fdfffc"/><path d="M1428.5,531.9a1.2,1.2,0,0,1-1-1.8,11.6,11.6,0,0,1,2.5-2.9,1,1,0,0,1,1.6.1,1.1,1.1,0,0,1,.1,1.5l-2.3,2.7A1.9,1.9,0,0,1,1428.5,531.9Z" fill="#fdfffc"/><line x1="789.4" y1="863.6" x2="739.6" y2="922.4" fill="none" stroke="#c62d28" stroke-miterlimit="10" stroke-width="12"/><line x1="793" y1="137" x2="820" y2="187" fill="none" stroke="#c62d28" stroke-miterlimit="10" stroke-width="12"/><line x1="1249" y1="187" x2="1201" y2="249" fill="none" stroke="#88dafb" stroke-miterlimit="10" stroke-width="12"/><line x1="1334" y1="541" x2="1393" y2="545" fill="none" stroke="#88dafb" stroke-miterlimit="10" stroke-width="12"/><line x1="1186" y1="841" x2="1222" y2="886" fill="none" stroke="#88dafb" stroke-miterlimit="10" stroke-width="12"/><path d="M482.6,600.6a65.4,65.4,0,1,1,0-130.7" fill="none" stroke="#88dafb" stroke-miterlimit="10" stroke-width="7"/><path d="M772.6,161.3a68.4,68.4,0,1,1,0-136.8" fill="none" stroke="#88dafb" stroke-miterlimit="10" stroke-width="7"/><path d="M772.6,161.3a68.4,68.4,0,0,0,0-136.8" fill="none" stroke="#fdfffc" stroke-miterlimit="10" stroke-width="7"/><path d="M1288.6,217a64.8,64.8,0,1,1,0-129.5" fill="none" stroke="#c62d28" stroke-miterlimit="10" stroke-width="7"/><path d="M1288.6,217a64.8,64.8,0,1,0,0-129.5" fill="none" stroke="#fdfffc" stroke-miterlimit="10" stroke-width="7"/><path d="M1455.6,614a64.8,64.8,0,1,0,0-129.5" fill="none" stroke="#c62d28" stroke-miterlimit="10" stroke-width="7"/><path d="M1455.6,614a64.8,64.8,0,1,1,0-129.5" fill="none" stroke="#fdfffc" stroke-miterlimit="10" stroke-width="7"/><path d="M1264.6,1001a64.8,64.8,0,1,1,0-129.5" fill="none" stroke="#c62d28" stroke-miterlimit="10" stroke-width="7"/><path d="M1264.6,1001a64.8,64.8,0,1,0,0-129.5" fill="none" stroke="#fdfffc" stroke-miterlimit="10" stroke-width="7"/><path d="M481.9,600.6a65.4,65.4,0,1,0,0-130.7" fill="none" stroke="#fdfffc" stroke-miterlimit="10" stroke-width="7"/><path d="M725.9,1019.9a60.7,60.7,0,1,1,0-121.3" fill="none" stroke="#88dafb" stroke-miterlimit="10" stroke-width="7"/><path d="M725.3,1019.9a60.7,60.7,0,1,0,0-121.3" fill="none" stroke="#fdfffc" stroke-miterlimit="10" stroke-width="7"/></g><g id="highlights"><path d="M606,537v-6" fill="none" stroke="#fdfffc" stroke-linecap="round" stroke-miterlimit="10" stroke-width="6"/><path d="M606.4,519c9.4-188.2,165-338,355.6-338,196.6,0,356,159.4,356,356S1158.6,893,962,893a354.2,354.2,0,0,1-149.5-32.8" fill="none" stroke="#fdfffc" stroke-linecap="round" stroke-miterlimit="10" stroke-width="6" stroke-dasharray="11.97 11.97"/><path d="M807.1,857.6l-5.3-2.6" fill="none" stroke="#fdfffc" stroke-linecap="round" stroke-miterlimit="10" stroke-width="6"/><circle cx="606.3" cy="538.3" r="32.4" fill="#c62d28"/><circle cx="832.5" cy="205" r="32" fill="#c62d28"/><circle cx="1190" cy="264" r="32" fill="#88dafb"/><circle cx="1316.4" cy="535.2" r="32" fill="#88dafb"/><circle cx="801.4" cy="855.1" r="32" fill="#c62d28"/><circle cx="1172.3" cy="825.2" r="32" fill="#88dafb"/></g></svg>