<svg xmlns="http://www.w3.org/2000/svg" xmlns:xlink="http://www.w3.org/1999/xlink" viewBox="0 0 750 500"><defs><style>.cls-1,.cls-20{fill:#930217;}.cls-10,.cls-2,.cls-9{fill:none;}.cls-3,.cls-32{fill:#f4e0c7;}.cls-4,.cls-44{fill:#fff;}.cls-5{fill:#898888;}.cls-5,.cls-6{fill-opacity:0.2;}.cls-11,.cls-12,.cls-13,.cls-17,.cls-20,.cls-21,.cls-23,.cls-25,.cls-26,.cls-27,.cls-29,.cls-30,.cls-32,.cls-33,.cls-35,.cls-36,.cls-39,.cls-40,.cls-44,.cls-49,.cls-5,.cls-51,.cls-6,.cls-7,.cls-8{fill-rule:evenodd;}.cls-6{fill:#9d9d9e;}.cls-7{fill:#0671b8;}.cls-8{fill:#07669b;}.cls-9{stroke:#050505;}.cls-10,.cls-9{stroke-linecap:round;stroke-linejoin:round;stroke-width:0.82px;}.cls-10{stroke:#020202;}.cls-11{fill:#d57c64;}.cls-12{fill:#f05623;}.cls-13{fill:#e5451a;}.cls-14{fill:#7a938d;}.cls-15,.cls-21{fill:#f5f5f5;}.cls-16,.cls-23{fill:#d42027;}.cls-17{fill:#772b45;}.cls-18{fill:#050505;}.cls-19,.cls-25{fill:#ebebeb;}.cls-22{clip-path:url(#clip-path);}.cls-24{clip-path:url(#clip-path-2);}.cls-26{fill:#a3a3a3;}.cls-27{fill:#452450;}.cls-28{clip-path:url(#clip-path-3);}.cls-29{fill:#d2b08c;}.cls-30{fill:#bf9182;}.cls-31{clip-path:url(#clip-path-4);}.cls-33{fill:#2b1931;}.cls-34{clip-path:url(#clip-path-5);}.cls-35{fill:#020202;}.cls-36,.cls-42{fill:#030403;}.cls-37{clip-path:url(#clip-path-6);}.cls-38{clip-path:url(#clip-path-7);}.cls-39{fill:#50275c;}.cls-41{clip-path:url(#clip-path-8);}.cls-43{clip-path:url(#clip-path-9);}.cls-45{clip-path:url(#clip-path-10);}.cls-46{clip-path:url(#clip-path-11);}.cls-47{clip-path:url(#clip-path-12);}.cls-48{clip-path:url(#clip-path-13);}.cls-49{fill:#edcaa5;}.cls-50{clip-path:url(#clip-path-14);}.cls-51{fill:#dabfa2;}</style><clipPath id="clip-path"><polygon class="cls-1" points="505.13 416.62 474.82 397.98 474.82 287.67 505.13 269.98 505.13 416.62"/></clipPath><clipPath id="clip-path-2"><polygon class="cls-1" points="258.29 416.62 288.59 397.98 288.59 287.67 258.29 269.98 258.29 416.62"/></clipPath><clipPath id="clip-path-3"><rect class="cls-2" x="288.19" y="94.87" width="46.48" height="51.5"/></clipPath><clipPath id="clip-path-4"><path class="cls-2" d="M298.59,115.37c.94.42,1.7,2.15,1.7,3.73s-.76,2.4-1.7,2-1.7-2-1.7-3.61S297.65,115,298.59,115.37Z"/></clipPath><clipPath id="clip-path-5"><path class="cls-3" d="M307.52,123.14c.22,3.2.44,10.13.77,13.53a6.25,6.25,0,0,0,6,5.25c2.91-.13,6.78-3.58,6.11-6.68-.92-4.18-3.35-10.56-4.07-13.74C315.38,117.2,307.23,119,307.52,123.14Z"/></clipPath><clipPath id="clip-path-6"><path class="cls-2" d="M319.11,115.37a4.09,4.09,0,0,0-2.34,3.73c0,1.57,1.05,2.4,2.34,2a3.91,3.91,0,0,0,2.35-3.61C321.46,115.9,320.41,115,319.11,115.37Z"/></clipPath><clipPath id="clip-path-7"><rect class="cls-2" x="288.19" y="182.22" width="46.48" height="51.5"/></clipPath><clipPath id="clip-path-8"><path class="cls-3" d="M305.77,213.44c.22,3.2.57,9.72.9,13.12.24,2.5,6.25,7.93,6.25,7.93s6.22-5.9,5.54-9c-.91-4.18-3.13-10.51-3.85-13.69C313.63,207.5,305.48,209.29,305.77,213.44Z"/></clipPath><clipPath id="clip-path-9"><path class="cls-2" d="M317.36,205.68A4.06,4.06,0,0,0,315,209.4c0,1.58,1.05,2.4,2.35,2a3.9,3.9,0,0,0,2.34-3.61C319.7,206.21,318.65,205.26,317.36,205.68Z"/></clipPath><clipPath id="clip-path-10"><rect class="cls-2" x="288.19" y="269.57" width="46.48" height="51.5"/></clipPath><clipPath id="clip-path-11"><path class="cls-2" d="M298.59,291.18c.94.41,1.7,2.15,1.7,3.72s-.76,2.41-1.7,2-1.7-2-1.7-3.6S297.65,290.76,298.59,291.18Z"/></clipPath><clipPath id="clip-path-12"><path class="cls-3" d="M307.52,298.94c.22,3.2.8,12.4,1.13,15.81a6.22,6.22,0,0,0,6,5.24c2.92-.13,6.79-3.58,6.11-6.67-.91-4.19-3.7-12.83-4.42-16C315.38,293,307.23,294.79,307.52,298.94Z"/></clipPath><clipPath id="clip-path-13"><path class="cls-2" d="M319.11,291.18a4.08,4.08,0,0,0-2.34,3.72c0,1.58,1.05,2.41,2.34,2a3.89,3.89,0,0,0,2.35-3.6C321.46,291.71,320.41,290.76,319.11,291.18Z"/></clipPath><clipPath id="clip-path-14"><path class="cls-2" d="M413.13,292.2a3.28,3.28,0,0,0-.66,2.3c0,1,.3,1.63.66,1.43a3,3,0,0,0,.66-2.22C413.79,292.68,413.49,292,413.13,292.2Z"/></clipPath></defs><g id="BACKGROUND"><rect class="cls-4" width="750" height="500"/></g><g id="OBJECTS"><path class="cls-5" d="M690.8,430.59c9.73,0-28.86-35.24-38.58-35.24h-548c-9.73,0-55,35.24-45.25,35.24Z"/><path class="cls-6" d="M378.27,400.11c43.21,0,78.24,4.52,78.24,10.1s-35,10.1-78.24,10.1S300,415.79,300,410.21,335.05,400.11,378.27,400.11Z"/><path class="cls-7" d="M671.29,256c18.3-5.9,20.33,5,10,11.09-6.8,4.05-11.93,11.06-15.75,18.19-5.7,10.64-9.35,26.66-14.12,37.7-7,16.17-20,27.33-36.45,32.75-7.46,2.45-23,3.5-27.8-2.08-5.44-6.32-15.73-40.33,25.25-58.29C639.83,283.35,645.15,264.41,671.29,256Z"/><path class="cls-8" d="M646.7,282.59c13.26-9.22,6.14,5.07,2.37,16.61-3.15,9.64-5.78,19.09-9.78,28.37-5.86,13.57-16.76,22.95-30.63,27.5-6.26,2.06-19.31,2.94-23.34-1.75-4.57-5.3-10.53-31.76,23.89-46.84C632.21,296.4,627.18,296.16,646.7,282.59Z"/><path class="cls-9" d="M686.29,257.63c-17.06,1-26.19,13.17-36.07,25.84-9,11.55-15.32,24.65-23,37.09-10.77,17.56-32.74,29.6-40.07,33.08"/><path class="cls-9" d="M631.69,347c-6.23-4.11-16.39-7-24.06-5.77"/><path class="cls-9" d="M613.22,336.32a64.46,64.46,0,0,0-4.73-25.26c-1.59-3.78-3.81-7.14-5.75-10.73"/><path class="cls-9" d="M651.75,321a51.19,51.19,0,0,0-21.68-4.9"/><path class="cls-9" d="M639.29,277.29c1.88,5.93,3.2,11.59,2.68,17.79"/><path class="cls-9" d="M665.87,283.82c-4.41-2.57-8.3-3-13.35-3"/><path class="cls-9" d="M662,269.45c.08-3-.72-6.33-2.15-8.06"/><path class="cls-7" d="M93.16,256c-18.3-5.9-20.34,5-10,11.09,6.81,4.05,11.94,11.06,15.76,18.19,5.69,10.64,9.35,26.66,14.11,37.7,7,16.17,20,27.33,36.46,32.75,7.46,2.45,23,3.5,27.8-2.08,5.44-6.32,15.73-40.33-25.25-58.29C124.62,283.35,119.29,264.41,93.16,256Z"/><path class="cls-8" d="M117.75,282.59c-13.26-9.22-6.14,5.07-2.37,16.61,3.15,9.64,5.78,19.09,9.78,28.37,5.86,13.57,16.76,22.95,30.62,27.5,6.27,2.06,19.31,2.94,23.35-1.75,4.57-5.3,10.52-31.76-23.89-46.84C132.24,296.4,137.27,296.16,117.75,282.59Z"/><path class="cls-10" d="M78.15,257.63c17.07,1,26.2,13.17,36.07,25.84,9,11.55,15.33,24.65,23,37.09,10.77,17.56,32.74,29.6,40.07,33.08"/><path class="cls-10" d="M132.76,347c6.22-4.11,16.39-7,24.06-5.77"/><path class="cls-10" d="M151.22,336.32A64.65,64.65,0,0,1,156,311.06c1.59-3.78,3.81-7.14,5.74-10.73"/><path class="cls-10" d="M112.69,321a51.22,51.22,0,0,1,21.68-4.9"/><path class="cls-10" d="M125.16,277.29c-1.88,5.93-3.2,11.59-2.68,17.79"/><path class="cls-10" d="M98.58,283.82c4.4-2.57,8.3-3,13.34-3"/><path class="cls-10" d="M102.48,269.45c-.08-3,.72-6.33,2.15-8.06"/><path class="cls-11" d="M480.11,109.83c-57.47,12.36-88.83,47.1-118.27,58.7-34.61,13.64-111.74,7.34-156.84,48-44,39.68-25.81,118.55,34.94,141.92,109.88,42.29,260.22,15,304.12-19.36,39.94-31.23,66.75-75.28,66.4-120.48C609.93,152.42,556.49,93.4,480.11,109.83ZM307.12,308c6.17,0,17.28,1.23,18.51-7.41C324.4,309.24,313.29,308,307.12,308Z"/><path class="cls-12" d="M480.11,109.83c-57.47,12.36-88.83,47.1-118.27,58.7-34.61,13.64-111.74,7.34-156.84,48-44,39.68-25.81,118.55,34.94,141.92,109.88,42.29,260.22,15,304.12-19.36,39.94-31.23,66.75-75.28,66.4-120.48C609.93,152.42,556.49,93.4,480.11,109.83ZM307.12,308c6.17,0,17.28,1.23,18.51-7.41C324.4,309.24,313.29,308,307.12,308Z"/><path class="cls-13" d="M464,141.57c-50.71,10.91-78.38,41.57-104.36,51.8-30.55,12-98.62,6.48-138.42,42.35C182.32,270.74,198.4,340.33,252,361c97,37.32,229.64,13.21,268.38-17.09,35.25-27.56,58.91-66.43,58.59-106.31C578.52,179.16,531.36,127.07,464,141.57ZM307.12,308c6.17,0,17.28,1.23,18.51-7.41C324.4,309.24,313.29,308,307.12,308Z"/><path class="cls-7" d="M577,394.18c2-4.43,7.6-18.9,9.62-23.32,6-13.05,9.43-20.46,44.27-29,20.83-5.12,27.47-9.58,44.67-16.69,12.07-5,15.2,5,8.32,13.13-10.91,12.94-12.76,21.41-19.36,33.56-9.86,18.14-21.26,33.1-45.07,35.83-5.35.62-10.9,1.23-16.15.06C588.37,404.38,577,394.18,577,394.18Z"/><path class="cls-8" d="M595.81,407.9c-19.75-4.19-19.41-13.92-14.26-24.66,3.26-6.81,14.1-15.89,34-22.37,14.55-4.74,19.6-6.83,31.87-11.91,8.62-3.56,13,0,10,7-5.52,13-9,22.85-13.75,31.52-7,12.95-19.31,18.4-36.31,20.35C603.52,408.3,599.57,408.7,595.81,407.9Z"/><path class="cls-10" d="M684.43,327.47c-7.31,2.72-31.94,24.13-36.93,28.9-14.67,14-30.65,29.95-70.46,37.81"/><path class="cls-10" d="M610.36,383.58a83.76,83.76,0,0,0,4.53-36.69"/><path class="cls-10" d="M655.44,387.2c-4.51-3.15-15.51-9-28-13.13"/><path class="cls-10" d="M670,360.37a104.68,104.68,0,0,0-22.22-4.13"/><path class="cls-10" d="M655.44,334.73a37.68,37.68,0,0,1-2.82,17"/><path class="cls-10" d="M634.68,403.2c-11.12-6.07-20.19-12.84-32.62-16"/><path class="cls-7" d="M187.4,394.18c-2-4.43-7.59-18.9-9.62-23.32-6-13.05-9.42-20.46-44.27-29-20.82-5.12-27.46-9.58-44.66-16.69-12.07-5-15.21,5-8.33,13.13,10.91,12.94,12.76,21.41,19.37,33.56,9.86,18.14,21.25,33.1,45.07,35.83,5.35.62,10.9,1.23,16.15.06C176.08,404.38,187.4,394.18,187.4,394.18Z"/><path class="cls-8" d="M168.64,407.9c19.75-4.19,19.4-13.92,14.26-24.66-3.27-6.81-14.11-15.89-34-22.37-14.55-4.74-19.6-6.83-31.88-11.91-8.61-3.56-13,0-10,7,5.52,13,9,22.85,13.74,31.52,7,12.95,19.32,18.4,36.32,20.35C160.93,408.3,164.88,408.7,168.64,407.9Z"/><path class="cls-10" d="M80,327.47c7.31,2.72,31.94,24.13,36.93,28.9,14.67,14,30.65,29.95,70.45,37.81"/><path class="cls-10" d="M154.09,383.58a83.76,83.76,0,0,1-4.54-36.69"/><path class="cls-10" d="M109,387.2c4.5-3.15,15.51-9,28-13.13"/><path class="cls-10" d="M94.5,360.37a104.59,104.59,0,0,1,22.21-4.13"/><path class="cls-10" d="M109,334.73a37.68,37.68,0,0,0,2.82,17"/><path class="cls-10" d="M129.76,403.2c11.12-6.07,20.2-12.84,32.63-16"/><rect class="cls-14" x="554.34" y="269.98" width="46.3" height="146.64"/><rect class="cls-15" x="554.34" y="269.98" width="46.3" height="146.64"/><rect class="cls-16" x="558.26" y="273.82" width="38.45" height="138.96"/><rect class="cls-1" x="564.33" y="310.91" width="26.3" height="93.58"/><path class="cls-17" d="M554.34,416.62,524,398V287.67L554.34,270Z"/><circle class="cls-15" cx="578.36" cy="292.4" r="13.26"/><circle class="cls-18" cx="578.36" cy="292.4" r="9.56"/><rect class="cls-14" x="162.78" y="269.98" width="46.3" height="146.64"/><rect class="cls-19" x="162.78" y="269.98" width="46.3" height="146.64"/><rect class="cls-16" x="166.71" y="273.82" width="38.45" height="138.96"/><rect class="cls-1" x="172.78" y="310.91" width="26.3" height="93.58"/><path class="cls-20" d="M209.08,416.62,239.39,398V287.67L209.08,270Z"/><circle class="cls-19" cx="185.06" cy="292.4" r="13.26" transform="translate(-1.15 0.73) rotate(-0.23)"/><circle cx="185.06" cy="292.4" r="9.56" transform="translate(-1.19 0.76) rotate(-0.23)"/><rect class="cls-14" x="505.13" y="269.98" width="46.3" height="146.64"/><rect class="cls-15" x="505.13" y="269.98" width="46.3" height="146.64"/><rect class="cls-16" x="509.06" y="273.82" width="38.45" height="138.96"/><rect class="cls-1" x="515.13" y="310.91" width="26.3" height="93.58"/><path class="cls-21" d="M505.13,416.62,474.83,398V287.67L505.13,270Z"/><polygon class="cls-1" points="505.13 416.62 474.82 397.98 474.82 287.67 505.13 269.98 505.13 416.62"/><g class="cls-22"><path class="cls-20" d="M468.84,347.56s4.17,30.07,20.76,24.52,7-50.26,20.51-66.44S529,419.84,507.5,426.29s-37.27-12.86-40-33.14S468.84,347.56,468.84,347.56Z"/></g><circle class="cls-15" cx="529.15" cy="292.4" r="13.26" transform="translate(-52.81 128.62) rotate(-13.21)"/><circle class="cls-18" cx="529.15" cy="292.4" r="9.56"/><rect class="cls-14" x="211.99" y="269.98" width="46.3" height="146.64"/><rect class="cls-19" x="211.99" y="269.98" width="46.3" height="146.64"/><rect class="cls-16" x="215.92" y="273.82" width="38.45" height="138.96"/><rect class="cls-1" x="221.99" y="310.91" width="26.3" height="93.58"/><path class="cls-23" d="M258.29,416.62,288.59,398V287.67L258.29,270Z"/><polygon class="cls-1" points="258.29 416.62 288.59 397.98 288.59 287.67 258.29 269.98 258.29 416.62"/><g class="cls-24"><path class="cls-20" d="M294.58,347.56s-4.17,30.07-20.76,24.52-7-50.26-20.51-66.44-18.85,114.2,2.61,120.65,37.27-12.86,40-33.14S294.58,347.56,294.58,347.56Z"/></g><path class="cls-25" d="M234.27,279.14A13.26,13.26,0,1,1,221,292.4,13.26,13.26,0,0,1,234.27,279.14Z"/><circle cx="234.27" cy="292.4" r="9.56" transform="translate(-61.11 522.89) rotate(-89.26)"/><path class="cls-26" d="M366.17,400.08H352.79v-54h52.75v54H392.15v-6.56A12.47,12.47,0,0,0,379.68,381h-1a12.48,12.48,0,0,0-12.48,12.48Z"/><path class="cls-26" d="M377.56,394.31c34.59,0,62.68,5.91,62.68,13.2s-125.36,7.28-125.36,0S343,394.31,377.56,394.31Z"/><path class="cls-21" d="M377.56,401.32c18.19,0,33,3.11,33,6.94s-65.91,3.83-65.91,0S359.37,401.32,377.56,401.32Z"/><path class="cls-25" d="M491.38,69.41H272.31a4.78,4.78,0,0,0-4.78,4.77V363.5a4.78,4.78,0,0,0,4.78,4.77H491.38a4.78,4.78,0,0,0,4.77-4.77V74.18A4.78,4.78,0,0,0,491.38,69.41ZM307.12,308c6.17,0,17.28,1.23,18.51-7.41C324.4,309.24,313.29,308,307.12,308Z"/><path class="cls-26" d="M487.2,77.28H276.48a.75.75,0,0,0-.74.74V359.16a.74.74,0,0,0,.74.74H487.2a.74.74,0,0,0,.74-.74V78A.74.74,0,0,0,487.2,77.28ZM307.12,308c6.17,0,17.28,1.23,18.51-7.41C324.4,309.24,313.29,308,307.12,308Z"/><path class="cls-25" d="M485.31,79H278.48a.73.73,0,0,0-.73.73V357a.73.73,0,0,0,.73.73H485.31A.73.73,0,0,0,486,357V79.75A.73.73,0,0,0,485.31,79ZM307.12,308c6.17,0,17.28,1.23,18.51-7.41C324.4,309.24,313.29,308,307.12,308Z"/><path class="cls-27" d="M335,283.77c-2.87,2-3.89,4.92-3.53,8.56.32,3.2,1.06,3.81,1.09,6s-2.81,3.9-2.55,9.85,9,7.44,13.54,5.3c10.18-4.79,3.36-11.3,3.17-17.17-.09-2.5,1.29-6.86-.8-10.55C344,282.33,338.1,281.62,335,283.77Z"/><path class="cls-12" d="M481.38,91.82a2,2,0,0,0-2-2H284.27a2,2,0,0,0-2,2v79.35a2,2,0,0,0,2,2H479.42a2,2,0,0,0,2-2Z"/><rect class="cls-4" x="288.19" y="94.87" width="46.48" height="51.5"/><g class="cls-28"><path class="cls-29" d="M298.59,114.25c1.3.58,2.36,3,2.36,5.18s-1.06,3.35-2.36,2.77-2.36-2.82-2.36-5S297.29,113.68,298.59,114.25Z"/><path class="cls-30" d="M298.59,115.37c.94.42,1.7,2.15,1.7,3.73s-.76,2.4-1.7,2-1.7-2-1.7-3.61S297.65,115,298.59,115.37Z"/><g class="cls-31"><path class="cls-32" d="M300.31,119a1.81,1.81,0,0,1,.25,2c-.31.73-.92,1-1.37.67a1.78,1.78,0,0,1-.25-2C299.25,118.9,299.86,118.6,300.31,119Z"/></g><path class="cls-33" d="M298.31,108.3s-2.19,6,2,10.64S305.09,106.07,298.31,108.3Z"/><path class="cls-7" d="M286.7,152.72c1.17-4,3.5-9.28,8.67-9.07,7.29.29,9.44,7.35,9,12.45C303.49,166.65,290,207,290,207c-1.85,6.65-12.08,5.41-10.56-1.9C279.48,205.05,283.72,162.92,286.7,152.72Z"/><path class="cls-7" d="M313.82,134.09S292,141.55,290.6,145.53c-1.5,4.29,4.89,45.93,4.89,45.93s-1.59,13.79-1.28,15.62c.38,2.16,9.59,5.44,19.61,5.79,9.21.32,22-3.34,22.93-5.79.85-2.17-2.1-15.62-2.1-15.62s12.77-39,10.13-45.93C343.24,141.5,323.47,135.1,313.82,134.09Z"/><path class="cls-7" d="M330.2,154.5c-.65-4.13-.77-9.89,4-11.89,6.72-2.83,11.67,2.64,13.45,7.45,3.67,9.93,8.61,52.12,8.61,52.12,1.14,6.81-8.65,10-10.38,2.77C345.88,205,331.83,165,330.2,154.5Z"/><polygon class="cls-17" points="311.79 141.04 310.22 146.98 316.03 146.98 314.35 141.48 311.79 141.04"/><path class="cls-3" d="M307.52,123.14c.22,3.2.44,10.13.77,13.53a6.25,6.25,0,0,0,6,5.25c2.91-.13,6.78-3.58,6.11-6.68-.92-4.18-3.35-10.56-4.07-13.74C315.38,117.2,307.23,119,307.52,123.14Z"/><g class="cls-34"><path class="cls-30" d="M316.09,120.75s2.66,11.27-7.83,13.34-7.59-14,.15-15.07S316.09,120.75,316.09,120.75Z"/></g><path class="cls-32" d="M310.6,101.59c5.52.7,9.35,6.43,8.35,14.34s-5.31,16.17-12.35,16.24c-7.9.09-9.35-6-7.66-18.78C300,105.48,305.08,100.89,310.6,101.59Z"/><path class="cls-35" d="M296.23,110.79s7.81,1.06,18-4c0,0-1,1.5.12,5a13.72,13.72,0,0,1,.51,6.5h1.77s4.93-3.22,3.71-11.13c-1.52-9.91-10.49-9.42-15.88-7.87C294.81,102,296.23,110.79,296.23,110.79Z"/><path class="cls-36" d="M299.26,114.52a2.8,2.8,0,0,1,1.76-1,1.67,1.67,0,0,1,1.46.64c.34.26,1-.44.95-.64a3,3,0,0,0-2.53-1.16,2.92,2.92,0,0,0-2.13,1.8C298.72,114.31,299.18,114.6,299.26,114.52Z"/><path class="cls-36" d="M301.16,115.22c.4,0,.73.44.73,1s-.33,1-.73,1a.88.88,0,0,1-.74-1C300.42,115.66,300.75,115.22,301.16,115.22Z"/><path class="cls-36" d="M310.79,114.52a2.86,2.86,0,0,0-1.76-1,1.7,1.7,0,0,0-1.47.64c-.34.26-1-.44-.95-.64a3,3,0,0,1,2.53-1.16,2.92,2.92,0,0,1,2.13,1.8C311.32,114.31,310.86,114.6,310.79,114.52Z"/><path class="cls-36" d="M308.89,115.22c-.41,0-.74.44-.74,1a.88.88,0,0,0,.74,1c.4,0,.73-.44.73-1S309.29,115.22,308.89,115.22Z"/><path class="cls-29" d="M303,114.12a5.82,5.82,0,0,1,.46,2.65c-.12,1.41-1.92,3.22-1.47,5.38s4.63.73,4.63.73-3.7.59-4.17-.75c-.64-1.83,1.51-3.95,1.43-5.46A3.93,3.93,0,0,0,303,114.12Z"/><path class="cls-29" d="M303.17,124.66s-.05,0-.06,0,0,0,0,.06a3.53,3.53,0,0,0,2.64.7,3,3,0,0,0,3-2,.05.05,0,0,0,0,0,0,0,0,0,0-.06,0,3.82,3.82,0,0,1-2.91,1.63A4.37,4.37,0,0,1,303.17,124.66Z"/><path class="cls-29" d="M308.26,123.65a.4.4,0,0,1,.39,0c.18.11.24.49.24.49s.17-.51-.13-.74S308.26,123.65,308.26,123.65Z"/><path class="cls-32" d="M319.11,114.25c-1.8.58-3.26,3-3.26,5.18s1.46,3.35,3.26,2.77a5.42,5.42,0,0,0,3.26-5C322.37,115,320.91,113.68,319.11,114.25Z"/><path class="cls-30" d="M319.11,115.37a4.09,4.09,0,0,0-2.34,3.73c0,1.57,1.05,2.4,2.34,2a3.91,3.91,0,0,0,2.35-3.61C321.46,115.9,320.41,115,319.11,115.37Z"/><g class="cls-37"><path class="cls-32" d="M316.74,119a1.55,1.55,0,1,0,1.89.67A1.43,1.43,0,0,0,316.74,119Z"/></g></g><rect class="cls-4" x="343.55" y="94.88" width="38.29" height="6.53"/><rect class="cls-4" x="343.55" y="105.95" width="38.29" height="6.53"/><rect class="cls-4" x="343.55" y="117.02" width="38.29" height="6.53"/><rect class="cls-4" x="343.55" y="128.09" width="38.29" height="6.53"/><rect class="cls-4" x="343.55" y="139.16" width="38.29" height="6.53"/><rect class="cls-4" x="385.59" y="94.88" width="88.43" height="6.53"/><rect class="cls-4" x="385.59" y="105.95" width="88.43" height="6.53"/><rect class="cls-4" x="385.59" y="117.02" width="88.43" height="6.53"/><rect class="cls-4" x="385.59" y="128.09" width="88.43" height="6.53"/><rect class="cls-4" x="385.59" y="139.16" width="88.43" height="6.53"/><path class="cls-7" d="M481.38,179.17a2,2,0,0,0-2-2H284.27a2,2,0,0,0-2,2v79.35a2,2,0,0,0,2,2H479.42a2,2,0,0,0,2-2Z"/><rect class="cls-4" x="288.19" y="182.22" width="46.48" height="51.5"/><g class="cls-38"><path class="cls-39" d="M296.56,198.61s-2.19,6,2,10.63S303.34,196.37,296.56,198.61Z"/><path class="cls-23" d="M312.06,224.39s-21.82,7.47-23.21,11.44c-1.51,4.3,4.89,45.93,4.89,45.93s-1.6,13.79-1.28,15.63c.38,2.15,9.58,5.44,19.6,5.78,9.22.32,22-3.33,22.93-5.78.85-2.18-2.09-15.63-2.09-15.63s10.61-39.1,8-46C339.33,231.69,321.72,225.4,312.06,224.39Z"/><path class="cls-40" d="M295,204.22a22.25,22.25,0,0,1-2.52,11.2c-3.83,7.56.71,12.78,6.36,14.13,2.72.65,7.62-4.31,15-4.93,3.73-.32,7,5.68,13,4.06,6.26-1.68,6.68-10.07.08-18.66-5.76-7.49-5.1-13.41-9.56-15.75C312.12,191.51,293.71,186.53,295,204.22Z"/><path class="cls-3" d="M305.77,213.44c.22,3.2.57,9.72.9,13.12.24,2.5,6.25,7.93,6.25,7.93s6.22-5.9,5.54-9c-.91-4.18-3.13-10.51-3.85-13.69C313.63,207.5,305.48,209.29,305.77,213.44Z"/><g class="cls-41"><path class="cls-30" d="M314.33,211.05s2.67,11.28-7.82,13.35-7.59-14,.15-15.07S314.33,211.05,314.33,211.05Z"/></g><path class="cls-32" d="M308.85,191.89c5.52.7,9.35,6.43,8.35,14.34s-5.49,16-12.53,15.68c-4.88-.23-9.17-5.48-7.49-18.22C298.23,195.79,303.33,191.19,308.85,191.89Z"/><path class="cls-40" d="M296.56,198.61c4.3,2.2,12.69-3.67,15.91-1.54,0,0-1,1.49.12,5a13.72,13.72,0,0,1,.51,6.5h1.78s7.78-2.26,6.38-10.13c-1.94-10.86-13.16-10.42-18.56-8.87C293.06,192.31,296.56,198.61,296.56,198.61Z"/><path class="cls-40" d="M298.82,200s1.89.6,6-1.59,5.5-3.06,8.95-2.15l-.54,2.15s-2.92-2-7.87.91S298.82,200,298.82,200Z"/><path class="cls-36" d="M297.35,204.67a3.14,3.14,0,0,1,1.91-.84,1.73,1.73,0,0,1,1.47.64c.34.26,1-.44.95-.64a3,3,0,0,0-2.5-.91,2.58,2.58,0,0,0-2,1.61C297.12,204.68,297.27,204.75,297.35,204.67Z"/><ellipse class="cls-42" cx="299.4" cy="206.5" rx="0.74" ry="0.97"/><path class="cls-36" d="M309.32,204.63a2.43,2.43,0,0,0-1.81-1,2.74,2.74,0,0,0-1.7.89c-.35.26-1.05-.44-.95-.64a3.61,3.61,0,0,1,2.67-1.17,2,2,0,0,1,1.9,1.88C309.45,204.69,309.4,204.71,309.32,204.63Z"/><path class="cls-36" d="M307.13,205.53c-.4,0-.73.43-.73,1s.33,1,.73,1a1,1,0,0,0,0-1.94Z"/><path class="cls-29" d="M301.23,204.42a5.82,5.82,0,0,1,.46,2.65c-.12,1.41-1.92,3.22-1.48,5.38s4.64.73,4.64.73-3.7.6-4.17-.75c-.64-1.82,1.51-3.94,1.43-5.46A4,4,0,0,0,301.23,204.42Z"/><path class="cls-29" d="M301.42,215s-.05,0-.06,0,0,.05,0,.06a3.51,3.51,0,0,0,2.64.7,3,3,0,0,0,3-2,.06.06,0,0,0,0-.06,0,0,0,0,0-.06,0,3.79,3.79,0,0,1-2.91,1.63A4.27,4.27,0,0,1,301.42,215Z"/><path class="cls-29" d="M306.51,214a.43.43,0,0,1,.39,0c.18.11.24.49.24.49s.17-.5-.14-.74S306.51,214,306.51,214Z"/><path class="cls-32" d="M317.36,204.56c-1.8.57-3.26,3-3.26,5.18s1.46,3.34,3.26,2.77a5.44,5.44,0,0,0,3.26-5C320.62,205.29,319.16,204,317.36,204.56Z"/><path class="cls-30" d="M317.36,205.68A4.06,4.06,0,0,0,315,209.4c0,1.58,1.05,2.4,2.35,2a3.9,3.9,0,0,0,2.34-3.61C319.7,206.21,318.65,205.26,317.36,205.68Z"/><g class="cls-43"><path class="cls-32" d="M315,209.26a1.55,1.55,0,1,0,1.88.67A1.42,1.42,0,0,0,315,209.26Z"/></g></g><rect class="cls-4" x="343.55" y="182.22" width="39.72" height="6.53"/><rect class="cls-4" x="343.55" y="193.29" width="39.72" height="6.53"/><rect class="cls-4" x="343.55" y="204.36" width="39.72" height="6.53"/><rect class="cls-4" x="343.55" y="215.43" width="39.72" height="6.53"/><rect class="cls-4" x="343.55" y="226.51" width="39.72" height="6.53"/><rect class="cls-4" x="388.28" y="182.22" width="85.75" height="6.53"/><rect class="cls-4" x="388.28" y="193.29" width="85.75" height="6.53"/><rect class="cls-4" x="388.28" y="204.36" width="85.75" height="6.53"/><rect class="cls-4" x="388.28" y="215.43" width="85.75" height="6.53"/><rect class="cls-4" x="388.28" y="226.51" width="85.75" height="6.53"/><path class="cls-23" d="M479.42,264.55H284.27a2,2,0,0,0-2,2v79.35a2,2,0,0,0,2,2H479.42a2,2,0,0,0,2-2V266.51A2,2,0,0,0,479.42,264.55Zm-173.11,45c6.17,0,17.28,1.24,18.52-7.4C323.59,310.82,312.48,309.58,306.31,309.58Z"/><path class="cls-44" d="M288.19,269.57v51.49h46.48V269.57Z"/><rect class="cls-4" x="343.55" y="269.57" width="39.72" height="6.53"/><circle class="cls-4" cx="446.15" cy="334.22" r="11.09" transform="translate(-105.66 413.37) rotate(-45)"/><rect class="cls-4" x="343.55" y="280.64" width="39.72" height="6.53"/><rect class="cls-4" x="343.55" y="291.71" width="39.72" height="6.53"/><rect class="cls-4" x="343.55" y="302.78" width="39.72" height="6.53"/><rect class="cls-4" x="343.55" y="313.85" width="39.72" height="6.53"/><rect class="cls-4" x="388.28" y="269.57" width="85.75" height="6.53"/><rect class="cls-4" x="388.28" y="280.64" width="85.75" height="6.53"/><rect class="cls-4" x="388.28" y="291.71" width="85.75" height="6.53"/><rect class="cls-4" x="388.28" y="302.78" width="85.75" height="6.53"/><rect class="cls-4" x="388.28" y="313.85" width="85.75" height="6.53"/><polygon class="cls-40" points="311.84 140.43 310.26 146.37 316.08 146.37 314.39 140.87 311.84 140.43"/><ellipse cx="313.45" cy="140.62" rx="3.19" ry="2.2"/><path class="cls-8" d="M308,132.75s-.36,3.69,4.39,4.93c0,0,3.73-.16,6.78-7l2.66,4.84s-.51,5.3-4.81,7.68l-4.63-4.64-3.73,4.64A8.59,8.59,0,0,1,306,137Z"/><circle class="cls-4" cx="443.11" cy="159.45" r="11.09" transform="translate(17.04 360.03) rotate(-45)"/><path class="cls-40" d="M431,161.42A30.73,30.73,0,0,1,443,167.86c2.22-7,8.34-15.88,14.29-19.5-7.2,2.79-13.82,9.19-15.48,14.36a27.06,27.06,0,0,0-9-4.38Z"/><circle class="cls-4" cx="444.15" cy="246.91" r="11.09" transform="translate(-44.5 386.38) rotate(-45)"/><g class="cls-45"><path class="cls-29" d="M298.59,290.06c1.3.57,2.36,3,2.36,5.18s-1.06,3.35-2.36,2.77-2.36-2.82-2.36-5S297.29,289.48,298.59,290.06Z"/><path class="cls-30" d="M298.59,291.18c.94.41,1.7,2.15,1.7,3.72s-.76,2.41-1.7,2-1.7-2-1.7-3.6S297.65,290.76,298.59,291.18Z"/><g class="cls-46"><path class="cls-32" d="M300.31,294.76a1.83,1.83,0,0,1,.25,2c-.31.73-.92,1-1.37.67a1.79,1.79,0,0,1-.25-2C299.25,294.7,299.86,294.4,300.31,294.76Z"/></g><path class="cls-40" d="M298.31,284.11s-2.19,6,2,10.63S305.09,281.87,298.31,284.11Z"/><path class="cls-7" d="M286.7,328.52c1.17-4,3.5-9.28,8.67-9.07,7.29.3,9.44,7.35,9,12.46-.89,10.55-14.34,50.85-14.34,50.85-1.85,6.65-12.08,5.4-10.56-1.91C279.48,380.85,283.72,338.72,286.7,328.52Z"/><path class="cls-7" d="M313.82,309.9S292,317.36,290.6,321.34c-1.5,4.29,4.89,45.92,4.89,45.92s-1.6,13.79-1.28,15.63c.38,2.15,9.59,5.44,19.61,5.79,9.21.31,22-3.34,22.93-5.79.85-2.17-2.1-15.63-2.1-15.63s12.77-39,10.13-45.92C343.24,317.3,323.47,310.91,313.82,309.9Z"/><path class="cls-7" d="M330.2,330.31c-.65-4.14-.77-9.89,4-11.9,6.72-2.83,11.67,2.65,13.45,7.45,3.67,9.93,8.61,52.13,8.61,52.13,1.14,6.81-8.65,10-10.38,2.76C345.88,380.75,331.83,340.81,330.2,330.31Z"/><path class="cls-3" d="M307.52,298.94c.22,3.2.8,12.4,1.13,15.81a6.22,6.22,0,0,0,6,5.24c2.92-.13,6.79-3.58,6.11-6.67-.91-4.19-3.7-12.83-4.42-16C315.38,293,307.23,294.79,307.52,298.94Z"/><g class="cls-47"><path class="cls-30" d="M316.09,296.55s.06-2.79-7.68-1.72-10.64,17.14-.15,15.07q.58-.12,1.11-.27c-1.09,0-2.13-.05-3.06-.05.93,0,2,0,3.06.05C318.55,307,316.09,296.55,316.09,296.55Z"/></g><path class="cls-32" d="M319,291.73c1-7.91-2.83-13.64-8.35-14.34s-10.62,3.9-11.66,11.81c-1.69,12.73-.24,18.86,7.66,18.78C313.64,307.91,318,299.64,319,291.73Z"/><path class="cls-40" d="M311.2,301.59l.53-.41s-1-3-2.68-3.16a3.58,3.58,0,0,0-2.45.67,6.22,6.22,0,0,1-4.19-.14c-1.13-.38-1.4,4-1.4,4h.38s.53-2,1.26-2.45,1.33.21,2.52.21c1.93,0,1.58-.9,3.59-1.39C310,298.59,311.2,301.59,311.2,301.59Z"/><path class="cls-40" d="M296.23,286.6s7.81,1.06,18-4c0,0-1,1.5.12,5a13.72,13.72,0,0,1,.51,6.5h1.77s4.93-3.23,3.71-11.13c-1.52-9.91-10.49-9.42-15.88-7.87C294.81,277.81,296.23,286.6,296.23,286.6Z"/><path class="cls-36" d="M299.26,290.33a2.86,2.86,0,0,1,1.76-1,1.69,1.69,0,0,1,1.46.64c.34.26,1-.44.95-.64a3,3,0,0,0-2.53-1.15,2.91,2.91,0,0,0-2.13,1.79C298.72,290.12,299.18,290.41,299.26,290.33Z"/><ellipse class="cls-42" cx="301.16" cy="292" rx="0.74" ry="0.97"/><path class="cls-36" d="M310.79,290.33a2.92,2.92,0,0,0-1.76-1,1.73,1.73,0,0,0-1.47.64c-.34.26-1-.44-.95-.64a3,3,0,0,1,2.53-1.15,2.91,2.91,0,0,1,2.13,1.79C311.32,290.12,310.86,290.41,310.79,290.33Z"/><path class="cls-36" d="M308.89,291a1,1,0,0,0,0,1.94c.4,0,.73-.43.73-1S309.29,291,308.89,291Z"/><path class="cls-29" d="M303,289.92a5.86,5.86,0,0,1,.46,2.65c-.12,1.41-1.92,3.23-1.48,5.38s4.64.74,4.64.74-3.7.59-4.17-.76c-.64-1.82,1.51-3.94,1.43-5.45A4,4,0,0,0,303,289.92Z"/><path class="cls-29" d="M303.17,300.46a.06.06,0,0,0-.06,0,0,0,0,0,0,0,.06,3.52,3.52,0,0,0,2.64.71,3,3,0,0,0,3-2s0,0,0,0-.05,0-.06,0a3.79,3.79,0,0,1-2.91,1.63A4.29,4.29,0,0,1,303.17,300.46Z"/><path class="cls-29" d="M308.26,299.45a.44.44,0,0,1,.39,0c.18.12.24.5.24.5s.17-.51-.13-.74S308.26,299.45,308.26,299.45Z"/><path class="cls-32" d="M319.11,290.06c-1.8.57-3.26,3-3.26,5.18s1.46,3.35,3.26,2.77a5.43,5.43,0,0,0,3.26-5C322.37,290.8,320.91,289.48,319.11,290.06Z"/><path class="cls-30" d="M319.11,291.18a4.08,4.08,0,0,0-2.34,3.72c0,1.58,1.05,2.41,2.34,2a3.89,3.89,0,0,0,2.35-3.6C321.46,291.71,320.41,290.76,319.11,291.18Z"/><g class="cls-48"><path class="cls-32" d="M316.74,294.76a1.55,1.55,0,1,0,1.89.67A1.44,1.44,0,0,0,316.74,294.76Z"/></g></g><path class="cls-40" d="M419.26,423.27a7.91,7.91,0,0,1-4.45,3.26c-1.76.54-.77,1.73-.77,1.73a12.64,12.64,0,0,0,4.57.1l1.32-1.1.26.95A3.75,3.75,0,0,0,423,428a6.88,6.88,0,0,0-.6-5.08Z"/><path class="cls-40" d="M448.86,419.4a7.93,7.93,0,0,0,4.64,3c1.79.43.88,1.67.88,1.67a12.53,12.53,0,0,1-4.56.39l-1.38-1-.2,1a3.67,3.67,0,0,1-2.78-.06,6.87,6.87,0,0,1,.29-5.1Z"/><path class="cls-8" d="M436.7,312c-.86-2.27-2.46-5.2-5.44-4.84-4.2.5-5.12,4.68-4.64,7.61,1,6.07,10.63,28.76,10.63,28.76,1.38,3.77,7.92,1.45,6.71-2.71C444,340.79,438.89,317.74,436.7,312Z"/><path class="cls-8" d="M441.92,345.26c1.31-1.18,2.88-3,1.85-4.95-1.44-2.71-4.51-2.23-6.37-1.14-3.83,2.27-13,11.61-13,11.61-.59,1.08,1.26,3.74,2.66,3.66C427,354.44,438.6,348.25,441.92,345.26Z"/><path class="cls-13" d="M451.87,330.69a1,1,0,0,0-.68-1.31l-28.41-9a1,1,0,0,0-1.32.68l-6.23,19.66a1,1,0,0,0,.69,1.32l28.41,9a1.05,1.05,0,0,0,1.32-.68Z"/><path class="cls-12" d="M450.1,331a1.13,1.13,0,0,0-.74-1.3l-28.48-9a.93.93,0,0,0-1.2.69l-4.53,19.42a1.11,1.11,0,0,0,.73,1.29l28.48,9a.93.93,0,0,0,1.2-.68Z"/><path class="cls-32" d="M418.35,284.39c3.19.5,5.11,4.15,4.17,8.68s-4.43,8.4-7.59,7.74-4.78-5.1-4.42-9.72C410.82,287,413.14,283.58,418.35,284.39Z"/><path class="cls-40" d="M419.77,348.13a176.66,176.66,0,0,0,13.09,41.51c2.14,4.67,9.39,2.08,9-2.12-1.5-15.55-10-42.25-10-42.25C430.08,337.65,418,340.51,419.77,348.13Z"/><path class="cls-40" d="M407,348.57a177.06,177.06,0,0,0,5.34,43.2c1.26,5,8.86,3.75,9.23-.46C423,375.75,419.45,348,419.45,348,419.07,340.13,406.64,340.75,407,348.57Z"/><path class="cls-40" d="M432.93,390s5.3,13.38,12.5,30.73c.38.93,3.89.05,3.77-.89-1.8-13.87-4.87-25.68-7.29-32C439.39,381.31,431.31,383.1,432.93,390Z"/><path class="cls-32" d="M421.32,294.59c0,1.86.11,7.2.07,9.19a3.61,3.61,0,0,1-3.24,3.31c-1.69.06-4.09-1.76-3.84-3.58.33-2.46,1.55-7.59,1.82-9.46C416.5,291.51,421.29,292.17,421.32,294.59Z"/><path class="cls-40" d="M412.38,392.09s3.41,14,6.72,32.48c.23,1.25,3.74.94,3.87-.19a111.54,111.54,0,0,0-1.37-32.75C420.3,384.76,412,385.05,412.38,392.09Z"/><path class="cls-40" d="M419.23,341.89c-6.85.54-12.44.55-12.13,4.41s2.27,10.44,13.24,9.57,11.86-7.68,11.56-11.54S426.07,341.35,419.23,341.89Z"/><path class="cls-7" d="M416.94,302.83s-12.5,4.77-13.23,7.11c-.78,2.52,3.78,26.54,3.78,26.54s-.64,8-.42,9.08c.26,1.25,5.67,3,11.49,3,5.35,0,12.68-2.39,13.18-3.83.45-1.28-1.53-9-1.53-9s6.6-22.87,4.93-26.84C434.16,306.52,422.57,303.22,416.94,302.83Z"/><path class="cls-7" d="M411.15,316c.68-2.32,1.19-5.63-1.41-7.14-3.65-2.14-6.91.64-8.3,3.27-2.86,5.44-9.26,19.44-9.26,19.44-1.17,3.83,4.71,6.59,7.75,3C402.57,331.42,409.42,321.91,411.15,316Z"/><path class="cls-49" d="M387.58,304a44.16,44.16,0,0,0-2.21-4.2c-.57-.9-1.32-.64-1.07.45a32.44,32.44,0,0,0,1.6,4.18h0l-.13-.23c-.53-.9-1.73-.63-1.51.41-.59-.48-1.34.06-1.05.88a.67.67,0,0,0-1,.86s0,0,0,0c0,1,.64,4.71,2.72,5.38,1.61.52,2.29-.29,2.29-.29,3.21.15,4-3.7,3.93-5.93a4.51,4.51,0,0,1,.26-2.44c.37-.92-.38-.87-.38-.87-1.29.08-1.86,2.26-1.86,2.26s-.15,1.5-.58,1.32a9.92,9.92,0,0,1-1-1.82Z"/><path class="cls-7" d="M391.88,332.49c.77,1.59,2.11,3.6,4.24,3.15,3-.63,3.4-3.71,2.86-5.8-1.12-4.31-8.73-20.14-8.73-20.14-.88-.86-5.15.63-5.46,2C384.79,311.7,389.92,328.47,391.88,332.49Z"/><path class="cls-40" d="M412.36,283.44s-4.18,1.07-3.41,4.89a4,4,0,0,0,3.3,3.32s1.26,6.66,3.78,8.11a24.71,24.71,0,0,0,5.37,0,16.3,16.3,0,0,0,3.61-8.51c.83-7.2-3.61-7-3.61-7s-2-4.09-6.09-3.46C412.32,281.28,412.36,283.44,412.36,283.44Z"/><path class="cls-32" d="M413.38,291.33c-.7.38-1.26,1.95-1.26,3.39s.56,2.18,1.26,1.8,1.26-1.84,1.26-3.27S414.07,291,413.38,291.33Z"/><path class="cls-30" d="M413.13,292.2a3.28,3.28,0,0,0-.66,2.3c0,1,.3,1.63.66,1.43a3,3,0,0,0,.66-2.22C413.79,292.68,413.49,292,413.13,292.2Z"/><g class="cls-50"><path class="cls-51" d="M412.47,294.4a1.7,1.7,0,0,0-.1,1.27c.12.5.35.75.53.55A1.75,1.75,0,0,0,413,295C412.87,294.45,412.64,294.2,412.47,294.4Z"/></g><path class="cls-8" d="M412.47,304.67a31.13,31.13,0,0,1,11.2-.69l-.73-2.7s-3-1.87-9.15.16Z"/><path class="cls-8" d="M319.75,309.77c-5.52,14.16-5.84,32.05-5.84,32.05-.68,4.28,7.21,4.09,8.1.18,0,0,6.67-21.69,7.51-27.77C330.52,307,321.71,304.72,319.75,309.77Z"/><path class="cls-8" d="M316.51,345.91a4.91,4.91,0,0,1-2.46-4.68c.51-3.81,3.9-3.79,5.88-2.94,4.09,1.77,18.67,13.52,18.67,13.52.72,1-.77,3.87-2.17,4C336.43,355.78,320.19,348.46,316.51,345.91Z"/><path class="cls-32" d="M332.17,283.46c-3.05,1.05-4.55,4.76-3,9.13s5.45,7.77,8.51,6.72,4.07-6.16,2.56-10.53S335.23,282.4,332.17,283.46Z"/><path class="cls-40" d="M338.64,345.79s2.25,10.43-1,43.52c-.76,5.08-8.44,4.62-9.23.47-2.91-15.35-4.2-42.62-4.2-42.62C323.84,339.34,338.24,338,338.64,345.79Z"/><path class="cls-40" d="M353.2,347.16a245,245,0,0,1-4.42,42.4c-1,5.05-8.63,4.26-9.24.09-.94-37.84-.4-43.41-.4-43.41C339.06,338.4,353.13,339.33,353.2,347.16Z"/><path class="cls-40" d="M337.68,389.63s-1.35,14.32-3.42,33c-.11,1-3.72,1.14-3.87.2-2.15-13.82-2.49-26-1.92-32.72C329.07,383.14,337.32,382.59,337.68,389.63Z"/><path class="cls-32" d="M330.51,294c.22,1.84.81,7.16,1.09,9.12a3.63,3.63,0,0,0,3.64,2.88c1.68-.16,3.83-2.26,3.35-4-.64-2.4-2.49-7.33-3-9.16C334.9,290.28,330.23,291.55,330.51,294Z"/><path class="cls-40" d="M348.78,389.88s-2.58,14.17-4.8,32.82c-.15,1.26-3.68,1.16-3.88,0a111.22,111.22,0,0,1-.54-32.78C340.45,383,348.71,382.84,348.78,389.88Z"/><path class="cls-35" d="M338.57,343.15c7.25-.35,13.13-1.06,13.31,2.8s-1,10.65-12.65,11.2-13.47-6.08-13.65-9.94S331.31,343.49,338.57,343.15Z"/><path class="cls-7" d="M348.78,327.59s5.59-10.43,1.14-20.64c-1-2.24-14-5.38-14-5.38-5.52,1.09-15.37,5-16,7.44-1.16,4.15,7.95,19.65,7.95,19.65s-2.56,11.12-3.53,18.81c-.19,1.51,9.12,4.07,14.46,3.85,8.83-.36,15.41-1.83,14.47-5.46C350.59,335.8,348.78,327.59,348.78,327.59Z"/><path class="cls-8" d="M343.3,313.9c-1-2.23-1.88-5.44.5-7.27,3.35-2.58,6.94-.24,8.64,2.2,3.53,5,11.65,18.11,11.65,18.11,1.64,3.65-3.84,7.13-7.31,3.94C353.77,328.11,345.77,319.55,343.3,313.9Z"/><path class="cls-49" d="M366.07,298.71a44.16,44.16,0,0,1,2.21-4.2c.57-.89,1.32-.64,1.07.46a32.85,32.85,0,0,1-1.6,4.17h0l.13-.23c.53-.9,1.72-.63,1.51.42.59-.48,1.34.06,1.05.87a.67.67,0,0,1,1,.86s0,0,0,0c0,1-.64,4.71-2.72,5.38-1.61.52-2.3-.28-2.3-.28-3.2.14-4-3.71-3.92-5.94a4.51,4.51,0,0,0-.26-2.44c-.37-.91.38-.87.38-.87,1.29.08,1.86,2.26,1.86,2.26s.15,1.51.58,1.32a9.92,9.92,0,0,0,1-1.82Z"/><path class="cls-8" d="M364.51,327.83c-.57,1.66-1.64,3.84-3.81,3.66-3.06-.25-3.84-3.26-3.57-5.4.56-4.42,6.43-20.74,6.43-20.74.76-1,4.83,0,5.31,1.31C368.87,306.66,365.94,323.59,364.51,327.83Z"/><path class="cls-40" d="M330.24,283.25c-2.86,2-3.88,4.93-3.52,8.57.32,3.2,1.06,3.81,1.09,6s-2.81,3.9-2.55,9.86,9,7.43,13.54,5.29c10.18-4.79,3.36-11.3,3.16-17.17-.08-2.49,1.29-6.86-.79-10.54C339.21,281.81,333.33,281.1,330.24,283.25Z"/><path class="cls-40" d="M340.65,422.38a6.88,6.88,0,0,0-.6,5.08,3.7,3.7,0,0,0,2.77.23l.25-.95,1.33,1.1a12.42,12.42,0,0,0,4.57-.1s1-1.18-.78-1.72a8,8,0,0,1-4.45-3.27Z"/><path class="cls-40" d="M330.77,422.75a7.94,7.94,0,0,1-4.45,3.27c-1.76.54-.77,1.72-.77,1.72a12.42,12.42,0,0,0,4.57.1l1.32-1.1.26.95a3.7,3.7,0,0,0,2.77-.23,6.88,6.88,0,0,0-.6-5.08Z"/></g></svg>