<svg width="96" height="96" xmlns="http://www.w3.org/2000/svg" xmlns:xlink="http://www.w3.org/1999/xlink"
    xml:space="preserve" overflow="hidden" fill="#df531f">
    <g>
        <path
            d="M50 33C50 34.1046 49.1046 35 48 35 46.8954 35 46 34.1046 46 33 46 31.8954 46.8954 31 48 31 49.1046 31 50 31.8954 50 33Z" />
        <path
            d="M50 73C50 74.1046 49.1046 75 48 75 46.8954 75 46 74.1046 46 73 46 71.8954 46.8954 71 48 71 49.1046 71 50 71.8954 50 73Z" />
        <path
            d="M70 52C70 53.1046 69.1046 54 68 54 66.8954 54 66 53.1046 66 52 66 50.8954 66.8954 50 68 50 69.1046 50 70 50.8954 70 52Z" />
        <path
            d="M30 52C30 53.1046 29.1046 54 28 54 26.8954 54 26 53.1046 26 52 26 50.8954 26.8954 50 28 50 29.1046 50 30 50.8954 30 52Z" />
        <path d="M50 38 46 38 46 52C46 52.5 46.2 53 46.6 53.4L56.5 63.3 59.3 60.5 50 51.2 50 38Z" />
        <path
            d="M48 81C32.5 81 20 68.5 20 53 20 37.5 32.5 25 48 25 63.5 25 76 37.5 76 53 76 68.5 63.5 81 48 81L48 81ZM71.7 28.6 74.7 25.6C75.8 24.4 75.8 22.6 74.6 21.4 73.5 20.3 71.6 20.2 70.4 21.3L67 24.8C62.2 21.6 56.7 19.6 51 19.2L51 15 60 15 60 9 36 9 36 15 45 15 45 19.1C29.1 20.5 16.3 32.8 14.3 48.7 12.3 64.6 21.6 79.7 36.7 85 51.8 90.3 68.5 84.5 77 70.9 85.5 57.3 83.1 39.7 71.7 28.6L71.7 28.6Z" />
    </g>
</svg>