<svg xmlns="http://www.w3.org/2000/svg" xmlns:xlink="http://www.w3.org/1999/xlink" viewBox="0 0 500 500"><defs><style>.cls-1,.cls-34,.cls-35{fill:#fff;}.cls-10,.cls-11,.cls-12,.cls-14,.cls-18,.cls-2,.cls-20,.cls-21,.cls-22,.cls-23,.cls-24,.cls-25,.cls-28,.cls-30,.cls-7{fill:none;}.cls-3{clip-path:url(#clip-path);}.cls-4{clip-path:url(#clip-path-2);}.cls-5{fill:#dbdbdb;}.cls-6{fill:#b3f4ff;}.cls-10,.cls-20,.cls-21,.cls-24,.cls-25,.cls-7{stroke:#472a1c;}.cls-10,.cls-11,.cls-12,.cls-14,.cls-18,.cls-20,.cls-21,.cls-22,.cls-23,.cls-24,.cls-25,.cls-28,.cls-30,.cls-7{stroke-linecap:round;stroke-linejoin:round;}.cls-7{stroke-width:1.32px;}.cls-8{clip-path:url(#clip-path-3);}.cls-9{fill:#ebebeb;}.cls-10{stroke-width:1.66px;}.cls-11{stroke:#2d1a14;stroke-width:1.94px;}.cls-12{stroke:#8c7df9;stroke-width:11.11px;}.cls-13{fill:#0671b8;}.cls-14,.cls-18,.cls-23{stroke:#000;}.cls-14,.cls-20{stroke-width:1.62px;}.cls-15{fill:#f4e0c7;}.cls-16{fill:#e5451a;}.cls-17{fill:#f05623;}.cls-18{stroke-width:0.33px;}.cls-19{fill:#8c7df9;}.cls-21{stroke-width:1.78px;}.cls-22,.cls-28,.cls-30{stroke:#fff;}.cls-22{stroke-width:1.45px;}.cls-23,.cls-28{stroke-width:1.23px;}.cls-24,.cls-25{stroke-width:1.56px;}.cls-25{stroke-dasharray:7.28 7.28;}.cls-26{fill:#2d1a14;}.cls-27{fill:#c4c4c4;}.cls-29{fill:#d42027;}.cls-30{stroke-width:2.45px;}.cls-31{fill:#42cccc;}.cls-32{fill:#930217;}.cls-33{fill:#d2b08c;}.cls-34{font-size:56px;}.cls-34,.cls-35{font-family:Montserrat-Bold, Montserrat;font-weight:700;}.cls-35{font-size:72.59px;}</style><clipPath id="clip-path"><rect class="cls-1" width="500" height="500"/></clipPath><clipPath id="clip-path-2"><rect class="cls-2" x="276.77" y="360.07" width="173.46" height="104.23"/></clipPath><clipPath id="clip-path-3"><rect class="cls-2" x="76.5" y="332.26" width="217.66" height="130.78"/></clipPath></defs><g id="BACKGROUND"><rect class="cls-1" width="500" height="500"/><g class="cls-3"><g id="Capa-2"><path class="cls-1" d="M-2.34-4.59H501.79a2.06,2.06,0,0,1,2,2.07V502.22a2.06,2.06,0,0,1-2,2.07H-2.34a2,2,0,0,1-2-2.07V-2.52A2.06,2.06,0,0,1-2.34-4.59Z"/></g></g></g><g id="OBJECTS"><g class="cls-4"><circle class="cls-5" cx="364.17" cy="446.33" r="55.77" transform="translate(-208.94 388.23) rotate(-45)"/><circle class="cls-1" cx="364.17" cy="446.33" r="24.14" transform="translate(-208.94 388.23) rotate(-45)"/><rect class="cls-5" x="353.36" y="368.07" width="22.48" height="38.91"/><rect class="cls-6" x="351.54" y="484.36" width="22.48" height="38.91"/><rect class="cls-5" x="410.6" y="427.13" width="22.48" height="38.91" transform="translate(868.42 24.75) rotate(90)"/><rect class="cls-5" x="294.31" y="425.3" width="22.48" height="38.91" transform="translate(750.31 139.21) rotate(90)"/><rect class="cls-6" x="392.92" y="467.97" width="22.48" height="38.91" transform="translate(1034.61 546.31) rotate(135)"/><rect class="cls-5" x="311.98" y="384.46" width="22.48" height="38.91" transform="translate(837.39 460.97) rotate(135)"/><rect class="cls-5" x="310.69" y="466.68" width="22.48" height="38.91" transform="translate(205.82 1057.53) rotate(-135)"/><rect class="cls-5" x="394.21" y="385.75" width="22.48" height="38.91" transform="translate(405.63 978.42) rotate(-135)"/><circle class="cls-7" cx="364.17" cy="446.33" r="42.37"/></g><g class="cls-8"><circle class="cls-9" cx="186.41" cy="440.25" r="69.98" transform="translate(-256.7 260.75) rotate(-45)"/><circle class="cls-1" cx="186.41" cy="440.25" r="30.3" transform="translate(-256.7 260.75) rotate(-45)"/><rect class="cls-9" x="148.03" y="346.16" width="28.21" height="48.82" transform="translate(-115.06 76) rotate(-19.63)"/><rect class="cls-6" x="194.89" y="484.36" width="28.21" height="48.82" transform="translate(-158.76 99.77) rotate(-19.63)"/><rect class="cls-9" x="240.56" y="391.83" width="28.21" height="48.82" transform="translate(561.17 36.55) rotate(70.37)"/><rect class="cls-9" x="102.36" y="438.69" width="28.21" height="48.82" transform="translate(513.53 197.84) rotate(70.37)"/><rect class="cls-9" x="236.89" y="447.56" width="28.21" height="48.82" transform="translate(784.99 447.41) rotate(115.37)"/><rect class="cls-9" x="106.03" y="382.97" width="28.21" height="48.82" transform="translate(539.7 473.39) rotate(115.37)"/><rect class="cls-9" x="139.16" y="480.69" width="28.21" height="48.82" transform="translate(75.33 1027.16) rotate(-154.63)"/><rect class="cls-9" x="203.75" y="349.83" width="28.21" height="48.82" transform="translate(254.35 805.74) rotate(-154.63)"/><circle class="cls-10" cx="186.41" cy="440.25" r="53.16" transform="translate(-291.32 421.69) rotate(-64.83)"/></g><path class="cls-11" d="M69.67,464.3H466.48"/><line class="cls-12" x1="162.5" y1="148.65" x2="216.07" y2="148.65"/><line class="cls-12" x1="167.08" y1="202.87" x2="220.64" y2="202.87"/><line class="cls-12" x1="176.22" y1="247.94" x2="229.79" y2="247.94"/><line class="cls-12" x1="185.37" y1="293.02" x2="238.94" y2="293.02"/><path class="cls-13" d="M265.71,475.6a6.86,6.86,0,0,1-6.78-5.89L208,112.38a6.86,6.86,0,0,1,13.58-1.94l51,357.33a6.86,6.86,0,0,1-5.82,7.76A6.55,6.55,0,0,1,265.71,475.6Z"/><line class="cls-14" x1="214.76" y1="114.68" x2="263.11" y2="459.6"/><line class="cls-12" x1="188.63" y1="338.09" x2="242.2" y2="338.09"/><line class="cls-12" x1="195.17" y1="383.17" x2="248.73" y2="383.17"/><line class="cls-12" x1="202.32" y1="434.28" x2="261.03" y2="434.28"/><rect class="cls-13" x="188" y="332" width="54" height="12"/><rect class="cls-13" x="183" y="287" width="54" height="12"/><rect class="cls-13" x="176" y="242" width="54" height="12"/><path class="cls-13" d="M261,440H206a6,6,0,0,1-6-6h0a6,6,0,0,1,6-6h55a6,6,0,0,1,6,6h0A6,6,0,0,1,261,440Z"/><rect class="cls-13" x="163" y="143" width="54" height="11"/><rect class="cls-13" x="195" y="377" width="54" height="12"/><rect class="cls-13" x="171" y="197" width="54" height="12"/><path class="cls-15" d="M255.62,170.93l-43.23,19.31,7.36.18-47.59-21c-1.86-.91-5.57,1.3-6.48,3.16-.83,1.7-.54,2.85,1,3.88l46.57,32.61a6.63,6.63,0,0,0,6.5.57l.86-.4L265,188.9a10.15,10.15,0,0,0-8.45-18.46A7.47,7.47,0,0,0,255.62,170.93Z"/><path class="cls-16" d="M270,175.61a10.14,10.14,0,0,0-13.45-5,9,9,0,0,0-.93.48l-19.1,7.54a195.18,195.18,0,0,0,6.11,20.67L265,189.06A10.13,10.13,0,0,0,270,175.61Z"/><path class="cls-15" d="M156.41,174.58c.08-1.5,6.54-.91,6.54-.91s-8.35-1.31-8.49-2.44c-.22-1.8,9.25-.16,9.25-.16s-10.26-2-9.57-3.94,10.57,1.31,10.57,1.31-9.1-3.59-8.24-5.11,12.4,3.58,12.4,3.58-2.76-5.79-1.61-6.47c1.53-.9,5.8,6.34,7.56,9.47a7.1,7.1,0,0,1,.87,3l0,.49a4.79,4.79,0,0,1-5.7,5C164.21,177.24,156.36,175.53,156.41,174.58Z"/><path class="cls-15" d="M303.21,181.69a11,11,0,0,0,4,2.23,11.21,11.21,0,0,0,11.8-3.36l.16-.18h0l35.56-41,.83-1a8.27,8.27,0,0,0,1.9-6.76l-.57-3.39-3-18L348.1,76.17a3.52,3.52,0,0,0-.39-1.13,3.78,3.78,0,0,0-7.11,1.38v.09L338,102.3,336.49,118l-.91,9.27L331,132.49,321.1,144,304,163.65h0l-1.44,1.67-.5.57A11.21,11.21,0,0,0,303.21,181.69Z"/><path class="cls-16" d="M317.69,148.05,304,163.81h0l-1.44,1.67-.5.58A11.2,11.2,0,1,0,319,180.73l.16-.18h0L328,170.37C324.19,163.11,320.86,155.62,317.69,148.05Z"/><path class="cls-15" d="M284.76,150a35.49,35.49,0,0,0,5.45,16c-1,1.71-2.95,2.45-4.86,3.07s-3.94.31-5.94.37c-3.63.11-6.33,1-7.55-1.37.48-.77,1.58-5.06,2.14-6.82.94-3-.55-6.4-2.39-9A96.8,96.8,0,0,0,284.76,150Z"/><path class="cls-17" d="M249.48,191.61l5.22,11.51L264,232.34h46.94l8.1-49.89a15.44,15.44,0,0,0,.18-1.9h0A16.25,16.25,0,0,0,304,163.81h0a16.8,16.8,0,0,0-1.74,0l-.34,0-.49,0-.55.06-9,1.15-2.16.27-17.46,2.21-2.15.27-5.78.74-2.07.26c-.32,0-.64.09-1,.15h0a16.24,16.24,0,0,0-12.58,20.59A16.68,16.68,0,0,0,249.48,191.61Z"/><path class="cls-15" d="M342.37,60.55c-1.26.2-.22,5.58-.22,5.58s-1.8-6.92-2.76-6.94c-1.53,0,.63,7.79.63,7.79s-2.57-8.45-4.1-7.72,2,8.78,2,8.78-3.78-7.35-5-6.5,4,10.13,4,10.13-5.09-1.84-5.57-.82c-.81,1.73,9.84,6.1,9.84,6.1l6.92-.23S343.62,60.36,342.37,60.55Z"/><path class="cls-15" d="M275,157.21h0a8.47,8.47,0,0,0,10.16-6.49l1.68-8.33a8.76,8.76,0,0,0-6.8-10.17h0a8.47,8.47,0,0,0-10.16,6.5l-1.68,8.33A8.76,8.76,0,0,0,275,157.21Z"/><path class="cls-15" d="M281.32,132.6c2.23,3.18,2.54,7.27,1.12,11.8a1.55,1.55,0,0,1-2.25.91c-3.59-2.25-7.63-1.6-11.49-.54l-.46,2.28a8.76,8.76,0,0,0,6.8,10.16,8.47,8.47,0,0,0,10.16-6.49l1.68-8.33A8.73,8.73,0,0,0,281.32,132.6Z"/><path class="cls-15" d="M279,139.88c.88-.73,2.53-.61,2.79.73a6.61,6.61,0,0,0,4.4,5.32l.71-3.54a8.76,8.76,0,0,0-6.8-10.17,8.47,8.47,0,0,0-10.16,6.5l-.69,3.42A13.3,13.3,0,0,0,279,139.88Z"/><line class="cls-14" x1="162.5" y1="148.65" x2="216.07" y2="148.65"/><line class="cls-14" x1="171" y1="203.52" x2="203.66" y2="203.52"/><line class="cls-14" x1="176.88" y1="247.94" x2="230.44" y2="247.94"/><line class="cls-14" x1="182.75" y1="293.02" x2="236.32" y2="293.02"/><line class="cls-14" x1="189.29" y1="338.74" x2="242.85" y2="338.74"/><line class="cls-18" x1="193.86" y1="383.82" x2="247.43" y2="383.82"/><path class="cls-19" d="M203,476.26a6.85,6.85,0,0,1-6.78-5.9L145.26,113a6.86,6.86,0,1,1,13.58-1.93l51,357.33a6.87,6.87,0,0,1-5.83,7.76A7.91,7.91,0,0,1,203,476.26Z"/><line class="cls-20" x1="152.05" y1="115.33" x2="200.39" y2="460.25"/><path d="M312.24,259.61c-7,10.92-11.45,15.14-16.45,17.92-8.91,5-19.07,7.08-29.05,9.15,13.61,9.79,27.86,19.68,43,26.94-8.77,14.13-17.61,28.69-26.38,42.83a251.93,251.93,0,0,0-27.93-19.94c-9.89-6.25-20.4-11.93-28.35-20.51s-13-21-9.39-32.13c2.67-8.19,9.65-14.41,17.42-18.13s16.37-5.27,24.86-6.79c1-8.42,3-18.18,4-26.61h46.94c2.08,7.12,4.2,14.57,3,21.89-.92,5.81-3.85,8.77-6.88,13.28-4.05,6-6.35,14.14-9.27,20.78L279.47,330q-18.53,42.19-37.06,84.4c-15.58-7.87-30.11-16-42.31-28.46C221.21,348.53,264,232.34,264,232.34,282.12,231,294.05,260.83,312.24,259.61Z"/><path class="cls-16" d="M242.43,409.88a153.32,153.32,0,0,1-6.23,21.44H162.9c-1.79-6.14.09-14.74,3.25-20.3a19.15,19.15,0,0,1,5.65-6.62c4.56-3.06,10.5-2.73,15.89-3.8A30.23,30.23,0,0,0,205.17,390C218.78,397.7,228.82,402.22,242.43,409.88Z"/><line class="cls-21" x1="170.24" y1="415.21" x2="235.37" y2="415.21"/><line class="cls-21" x1="202.25" y1="394.41" x2="215.92" y2="407.87"/><line class="cls-21" x1="192.17" y1="399.19" x2="205.84" y2="412.66"/><path class="cls-16" d="M307.15,312.8a153.34,153.34,0,0,1,21.22,6.93L326,393c-6.2,1.58-14.73-.57-20.19-3.92a19.11,19.11,0,0,1-6.42-5.86c-2.92-4.66-2.39-10.58-3.28-16a30.26,30.26,0,0,0-10-17.81C294.2,336,299.05,326.15,307.15,312.8Z"/><line class="cls-21" x1="310.11" y1="385.13" x2="312.24" y2="320.03"/><line class="cls-21" x1="290.36" y1="352.45" x2="304.27" y2="339.23"/><line class="cls-21" x1="294.82" y1="362.68" x2="308.72" y2="349.46"/><path class="cls-22" d="M226.08,401.14c.55-2.66,29.32-64.63,29.32-64.63"/><path class="cls-22" d="M296.85,234.41c2.55,4.33,1.82,10-.66,14.38s-6.45,7.68-10.48,10.69a157.13,157.13,0,0,1-43,22.68c17,16.17,33.53,32.68,50.51,48.86"/><path d="M282.06,139c-2.92,4-9.08,5.09-13.4,2.6a12.32,12.32,0,0,1-5.53-12.88,14.89,14.89,0,0,1,9.56-10.66,11.93,11.93,0,0,0-.74,4.61,4.89,4.89,0,0,0,2.48,4.25c1.91.9,4.12,0,6.17-.49a11,11,0,0,1,7.92,1,7.54,7.54,0,0,1,3.89,6.71,11.29,11.29,0,0,1-1.83,4.95,43.84,43.84,0,0,1-4.61,6.38"/><path class="cls-23" d="M270.08,168.81s6.57,25.14,6.58,23.91,4.25-25.28,4.25-25.28,4.8,27.52,5.18,25.33,5.76-26.71,5.76-26.71"/><path class="cls-15" d="M283.61,144.57a3.71,3.71,0,1,0,4.71-1.86A3.58,3.58,0,0,0,283.61,144.57Z"/><path class="cls-13" d="M203,476.26a6.85,6.85,0,0,1-6.78-5.9L145.26,113a6.86,6.86,0,1,1,13.58-1.93l51,357.33a6.87,6.87,0,0,1-5.83,7.76A7.91,7.91,0,0,1,203,476.26Z"/><line class="cls-14" x1="152.05" y1="115.33" x2="200.39" y2="460.25"/><circle class="cls-9" cx="427.33" cy="346.21" r="30.94"/><circle class="cls-1" cx="427.33" cy="346.21" r="13.4" transform="translate(-119.64 403.57) rotate(-45)"/><rect class="cls-9" x="421.33" y="302.79" width="12.47" height="21.59"/><rect class="cls-9" x="420.32" y="367.31" width="12.47" height="21.59"/><rect class="cls-9" x="453.09" y="335.55" width="12.47" height="21.59" transform="translate(805.67 -112.98) rotate(90)"/><rect class="cls-9" x="388.57" y="334.54" width="12.47" height="21.59" transform="translate(740.14 -49.47) rotate(90)"/><rect class="cls-9" x="443.28" y="358.22" width="12.47" height="21.59" transform="translate(1028.31 312.08) rotate(135)"/><rect class="cls-9" x="398.37" y="311.88" width="12.47" height="21.59" transform="translate(918.88 264.74) rotate(135)"/><rect class="cls-9" x="397.66" y="357.5" width="12.47" height="21.59" transform="translate(429.06 914.32) rotate(-135)"/><rect class="cls-9" x="444" y="312.6" width="12.47" height="21.59" transform="translate(539.92 870.42) rotate(-135)"/><circle class="cls-7" cx="427.33" cy="346.21" r="23.51"/><path class="cls-7" d="M342.27,362.29c7.67-5.64,12.52-14.65,14-24s-.09-19.14-3.57-28c-2.08-5.27-5.67-11.18-10.2-14.66-3.54-2.71-9.88-3.36-11.39,1.83-1.83,6.28,4.93,14.38,9.47,17.68a28.55,28.55,0,0,0,43.67-13.45"/><circle class="cls-1" cx="162.21" cy="316.42" r="11.18" transform="translate(-176.24 207.38) rotate(-45)"/><line class="cls-24" x1="170.72" y1="392.28" x2="170.24" y2="388.64"/><line class="cls-25" x1="169.29" y1="381.42" x2="135.65" y2="125.33"/><line class="cls-24" x1="135.17" y1="121.72" x2="134.69" y2="118.07"/><path class="cls-26" d="M163.74,296.43a6.36,6.36,0,1,1-6.36-6.35A6.36,6.36,0,0,1,163.74,296.43Z"/><path class="cls-26" d="M176.59,388.9a6.36,6.36,0,1,1-6.35-6.36A6.35,6.35,0,0,1,176.59,388.9Z"/><path class="cls-26" d="M152.85,215.8a6.36,6.36,0,1,1-6.36-6.35A6.36,6.36,0,0,1,152.85,215.8Z"/><path class="cls-26" d="M138.33,121.69a6.36,6.36,0,1,1-6.36-6.36A6.35,6.35,0,0,1,138.33,121.69Z"/><path class="cls-27" d="M351.94,25.73l11.88,10,15-4.12a5.86,5.86,0,0,1,7,7.86L380,53.85l8.54,13a5.86,5.86,0,0,1-5.31,9.08l-15.49-1.1L358,86.92a5.87,5.87,0,0,1-10.28-2.24L344,69.61l-14.53-5.47a5.87,5.87,0,0,1-1-10.47l13.17-8.21L342.3,30A5.87,5.87,0,0,1,351.94,25.73Z"/><path class="cls-28" d="M346.89,29.2s-.61,5.22-.92,11.35"/><path class="cls-28" d="M331.69,54.31a5.77,5.77,0,0,0-2.22,2.3,2.45,2.45,0,0,0,.59,2.94"/><path class="cls-28" d="M348.28,77.65a6.77,6.77,0,0,0,3.06,6.13"/><path class="cls-28" d="M366.79,69.89A18.2,18.2,0,0,0,375.25,72"/><path class="cls-28" d="M365.9,38.38A20.27,20.27,0,0,0,371,36.59"/><path d="M138.88,247.94a52.44,52.44,0,1,0-52.44,52.44c1.27,0,2.52-.06,3.77-.15v.15h48.67V251.71h-.15C138.82,250.47,138.88,249.21,138.88,247.94Z"/><path class="cls-29" d="M70.87,298c12.83-7.61,24.42-17.22,33.47-29.18a102.2,102.2,0,0,0,16.74-33.75,60.37,60.37,0,0,0,1.83-24.82,52.44,52.44,0,1,0-52,87.75Z"/><path class="cls-30" d="M66.79,208.42a31.78,31.78,0,0,0-16.32,14.16"/><circle class="cls-31" cx="125.62" cy="362.68" r="36.55" transform="translate(-219.66 195.05) rotate(-45)"/><path class="cls-32" d="M162.17,362.68a36.55,36.55,0,1,0-36.55,36.55c.88,0,1.76,0,2.63-.11v.11h33.92V365.31h-.11C162.13,364.44,162.17,363.56,162.17,362.68Z"/><path class="cls-26" d="M162.17,362.68a36.38,36.38,0,0,0-6.08-20.19,53.94,53.94,0,0,1-10.08,23c-10.55,14.11-25.53,23-42.42,26.38a36.37,36.37,0,0,0,22,7.39c.88,0,1.76,0,2.63-.11v.11h33.92V365.31h-.11C162.13,364.44,162.17,363.56,162.17,362.68Z"/><path class="cls-30" d="M104.5,342.92a18.28,18.28,0,0,0-6.62,12.91"/><line class="cls-14" x1="205.65" y1="433.85" x2="259.21" y2="433.85"/><path d="M272.55,147.12c-.07.4-.36.68-.66.63s-.49-.4-.42-.8.36-.68.65-.63A.66.66,0,0,1,272.55,147.12Z"/><path d="M277.57,147.94c-.06.39-.36.68-.65.63a.67.67,0,0,1-.43-.81c.07-.39.36-.68.66-.63A.65.65,0,0,1,277.57,147.94Z"/><path d="M271,145.44a1.84,1.84,0,0,1,.5-.38l.08,0c.06,0,0,0,0,0l.08,0h.26c.06,0-.09,0,0,0a1.38,1.38,0,0,1,.29.08l.08,0s0,0,0,0l.14.07.12.09,0,0,.06.05a.57.57,0,0,1,.11.11s0,0,.05.05.06.07,0,0a.39.39,0,0,0,.51.14.38.38,0,0,0,.13-.52,2.21,2.21,0,0,0-1.4-.88,1.49,1.49,0,0,0-.93.11,2.56,2.56,0,0,0-.73.54.39.39,0,0,0,0,.53.38.38,0,0,0,.53,0Z"/><path d="M276.42,146.18a2.38,2.38,0,0,1,.66-.28,1.54,1.54,0,0,1,.64,0,1.07,1.07,0,0,1,.5.28.69.69,0,0,1,.16.21.7.7,0,0,1,.11.27.38.38,0,0,0,.46.27.39.39,0,0,0,.27-.46,1.81,1.81,0,0,0-1.26-1.28,2.48,2.48,0,0,0-1.91.35.39.39,0,0,0-.14.52.38.38,0,0,0,.51.13Z"/><path class="cls-33" d="M273.56,148.28a1.35,1.35,0,0,1-.19.9,2.55,2.55,0,0,0-.51,1,.85.85,0,0,0,.44.83,1.73,1.73,0,0,0,1.08.12.27.27,0,0,0,.25-.25c0-.13-.12-.27-.25-.25a1.33,1.33,0,0,1-.88-.08c-.22-.16-.16-.4,0-.6a4.72,4.72,0,0,0,.49-.81,1.91,1.91,0,0,0,.08-.95.25.25,0,0,0-.3-.18.26.26,0,0,0-.18.31Z"/><path class="cls-33" d="M273.22,153.43a3.71,3.71,0,0,0,3.78-.16c.26-.18,0-.61-.26-.43a3.2,3.2,0,0,1-3.27.16c-.29-.15-.54.28-.25.43Z"/></g><g id="TEXTS"><text class="cls-34" transform="translate(115.05 384.75)">1</text><text class="cls-35" transform="translate(67.17 273.31)">2</text></g></svg>