<svg width="96" height="96" xmlns="http://www.w3.org/2000/svg" xmlns:xlink="http://www.w3.org/1999/xlink"
    xml:space="preserve" overflow="hidden" fill="#df531f">
    <g>
        <path d="M44.946 60 51.066 60 53.006 54 43.006 54 44.946 60Z" />
        <path d="M45.096 62 43.736 81.73 48.006 86 52.276 81.73 50.916 62 45.096 62Z" />
        <path
            d="M80 64.96C79.9438 62.0263 78.573 59.273 76.266 57.46 72.53 54.402 68.139 52.514 63.53 50.866L58.625 48.853C58.2499 48.6989 58.005 48.3335 58.005 47.928L58.005 45.474C61.7081 42.5102 63.9016 38.0533 63.991 33.311L66.539 28.94C66.9205 28.0389 67.0737 27.0575 66.985 26.083 66.4054 19.5294 62.4309 13.7599 56.514 10.883 56.0374 10.6594 55.4774 10.7094 55.048 11.014L54.038 11.714 52.921 10.187C52.5772 9.70537 52.0599 9.37592 51.478 9.268 50.4376 9.08846 49.3837 8.9988 48.328 9 39.3214 9.00115 31.5897 15.4099 29.918 24.26L29.878 24.478C29.3925 27.0748 28.387 29.5466 26.922 31.745L32.01 31.745 32.01 33C32.0103 37.8496 34.2141 42.4363 38 45.467L38 47.923C38 48.3285 37.7551 48.6939 37.38 48.848L32.48 50.857C27.868 52.506 23.48 54.391 19.766 57.428 17.4331 59.2544 16.0511 62.0376 16.006 65L16.006 82.5 16.806 83.1C21.191 86.389 32.788 87.449 39.306 87.788L41.659 87.91 37.767 53.01 38.898 52.546C40.7767 51.7802 42.0035 49.9518 42 47.923L42 47.823C45.8478 49.3944 50.1582 49.3944 54.006 47.823L54.006 47.923C54.0013 49.952 55.2274 51.7813 57.106 52.548L58.237 53.012 54.344 87.912 56.696 87.79C63.219 87.451 74.816 86.39 79.202 83.102L80.002 82.502ZM36.01 33 36.01 31.745 42.979 31.745C53.259 31.745 51.861 23.552 56.359 22.379 57.5952 22.1488 58.8724 22.3132 60.01 22.849L60.01 33C60.01 39.6274 54.6374 45 48.01 45 41.3826 45 36.01 39.6274 36.01 33ZM72.005 70 63.005 70 63.005 68 72.005 68Z" />
    </g>
</svg>