<svg xmlns="http://www.w3.org/2000/svg" viewBox="0 0 750 500"><defs><style>.cls-1{isolation:isolate;}.cls-2{fill:#fff;}.cls-3{fill:#ebebeb;}.cls-4{fill:#bfbfbf;}.cls-5{fill:#c1c1c1;}.cls-22,.cls-6,.cls-9{fill:#f05623;}.cls-7{fill:#e5451a;}.cls-26,.cls-8{fill:#b8d0ff;}.cls-9{opacity:0.65;}.cls-10,.cls-11,.cls-26{mix-blend-mode:multiply;}.cls-10{opacity:0.4;}.cls-11,.cls-26{opacity:0.3;}.cls-12{fill:#fa6e61;}.cls-13{fill:#d42027;}.cls-14,.cls-24{fill:#930217;}.cls-15{fill:#f4e0c7;}.cls-16{fill:#bf9182;}.cls-17{fill:#2d4c7f;}.cls-18{fill:#cecece;}.cls-19{fill:#0671b8;}.cls-20{fill:#28669b;}.cls-21,.cls-23,.cls-25,.cls-28{fill:none;stroke-miterlimit:10;}.cls-21{stroke:#d42027;}.cls-21,.cls-23{stroke-dasharray:3 3;}.cls-22{opacity:0.7;}.cls-23{stroke:#930217;}.cls-24{opacity:0.23;}.cls-25{stroke:#fff;}.cls-27{fill:#d2b08c;}.cls-28{stroke:#000;stroke-linecap:round;stroke-width:0.5px;}</style></defs><g class="cls-1"><g id="BACKGROUND"><rect class="cls-2" width="750" height="500"/></g><g id="OBJECTS"><path class="cls-3" d="M379.07,385.51c-9.83,0-17.8-7.61-17.8-17s8-17,17.8-17H688.73v-32a28,28,0,0,0-5.15-16.19,28.24,28.24,0,0,0,7.18-18.77v-2.91A28.79,28.79,0,0,0,676.59,257a28.75,28.75,0,0,0,13.16-24v-53.4a27.89,27.89,0,0,0-3-12.62H494a9.23,9.23,0,1,1,0-18.45H664.27a28.9,28.9,0,0,0,15.31-25.24v-3.89c0-16.09-13.66-29.13-30.51-29.13H573.54a28.42,28.42,0,0,0,9.42-21V64.13C583,48,569.3,35,552.46,35H463a31.3,31.3,0,0,0-19.59,6.8H192.46c-16.85,0-30.51,13-30.51,29.12V81.6a27.83,27.83,0,0,0,1.4,8.74H110.09c-16.85,0-30.51,13-30.51,29.13v3.89c0,12.4,8.12,23,19.55,27.18H95.85c-16.85,0-30.51,13-30.51,29.13v53.4a28.31,28.31,0,0,0,8.75,20.39H276.87a6.81,6.81,0,1,1,0,13.6H69.44a27.93,27.93,0,0,0-4.1,14.56v2.91a28.77,28.77,0,0,0,13.57,24.23c-11.5,4.17-19.67,14.79-19.67,27.23v70.88C59.24,423,72.9,436,89.75,436H658.22c16.85,0,30.51-13,30.51-29.13V385.51Z"/><path class="cls-2" d="M203.38,175.32c1.51-1.41,1.38-4.46.77-6.1-2.22-6-6.48-8.39-16.47-8.39l-1,0c-.08-6.17-6.71-11.45-11.38-11.95-13.56-1.45-42.46-2.05-51.43.8-4.49,1.43-8.55,5-8.55,11.25,0,.12,0,.24,0,.37a22.27,22.27,0,0,0-3.51-.28c-9,0-16.37,5.36-16.37,12a9,9,0,0,0,.4,2.63h-.4c-.42,0-.84,0-1.25,0h-.91a8,8,0,0,0-2.08.29c-9.41,1.44-16.48,7.59-16.48,14.94,0,8.43,7,15.07,24,15.07H204.07c9.18,0,15.24-9,15.24-15.38C219.31,182.71,212.35,176.23,203.38,175.32Z"/><path class="cls-2" d="M659.38,272c1.51-1.42,1.38-4.47.77-6.11-2.22-6-6.48-8.38-16.47-8.38h-1c-.08-6.17-6.71-11.44-11.38-11.94-13.56-1.46-42.46-2-51.43.8-4.49,1.42-8.55,5-8.55,11.25,0,.12,0,.24,0,.36a22.27,22.27,0,0,0-3.51-.28c-9,0-16.37,5.36-16.37,12a9,9,0,0,0,.4,2.64h-.4c-.42,0-.84,0-1.25,0h-.91a7.63,7.63,0,0,0-2.08.29c-9.41,1.44-16.48,7.58-16.48,14.94,0,8.43,7,15.06,24,15.06H660.07c9.18,0,15.24-9,15.24-15.37C675.31,279.38,668.35,272.9,659.38,272Z"/><rect class="cls-4" x="350.23" y="333.66" width="57.37" height="50.37"/><rect class="cls-4" x="272.31" y="382.47" width="213.22" height="16.03"/><rect class="cls-4" x="272.31" y="393.92" width="213.22" height="4.58"/><rect class="cls-5" x="158.04" y="90.18" width="441.75" height="247.23"/><rect class="cls-6" x="171.93" y="98.86" width="413.97" height="213.52"/><rect class="cls-7" x="172.41" y="98.86" width="413.5" height="19"/><rect class="cls-7" x="181.55" y="125.04" width="82.03" height="179.11"/><rect class="cls-2" x="186.33" y="130.51" width="72.46" height="5.47"/><rect class="cls-2" x="186.33" y="140.77" width="72.46" height="5.47"/><rect class="cls-2" x="186.33" y="226.22" width="72.46" height="5.47"/><rect class="cls-2" x="186.33" y="237.33" width="72.46" height="3.08"/><rect class="cls-2" x="186.33" y="243.48" width="72.46" height="3.08"/><rect class="cls-2" x="186.33" y="250.32" width="72.46" height="3.08"/><rect class="cls-2" x="195.57" y="157.86" width="54" height="54.69"/><polygon class="cls-8" points="199.97 262.9 199.97 288.09 221.72 275.5 199.97 262.9"/><polygon class="cls-8" points="227.44 262.9 227.44 288.09 249.19 275.5 227.44 262.9"/><rect class="cls-7" x="272.43" y="126.41" width="302.84" height="176.37"/><path class="cls-2" d="M327.8,157.86a21.19,21.19,0,1,1-21.19-21.19A21.19,21.19,0,0,1,327.8,157.86Z"/><path class="cls-2" d="M383.18,157.86A21.2,21.2,0,1,1,362,136.67,21.2,21.2,0,0,1,383.18,157.86Z"/><path class="cls-2" d="M438.55,157.86a21.2,21.2,0,1,1-21.19-21.19A21.19,21.19,0,0,1,438.55,157.86Z"/><rect class="cls-2" x="453.59" y="144.42" width="29.48" height="4.1"/><rect class="cls-2" x="494.9" y="144.42" width="29.48" height="4.1"/><rect class="cls-2" x="536.22" y="144.42" width="29.48" height="4.1"/><rect class="cls-2" x="285.42" y="196.82" width="136.83" height="5.47"/><rect class="cls-2" x="285.42" y="209.13" width="119.42" height="4.79"/><rect class="cls-2" x="285.42" y="221.43" width="222.86" height="6.15"/><rect class="cls-2" x="285.42" y="234.42" width="55.48" height="6.84"/><rect class="cls-2" x="285.42" y="251.51" width="153.27" height="8.2"/><rect class="cls-2" x="285.42" y="269.29" width="70.53" height="2.05"/><rect class="cls-2" x="285.42" y="281.59" width="124.12" height="8.2"/><rect class="cls-2" x="524.68" y="185.2" width="35.55" height="104.59"/><path class="cls-9" d="M211.6,443.23c0,3.13-16.57,5.67-37,5.67s-37-2.54-37-5.67,16.56-5.67,37-5.67S211.6,440.1,211.6,443.23Z"/><path d="M200,431.62c2.26,3.45,6.71,4.57,9.55,7.53a1.75,1.75,0,0,1,.49.72,1.34,1.34,0,0,1-.9,1.49,3.69,3.69,0,0,1-1.84,0l-10.43-1.59a2.93,2.93,0,0,1-1.09-.32,3.13,3.13,0,0,1-1.11-2.18c-.51-2.51-1-5-1.52-7.51a26.72,26.72,0,0,1,6.85,1.82"/><path d="M191.68,431.79l-1,0c-3.48-18.06.43-37.9-4.53-55.77-1.54-5.53-3.9-10.74-6-16.05-6.83-17.16-12.75-40.26-14.2-58.93,6.93-1.61,13.69-2,20.46-5.11,12.57,41.85,18.34,89.76,18.5,133.92a69.83,69.83,0,0,1-13.25,2"/><path class="cls-10" d="M177,331.67c5.46,8.66,8.38,18.81,11.64,28.49,7.8,23.2,7.68,48.19,7.21,71.27-1.39.16-2.79.28-4.19.36l-1,0c-3.48-18.06.43-37.9-4.53-55.77-1.54-5.53-3.9-10.74-6-16.05a184.26,184.26,0,0,1-9.92-34.5A16.22,16.22,0,0,1,177,331.67Z"/><path d="M149.17,433.57c2.26,3.45,6.71,4.58,9.55,7.53a1.75,1.75,0,0,1,.49.72,1.36,1.36,0,0,1-.9,1.49,3.69,3.69,0,0,1-1.84,0L146,441.76a2.8,2.8,0,0,1-1.09-.32,3.11,3.11,0,0,1-1.11-2.18q-.76-3.75-1.52-7.51a26.72,26.72,0,0,1,6.85,1.82"/><path d="M180.82,295.59c-2.18,9.16-9.42,50.57-10.79,56.55-1.13,4.93-3.21,9.55-4.87,14.31-1.47,4.2-2.6,8.51-3.7,12.82-4.58,18.08-8.5,36.41-9.85,55a37.49,37.49,0,0,0-12.09-.65c-2.23-21-3.19-42.38.9-63.05,1.83-9.24,4.65-18.28,5.73-27.64,1.33-11.45,0-23.19,2.2-34.5a5.38,5.38,0,0,1,4.83-5.1c9.16-2.82,18.4-5.4,27.64-7.78"/><path class="cls-11" d="M146.15,343c1.16-10,.31-20.2,1.53-30.16,3.56,8,4.55,16.09,3.55,25.07-1.65,14.77-6.84,28.86-8.2,43.68-1.05,11.4-1.67,23.17-.23,34.56.73,5.79,2.08,16,8.84,17.81l0,.38a37.49,37.49,0,0,0-12.09-.65c-2.23-21-3.19-42.38.9-63.05C142.25,361.37,145.07,352.33,146.15,343Z"/><path class="cls-12" d="M179,238.45A327.78,327.78,0,0,0,207.16,260a156.25,156.25,0,0,0,11-23.74l6.37,3.25A84.79,84.79,0,0,1,217,264.36c-1.09,2.27-2.38,4.59-4.46,5.88-4.14,2.56-9.35.12-13.56-2.32l-13.5-7.81a6.09,6.09,0,0,1-1.87-1.43,6.84,6.84,0,0,1-1.11-3.32A113.85,113.85,0,0,0,179,238.45"/><path class="cls-13" d="M178,237.06a72.54,72.54,0,0,1,17.83,13.29A3.24,3.24,0,0,1,197,252.4a3.39,3.39,0,0,1-.51,1.57l-5,9.53a1.36,1.36,0,0,1-.51.6,1.25,1.25,0,0,1-.92-.1c-5.23-2-10.82-4.19-13.9-8.86-1.94-2.95-2.64-6.53-3-10-.22-2.06-.3-4.28.76-6.05s3.71-2.73,4-2"/><path class="cls-12" d="M217.06,239.09c.6-2.2,1.36-5.46.93-7.26-.29-1.21-.53-3.41,0-4.48.13-.27.49-.54.8-.35a.68.68,0,0,1,.22.63c0,.86.8,4.28.76,3.48a25.26,25.26,0,0,0,2.3-5.62,2.64,2.64,0,0,1,.48-1.08c.27-.3.89-.67,1.2-.33s-.86,3.92-1.3,5.88l2-4.63c.16-.38.64-.84,1-.52s-.93,4.1-1.4,6.16l2.06-4.32c.27-.58,1.1-1.52,1.32-.87.41,1.18-1.1,4.06-1.85,6.21l1.59-2.6c.17-.29.59-.6.87-.33a.5.5,0,0,1,.09.51c-.86,3.76-2.2,6.55-3.7,10.58-2.08-1.18-5.55.62-7.33-1.06"/><path class="cls-14" d="M177.18,237.16c-4.24-2.31-9.11-.22-13.87.58-7.76,1.3-15.81,2.72-22.23,7.26a5.91,5.91,0,0,0-1.46,1.36,5.65,5.65,0,0,0-.73,2.87c-.58,11.66,6.75,22.25,8.39,33.8a70.66,70.66,0,0,1,.43,10.69l-.15,13q20.72-6.12,41.72-11.23c-1.06-18.15-5.43-35.93-9.78-53.59-.55-2.21-1.61-4.39-2.32-4.78"/><path class="cls-14" d="M138.89,249.23a5.56,5.56,0,0,1,.74-2.87,5.7,5.7,0,0,1,1.45-1.36c.67-.47,1.36-.91,2.07-1.31a35.39,35.39,0,0,1,4.34,4.23,30.6,30.6,0,0,1,5.24,9.38c2.59,6.87,3.81,14.15,6.15,21.09A16.93,16.93,0,0,0,161,283a5,5,0,0,0,4.2,2.18,8.46,8.46,0,0,0,4.67-2.17,38.92,38.92,0,0,0,4.08-3.83c1.28-1.42,2.39-3,3.59-4.45.55-.69,1.23-1.24,1.75-2a16.41,16.41,0,0,0,1.19-2.37,16.85,16.85,0,0,0,1.26-5.75,36.56,36.56,0,0,0,0-6.19,100.51,100.51,0,0,0-1.6-11.84,26.25,26.25,0,0,0-3.67-9.79c.24.11.47.21.7.34.71.39,1.77,2.57,2.32,4.78,4.35,17.66,8.72,35.44,9.78,53.59q-21,5.1-41.72,11.23l.15-13a69.38,69.38,0,0,0-.43-10.69c-1.64-11.55-9-22.14-8.39-33.8"/><path class="cls-14" d="M175.05,257.35c-1.43,3.85-1,8.18-2.21,12.09-1.34,4.18-4.54,7.51-8,10.22"/><path class="cls-14" d="M169.56,249.5a45.89,45.89,0,0,1-1.28,10.79,15.43,15.43,0,0,1-6,8.83"/><path class="cls-15" d="M161.31,233a18,18,0,0,0,2.86,7.51c-1.58,1.57-4,1.86-6.3,1.9a12.57,12.57,0,0,1-3.3-.29.74.74,0,0,1-.33-.17.69.69,0,0,1-.14-.34q-1.23-7.15-2.27-14.33c2.28.39,4.64-.33,6.94,0a1.38,1.38,0,0,1,.63.2,1.41,1.41,0,0,1,.46.64,18.71,18.71,0,0,1,1.45,4.91"/><path class="cls-16" d="M155.41,234.56c-1.93-2-2.25-4.92-3.57-7.29,2.28.39,4.63-.33,6.93,0a1.38,1.38,0,0,1,.63.2,1.41,1.41,0,0,1,.46.64,18.71,18.71,0,0,1,1.45,4.91,18.33,18.33,0,0,0,1.17,4.31,9.14,9.14,0,0,1-7.07-2.74"/><path class="cls-15" d="M163.18,221.06c.51,1.64.56,3.38,1,5,.6,2.26,1.93,4.61,1.07,6.78a4.87,4.87,0,0,1-4.72,2.7,8.65,8.65,0,0,1-5.2-2.37,13.21,13.21,0,0,1-4.43-9.7,3.45,3.45,0,0,1,1.43-3.26,11.4,11.4,0,0,1,4.88-2c2.69-.55,5.46,1.2,6,2.84"/><path d="M157.93,216.17a5.25,5.25,0,0,1,4.65,4,.63.63,0,0,1,0,.45c-.16.25-.54.21-.81.09a1.3,1.3,0,0,0-.84-.22c-.47.12-.5.75-.66,1.19a2.61,2.61,0,0,1-2.18,1.31,4.79,4.79,0,0,1-2.63-.19c-.55-.24-1-.64-1.59-.84a1.31,1.31,0,0,0-1.6.41c-.35.65.28,1.47,0,2.16a1.39,1.39,0,0,1-1.24.74,2.74,2.74,0,0,1-2.35-1.29,3.82,3.82,0,0,1-.45-2.65,5.15,5.15,0,0,1,1.29-2.58c1.58-1.71,4.09-2.2,6.43-2.59.92-.15,1.95-.28,2,0"/><path d="M155.61,216.28l6.6-1.76a5.64,5.64,0,0,1,1.86-.28,3.73,3.73,0,0,1,2.26,1.16,5.08,5.08,0,0,1,1.17,5.23,3.16,3.16,0,0,1-3,2.24c-1.42-.12-2.33-1.47-3.62-2.06a1.05,1.05,0,0,0-.88-.07,2.1,2.1,0,0,0-.37.36,1.79,1.79,0,0,1-1.59.43,2.86,2.86,0,0,1-1.47-.81,4.1,4.1,0,0,1-1-4.44"/><path d="M152.88,221.2a8.63,8.63,0,0,0,.26,4.25,2.09,2.09,0,0,1,.14.56,1.87,1.87,0,0,1-.12.65c-.29,1-.57,1.94-.86,2.91-1.77-.86-3.23-2.85-4-6.47-.13-.63,0-.73.28-1.31.49-.95,1.72-1.2,2.8-1.28a2.15,2.15,0,0,1,1,.12c.32.15.56.51.49.57"/><path class="cls-15" d="M153.24,226.26a2.45,2.45,0,0,0-2.49-.89c-1.61.39,0,3.38,2.7,3.76a.79.79,0,0,0,1-1.19,3.54,3.54,0,0,0-1.19-1.68"/><path class="cls-17" d="M262.09,231.3h27.14a8.23,8.23,0,0,1,8.23,8.23v7.4a8.22,8.22,0,0,1-8.22,8.22H262.09a8.23,8.23,0,0,1-8.23-8.23v-7.4A8.23,8.23,0,0,1,262.09,231.3Z"/><path class="cls-17" d="M262.09,258h27.14a8.23,8.23,0,0,1,8.23,8.23v7.4a8.22,8.22,0,0,1-8.22,8.22H262.09a8.23,8.23,0,0,1-8.23-8.23v-7.4A8.23,8.23,0,0,1,262.09,258Z"/><path class="cls-18" d="M179.71,363.11V193A15.3,15.3,0,0,1,195,177.76h83.53A15.3,15.3,0,0,1,293.8,193V363.11a15.29,15.29,0,0,1-15.28,15.28H195A15.29,15.29,0,0,1,179.71,363.11ZM195,183.63a9.43,9.43,0,0,0-9.42,9.41V363.11a9.44,9.44,0,0,0,9.42,9.42h83.53a9.44,9.44,0,0,0,9.42-9.42V193a9.43,9.43,0,0,0-9.42-9.41Z"/><path class="cls-19" d="M185.26,361.17a12,12,0,0,0,11.81,12.16H277a12,12,0,0,0,11.81-12.16V193.78A12,12,0,0,0,277,181.63H197.07a12,12,0,0,0-11.81,12.15Z"/><path class="cls-20" d="M286.68,359.31a162.56,162.56,0,0,1-24.05-18.76c-15.36-14.1-27.52-32.7-37-51.16C215.78,270.1,209,249.83,204,228.78c-2.63-11.07-5-22.22-7.48-33.32-1-4.31-2.48-8.7-3.37-13.12a12.14,12.14,0,0,0-7.85,11.44V361.17a12,12,0,0,0,11.81,12.16H277a12,12,0,0,0,11.81-12.16v-.62C288.09,360.15,287.37,359.74,286.68,359.31Z"/><path class="cls-15" d="M142.1,249.43c5.28,3.11,7.27,9,8.49,14.46A114.27,114.27,0,0,1,153,279.58a6.16,6.16,0,0,0,.81,3.14c1.54,2.26,5.24,2.17,8.25,1.95,7.32-.54,14.23,1.69,21.92,1.12a10.46,10.46,0,0,0-1.26,6.26c-10.3,1.74-20.83,3.49-31.21,2.21a21.76,21.76,0,0,1-8.19-2.37c-5.24-3.05-7-9-8-14.43a117.1,117.1,0,0,1-1.82-17.6c-.08-2.76,0-5.7,1.79-8s5.72-3.12,6.86-2.45"/><path class="cls-13" d="M140.7,245.3c3.11.71,5.1,3.56,6.51,6.28A50.93,50.93,0,0,1,153,274.06a139.29,139.29,0,0,0-18,.51c-1.13-4.62-2-9.3-2.72-14a17.17,17.17,0,0,1,.08-7.45,13.73,13.73,0,0,1,2.32-4.24c1.8-2.36,4.42-4,6.11-3.58"/><path class="cls-15" d="M182.5,285.86c2.46-.21,3.58-.38,5.23-1.34a10.59,10.59,0,0,1,4.52-1.48c.33,0,.74.24.66.56s-.32.32-.54.39c-.88.28-4,2.08-3.23,1.78a33.63,33.63,0,0,0,6.58.09,3.19,3.19,0,0,1,1.27.05c.41.12,1,.53.81.89s-4.3.56-6.46.84l5.46.14c.44,0,1.1.27.91.67-.24.55-4.51.56-6.77.84l5.17.32c.69,0,2,.42,1.39.82-1,.73-4.53.41-7,.49l3.25.47c.36.05.84.3.67.63-.08.17-.3.21-.48.23-4.13.51-7.77-.06-12.42,0,.39-2.13,0-4.33,1-6.39"/><polyline class="cls-21" points="231.79 180.92 231.79 65.92 287.8 65.92 287.8 90.47"/><circle class="cls-13" cx="287.79" cy="87.07" r="3.25"/><circle class="cls-13" cx="231.79" cy="177.76" r="3.25"/><path class="cls-22" d="M628.26,443.23c0,3.13-13.88,5.67-31,5.67s-31-2.54-31-5.67,13.88-5.67,31-5.67S628.26,440.1,628.26,443.23Z"/><polyline class="cls-21" points="478.8 203.92 478.8 52.92 387.8 52.92 387.8 113.35"/><polyline class="cls-23" points="252.79 377.99 252.79 413.92 537.79 413.92 537.79 364.92"/><circle class="cls-13" cx="537.79" cy="372.42" r="3.25"/><rect class="cls-13" x="341.32" y="358.45" width="74.94" height="88.63"/><path class="cls-24" d="M382.67,418.26c-16-16.59-25-38.47-32.86-59.81h-8.48v88.63h74.94V437.3A70,70,0,0,1,382.67,418.26Z"/><rect class="cls-6" x="448.14" y="154.93" width="68.67" height="38.43"/><polyline class="cls-25" points="472.49 161.11 460.21 172.5 471.25 181.96"/><polyline class="cls-25" points="492.94 162.34 504.73 174.23 493.3 183.22"/><line class="cls-25" x1="489.39" y1="159.06" x2="473.51" y2="189.23"/><path d="M583.19,430.82c-3,3.51-8.49,3.36-12,6.24a2.13,2.13,0,0,0-.63.74,1.5,1.5,0,0,0,.79,1.76,4.15,4.15,0,0,0,2,.29l11.76-.36a3.13,3.13,0,0,0,1.25-.21,3.51,3.51,0,0,0,1.52-2.26c.89-2.7.94-5,1.84-7.75-2.61.06-3.94.78-6.54,1.55"/><path d="M570.53,437.8a2.13,2.13,0,0,1,.63-.74,15.75,15.75,0,0,1,4.89-2.42,4,4,0,0,0,3.25,1.79c.91.08,1.83.07,2.74.1a11.36,11.36,0,0,0,2.73-.22,9.32,9.32,0,0,0,3.77-1.82,24.18,24.18,0,0,1-.65,2.53,3.51,3.51,0,0,1-1.52,2.26,3.13,3.13,0,0,1-1.25.21l-11.76.36a4.15,4.15,0,0,1-2-.29,1.5,1.5,0,0,1-.79-1.76"/><path d="M611.29,292.19c3.62,20.88-5.91,49.67-13.56,69.44a25.94,25.94,0,0,0-2.49,16.14c.93,12.4-.59,24.11-2.17,36.45-.89,6.9-.82,10.7-1.82,18.49-1.9-.29-10.78-1.78-10.49-1.59-.93-7.35-4.3-51.42-.68-80.75a442,442,0,0,1,9.25-50.11c.16-.64,1.5-8.45,2.24-8.39,4.33.38,9.49.14,12.4.32Z"/><path class="cls-11" d="M597.73,361.63a267.88,267.88,0,0,0,11-34.19,17.8,17.8,0,0,0-1.57,1.67A51.35,51.35,0,0,0,600.63,340c-4.11,8.68-8.65,17.87-10.44,27.37-2,10.67-.48,21.71-.13,32.47s-.91,21.55-1.81,32.35l3,.48c1-7.79.93-11.59,1.82-18.49,1.58-12.34,3.1-24.05,2.17-36.45a25.94,25.94,0,0,1,2.49-16.14Z"/><path d="M617.12,435c-3,3.51-8.48,3.36-12,6.24a1.93,1.93,0,0,0-.62.74,1.48,1.48,0,0,0,.79,1.76,4,4,0,0,0,2,.28l11.76-.35a3.13,3.13,0,0,0,1.25-.21,3.51,3.51,0,0,0,1.52-2.27c.89-2.69.95-5,1.84-7.74-2.61.05-3.94.78-6.54,1.55"/><path d="M625.29,286.77a154.67,154.67,0,0,1,4.22,69.29,50.69,50.69,0,0,0-1.16,10.75c.15,3.43,1.11,6.77,1.8,10.13,4,19.78.05,40.37-6.15,59.59-2.84-.49-6.63-1.11-9.47-1.59,2.7-23.36-5-50-6.42-73.44-.48-8-.78-20.06-1.91-28-2.86-20-2.11-24.69-2.23-41.65a105.37,105.37,0,0,0,21.32-5.1"/><path class="cls-11" d="M630.15,376.94c-.69-3.36-1.65-6.7-1.8-10.13a50.69,50.69,0,0,1,1.16-10.75,154.67,154.67,0,0,0-4.22-69.29c-2,.76-4.75,1.6-7.71,2.39,6,9.86,6.56,22.95,7,34,.34,8.83,0,17.55-.4,26.37-.5,10.32.48,20,2,30.24,1.39,9.12,1.68,17.53-.06,26.61-1.26,6.58-2,13.24-3.21,19.82A86.36,86.36,0,0,1,620.6,436l3.4.57C630.2,417.31,634.19,396.72,630.15,376.94Z"/><path class="cls-13" d="M606.57,236.27c4.85.09,10.27.42,13.58,3.91s3.26,8.92,3,13.74c-.63,12.19-.83,25.22,5.74,35.58a59.86,59.86,0,0,1-41.15,2.17c1.26-8.38,2.27-17,.34-25.26C586.36,259,582.37,251,586,244.24c2-3.61,5.87-5.9,9.91-6.92s8.28-.9,10.64-1"/><path class="cls-13" d="M589.48,280.52a22.57,22.57,0,0,0,2.47.11,21.71,21.71,0,0,0,2.4-.36,37.37,37.37,0,0,0,4.31-.87,20,20,0,0,0,11.77-10.52c2.67-5.53,3.19-11.54,3.12-17.59-.07-5.12-.92-10.43-3.6-14.89,3.84.28,7.65,1.09,10.2,3.78,3.34,3.53,3.26,8.92,3,13.74-.63,12.19-.83,25.22,5.74,35.58a59.86,59.86,0,0,1-41.15,2.17c.55-3.7,1.06-7.45,1.29-11.19l.43,0"/><path class="cls-13" d="M605.79,261.25a22.79,22.79,0,0,1-14.09-15.13"/><path class="cls-13" d="M598.06,263a21.07,21.07,0,0,1-7.15-8.8"/><path d="M606.23,222.54c.91,3,4.55,4.06,6.5,6.48,1.74,2.17,2.16,5.47,4.59,6.83,2,1.14,4.76.48,6.64,1.83,2.15,1.53,2.13,4.87,4,6.69a5.64,5.64,0,0,0,3.32,1.39c5,.52,9.82-4.33,9.27-9.33-.21-1.83-1-3.54-1.35-5.35s-.13-3.93,1.29-5.09a17.87,17.87,0,0,1,2-1.15c3.07-1.87,3.56-6.59,1.4-9.45s-6.25-3.83-9.72-2.91c-2,.52-4.42,1.48-5.84,0a10.52,10.52,0,0,1-1.16-2,5,5,0,0,0-4.77-2.2,7.83,7.83,0,0,0-4.78,2.58c-.85.91-.68,3.6-1.54,4.52-2,2.16-4.84-.35-6.39.11-1,.29-4.14,4.93-3.48,7.07"/><path class="cls-15" d="M599.51,232a19.28,19.28,0,0,1-1.44,8.22c1.86,1.31,4.35,1.15,6.6.78a11.94,11.94,0,0,0,3.23-.91.73.73,0,0,0,.3-.22.51.51,0,0,0,.06-.38c-1.27-4.63-1.17-9-.33-14.53-2.19.83-4.74,0-7,.68a1.46,1.46,0,0,0-.59.31,1.55,1.55,0,0,0-.33.75,19.59,19.59,0,0,0-.53,5.3"/><path class="cls-16" d="M605.66,232.48c1.54-2.45,1.32-5.45,2.19-8.13-2.18.83-4.66.52-6.89,1.25a1.46,1.46,0,0,0-.59.31,1.55,1.55,0,0,0-.33.75,19.59,19.59,0,0,0-.53,5.3,19.44,19.44,0,0,1-.36,4.63,9.16,9.16,0,0,0,6.51-4.11"/><path class="cls-15" d="M596.16,219.27c-.44,1.72-.88,3.24-1.25,5-.51,2.38-1.2,4.19-.24,6.42a5.14,5.14,0,0,0,4.83,3.24,7.38,7.38,0,0,0,5.1-2.28,13.88,13.88,0,0,0,4.06-10.25,3.65,3.65,0,0,0-1.59-3.34,11.3,11.3,0,0,0-5-1.93c-2.74-.48-5.46,1.45-5.91,3.17"/><path d="M595.67,213.44c-2.41,1.45-3.46,3.06-2.33,4.88.73,1.19,1.81.39,2.17.43s.63.67.87,1.1a2.62,2.62,0,0,0,2.41.94,4.67,4.67,0,0,0,2.57-.68c.5-.35.9-.84,1.42-1.15a1.33,1.33,0,0,1,1.68.12c.46.61,0,1.56.39,2.22a1.35,1.35,0,0,0,1.36.52,2.72,2.72,0,0,0,2.1-1.74,4.09,4.09,0,0,0,0-2.8,5.4,5.4,0,0,0-1.75-2.41c-1.89-1.46-3.85-.23-5.81-1.6-1.63-1.15-4.77,0-5,.17"/><path d="M605.7,218.33a9.4,9.4,0,0,1,.52,4.4,2,2,0,0,0,0,.6,2.24,2.24,0,0,0,.23.64c.47.94.94,1.88,1.4,2.82,1.6-1.2,3.76-2.84,3.06-6.35a6.79,6.79,0,0,0-.78-2.31c-1.91-2.59-3.74-.69-4-.48s-.47.63-.38.68"/><path class="cls-15" d="M607,225.26a2.46,2.46,0,0,1,2.67-.26c1.46.82-.89,3.41-3.66,3.09-.39-.05-.83-.21-.93-.59a1.08,1.08,0,0,1,.3-.87,3.61,3.61,0,0,1,1.62-1.37"/><rect class="cls-19" x="418.46" y="200.92" width="172.31" height="168"/><rect class="cls-20" x="418.46" y="200.92" width="172.25" height="20.87"/><path class="cls-2" d="M433,209.61a3.22,3.22,0,1,1-3.22-3.21A3.21,3.21,0,0,1,433,209.61Z"/><path class="cls-2" d="M447.84,209.61a3.22,3.22,0,1,1-3.22-3.21A3.21,3.21,0,0,1,447.84,209.61Z"/><path class="cls-2" d="M462.73,209.61a3.22,3.22,0,1,1-3.22-3.21A3.21,3.21,0,0,1,462.73,209.61Z"/><path class="cls-26" d="M563.71,349.36c-21.87-8.93-41.09-22.55-59.19-37.56-33.45-27.75-62.47-66.06-64.44-110.88H418.46v168H590.77v-11.5A157.52,157.52,0,0,1,563.71,349.36Z"/><path d="M597.8,224.26c0,.32-.3.55-.54.51a.54.54,0,0,1-.34-.66c.05-.33.3-.56.54-.52A.55.55,0,0,1,597.8,224.26Z"/><path d="M602.43,224.85c-.06.32-.3.55-.54.51a.53.53,0,0,1-.34-.66c.05-.32.29-.55.54-.51S602.48,224.52,602.43,224.85Z"/><path d="M596.48,222.83a1.46,1.46,0,0,1,.42-.32.6.6,0,0,1,.43-.06,1.25,1.25,0,0,1,.78.47.26.26,0,0,0,.34.09.25.25,0,0,0,.09-.34,1.72,1.72,0,0,0-1.11-.71,1.18,1.18,0,0,0-.72.08,2.29,2.29,0,0,0-.59.43c-.22.24.13.59.36.36Z"/><path d="M601.47,223.35a1.5,1.5,0,0,1,1.11-.23,1,1,0,0,1,.67.67c.07.31.56.18.48-.13a1.39,1.39,0,0,0-1-1,2,2,0,0,0-1.53.27.25.25,0,0,0,.25.43Z"/><path class="cls-27" d="M599.35,224a2.43,2.43,0,0,1-.35,1.6,4,4,0,0,0-.83,1.49,1.21,1.21,0,0,0,.64,1.21,2.72,2.72,0,0,0,1.69.19c.32,0,.32-.54,0-.5a2.15,2.15,0,0,1-1.52-.17c-.43-.3-.35-.79-.1-1.19a8.16,8.16,0,0,0,.8-1.29,3,3,0,0,0,.15-1.48c0-.31-.52-.18-.48.14Z"/><path class="cls-27" d="M598.29,230.33a3.19,3.19,0,0,0,3.24-.12c.26-.18,0-.61-.25-.43a2.69,2.69,0,0,1-2.74.12.25.25,0,0,0-.25.43Z"/><rect class="cls-2" x="198.04" y="199.09" width="78" height="8"/><rect class="cls-2" x="198.04" y="212.42" width="50" height="8"/><rect class="cls-2" x="198.04" y="323.75" width="72" height="8"/><rect class="cls-2" x="198.04" y="337.09" width="72" height="8"/><rect class="cls-2" x="198.04" y="351.09" width="58" height="8"/><path class="cls-2" d="M273,250.49l-5.13-6.76a3.65,3.65,0,0,0-5.12-.6l-2.2,1.66a4.09,4.09,0,0,1-4.69.24,33.59,33.59,0,0,0-3.35-1.88,3.82,3.82,0,0,1-2.1-4.08l.41-2.67a3.44,3.44,0,0,0-3.05-4l-8.62-1a3.81,3.81,0,0,0-4.19,3.17l-.42,2.66a4.26,4.26,0,0,1-3.29,3.46,34.86,34.86,0,0,0-3.82,1,4,4,0,0,1-4.45-1.29l-1.6-2.11a3.65,3.65,0,0,0-5.11-.6l-7.06,5.35a3.63,3.63,0,0,0-.81,5.08l1.6,2.1a4,4,0,0,1,0,4.64,35.26,35.26,0,0,0-2,3.38,4.21,4.21,0,0,1-4.21,2.23l-2.68-.31a3.83,3.83,0,0,0-4.2,3.18l-1.35,8.56a3.46,3.46,0,0,0,3.05,4l2.68.31a3.82,3.82,0,0,1,3.37,3.13,30.45,30.45,0,0,0,.92,3.71,4.12,4.12,0,0,1-1.5,4.46l-2.2,1.66a3.64,3.64,0,0,0-.8,5.08l5.14,6.76a3.64,3.64,0,0,0,5.12.59l2.2-1.65a4.05,4.05,0,0,1,4.69-.24,32.36,32.36,0,0,0,3.34,1.88,3.81,3.81,0,0,1,2.1,4.08l-.43,2.66a3.47,3.47,0,0,0,3.06,4l8.63,1a3.83,3.83,0,0,0,4.19-3.17l.42-2.66a4.25,4.25,0,0,1,3.29-3.45,37.08,37.08,0,0,0,3.81-1,4,4,0,0,1,4.46,1.3l1.59,2.1a3.67,3.67,0,0,0,5.13.59l7.05-5.34a3.62,3.62,0,0,0,.8-5.09l-1.58-2.1a3.9,3.9,0,0,1-.07-4.62,35.83,35.83,0,0,0,2-3.39,4.26,4.26,0,0,1,4.22-2.23l2.69.3a3.82,3.82,0,0,0,4.18-3.17l1.36-8.56a3.45,3.45,0,0,0-3.05-4l-2.69-.31a3.84,3.84,0,0,1-3.36-3.13,32.36,32.36,0,0,0-.91-3.71,4.07,4.07,0,0,1,1.49-4.46l2.2-1.66A3.63,3.63,0,0,0,273,250.49Zm-23,36.26c-9.34,8.26-23.52,6.61-29.95-3.47-5.07-7.93-3.34-18.77,4-25.27,9.33-8.24,23.5-6.59,29.94,3.5C259.07,269.43,257.35,280.27,250,286.75Z"/><circle class="cls-13" cx="252.79" cy="379.8" r="3.25"/><circle class="cls-13" cx="337.49" cy="413.92" r="3.25"/><circle class="cls-13" cx="387.79" cy="113.59" r="3.25"/><path d="M161.32,225.7c.05.33.3.56.54.52s.39-.34.34-.67-.3-.55-.54-.51A.54.54,0,0,0,161.32,225.7Z"/><path d="M156.69,226.3c.06.32.3.55.54.51a.53.53,0,0,0,.34-.66c0-.33-.29-.56-.54-.52S156.64,226,156.69,226.3Z"/><path d="M163,223.92a2.1,2.1,0,0,0-.57-.42,1.12,1.12,0,0,0-.74-.09,1.75,1.75,0,0,0-1.11.7.25.25,0,1,0,.43.25,1.3,1.3,0,0,1,.78-.47.72.72,0,0,1,.41.05,1.48,1.48,0,0,1,.44.34c.23.23.58-.12.36-.36Z"/><path d="M157.9,224.37a2,2,0,0,0-1.53-.28,1.43,1.43,0,0,0-1,1,.25.25,0,0,0,.48.14.91.91,0,0,1,.67-.67,1.46,1.46,0,0,1,1.11.23.25.25,0,0,0,.25-.43Z"/><path class="cls-27" d="M159.74,225.76a3.1,3.1,0,0,0,.46,1.38,6.7,6.7,0,0,0,1.06,1.07c.34.34.55.8.19,1.2a2,2,0,0,1-1.4.5c-.32,0-.32.54,0,.5a2.79,2.79,0,0,0,1.59-.49,1.22,1.22,0,0,0,.44-1.36c-.2-.56-.69-.86-1.1-1.25a2.52,2.52,0,0,1-.74-1.55c0-.32-.52-.32-.5,0Z"/><path class="cls-27" d="M161.36,232.06a2.67,2.67,0,0,1-2.73-.11c-.27-.18-.52.25-.26.43a3.18,3.18,0,0,0,3.25.11c.28-.15,0-.58-.26-.43Z"/><rect class="cls-2" x="486.29" y="242.25" width="87.5" height="6"/><rect class="cls-2" x="486.29" y="254.92" width="87.5" height="6"/><rect class="cls-2" x="486.29" y="268.92" width="56.83" height="6"/><rect class="cls-2" x="486.29" y="290.92" width="86.17" height="6"/><rect class="cls-2" x="486.29" y="304.25" width="86.17" height="6"/><rect class="cls-2" x="486.29" y="320.25" width="86.17" height="6"/><rect class="cls-2" x="486.29" y="338.92" width="86.17" height="6"/><rect class="cls-2" x="449.96" y="272.92" width="23.83" height="6"/><rect class="cls-2" x="449.96" y="254.92" width="23.83" height="6"/><rect class="cls-2" x="427.3" y="242.25" width="46.5" height="6"/><rect class="cls-2" x="432.05" y="286.25" width="41.75" height="6"/><rect class="cls-2" x="454.71" y="301.59" width="19.08" height="6"/><rect class="cls-2" x="440.92" y="316.92" width="32.88" height="6"/><rect class="cls-2" x="447.59" y="342.25" width="26.21" height="6"/><path class="cls-15" d="M610.16,264.48c-7.45,4.27-18.95,11.93-24.88,12.86a22.81,22.81,0,0,1-9.15-.55c-8.31-2.13-12.08-6.87-19.75-10.73,1.54-1.82.6-.7,1.47-2.93,7.34,2.38,25.72,11.07,37.2-.59,9.08-9.21,10-9.23,16.94-12.25,1.51-.66,4.93-1.75,6.4-1s5,7.64-8.23,15.22"/><path class="cls-15" d="M557.14,266.2a27.66,27.66,0,0,1-6.52-1.19c-.67-.24-1.59-.41-1.79-1.09.34-.4.46-.11,1.38.14a3.15,3.15,0,0,0,1.67.23,10.27,10.27,0,0,1-5-3.13,1,1,0,0,1,1-.07,4.22,4.22,0,0,1,.87.6,5.25,5.25,0,0,0,2.49,1c-1.58-.75-3.27-1.62-4-3.21a.67.67,0,0,1,.77-.16,2.19,2.19,0,0,1,.68.49,7,7,0,0,0,2.76,1.46,9.78,9.78,0,0,1-3.42-3.13c.34-.38.95,0,1.34.31a8.09,8.09,0,0,0,3.3,1.74c.17,0,1,.34,1.14.2s-.45-1.64-.52-2.22.18-1.16.7-1.22c1,2.57,2.26,5.37,4.75,6.59a22,22,0,0,0-1.65,2.65"/><path class="cls-14" d="M620.65,241.19l-.37,0a8.84,8.84,0,0,0-3.83,1.86,124.35,124.35,0,0,0-16.59,14.16,1.26,1.26,0,0,0-.4.62,1.29,1.29,0,0,0,.35.87,56.93,56.93,0,0,0,8.91,9.38,38.47,38.47,0,0,0,12.57-15.45,16.25,16.25,0,0,0,1.32-4.16,10.47,10.47,0,0,0-1.67-7Z"/><path class="cls-2" d="M410.35,391.39a8.6,8.6,0,0,1-8.61,8.61h-45.9a8.6,8.6,0,0,1-8.6-8.61h0a8.6,8.6,0,0,1,8.6-8.6h45.9a8.6,8.6,0,0,1,8.61,8.6Z"/><path class="cls-2" d="M410.35,411a8.61,8.61,0,0,1-8.61,8.61h-45.9a8.61,8.61,0,0,1-8.6-8.61h0a8.61,8.61,0,0,1,8.6-8.61h45.9a8.61,8.61,0,0,1,8.61,8.61Z"/><path class="cls-2" d="M410.35,430.54a8.61,8.61,0,0,1-8.61,8.61h-45.9a8.61,8.61,0,0,1-8.6-8.61h0a8.6,8.6,0,0,1,8.6-8.6h45.9a8.6,8.6,0,0,1,8.61,8.6Z"/><rect class="cls-14" x="352.47" y="385.83" width="52.64" height="10.97"/><rect class="cls-14" x="352.47" y="405.48" width="52.64" height="10.97"/><rect class="cls-14" x="352.47" y="425.06" width="52.64" height="10.97"/><rect class="cls-13" x="364.83" y="388.57" width="27.93" height="2.71"/><path class="cls-2" d="M410.35,371.44a8.6,8.6,0,0,1-8.61,8.6h-45.9a8.61,8.61,0,0,1-8.61-8.6h0a8.61,8.61,0,0,1,8.61-8.61h45.9a8.6,8.6,0,0,1,8.61,8.61Z"/><rect class="cls-14" x="352.47" y="365.87" width="52.64" height="10.97"/><rect class="cls-13" x="364.83" y="368.61" width="27.93" height="2.71"/><rect class="cls-13" x="364.83" y="408.15" width="27.93" height="2.7"/><rect class="cls-13" x="364.83" y="427.72" width="27.93" height="2.7"/><line class="cls-28" x1="354.19" y1="373.19" x2="402.13" y2="373.19"/><line class="cls-28" x1="353.92" y1="393.69" x2="403.19" y2="393.69"/><line class="cls-28" x1="354.46" y1="413.66" x2="403.19" y2="413.66"/><line class="cls-28" x1="354.99" y1="433.64" x2="403.19" y2="433.64"/><rect class="cls-3" x="416.27" y="409" width="3.86" height="9.81"/><circle class="cls-13" cx="420.13" cy="413.9" r="3.25"/></g></g></svg>